<?xml version="1.0" encoding="UTF-8" standalone="no"?>
<!-- Created with Inkscape (http://www.inkscape.org/) -->

<svg
   xmlns:dc="http://purl.org/dc/elements/1.1/"
   xmlns:cc="http://creativecommons.org/ns#"
   xmlns:rdf="http://www.w3.org/1999/02/22-rdf-syntax-ns#"
   xmlns:svg="http://www.w3.org/2000/svg"
   xmlns="http://www.w3.org/2000/svg"
   xmlns:sodipodi="http://sodipodi.sourceforge.net/DTD/sodipodi-0.dtd"
   xmlns:inkscape="http://www.inkscape.org/namespaces/inkscape"
   width="45"
   height="380"
   viewBox="0 0 11.906251 100.54167"
   version="1.1"
   id="svg8"
   inkscape:version="0.92.3 (2405546, 2018-03-11)"
   sodipodi:docname="CVConverterModule.svg">
  <title
     id="title4816">Autinn CVConverter</title>
  <defs
     id="defs2">
    <inkscape:path-effect
       effect="spiro"
       id="path-effect923"
       is_visible="true" />
    <inkscape:path-effect
       effect="spiro"
       id="path-effect1440"
       is_visible="true" />
    <inkscape:path-effect
       effect="spiro"
       id="path-effect4668"
       is_visible="true" />
    <inkscape:path-effect
       effect="spiro"
       id="path-effect2944"
       is_visible="true" />
  </defs>
  <sodipodi:namedview
     id="base"
     pagecolor="#ffffff"
     bordercolor="#666666"
     borderopacity="1.0"
     inkscape:pageopacity="0.0"
     inkscape:pageshadow="2"
     inkscape:zoom="2.3579016"
     inkscape:cx="-99.931614"
     inkscape:cy="187.39525"
     inkscape:document-units="px"
     inkscape:current-layer="layer1"
     showgrid="true"
     units="px"
     inkscape:snap-bbox="false"
     inkscape:snap-page="true"
     inkscape:bbox-nodes="false"
     inkscape:snap-bbox-edge-midpoints="false"
     inkscape:window-width="1920"
     inkscape:window-height="1017"
     inkscape:window-x="-8"
     inkscape:window-y="-8"
     inkscape:window-maximized="1"
     inkscape:snap-grids="true"
     inkscape:snap-to-guides="false"
     inkscape:snap-global="false"
     inkscape:pagecheckerboard="true"
     inkscape:snap-nodes="false"
     inkscape:snap-others="false">
    <inkscape:grid
       type="xygrid"
       id="grid4367" />
  </sodipodi:namedview>
  <metadata
     id="metadata5">
    <rdf:RDF>
      <cc:Work
         rdf:about="">
        <dc:format>image/svg+xml</dc:format>
        <dc:type
           rdf:resource="http://purl.org/dc/dcmitype/StillImage" />
        <dc:title>Autinn CVConverter</dc:title>
      </cc:Work>
    </rdf:RDF>
  </metadata>
  <g
     inkscape:label="Layer 1"
     inkscape:groupmode="layer"
     id="layer1"
     transform="translate(0,-196.45832)">
    <path
       style="opacity:1;vector-effect:none;fill:#202020;fill-opacity:1;fill-rule:evenodd;stroke:none;stroke-width:0.3437039;stroke-linecap:butt;stroke-linejoin:round;stroke-miterlimit:4;stroke-dasharray:none;stroke-dashoffset:0;stroke-opacity:1;paint-order:normal"
       d="M 0,196.45831 H 11.906251 V 296.99999 H 0 Z"
       id="rect817"
       inkscape:connector-curvature="0" />
    <path
       style="fill:none;stroke:#5e110a;stroke-width:4.23333359;stroke-linecap:butt;stroke-linejoin:miter;stroke-miterlimit:4;stroke-dasharray:none;stroke-opacity:1"
       d="m -0.71137978,197.05113 c 8.42561448,10.81505 12.31335078,25.05552 10.55213338,38.65164 -0.9814779,7.57674 -3.6118537,14.82432 -5.6336774,22.19199 -2.0218237,7.36767 -3.44519738,15.13175 -1.9543736,22.62493 1.3031826,6.55006 4.8727853,12.62689 9.9593164,16.95456"
       id="path921" />
    <g
       aria-label="Autinn"
       style="font-style:normal;font-weight:normal;font-size:7.05555534px;line-height:1.25;font-family:sans-serif;letter-spacing:0px;word-spacing:0px;fill:#ffd700;fill-opacity:1;stroke:none;stroke-width:0.26458332"
       id="text3739"
       transform="matrix(0.476,0,0,0.476,0.28574709,151.50542)">
      <path
         d="m 5.0556776,289.41931 q -0.1756999,-0.37896 -0.3858507,-0.93706 -0.2101508,-0.55811 -0.4409722,-1.25057 -0.1171332,0.32728 -0.4375271,0.9095 -0.3169488,0.58223 -0.7820367,1.31948 0.106798,0.007 0.2239312,0.007 0.1205784,0 0.3617351,0 0.3927408,0 0.7544759,-0.0103 0.3651801,-0.0138 0.7062445,-0.0379 z m 0.1481391,0.35485 q -0.099908,0 -0.2480469,0.003 -0.144694,0.003 -0.1963704,0.003 -1.2057834,0 -1.6467556,0.13436 -0.4409722,0.13436 -0.7165798,0.50643 -0.3135037,0.4203 -0.6924642,1.01975 -0.3789605,0.596 -0.4719781,0.596 -0.041341,0 -0.065457,-0.0241 -0.027561,-0.0241 -0.027561,-0.0689 0,-0.0413 0.4478624,-0.75448 0.4478624,-0.71658 0.8371581,-1.38148 0.7544759,-1.30225 1.1368815,-2.09806 0.3858507,-0.79582 0.3858507,-1.05765 0,-0.0344 -0.010335,-0.0758 -0.010335,-0.0448 -0.010335,-0.0517 0,-0.0413 0.2342665,-0.1688 0.2377116,-0.12747 0.323839,-0.12747 0.037896,0 0.2308214,0.65801 0.1929253,0.65457 0.4616427,1.33325 0.757921,1.93615 1.0610894,2.43568 0.3066135,0.49954 0.6028917,0.49954 0.082682,0 0.1722548,-0.0448 0.089573,-0.0482 0.1033528,-0.0482 0.020671,0 0.048231,0.0379 0.031006,0.0379 0.031006,0.0689 0,0.0207 -0.1550293,0.11714 -0.1550292,0.0965 -0.2928331,0.19292 -0.1274685,0.0965 -0.2928331,0.24116 -0.1619195,0.14125 -0.2067057,0.14125 -0.075792,0 -0.2928331,-0.42375 -0.2135959,-0.42375 -0.7510308,-1.66398 z"
         style="font-style:normal;font-variant:normal;font-weight:normal;font-stretch:normal;font-family:'Calligraph421 BT';-inkscape-font-specification:'Calligraph421 BT';stroke-width:0.26458332;fill:#ffd700;fill-opacity:1"
         id="path4612"
         inkscape:connector-curvature="0" />
      <path
         d="m 9.6410995,291.31067 q -0.2446018,0.12058 -0.6097819,0.31006 -0.4306369,0.22738 -0.5167643,0.22738 -0.4960938,0 -0.7269151,-0.31695 -0.2273763,-0.31695 -0.2273763,-1.00941 0,-0.16881 0.01378,-0.55811 0.01378,-0.39274 0.01378,-0.61323 0,-0.0482 -0.01378,-0.14469 -0.01378,-0.0999 -0.01378,-0.15159 0,-0.0276 0.1205783,-0.0654 0.096463,-0.031 0.1619195,-0.0551 0.1515842,-0.0551 0.3066135,-0.12058 0.1584744,-0.0689 0.1722547,-0.0689 0.051677,0 0.082682,0.0241 0.031006,0.0207 0.031006,0.0586 0,0.0413 -0.075792,0.11713 -0.072347,0.0758 -0.106798,0.13781 -0.082682,0.14124 -0.1205783,0.37551 -0.034451,0.23427 -0.034451,0.70969 0,0.65801 0.1584744,0.92329 0.1619195,0.26182 0.5477702,0.26182 0.1412489,0 0.3651801,-0.0654 0.2273763,-0.0655 0.4892035,-0.18604 v -1.5124 q 0,-0.40307 -0.1619194,-0.48575 -0.031006,-0.0138 -0.031006,-0.0276 0,-0.11025 0.082682,-0.13092 0.024116,-0.003 0.044786,-0.0103 0.1515842,-0.0551 0.323839,-0.14125 0.1722546,-0.0861 0.1998156,-0.0861 0.04479,0 0.103352,0.0551 0.05857,0.0551 0.05857,0.093 0,0.003 -0.0069,0.031 -0.04823,0.17914 -0.06546,0.43752 -0.01378,0.23771 -0.02067,0.63045 -0.0069,0.3893 -0.0069,0.86472 0,0.36863 0.02412,0.70625 0.0034,0.0517 0.0034,0.062 0,0.0792 -0.2377112,0.20671 -0.2377116,0.13091 -0.2962782,0.13091 -0.02067,0 -0.031006,-0.031 -0.00689,-0.0276 -0.00689,-0.0965 v -0.10335 q 0,-0.0758 0,-0.17226 0.00345,-0.0965 0.00689,-0.21015 z"
         style="font-style:normal;font-variant:normal;font-weight:normal;font-stretch:normal;font-family:'Calligraph421 BT';-inkscape-font-specification:'Calligraph421 BT';stroke-width:0.26458332;fill:#ffd700;fill-opacity:1"
         id="path4614"
         inkscape:connector-curvature="0" />
      <path
         d="m 11.346421,291.48637 q 0.0034,-0.30661 0.0034,-0.60289 0.0034,-0.29628 0.0034,-0.65801 0,-0.21704 -0.0034,-0.46165 0,-0.2446 -0.0034,-0.51331 h -0.19637 q -0.04479,0 -0.05857,-0.0103 -0.01033,-0.0138 -0.01378,-0.0586 0.0034,-0.0723 0.06201,-0.11713 0.02067,-0.0172 0.02756,-0.0241 l 0.799263,-0.72002 q 0.05512,-0.0551 0.07924,-0.0689 0.02412,-0.0172 0.04823,-0.0172 0.02412,0 0.04479,0.0207 0.02067,0.0172 0.02067,0.0448 0,0.0103 -0.03445,0.0827 -0.120578,0.25494 -0.151584,0.50988 h 1.036973 q 0.04823,0 0.06546,0.0344 0.02067,0.0344 0.02067,0.12057 0,0.10336 -0.02412,0.13092 -0.02412,0.0241 -0.158474,0.0241 h -0.981852 q -0.02412,0.30317 -0.0379,0.58912 -0.01034,0.28249 -0.01034,0.53743 0,0.61323 0.16881,0.8785 0.172255,0.26527 0.558105,0.26527 0.199816,0 0.416857,-0.0861 0.217041,-0.0896 0.230821,-0.0896 0.01378,0 0.02412,0.0172 0.01033,0.0138 0.01033,0.031 v 0.0517 q 0,0.13436 -0.36518,0.2825 -0.36518,0.14814 -0.706244,0.14814 -0.268718,0 -0.499539,-0.0896 -0.230822,-0.0896 -0.375516,-0.25149 z"
         style="font-style:normal;font-variant:normal;font-weight:normal;font-stretch:normal;font-family:'Calligraph421 BT';-inkscape-font-specification:'Calligraph421 BT';stroke-width:0.26458332;fill:#ffd700;fill-opacity:1"
         id="path4616"
         inkscape:connector-curvature="0" />
      <path
         d="m 14.677829,289.9223 v 1.55718 q 0,0.0482 -0.0069,0.10335 0,0.0138 0,0.0172 0,0.0482 -0.02412,0.0792 -0.02067,0.0276 -0.07579,0.0482 -0.124023,0.0413 -0.261827,0.0861 -0.137804,0.0482 -0.141249,0.0482 -0.02756,0 -0.04134,-0.062 -0.01378,-0.062 -0.01378,-0.31351 v -1.69843 q 0,-0.3893 -0.05512,-0.48576 -0.05512,-0.0999 -0.199816,-0.0999 -0.0379,0 -0.09991,0.0207 -0.05857,0.0207 -0.07579,0.0207 -0.0379,0 -0.06201,-0.0345 -0.02412,-0.0344 -0.02412,-0.093 0.0034,-0.0517 0.203261,-0.10336 0.141249,-0.0344 0.234266,-0.0654 0.16881,-0.0551 0.354845,-0.12747 0.186035,-0.0758 0.210151,-0.0758 0.03445,0 0.07235,0.0344 0.04134,0.0344 0.04134,0.0689 0,0.0138 -0.0034,0.0827 -0.03101,0.47887 -0.03101,0.99219 z m -0.347954,-3.00068 q 0.158474,0 0.268717,0.11369 0.113688,0.11369 0.113688,0.26872 0,0.15847 -0.110243,0.26527 -0.110243,0.1068 -0.272162,0.1068 -0.15503,0 -0.265273,-0.1068 -0.106798,-0.11024 -0.106798,-0.26527 0,-0.15848 0.106798,-0.26872 0.110243,-0.11369 0.265273,-0.11369 z"
         style="font-style:normal;font-variant:normal;font-weight:normal;font-stretch:normal;font-family:'Calligraph421 BT';-inkscape-font-specification:'Calligraph421 BT';stroke-width:0.26458332;fill:#ffd700;fill-opacity:1"
         id="path4618"
         inkscape:connector-curvature="0" />
      <path
         d="m 16.014526,291.70686 v -1.5813 q 0,-0.48576 -0.106798,-0.7028 -0.103353,-0.22049 -0.33073,-0.22049 -0.03101,0 -0.07924,0.0103 -0.04479,0.0103 -0.06201,0.0103 -0.03445,0 -0.05512,-0.0276 -0.01722,-0.0276 -0.01722,-0.0792 0,-0.0344 0.130913,-0.0792 0.09646,-0.031 0.151584,-0.0551 0.210151,-0.0861 0.389296,-0.20671 0.04823,-0.031 0.05512,-0.031 0.07235,0 0.20326,0.14814 0.130914,0.14469 0.199816,0.3445 0.347954,-0.2067 0.689019,-0.32383 0.341064,-0.12058 0.575331,-0.12058 0.389296,0 0.56155,0.29628 0.172255,0.29283 0.172255,0.98874 0,0.32039 -0.02067,0.70624 -0.01723,0.38585 -0.01723,0.44097 0,0.0861 0.03101,0.11714 0.03101,0.031 0.110243,0.031 0.04134,0 0.120578,-0.031 0.08268,-0.031 0.120579,-0.031 0.02756,0 0.04479,0.031 0.01722,0.031 0.01722,0.0827 0,0.0724 -0.19637,0.12402 -0.165365,0.0448 -0.282498,0.0861 -0.16881,0.0655 -0.341064,0.15159 -0.16881,0.0896 -0.189481,0.0896 -0.03445,0 -0.05857,-0.0241 -0.02412,-0.0207 -0.02412,-0.0551 0,-0.007 0.01378,-0.0517 0.148139,-0.50987 0.148139,-1.25401 0,-0.68557 -0.18259,-1.00252 -0.18259,-0.31695 -0.571886,-0.31695 -0.1757,0 -0.3514,0.0827 -0.172255,0.0827 -0.327284,0.23771 0,0.0482 0.0034,0.20326 0.0034,0.15159 0.0034,0.25494 0,0.5271 -0.0069,0.97841 -0.0069,0.44786 -0.02067,0.75792 l -0.403076,0.14125 q -0.0034,0 -0.01378,0.003 -0.01033,0.003 -0.02756,0.003 -0.03101,0 -0.04479,-0.0276 -0.01034,-0.0276 -0.01034,-0.0999 z"
         style="font-style:normal;font-variant:normal;font-weight:normal;font-stretch:normal;font-family:'Calligraph421 BT';-inkscape-font-specification:'Calligraph421 BT';stroke-width:0.26458332;fill:#ffd700;fill-opacity:1"
         id="path4620"
         inkscape:connector-curvature="0" />
      <path
         d="m 19.790351,291.70686 v -1.5813 q 0,-0.48576 -0.106798,-0.7028 -0.103353,-0.22049 -0.330729,-0.22049 -0.03101,0 -0.07924,0.0103 -0.04479,0.0103 -0.06201,0.0103 -0.03445,0 -0.05512,-0.0276 -0.01723,-0.0276 -0.01723,-0.0792 0,-0.0344 0.130914,-0.0792 0.09646,-0.031 0.151584,-0.0551 0.210151,-0.0861 0.389296,-0.20671 0.04823,-0.031 0.05512,-0.031 0.07235,0 0.203261,0.14814 0.130913,0.14469 0.199815,0.3445 0.347955,-0.2067 0.689019,-0.32383 0.341065,-0.12058 0.575331,-0.12058 0.389296,0 0.561551,0.29628 0.172255,0.29283 0.172255,0.98874 0,0.32039 -0.02067,0.70624 -0.01722,0.38585 -0.01722,0.44097 0,0.0861 0.03101,0.11714 0.03101,0.031 0.110244,0.031 0.04134,0 0.120578,-0.031 0.08268,-0.031 0.120578,-0.031 0.02756,0 0.04479,0.031 0.01723,0.031 0.01723,0.0827 0,0.0724 -0.196371,0.12402 -0.165364,0.0448 -0.282497,0.0861 -0.16881,0.0655 -0.341065,0.15159 -0.168809,0.0896 -0.18948,0.0896 -0.03445,0 -0.05857,-0.0241 -0.02412,-0.0207 -0.02412,-0.0551 0,-0.007 0.01378,-0.0517 0.148139,-0.50987 0.148139,-1.25401 0,-0.68557 -0.18259,-1.00252 -0.18259,-0.31695 -0.571886,-0.31695 -0.1757,0 -0.351399,0.0827 -0.172255,0.0827 -0.327285,0.23771 0,0.0482 0.0034,0.20326 0.0034,0.15159 0.0034,0.25494 0,0.5271 -0.0069,0.97841 -0.0069,0.44786 -0.02067,0.75792 l -0.403076,0.14125 q -0.0034,0 -0.01378,0.003 -0.01033,0.003 -0.02756,0.003 -0.03101,0 -0.04479,-0.0276 -0.01033,-0.0276 -0.01033,-0.0999 z"
         style="font-style:normal;font-variant:normal;font-weight:normal;font-stretch:normal;font-family:'Calligraph421 BT';-inkscape-font-specification:'Calligraph421 BT';stroke-width:0.26458332;fill:#ffd700;fill-opacity:1"
         id="path4622"
         inkscape:connector-curvature="0" />
    </g>
    <g
       style="font-style:normal;font-weight:normal;font-size:3.52777767px;line-height:1.25;font-family:sans-serif;letter-spacing:0px;word-spacing:0px;fill:#000000;fill-opacity:1;stroke:none;stroke-width:0.26458332"
       id="text4707" />
    <g
       style="font-style:normal;font-weight:normal;font-size:13.33333302px;line-height:1.25;font-family:sans-serif;letter-spacing:0px;word-spacing:0px;fill:#000000;fill-opacity:1;stroke:none"
       id="flowRoot4709" />
    <g
       style="font-style:normal;font-weight:normal;font-size:3.17500019px;line-height:1.25;font-family:sans-serif;letter-spacing:0px;word-spacing:0px;fill:#000000;fill-opacity:1;stroke:none;stroke-width:0.26458335"
       id="text1444" />
    <g
       aria-label="CONV"
       style="font-style:normal;font-variant:normal;font-weight:500;font-stretch:normal;font-size:2.11666679px;line-height:1.25;font-family:OldSansBlack;-inkscape-font-specification:'OldSansBlack, Medium';font-variant-ligatures:normal;font-variant-position:normal;font-variant-caps:normal;font-variant-numeric:normal;font-variant-alternates:normal;font-feature-settings:normal;text-indent:0;text-align:start;text-decoration:none;text-decoration-line:none;text-decoration-style:solid;text-decoration-color:#000000;letter-spacing:0px;word-spacing:0px;text-transform:none;writing-mode:lr-tb;direction:ltr;text-orientation:mixed;dominant-baseline:auto;baseline-shift:baseline;text-anchor:start;white-space:normal;shape-padding:0;opacity:1;vector-effect:none;fill:#ffffff;fill-opacity:1;stroke:none;stroke-width:0.26458335;stroke-linecap:butt;stroke-linejoin:miter;stroke-miterlimit:4;stroke-dasharray:none;stroke-dashoffset:0;stroke-opacity:1"
       id="text867">
      <path
         d="m 2.3026877,206.351 q 0.1605139,-0.11466 0.2797528,-0.28893 0.1238251,-0.17427 0.2247195,-0.43568 l -0.6879167,-0.17886 q -0.050447,0.11007 -0.1054806,0.20179 -0.055033,0.0917 -0.123825,0.16052 -0.068792,0.0642 -0.1651,0.10089 -0.091722,0.0367 -0.2247195,0.0367 -0.3393722,0 -0.4861278,-0.27058 -0.16051391,-0.27975 -0.16051391,-0.8255 0,-0.1009 0.004586,-0.22472 0.009172,-0.12383 0.0321028,-0.24765 0.0229306,-0.12841 0.0642056,-0.24765 0.0458612,-0.11924 0.11465276,-0.21096 0.068792,-0.0963 0.1696862,-0.15134 0.1054805,-0.0596 0.2430639,-0.0596 0.2384778,0 0.3668889,0.13758 0.1284111,0.13758 0.2017889,0.34854 l 0.6695723,-0.16051 q -0.087136,-0.2981 -0.206375,-0.48154 -0.1146528,-0.18803 -0.2751667,-0.28434 -0.3164417,-0.19262 -0.7337779,-0.19262 -0.3852333,0 -0.65122781,0.14676 -0.26599447,0.14675 -0.43109448,0.3944 -0.16051391,0.24307 -0.23389169,0.55951 -0.0687917,0.31644 -0.0687917,0.65123 0,0.33937 0.0687917,0.65581 0.0733778,0.31186 0.23389169,0.55951 0.1605139,0.24306 0.42650837,0.38982 0.26599442,0.14675 0.65122782,0.14675 0.4861278,0 0.8025695,-0.2293 z"
         style="font-size:4.58611155px;stroke-width:0.26458335"
         id="path913" />
      <path
         d="m 5.4410928,206.11252 q 0.3668889,-0.45403 0.3668889,-1.28411 0,-0.35313 -0.077964,-0.66958 -0.073378,-0.32102 -0.24765,-0.5595 -0.1696861,-0.24306 -0.4448528,-0.38065 -0.2705806,-0.14217 -0.6695723,-0.14217 -0.3989917,0 -0.6741584,0.14217 -0.2751667,0.13759 -0.4494389,0.38065 -0.1696862,0.23848 -0.2476501,0.5595 -0.073378,0.31645 -0.073378,0.66958 0,0.35313 0.073378,0.67416 0.077964,0.31644 0.2476501,0.5595 0.1742722,0.23848 0.4494389,0.38065 0.2751667,0.13758 0.6741584,0.13758 0.7016751,0 1.0731501,-0.46778 z m -0.5411612,-2.12796 q 0.1742723,0.28434 0.1742723,0.84385 0,0.5595 -0.1742723,0.84384 -0.1651,0.27517 -0.5319889,0.27517 -0.371475,0 -0.5365751,-0.27517 -0.1742722,-0.28434 -0.1742722,-0.84384 0,-0.55951 0.1742722,-0.84385 0.1651001,-0.27516 0.5365751,-0.27516 0.3668889,0 0.5319889,0.27516 z"
         style="font-size:4.58611155px;stroke-width:0.26458335"
         id="path915" />
      <path
         d="m 8.2063748,206.53444 h 0.6833306 v -3.41207 H 8.1926165 v 2.13713 l -1.233664,-2.13713 h -0.738364 v 3.41207 h 0.697089 v -2.23802 z"
         style="font-size:4.58611155px;stroke-width:0.26458335"
         id="path917" />
      <path
         d="m 10.878502,206.53444 0.90805,-3.41207 h -0.733778 l -0.57785,2.29765 -0.5503332,-2.29765 H 9.195399 l 0.903464,3.41207 z"
         style="font-size:4.58611155px;stroke-width:0.26458335"
         id="path919" />
    </g>
    <g
       aria-label="± 5V"
       style="font-style:normal;font-variant:normal;font-weight:500;font-stretch:normal;font-size:2.11666679px;line-height:1.25;font-family:OldSansBlack;-inkscape-font-specification:'OldSansBlack, Medium';font-variant-ligatures:normal;font-variant-position:normal;font-variant-caps:normal;font-variant-numeric:normal;font-variant-alternates:normal;font-feature-settings:normal;text-indent:0;text-align:start;text-decoration:none;text-decoration-line:none;text-decoration-style:solid;text-decoration-color:#000000;letter-spacing:0px;word-spacing:0px;text-transform:none;writing-mode:lr-tb;direction:ltr;text-orientation:mixed;dominant-baseline:auto;baseline-shift:baseline;text-anchor:start;white-space:normal;shape-padding:0;opacity:1;vector-effect:none;fill:#ffffff;fill-opacity:1;stroke:none;stroke-width:0.26458335;stroke-linecap:butt;stroke-linejoin:miter;stroke-miterlimit:4;stroke-dasharray:none;stroke-dashoffset:0;stroke-opacity:1"
       id="text871">
      <path
         d="m 4.2521412,221.2547 h 0.5087056 v -0.32103 H 4.2521412 V 220.6077 H 3.9311134 v 0.32597 H 3.4248773 v 0.32103 h 0.5062361 v 0.32596 h 0.3210278 z m -0.8272639,0.69144 h 1.3359695 v -0.32103 H 3.4248773 Z"
         style="font-size:2.46944451px;stroke-width:0.26458335"
         id="path922" />
      <path
         d="m 6.7988715,221.7955 q 0.1827389,-0.17286 0.1827389,-0.48401 0,-0.25682 -0.1629833,-0.43956 -0.1679222,-0.18521 -0.4025195,-0.18521 -0.079022,0 -0.155575,0.0123 -0.074083,0.0123 -0.1432277,0.0593 l 0.019756,-0.31856 h 0.7235473 v -0.33091 H 5.845666 l -0.071614,0.99766 0.3037416,0.0568 q 0.041981,-0.0741 0.1012473,-0.1136 0.061736,-0.042 0.1481666,-0.042 0.069144,0 0.1210028,0.0247 0.054328,0.0247 0.0889,0.0691 0.034572,0.042 0.051858,0.0988 0.017286,0.0568 0.017286,0.12347 0,0.0667 -0.017286,0.12594 -0.017286,0.0593 -0.054328,0.10372 -0.034572,0.0444 -0.0889,0.0691 -0.051858,0.0247 -0.1234723,0.0247 -0.1259416,0 -0.2099027,-0.0667 -0.046919,-0.037 -0.071614,-0.0691 -0.024694,-0.0321 -0.037042,-0.079 l -0.3185583,0.16545 q 0.083961,0.18768 0.2469444,0.28151 0.1629834,0.0914 0.3630084,0.0914 0.1605139,0 0.2864555,-0.0445 0.1259417,-0.042 0.2173111,-0.13088 z"
         style="font-size:2.46944451px;stroke-width:0.26458335"
         id="path924" />
      <path
         d="m 7.9924236,221.94614 0.48895,-1.83727 H 8.0862625 l -0.31115,1.23719 -0.2963334,-1.23719 H 7.0861374 l 0.4864806,1.83727 z"
         style="font-size:2.46944451px;stroke-width:0.26458335"
         id="path926" />
    </g>
    <g
       aria-label="0-10V"
       style="font-style:normal;font-variant:normal;font-weight:500;font-stretch:normal;font-size:2.11666679px;line-height:1.25;font-family:OldSansBlack;-inkscape-font-specification:'OldSansBlack, Medium';font-variant-ligatures:normal;font-variant-position:normal;font-variant-caps:normal;font-variant-numeric:normal;font-variant-alternates:normal;font-feature-settings:normal;text-indent:0;text-align:start;text-decoration:none;text-decoration-line:none;text-decoration-style:solid;text-decoration-color:#000000;letter-spacing:0px;word-spacing:0px;text-transform:none;writing-mode:lr-tb;direction:ltr;text-orientation:mixed;dominant-baseline:auto;baseline-shift:baseline;text-anchor:start;white-space:normal;shape-padding:0;opacity:1;vector-effect:none;fill:#ffffff;fill-opacity:1;stroke:none;stroke-width:0.26458335;stroke-linecap:butt;stroke-linejoin:miter;stroke-miterlimit:4;stroke-dasharray:none;stroke-dashoffset:0;stroke-opacity:1"
       id="text883">
      <path
         d="m 3.8843868,234.45653 q 0.1679222,-0.24941 0.1679222,-0.68897 0,-0.16546 -0.029633,-0.33338 -0.029633,-0.17039 -0.1061861,-0.30374 -0.076553,-0.13582 -0.2074334,-0.21978 -0.1308805,-0.0864 -0.333375,-0.0864 -0.2024944,0 -0.333375,0.0864 -0.1308805,0.084 -0.2074333,0.21978 -0.076553,0.13335 -0.1061861,0.30374 -0.029633,0.16792 -0.029633,0.33338 0,0.16792 0.029633,0.33584 0.029633,0.16792 0.1061861,0.30374 0.076553,0.13335 0.2074333,0.21978 0.1308806,0.084 0.333375,0.084 0.3383139,0 0.5087056,-0.25436 z m -0.2815167,-1.1557 q 0.074083,0.16052 0.074083,0.46673 0,0.30868 -0.074083,0.46672 -0.069144,0.15558 -0.2271889,0.15558 -0.1580444,0 -0.2271889,-0.15558 -0.074083,-0.15804 -0.074083,-0.46672 0,-0.30621 0.074083,-0.46673 0.069145,-0.15557 0.2271889,-0.15557 0.1580445,0 0.2271889,0.15557 z"
         style="font-size:2.46944451px;stroke-width:0.26458335"
         id="path929" />
      <path
         d="m 4.2136333,234.17749 h 0.6593416 v -0.32103 H 4.2136333 Z"
         style="font-size:2.46944451px;stroke-width:0.26458335"
         id="path931" />
      <path
         d="m 5.2902725,234.68619 h 0.9260417 v -0.30127 H 5.937267 v -1.56069 H 5.6532808 q -0.079022,0.0741 -0.1901472,0.0988 -0.111125,0.0222 -0.2148417,0.0247 v 0.26176 h 0.3185584 v 1.17546 H 5.2902725 Z"
         style="font-size:2.46944451px;stroke-width:0.26458335"
         id="path933" />
      <path
         d="m 7.5716727,234.45653 q 0.1679222,-0.24941 0.1679222,-0.68897 0,-0.16546 -0.029633,-0.33338 -0.029633,-0.17039 -0.1061861,-0.30374 -0.076553,-0.13582 -0.2074334,-0.21978 -0.1308805,-0.0864 -0.333375,-0.0864 -0.2024944,0 -0.333375,0.0864 -0.1308805,0.084 -0.2074333,0.21978 -0.076553,0.13335 -0.1061861,0.30374 -0.029633,0.16792 -0.029633,0.33338 0,0.16792 0.029633,0.33584 0.029633,0.16792 0.1061861,0.30374 0.076553,0.13335 0.2074333,0.21978 0.1308806,0.084 0.333375,0.084 0.3383139,0 0.5087056,-0.25436 z m -0.2815167,-1.1557 q 0.074083,0.16052 0.074083,0.46673 0,0.30868 -0.074083,0.46672 -0.069144,0.15558 -0.2271889,0.15558 -0.1580444,0 -0.2271889,-0.15558 -0.074083,-0.15804 -0.074083,-0.46672 0,-0.30621 0.074083,-0.46673 0.069145,-0.15557 0.2271889,-0.15557 0.1580445,0 0.2271889,0.15557 z"
         style="font-size:2.46944451px;stroke-width:0.26458335"
         id="path935" />
      <path
         d="m 8.7182475,234.68619 0.48895,-1.83727 H 8.8120863 l -0.31115,1.2372 -0.2963333,-1.2372 H 7.8119613 l 0.4864806,1.83727 z"
         style="font-size:2.46944451px;stroke-width:0.26458335"
         id="path937" />
    </g>
    <g
       aria-label="± 5V"
       style="font-style:normal;font-variant:normal;font-weight:500;font-stretch:normal;font-size:2.11666679px;line-height:1.25;font-family:OldSansBlack;-inkscape-font-specification:'OldSansBlack, Medium';font-variant-ligatures:normal;font-variant-position:normal;font-variant-caps:normal;font-variant-numeric:normal;font-variant-alternates:normal;font-feature-settings:normal;text-indent:0;text-align:start;text-decoration:none;text-decoration-line:none;text-decoration-style:solid;text-decoration-color:#000000;letter-spacing:0px;word-spacing:0px;text-transform:none;writing-mode:lr-tb;direction:ltr;text-orientation:mixed;dominant-baseline:auto;baseline-shift:baseline;text-anchor:start;white-space:normal;shape-padding:0;opacity:1;vector-effect:none;fill:#ffffff;fill-opacity:1;stroke:none;stroke-width:0.26458335;stroke-linecap:butt;stroke-linejoin:miter;stroke-miterlimit:4;stroke-dasharray:none;stroke-dashoffset:0;stroke-opacity:1"
       id="text871-6">
      <path
         d="m 4.2521412,273.40942 h 0.5087056 v -0.32103 H 4.2521412 v -0.32597 H 3.9311134 v 0.32597 H 3.4248773 v 0.32103 h 0.5062361 v 0.32597 h 0.3210278 z m -0.8272639,0.69144 h 1.3359695 v -0.32102 H 3.4248773 Z"
         style="font-size:2.46944451px;stroke-width:0.26458335"
         id="path940" />
      <path
         d="m 6.7988715,273.95023 q 0.1827389,-0.17286 0.1827389,-0.48401 0,-0.25683 -0.1629833,-0.43956 -0.1679222,-0.18521 -0.4025195,-0.18521 -0.079022,0 -0.155575,0.0123 -0.074083,0.0123 -0.1432277,0.0593 l 0.019756,-0.31856 h 0.7235473 v -0.3309 H 5.845666 l -0.071614,0.99765 0.3037416,0.0568 q 0.041981,-0.0741 0.1012473,-0.11359 0.061736,-0.042 0.1481666,-0.042 0.069144,0 0.1210028,0.0247 0.054328,0.0247 0.0889,0.0691 0.034572,0.042 0.051858,0.0988 0.017286,0.0568 0.017286,0.12347 0,0.0667 -0.017286,0.12595 -0.017286,0.0593 -0.054328,0.10371 -0.034572,0.0445 -0.0889,0.0692 -0.051858,0.0247 -0.1234723,0.0247 -0.1259416,0 -0.2099027,-0.0667 -0.046919,-0.0371 -0.071614,-0.0691 -0.024694,-0.0321 -0.037042,-0.079 l -0.3185583,0.16545 q 0.083961,0.18768 0.2469444,0.28152 0.1629834,0.0914 0.3630084,0.0914 0.1605139,0 0.2864555,-0.0444 0.1259417,-0.042 0.2173111,-0.13088 z"
         style="font-size:2.46944451px;stroke-width:0.26458335"
         id="path942" />
      <path
         d="m 7.9924236,274.10086 0.48895,-1.83726 H 8.0862625 l -0.31115,1.23719 -0.2963334,-1.23719 H 7.0861374 l 0.4864806,1.83726 z"
         style="font-size:2.46944451px;stroke-width:0.26458335"
         id="path944" />
    </g>
    <g
       aria-label="0-10V"
       style="font-style:normal;font-variant:normal;font-weight:500;font-stretch:normal;font-size:2.11666679px;line-height:1.25;font-family:OldSansBlack;-inkscape-font-specification:'OldSansBlack, Medium';font-variant-ligatures:normal;font-variant-position:normal;font-variant-caps:normal;font-variant-numeric:normal;font-variant-alternates:normal;font-feature-settings:normal;text-indent:0;text-align:start;text-decoration:none;text-decoration-line:none;text-decoration-style:solid;text-decoration-color:#000000;letter-spacing:0px;word-spacing:0px;text-transform:none;writing-mode:lr-tb;direction:ltr;text-orientation:mixed;dominant-baseline:auto;baseline-shift:baseline;text-anchor:start;white-space:normal;shape-padding:0;opacity:1;vector-effect:none;fill:#ffffff;fill-opacity:1;stroke:none;stroke-width:0.26458335;stroke-linecap:butt;stroke-linejoin:miter;stroke-miterlimit:4;stroke-dasharray:none;stroke-dashoffset:0;stroke-opacity:1"
       id="text883-6">
      <path
         d="m 3.8843868,260.69042 q 0.1679222,-0.24941 0.1679222,-0.68898 0,-0.16545 -0.029633,-0.33337 -0.029633,-0.17039 -0.1061861,-0.30374 -0.076553,-0.13582 -0.2074334,-0.21978 -0.1308805,-0.0864 -0.333375,-0.0864 -0.2024944,0 -0.333375,0.0864 -0.1308805,0.084 -0.2074333,0.21978 -0.076553,0.13335 -0.1061861,0.30374 -0.029633,0.16792 -0.029633,0.33337 0,0.16793 0.029633,0.33585 0.029633,0.16792 0.1061861,0.30374 0.076553,0.13335 0.2074333,0.21978 0.1308806,0.084 0.333375,0.084 0.3383139,0 0.5087056,-0.25435 z m -0.2815167,-1.1557 q 0.074083,0.16051 0.074083,0.46672 0,0.30868 -0.074083,0.46673 -0.069144,0.15557 -0.2271889,0.15557 -0.1580444,0 -0.2271889,-0.15557 -0.074083,-0.15805 -0.074083,-0.46673 0,-0.30621 0.074083,-0.46672 0.069145,-0.15558 0.2271889,-0.15558 0.1580445,0 0.2271889,0.15558 z"
         style="font-size:2.46944451px;stroke-width:0.26458335"
         id="path947" />
      <path
         d="m 4.2136333,260.41137 h 0.6593416 v -0.32103 H 4.2136333 Z"
         style="font-size:2.46944451px;stroke-width:0.26458335"
         id="path949" />
      <path
         d="m 5.2902725,260.92008 h 0.9260417 v -0.30127 H 5.937267 v -1.56069 H 5.6532808 q -0.079022,0.0741 -0.1901472,0.0988 -0.111125,0.0222 -0.2148417,0.0247 v 0.26176 h 0.3185584 v 1.17546 H 5.2902725 Z"
         style="font-size:2.46944451px;stroke-width:0.26458335"
         id="path951" />
      <path
         d="m 7.5716727,260.69042 q 0.1679222,-0.24941 0.1679222,-0.68898 0,-0.16545 -0.029633,-0.33337 -0.029633,-0.17039 -0.1061861,-0.30374 -0.076553,-0.13582 -0.2074334,-0.21978 -0.1308805,-0.0864 -0.333375,-0.0864 -0.2024944,0 -0.333375,0.0864 -0.1308805,0.084 -0.2074333,0.21978 -0.076553,0.13335 -0.1061861,0.30374 -0.029633,0.16792 -0.029633,0.33337 0,0.16793 0.029633,0.33585 0.029633,0.16792 0.1061861,0.30374 0.076553,0.13335 0.2074333,0.21978 0.1308806,0.084 0.333375,0.084 0.3383139,0 0.5087056,-0.25435 z m -0.2815167,-1.1557 q 0.074083,0.16051 0.074083,0.46672 0,0.30868 -0.074083,0.46673 -0.069144,0.15557 -0.2271889,0.15557 -0.1580444,0 -0.2271889,-0.15557 -0.074083,-0.15805 -0.074083,-0.46673 0,-0.30621 0.074083,-0.46672 0.069145,-0.15558 0.2271889,-0.15558 0.1580445,0 0.2271889,0.15558 z"
         style="font-size:2.46944451px;stroke-width:0.26458335"
         id="path953" />
      <path
         d="m 8.7182475,260.92008 0.48895,-1.83727 H 8.8120863 L 8.5009363,260.32 8.204603,259.08281 H 7.8119613 l 0.4864806,1.83727 z"
         style="font-size:2.46944451px;stroke-width:0.26458335"
         id="path955" />
    </g>
  </g>
</svg>
