<?xml version="1.0" encoding="UTF-8" standalone="no"?>
<!-- Created with Inkscape (http://www.inkscape.org/) -->

<svg
   xmlns:dc="http://purl.org/dc/elements/1.1/"
   xmlns:cc="http://creativecommons.org/ns#"
   xmlns:rdf="http://www.w3.org/1999/02/22-rdf-syntax-ns#"
   xmlns:svg="http://www.w3.org/2000/svg"
   xmlns="http://www.w3.org/2000/svg"
   xmlns:sodipodi="http://sodipodi.sourceforge.net/DTD/sodipodi-0.dtd"
   xmlns:inkscape="http://www.inkscape.org/namespaces/inkscape"
   width="90"
   height="380"
   viewBox="0 0 23.812502 100.54167"
   version="1.1"
   id="svg8"
   inkscape:version="0.92.3 (2405546, 2018-03-11)"
   sodipodi:docname="DeadbandModuleT.svg">
  <title
     id="title4816">Autinn Deadband</title>
  <defs
     id="defs2">
    <inkscape:path-effect
       effect="spiro"
       id="path-effect857"
       is_visible="true" />
    <inkscape:path-effect
       effect="spiro"
       id="path-effect848"
       is_visible="true" />
    <inkscape:path-effect
       effect="spiro"
       id="path-effect1529"
       is_visible="true" />
    <inkscape:path-effect
       effect="spiro"
       id="path-effect4668"
       is_visible="true" />
    <inkscape:path-effect
       effect="spiro"
       id="path-effect2944"
       is_visible="true" />
  </defs>
  <sodipodi:namedview
     id="base"
     pagecolor="#ffffff"
     bordercolor="#666666"
     borderopacity="1.0"
     inkscape:pageopacity="0.0"
     inkscape:pageshadow="2"
     inkscape:zoom="2.3471839"
     inkscape:cx="-68.913463"
     inkscape:cy="205.11843"
     inkscape:document-units="px"
     inkscape:current-layer="layer1"
     showgrid="true"
     units="px"
     inkscape:snap-bbox="true"
     inkscape:snap-page="true"
     inkscape:bbox-nodes="false"
     inkscape:snap-bbox-edge-midpoints="true"
     inkscape:window-width="1920"
     inkscape:window-height="1017"
     inkscape:window-x="-8"
     inkscape:window-y="-8"
     inkscape:window-maximized="1"
     inkscape:snap-grids="false"
     inkscape:snap-to-guides="false"
     inkscape:snap-global="false"
     inkscape:pagecheckerboard="true"
     inkscape:snap-nodes="false"
     inkscape:snap-others="false">
    <inkscape:grid
       type="xygrid"
       id="grid4367" />
  </sodipodi:namedview>
  <metadata
     id="metadata5">
    <rdf:RDF>
      <cc:Work
         rdf:about="">
        <dc:format>image/svg+xml</dc:format>
        <dc:type
           rdf:resource="http://purl.org/dc/dcmitype/StillImage" />
        <dc:title>Autinn Deadband</dc:title>
      </cc:Work>
    </rdf:RDF>
  </metadata>
  <g
     inkscape:label="Layer 1"
     inkscape:groupmode="layer"
     id="layer1"
     transform="translate(0,-196.45832)">
    <path
       style="opacity:1;vector-effect:none;fill:#202020;fill-opacity:1;fill-rule:evenodd;stroke:none;stroke-width:0.48607069;stroke-linecap:butt;stroke-linejoin:round;stroke-miterlimit:4;stroke-dasharray:none;stroke-dashoffset:0;stroke-opacity:1;paint-order:normal"
       d="M 0,196.45831 H 23.812501 V 296.99999 H 0 Z"
       id="rect817"
       inkscape:connector-curvature="0" />
    <path
       style="fill:none;stroke:#5e110a;stroke-width:4.27555656;stroke-linecap:butt;stroke-linejoin:miter;stroke-miterlimit:4;stroke-dasharray:none;stroke-opacity:1"
       d="m 11.643933,194.67815 c 3.455542,10.83464 4.233875,22.51231 2.2468,33.70971 -1.286591,7.25009 -3.701005,14.25413 -5.2031151,21.46265 -1.5175572,7.28265 -2.0951951,14.78191 -1.4190312,22.1902 0.8490499,9.30249 3.6905333,18.41821 8.2776823,26.55549"
       id="path855" />
    <g
       aria-label="Autinn"
       style="font-style:normal;font-weight:normal;font-size:7.05555534px;line-height:1.25;font-family:sans-serif;letter-spacing:0px;word-spacing:0px;fill:#ffd700;fill-opacity:1;stroke:none;stroke-width:0.26458332"
       id="text3739"
       transform="matrix(0.714,0,0,0.714,3.4051833,82.69189)">
      <path
         d="m 5.0556776,289.41931 q -0.1756999,-0.37896 -0.3858507,-0.93706 -0.2101508,-0.55811 -0.4409722,-1.25057 -0.1171332,0.32728 -0.4375271,0.9095 -0.3169488,0.58223 -0.7820367,1.31948 0.106798,0.007 0.2239312,0.007 0.1205784,0 0.3617351,0 0.3927408,0 0.7544759,-0.0103 0.3651801,-0.0138 0.7062445,-0.0379 z m 0.1481391,0.35485 q -0.099908,0 -0.2480469,0.003 -0.144694,0.003 -0.1963704,0.003 -1.2057834,0 -1.6467556,0.13436 -0.4409722,0.13436 -0.7165798,0.50643 -0.3135037,0.4203 -0.6924642,1.01975 -0.3789605,0.596 -0.4719781,0.596 -0.041341,0 -0.065457,-0.0241 -0.027561,-0.0241 -0.027561,-0.0689 0,-0.0413 0.4478624,-0.75448 0.4478624,-0.71658 0.8371581,-1.38148 0.7544759,-1.30225 1.1368815,-2.09806 0.3858507,-0.79582 0.3858507,-1.05765 0,-0.0344 -0.010335,-0.0758 -0.010335,-0.0448 -0.010335,-0.0517 0,-0.0413 0.2342665,-0.1688 0.2377116,-0.12747 0.323839,-0.12747 0.037896,0 0.2308214,0.65801 0.1929253,0.65457 0.4616427,1.33325 0.757921,1.93615 1.0610894,2.43568 0.3066135,0.49954 0.6028917,0.49954 0.082682,0 0.1722548,-0.0448 0.089573,-0.0482 0.1033528,-0.0482 0.020671,0 0.048231,0.0379 0.031006,0.0379 0.031006,0.0689 0,0.0207 -0.1550293,0.11714 -0.1550292,0.0965 -0.2928331,0.19292 -0.1274685,0.0965 -0.2928331,0.24116 -0.1619195,0.14125 -0.2067057,0.14125 -0.075792,0 -0.2928331,-0.42375 -0.2135959,-0.42375 -0.7510308,-1.66398 z"
         style="font-style:normal;font-variant:normal;font-weight:normal;font-stretch:normal;font-family:'Calligraph421 BT';-inkscape-font-specification:'Calligraph421 BT';stroke-width:0.26458332;fill:#ffd700;fill-opacity:1"
         id="path4612"
         inkscape:connector-curvature="0" />
      <path
         d="m 9.6410995,291.31067 q -0.2446018,0.12058 -0.6097819,0.31006 -0.4306369,0.22738 -0.5167643,0.22738 -0.4960938,0 -0.7269151,-0.31695 -0.2273763,-0.31695 -0.2273763,-1.00941 0,-0.16881 0.01378,-0.55811 0.01378,-0.39274 0.01378,-0.61323 0,-0.0482 -0.01378,-0.14469 -0.01378,-0.0999 -0.01378,-0.15159 0,-0.0276 0.1205783,-0.0654 0.096463,-0.031 0.1619195,-0.0551 0.1515842,-0.0551 0.3066135,-0.12058 0.1584744,-0.0689 0.1722547,-0.0689 0.051677,0 0.082682,0.0241 0.031006,0.0207 0.031006,0.0586 0,0.0413 -0.075792,0.11713 -0.072347,0.0758 -0.106798,0.13781 -0.082682,0.14124 -0.1205783,0.37551 -0.034451,0.23427 -0.034451,0.70969 0,0.65801 0.1584744,0.92329 0.1619195,0.26182 0.5477702,0.26182 0.1412489,0 0.3651801,-0.0654 0.2273763,-0.0655 0.4892035,-0.18604 v -1.5124 q 0,-0.40307 -0.1619194,-0.48575 -0.031006,-0.0138 -0.031006,-0.0276 0,-0.11025 0.082682,-0.13092 0.024116,-0.003 0.044786,-0.0103 0.1515842,-0.0551 0.323839,-0.14125 0.1722546,-0.0861 0.1998156,-0.0861 0.04479,0 0.103352,0.0551 0.05857,0.0551 0.05857,0.093 0,0.003 -0.0069,0.031 -0.04823,0.17914 -0.06546,0.43752 -0.01378,0.23771 -0.02067,0.63045 -0.0069,0.3893 -0.0069,0.86472 0,0.36863 0.02412,0.70625 0.0034,0.0517 0.0034,0.062 0,0.0792 -0.2377112,0.20671 -0.2377116,0.13091 -0.2962782,0.13091 -0.02067,0 -0.031006,-0.031 -0.00689,-0.0276 -0.00689,-0.0965 v -0.10335 q 0,-0.0758 0,-0.17226 0.00345,-0.0965 0.00689,-0.21015 z"
         style="font-style:normal;font-variant:normal;font-weight:normal;font-stretch:normal;font-family:'Calligraph421 BT';-inkscape-font-specification:'Calligraph421 BT';stroke-width:0.26458332;fill:#ffd700;fill-opacity:1"
         id="path4614"
         inkscape:connector-curvature="0" />
      <path
         d="m 11.346421,291.48637 q 0.0034,-0.30661 0.0034,-0.60289 0.0034,-0.29628 0.0034,-0.65801 0,-0.21704 -0.0034,-0.46165 0,-0.2446 -0.0034,-0.51331 h -0.19637 q -0.04479,0 -0.05857,-0.0103 -0.01033,-0.0138 -0.01378,-0.0586 0.0034,-0.0723 0.06201,-0.11713 0.02067,-0.0172 0.02756,-0.0241 l 0.799263,-0.72002 q 0.05512,-0.0551 0.07924,-0.0689 0.02412,-0.0172 0.04823,-0.0172 0.02412,0 0.04479,0.0207 0.02067,0.0172 0.02067,0.0448 0,0.0103 -0.03445,0.0827 -0.120578,0.25494 -0.151584,0.50988 h 1.036973 q 0.04823,0 0.06546,0.0344 0.02067,0.0344 0.02067,0.12057 0,0.10336 -0.02412,0.13092 -0.02412,0.0241 -0.158474,0.0241 h -0.981852 q -0.02412,0.30317 -0.0379,0.58912 -0.01034,0.28249 -0.01034,0.53743 0,0.61323 0.16881,0.8785 0.172255,0.26527 0.558105,0.26527 0.199816,0 0.416857,-0.0861 0.217041,-0.0896 0.230821,-0.0896 0.01378,0 0.02412,0.0172 0.01033,0.0138 0.01033,0.031 v 0.0517 q 0,0.13436 -0.36518,0.2825 -0.36518,0.14814 -0.706244,0.14814 -0.268718,0 -0.499539,-0.0896 -0.230822,-0.0896 -0.375516,-0.25149 z"
         style="font-style:normal;font-variant:normal;font-weight:normal;font-stretch:normal;font-family:'Calligraph421 BT';-inkscape-font-specification:'Calligraph421 BT';stroke-width:0.26458332;fill:#ffd700;fill-opacity:1"
         id="path4616"
         inkscape:connector-curvature="0" />
      <path
         d="m 14.677829,289.9223 v 1.55718 q 0,0.0482 -0.0069,0.10335 0,0.0138 0,0.0172 0,0.0482 -0.02412,0.0792 -0.02067,0.0276 -0.07579,0.0482 -0.124023,0.0413 -0.261827,0.0861 -0.137804,0.0482 -0.141249,0.0482 -0.02756,0 -0.04134,-0.062 -0.01378,-0.062 -0.01378,-0.31351 v -1.69843 q 0,-0.3893 -0.05512,-0.48576 -0.05512,-0.0999 -0.199816,-0.0999 -0.0379,0 -0.09991,0.0207 -0.05857,0.0207 -0.07579,0.0207 -0.0379,0 -0.06201,-0.0345 -0.02412,-0.0344 -0.02412,-0.093 0.0034,-0.0517 0.203261,-0.10336 0.141249,-0.0344 0.234266,-0.0654 0.16881,-0.0551 0.354845,-0.12747 0.186035,-0.0758 0.210151,-0.0758 0.03445,0 0.07235,0.0344 0.04134,0.0344 0.04134,0.0689 0,0.0138 -0.0034,0.0827 -0.03101,0.47887 -0.03101,0.99219 z m -0.347954,-3.00068 q 0.158474,0 0.268717,0.11369 0.113688,0.11369 0.113688,0.26872 0,0.15847 -0.110243,0.26527 -0.110243,0.1068 -0.272162,0.1068 -0.15503,0 -0.265273,-0.1068 -0.106798,-0.11024 -0.106798,-0.26527 0,-0.15848 0.106798,-0.26872 0.110243,-0.11369 0.265273,-0.11369 z"
         style="font-style:normal;font-variant:normal;font-weight:normal;font-stretch:normal;font-family:'Calligraph421 BT';-inkscape-font-specification:'Calligraph421 BT';stroke-width:0.26458332;fill:#ffd700;fill-opacity:1"
         id="path4618"
         inkscape:connector-curvature="0" />
      <path
         d="m 16.014526,291.70686 v -1.5813 q 0,-0.48576 -0.106798,-0.7028 -0.103353,-0.22049 -0.33073,-0.22049 -0.03101,0 -0.07924,0.0103 -0.04479,0.0103 -0.06201,0.0103 -0.03445,0 -0.05512,-0.0276 -0.01722,-0.0276 -0.01722,-0.0792 0,-0.0344 0.130913,-0.0792 0.09646,-0.031 0.151584,-0.0551 0.210151,-0.0861 0.389296,-0.20671 0.04823,-0.031 0.05512,-0.031 0.07235,0 0.20326,0.14814 0.130914,0.14469 0.199816,0.3445 0.347954,-0.2067 0.689019,-0.32383 0.341064,-0.12058 0.575331,-0.12058 0.389296,0 0.56155,0.29628 0.172255,0.29283 0.172255,0.98874 0,0.32039 -0.02067,0.70624 -0.01723,0.38585 -0.01723,0.44097 0,0.0861 0.03101,0.11714 0.03101,0.031 0.110243,0.031 0.04134,0 0.120578,-0.031 0.08268,-0.031 0.120579,-0.031 0.02756,0 0.04479,0.031 0.01722,0.031 0.01722,0.0827 0,0.0724 -0.19637,0.12402 -0.165365,0.0448 -0.282498,0.0861 -0.16881,0.0655 -0.341064,0.15159 -0.16881,0.0896 -0.189481,0.0896 -0.03445,0 -0.05857,-0.0241 -0.02412,-0.0207 -0.02412,-0.0551 0,-0.007 0.01378,-0.0517 0.148139,-0.50987 0.148139,-1.25401 0,-0.68557 -0.18259,-1.00252 -0.18259,-0.31695 -0.571886,-0.31695 -0.1757,0 -0.3514,0.0827 -0.172255,0.0827 -0.327284,0.23771 0,0.0482 0.0034,0.20326 0.0034,0.15159 0.0034,0.25494 0,0.5271 -0.0069,0.97841 -0.0069,0.44786 -0.02067,0.75792 l -0.403076,0.14125 q -0.0034,0 -0.01378,0.003 -0.01033,0.003 -0.02756,0.003 -0.03101,0 -0.04479,-0.0276 -0.01034,-0.0276 -0.01034,-0.0999 z"
         style="font-style:normal;font-variant:normal;font-weight:normal;font-stretch:normal;font-family:'Calligraph421 BT';-inkscape-font-specification:'Calligraph421 BT';stroke-width:0.26458332;fill:#ffd700;fill-opacity:1"
         id="path4620"
         inkscape:connector-curvature="0" />
      <path
         d="m 19.790351,291.70686 v -1.5813 q 0,-0.48576 -0.106798,-0.7028 -0.103353,-0.22049 -0.330729,-0.22049 -0.03101,0 -0.07924,0.0103 -0.04479,0.0103 -0.06201,0.0103 -0.03445,0 -0.05512,-0.0276 -0.01723,-0.0276 -0.01723,-0.0792 0,-0.0344 0.130914,-0.0792 0.09646,-0.031 0.151584,-0.0551 0.210151,-0.0861 0.389296,-0.20671 0.04823,-0.031 0.05512,-0.031 0.07235,0 0.203261,0.14814 0.130913,0.14469 0.199815,0.3445 0.347955,-0.2067 0.689019,-0.32383 0.341065,-0.12058 0.575331,-0.12058 0.389296,0 0.561551,0.29628 0.172255,0.29283 0.172255,0.98874 0,0.32039 -0.02067,0.70624 -0.01722,0.38585 -0.01722,0.44097 0,0.0861 0.03101,0.11714 0.03101,0.031 0.110244,0.031 0.04134,0 0.120578,-0.031 0.08268,-0.031 0.120578,-0.031 0.02756,0 0.04479,0.031 0.01723,0.031 0.01723,0.0827 0,0.0724 -0.196371,0.12402 -0.165364,0.0448 -0.282497,0.0861 -0.16881,0.0655 -0.341065,0.15159 -0.168809,0.0896 -0.18948,0.0896 -0.03445,0 -0.05857,-0.0241 -0.02412,-0.0207 -0.02412,-0.0551 0,-0.007 0.01378,-0.0517 0.148139,-0.50987 0.148139,-1.25401 0,-0.68557 -0.18259,-1.00252 -0.18259,-0.31695 -0.571886,-0.31695 -0.1757,0 -0.351399,0.0827 -0.172255,0.0827 -0.327285,0.23771 0,0.0482 0.0034,0.20326 0.0034,0.15159 0.0034,0.25494 0,0.5271 -0.0069,0.97841 -0.0069,0.44786 -0.02067,0.75792 l -0.403076,0.14125 q -0.0034,0 -0.01378,0.003 -0.01033,0.003 -0.02756,0.003 -0.03101,0 -0.04479,-0.0276 -0.01033,-0.0276 -0.01033,-0.0999 z"
         style="font-style:normal;font-variant:normal;font-weight:normal;font-stretch:normal;font-family:'Calligraph421 BT';-inkscape-font-specification:'Calligraph421 BT';stroke-width:0.26458332;fill:#ffd700;fill-opacity:1"
         id="path4622"
         inkscape:connector-curvature="0" />
    </g>
    <g
       style="font-style:normal;font-weight:normal;font-size:3.52777767px;line-height:1.25;font-family:sans-serif;letter-spacing:0px;word-spacing:0px;fill:#000000;fill-opacity:1;stroke:none;stroke-width:0.26458332"
       id="text4707" />
    <g
       style="font-style:normal;font-weight:normal;font-size:13.33333302px;line-height:1.25;font-family:sans-serif;letter-spacing:0px;word-spacing:0px;fill:#000000;fill-opacity:1;stroke:none"
       id="flowRoot4709" />
    <g
       aria-label="DEADBAND"
       style="font-style:normal;font-variant:normal;font-weight:500;font-stretch:normal;font-size:2.11666679px;line-height:1.25;font-family:OldSansBlack;-inkscape-font-specification:'OldSansBlack, Medium';font-variant-ligatures:normal;font-variant-position:normal;font-variant-caps:normal;font-variant-numeric:normal;font-variant-alternates:normal;font-feature-settings:normal;text-indent:0;text-align:start;text-decoration:none;text-decoration-line:none;text-decoration-style:solid;text-decoration-color:#000000;letter-spacing:0px;word-spacing:0px;text-transform:none;writing-mode:lr-tb;direction:ltr;text-orientation:mixed;dominant-baseline:auto;baseline-shift:baseline;text-anchor:start;white-space:normal;shape-padding:0;opacity:1;vector-effect:none;fill:#ffffff;fill-opacity:1;stroke:none;stroke-width:0.26458335;stroke-linecap:butt;stroke-linejoin:miter;stroke-miterlimit:4;stroke-dasharray:none;stroke-dashoffset:0;stroke-opacity:1"
       id="text868">
      <path
         d="m 2.4561018,206.04717 q 0.206375,-0.22013 0.3026833,-0.53199 0.096308,-0.31644 0.096308,-0.72461 0,-0.38982 -0.091722,-0.70167 -0.091722,-0.31644 -0.2843389,-0.54116 -0.1926167,-0.22472 -0.4907139,-0.34396 -0.2935112,-0.12383 -0.7016751,-0.12383 H 0.16763209 v 3.41207 H 1.2958155 q 0.7612945,0 1.1602863,-0.44485 z m -0.5457473,-2.06834 q 0.1008944,0.133 0.1513417,0.33479 0.055033,0.1972 0.055033,0.46778 0,0.22014 -0.036689,0.41734 -0.036689,0.19261 -0.1329972,0.34396 -0.091722,0.14675 -0.2568223,0.23389 -0.1605139,0.0825 -0.41275,0.0825 H 0.90140994 v -2.1463 H 1.2866433 q 0.4219223,0 0.6237112,0.26599 z"
         style="font-size:4.58611155px;stroke-width:0.26458335"
         id="path893" />
      <path
         d="m 3.258528,206.49202 h 2.343503 v -0.63288 H 3.9877198 v -0.83009 l 1.1373556,-0.005 v -0.62372 H 3.9877198 v -0.68791 h 1.5592779 v -0.63289 H 3.258528 Z"
         style="font-size:4.58611155px;stroke-width:0.26458335"
         id="path895" />
      <path
         d="m 7.8002832,206.49202 h 0.738364 L 7.5663915,203.07537 H 6.7042026 l -0.986014,3.41665 h 0.7337778 l 0.1972028,-0.71543 h 0.9676696 z m -0.6558139,-2.54988 0.3118556,1.21074 H 6.8142693 Z"
         style="font-size:4.58611155px;stroke-width:0.26458335"
         id="path897" />
      <path
         d="m 11.126719,206.04717 q 0.206375,-0.22013 0.302683,-0.53199 0.09631,-0.31644 0.09631,-0.72461 0,-0.38982 -0.09172,-0.70167 -0.09172,-0.31644 -0.284339,-0.54116 -0.192616,-0.22472 -0.490714,-0.34396 -0.293511,-0.12383 -0.7016746,-0.12383 H 8.8382492 v 3.41207 h 1.1281834 q 0.7612944,0 1.1602864,-0.44485 z m -0.545747,-2.06834 q 0.100894,0.133 0.151341,0.33479 0.05503,0.1972 0.05503,0.46778 0,0.22014 -0.03669,0.41734 -0.03669,0.19261 -0.132998,0.34396 -0.09172,0.14675 -0.256822,0.23389 -0.160514,0.0825 -0.4127498,0.0825 H 9.572027 v -2.1463 h 0.3852334 q 0.4219226,0 0.6237116,0.26599 z"
         style="font-size:4.58611155px;stroke-width:0.26458335"
         id="path899" />
      <path
         d="m 14.09379,206.25813 q 0.334786,-0.23389 0.334786,-0.73836 0,-0.2981 -0.110067,-0.50448 -0.10548,-0.19261 -0.394405,-0.32102 0.210961,-0.10548 0.321027,-0.29352 0.110067,-0.18803 0.110067,-0.42192 0,-0.26141 -0.100894,-0.43568 -0.09631,-0.17427 -0.261409,-0.27517 -0.1651,-0.10548 -0.380647,-0.14675 -0.210961,-0.0413 -0.435681,-0.0413 h -1.274939 v 3.41207 h 1.242837 q 0.628297,0 0.949325,-0.23389 z m -0.57785,-2.46733 q 0.10548,0.0917 0.10548,0.27517 0,0.0871 -0.03669,0.15134 -0.0321,0.0596 -0.08714,0.10089 -0.05503,0.0413 -0.128411,0.0642 -0.07338,0.0183 -0.151342,0.0183 h -0.582436 v -0.70626 h 0.564092 q 0.210961,0 0.316442,0.0963 z m 0.0642,1.32539 q 0.114653,0.10089 0.114653,0.32103 0,0.24306 -0.119239,0.34395 -0.119239,0.0963 -0.35313,0.0963 h -0.587023 v -0.86219 h 0.57785 q 0.243064,0 0.366889,0.1009 z"
         style="font-size:4.58611155px;stroke-width:0.26458335"
         id="path901" />
      <path
         d="m 16.730661,206.49202 h 0.738364 l -0.972256,-3.41665 H 15.63458 l -0.986014,3.41665 h 0.733778 l 0.197203,-0.71543 h 0.967669 z m -0.655814,-2.54988 0.311855,1.21074 h -0.642055 z"
         style="font-size:4.58611155px;stroke-width:0.26458335"
         id="path903" />
      <path
         d="m 19.768171,206.49202 h 0.68333 v -3.41207 h -0.697088 v 2.13713 l -1.233665,-2.13713 h -0.738363 v 3.41207 h 0.697088 V 204.254 Z"
         style="font-size:4.58611155px;stroke-width:0.26458335"
         id="path905" />
      <path
         d="m 23.245878,206.04717 q 0.206375,-0.22013 0.302683,-0.53199 0.09631,-0.31644 0.09631,-0.72461 0,-0.38982 -0.09172,-0.70167 -0.09172,-0.31644 -0.284339,-0.54116 -0.192617,-0.22472 -0.490714,-0.34396 -0.293511,-0.12383 -0.701675,-0.12383 h -1.119011 v 3.41207 h 1.128183 q 0.761295,0 1.160287,-0.44485 z m -0.545748,-2.06834 q 0.100895,0.133 0.151342,0.33479 0.05503,0.1972 0.05503,0.46778 0,0.22014 -0.03669,0.41734 -0.03669,0.19261 -0.132997,0.34396 -0.09172,0.14675 -0.256822,0.23389 -0.160514,0.0825 -0.41275,0.0825 h -0.376061 v -2.1463 h 0.385233 q 0.421922,0 0.623711,0.26599 z"
         style="font-size:4.58611155px;stroke-width:0.26458335"
         id="path907" />
    </g>
    <g
       aria-label="WIDTH"
       style="font-style:normal;font-variant:normal;font-weight:500;font-stretch:normal;font-size:2.11666679px;line-height:1.25;font-family:OldSansBlack;-inkscape-font-specification:'OldSansBlack, Medium';font-variant-ligatures:normal;font-variant-position:normal;font-variant-caps:normal;font-variant-numeric:normal;font-variant-alternates:normal;font-feature-settings:normal;text-indent:0;text-align:start;text-decoration:none;text-decoration-line:none;text-decoration-style:solid;text-decoration-color:#000000;letter-spacing:0px;word-spacing:0px;text-transform:none;writing-mode:lr-tb;direction:ltr;text-orientation:mixed;dominant-baseline:auto;baseline-shift:baseline;text-anchor:start;white-space:normal;shape-padding:0;opacity:1;vector-effect:none;fill:#ffffff;fill-opacity:1;stroke:none;stroke-width:0.26458335;stroke-linecap:butt;stroke-linejoin:miter;stroke-miterlimit:4;stroke-dasharray:none;stroke-dashoffset:0;stroke-opacity:1"
       id="text872">
      <path
         d="m 3.9114721,214.85155 0.3802945,-1.83727 H 3.9188805 L 3.694161,214.11813 3.4793194,213.01428 H 3.0842082 l -0.2321277,1.10385 -0.2074334,-1.10385 H 2.2692915 l 0.3852334,1.83727 h 0.3901722 l 0.2370667,-1.17052 0.2395361,1.17052 z"
         style="font-size:2.46944451px;stroke-width:0.26458335"
         id="path910" />
      <path
         d="m 4.5263252,214.85155 h 0.3951111 v -1.83727 H 4.5263252 Z"
         style="font-size:2.46944451px;stroke-width:0.26458335"
         id="path912" />
      <path
         d="m 6.4278939,214.61201 q 0.111125,-0.11853 0.1629834,-0.28645 0.051858,-0.17039 0.051858,-0.39017 0,-0.20991 -0.049389,-0.37783 -0.049389,-0.17039 -0.1531056,-0.29139 -0.1037166,-0.12101 -0.2642305,-0.18521 -0.1580445,-0.0667 -0.377825,-0.0667 H 5.1956411 v 1.83727 h 0.6074834 q 0.4099277,0 0.6247694,-0.23954 z M 6.13403,213.49829 q 0.054328,0.0716 0.081492,0.18027 0.029633,0.10619 0.029633,0.25189 0,0.11853 -0.019755,0.22472 -0.019756,0.10371 -0.071614,0.18521 -0.049389,0.079 -0.1382889,0.12594 -0.086431,0.0445 -0.22225,0.0445 H 5.5907522 v -1.1557 h 0.2074334 q 0.2271889,0 0.3358444,0.14322 z"
         style="font-size:2.46944451px;stroke-width:0.26458335"
         id="path914" />
      <path
         d="m 7.5637032,213.3526 h 0.466725 v -0.33832 H 6.7068059 v 0.33832 h 0.4642556 v 1.49895 h 0.3926417 z"
         style="font-size:2.46944451px;stroke-width:0.26458335"
         id="path916" />
      <path
         d="m 9.2568548,214.85155 h 0.3975806 v -1.83727 H 9.2568548 v 0.70873 h -0.6223 v -0.70873 H 8.2369742 v 1.83727 h 0.3975806 v -0.76553 h 0.6223 z"
         style="font-size:2.46944451px;stroke-width:0.26458335"
         id="path918" />
    </g>
    <g
       aria-label="GAP"
       style="font-style:normal;font-variant:normal;font-weight:500;font-stretch:normal;font-size:2.11666679px;line-height:1.25;font-family:OldSansBlack;-inkscape-font-specification:'OldSansBlack, Medium';font-variant-ligatures:normal;font-variant-position:normal;font-variant-caps:normal;font-variant-numeric:normal;font-variant-alternates:normal;font-feature-settings:normal;text-indent:0;text-align:start;text-decoration:none;text-decoration-line:none;text-decoration-style:solid;text-decoration-color:#000000;letter-spacing:0px;word-spacing:0px;text-transform:none;writing-mode:lr-tb;direction:ltr;text-orientation:mixed;dominant-baseline:auto;baseline-shift:baseline;text-anchor:start;white-space:normal;shape-padding:0;opacity:1;vector-effect:none;fill:#ffffff;fill-opacity:1;stroke:none;stroke-width:0.26458335;stroke-linecap:butt;stroke-linejoin:miter;stroke-miterlimit:4;stroke-dasharray:none;stroke-dashoffset:0;stroke-opacity:1"
       id="text876">
      <path
         d="M 16.663058,214.96427 H 16.9668 v -0.95568 h -0.723548 v 0.34079 h 0.338314 q -0.01235,0.121 -0.09384,0.20249 -0.09384,0.0963 -0.246944,0.0963 -0.111125,0 -0.182739,-0.0593 -0.06914,-0.0593 -0.108655,-0.14817 -0.03704,-0.0889 -0.05186,-0.19014 -0.01235,-0.10372 -0.01235,-0.18768 0,-0.0815 0.0099,-0.18768 0.01235,-0.10865 0.04939,-0.20496 0.03704,-0.0963 0.103716,-0.16052 0.06915,-0.0667 0.182739,-0.0667 0.143228,0 0.214842,0.0667 0.07408,0.0642 0.13088,0.19015 l 0.365478,-0.0963 q -0.04939,-0.14816 -0.116064,-0.242 -0.06668,-0.0938 -0.158044,-0.15064 -0.18027,-0.10865 -0.387703,-0.10865 -0.21978,0 -0.372886,0.0815 -0.150636,0.079 -0.244475,0.21484 -0.09137,0.13335 -0.13335,0.31115 -0.03951,0.17533 -0.03951,0.37042 0,0.1778 0.03951,0.34325 0.04198,0.16298 0.130881,0.28892 0.0889,0.12595 0.229658,0.2025 0.140758,0.0741 0.340783,0.0741 0.13335,0 0.234597,-0.037 0.101248,-0.037 0.197556,-0.13088 z"
         style="font-size:2.46944451px;stroke-width:0.26458335"
         id="path921" />
      <path
         d="m 18.208853,214.96427 h 0.397581 l -0.523523,-1.83974 h -0.464255 l -0.530931,1.83974 h 0.395111 l 0.106187,-0.38524 h 0.521052 z m -0.35313,-1.37301 0.167922,0.65193 h -0.345722 z"
         style="font-size:2.46944451px;stroke-width:0.26458335"
         id="path923" />
      <path
         d="m 19.906172,214.10243 q 0.17533,-0.14323 0.17533,-0.41487 0,-0.1531 -0.05186,-0.25929 -0.04939,-0.10865 -0.138289,-0.17533 -0.0889,-0.0667 -0.209903,-0.0963 -0.118533,-0.0296 -0.259291,-0.0296 h -0.679097 v 1.83727 h 0.395111 v -0.72108 h 0.281516 q 0.316089,0 0.486481,-0.14076 z m -0.288925,-0.5902 q 0.0321,0.0247 0.04939,0.0692 0.01729,0.042 0.01729,0.11112 0,0.0692 -0.02469,0.1136 -0.02469,0.042 -0.06668,0.0667 -0.03951,0.0222 -0.09384,0.0321 -0.05186,0.007 -0.111125,0.007 h -0.249414 v -0.45437 h 0.249414 q 0.160513,0 0.229658,0.0543 z"
         style="font-size:2.46944451px;stroke-width:0.26458335"
         id="path925" />
    </g>
    <g
       aria-label="CV"
       style="font-style:normal;font-variant:normal;font-weight:500;font-stretch:normal;font-size:2.11666679px;line-height:1.25;font-family:OldSansBlack;-inkscape-font-specification:'OldSansBlack, Medium';font-variant-ligatures:normal;font-variant-position:normal;font-variant-caps:normal;font-variant-numeric:normal;font-variant-alternates:normal;font-feature-settings:normal;text-indent:0;text-align:start;text-decoration:none;text-decoration-line:none;text-decoration-style:solid;text-decoration-color:#000000;letter-spacing:0px;word-spacing:0px;text-transform:none;writing-mode:lr-tb;direction:ltr;text-orientation:mixed;dominant-baseline:auto;baseline-shift:baseline;text-anchor:start;white-space:normal;shape-padding:0;opacity:1;vector-effect:none;fill:#ffffff;fill-opacity:1;stroke:none;stroke-width:0.26458335;stroke-linecap:butt;stroke-linejoin:miter;stroke-miterlimit:4;stroke-dasharray:none;stroke-dashoffset:0;stroke-opacity:1"
       id="text880">
      <path
         d="m 11.657666,235.71939 q 0.08643,-0.0617 0.150636,-0.15558 0.06668,-0.0938 0.121003,-0.2346 l -0.370416,-0.0963 q -0.02716,0.0593 -0.0568,0.10865 -0.02963,0.0494 -0.06668,0.0864 -0.03704,0.0346 -0.0889,0.0543 -0.04939,0.0198 -0.121002,0.0198 -0.182739,0 -0.261762,-0.1457 -0.08643,-0.15064 -0.08643,-0.4445 0,-0.0543 0.0025,-0.121 0.0049,-0.0667 0.01729,-0.13335 0.01235,-0.0692 0.03457,-0.13335 0.02469,-0.0642 0.06174,-0.1136 0.03704,-0.0519 0.09137,-0.0815 0.0568,-0.0321 0.130881,-0.0321 0.128411,0 0.197555,0.0741 0.06915,0.0741 0.108656,0.18768 l 0.360539,-0.0864 q -0.04692,-0.16052 -0.111125,-0.25929 -0.06174,-0.10125 -0.148167,-0.15311 -0.170392,-0.10372 -0.395111,-0.10372 -0.207433,0 -0.350661,0.079 -0.143228,0.079 -0.232128,0.21237 -0.08643,0.13088 -0.125942,0.30127 -0.03704,0.17039 -0.03704,0.35066 0,0.18274 0.03704,0.35313 0.03951,0.16792 0.125942,0.30127 0.08643,0.13088 0.229658,0.20991 0.143228,0.079 0.350662,0.079 0.261761,0 0.432152,-0.12347 z"
         style="font-size:2.46944451px;stroke-width:0.26458335"
         id="path928" />
      <path
         d="m 12.841341,235.81816 0.48895,-1.83726 h -0.395112 l -0.31115,1.23719 -0.296333,-1.23719 h -0.392642 l 0.486481,1.83726 z"
         style="font-size:2.46944451px;stroke-width:0.26458335"
         id="path930" />
    </g>
    <g
       aria-label="IN"
       style="font-style:normal;font-variant:normal;font-weight:500;font-stretch:normal;font-size:2.11666679px;line-height:1.25;font-family:OldSansBlack;-inkscape-font-specification:'OldSansBlack, Medium';font-variant-ligatures:normal;font-variant-position:normal;font-variant-caps:normal;font-variant-numeric:normal;font-variant-alternates:normal;font-feature-settings:normal;text-indent:0;text-align:start;text-decoration:none;text-decoration-line:none;text-decoration-style:solid;text-decoration-color:#000000;letter-spacing:0px;word-spacing:0px;text-transform:none;writing-mode:lr-tb;direction:ltr;text-orientation:mixed;dominant-baseline:auto;baseline-shift:baseline;text-anchor:start;white-space:normal;shape-padding:0;opacity:1;vector-effect:none;fill:#ffffff;fill-opacity:1;stroke:none;stroke-width:0.26458335;stroke-linecap:butt;stroke-linejoin:miter;stroke-miterlimit:4;stroke-dasharray:none;stroke-dashoffset:0;stroke-opacity:1"
       id="text884">
      <path
         d="m 4.8037065,274.47851 h 0.3386666 v -1.5748 H 4.8037065 Z"
         style="stroke-width:0.26458335"
         id="path933" />
      <path
         d="m 6.2940714,274.47851 h 0.3153833 v -1.5748 H 6.2877214 v 0.98637 L 5.718338,272.90371 H 5.3775547 v 1.5748 H 5.699288 v -1.03293 z"
         style="stroke-width:0.26458335"
         id="path935" />
    </g>
    <g
       aria-label="OUT"
       style="font-style:normal;font-variant:normal;font-weight:500;font-stretch:normal;font-size:2.11666679px;line-height:1.25;font-family:OldSansBlack;-inkscape-font-specification:'OldSansBlack, Medium';font-variant-ligatures:normal;font-variant-position:normal;font-variant-caps:normal;font-variant-numeric:normal;font-variant-alternates:normal;font-feature-settings:normal;text-indent:0;text-align:start;text-decoration:none;text-decoration-line:none;text-decoration-style:solid;text-decoration-color:#000000;letter-spacing:0px;word-spacing:0px;text-transform:none;writing-mode:lr-tb;direction:ltr;text-orientation:mixed;dominant-baseline:auto;baseline-shift:baseline;text-anchor:start;white-space:normal;shape-padding:0;opacity:1;vector-effect:none;fill:#ffffff;fill-opacity:1;stroke:none;stroke-width:0.26458335;stroke-linecap:butt;stroke-linejoin:miter;stroke-miterlimit:4;stroke-dasharray:none;stroke-dashoffset:0;stroke-opacity:1"
       id="text888">
      <path
         d="m 16.645418,274.28381 q 0.169334,-0.20955 0.169334,-0.59267 0,-0.16298 -0.03598,-0.30903 -0.03387,-0.14817 -0.1143,-0.25823 -0.07832,-0.11219 -0.205316,-0.17569 -0.124884,-0.0656 -0.309034,-0.0656 -0.18415,0 -0.31115,0.0656 -0.127,0.0635 -0.207433,0.17569 -0.07832,0.11006 -0.1143,0.25823 -0.03387,0.14605 -0.03387,0.30903 0,0.16299 0.03387,0.31115 0.03598,0.14605 0.1143,0.25824 0.08043,0.11006 0.207433,0.17568 0.127,0.0635 0.31115,0.0635 0.32385,0 0.4953,-0.2159 z m -0.249766,-0.98213 q 0.08043,0.13123 0.08043,0.38946 0,0.25824 -0.08043,0.38947 -0.0762,0.127 -0.245534,0.127 -0.17145,0 -0.24765,-0.127 -0.08043,-0.13123 -0.08043,-0.38947 0,-0.25823 0.08043,-0.38946 0.0762,-0.127 0.24765,-0.127 0.169334,0 0.245534,0.127 z"
         style="stroke-width:0.26458335"
         id="path938" />
      <path
         d="m 18.071985,274.34096 q 0.156634,-0.15875 0.156634,-0.45932 v -0.9779 h -0.33655 v 0.97367 q 0,0.18203 -0.06138,0.25612 -0.02963,0.036 -0.08255,0.055 -0.0508,0.019 -0.131233,0.019 -0.150283,0 -0.207433,-0.0762 -0.06138,-0.0741 -0.06138,-0.25823 v -0.96944 h -0.33655 v 0.99272 q 0,0.2921 0.15875,0.44873 0.160867,0.15452 0.45085,0.15452 0.294217,0 0.45085,-0.15875 z"
         style="stroke-width:0.26458335"
         id="path940" />
      <path
         d="m 19.142291,273.19373 h 0.40005 v -0.28999 h -1.134533 v 0.28999 h 0.397933 v 1.28481 h 0.33655 z"
         style="stroke-width:0.26458335"
         id="path942" />
    </g>
  </g>
</svg>
