<?xml version="1.0" encoding="UTF-8" standalone="no"?>
<!-- Created with Inkscape (http://www.inkscape.org/) -->

<svg
   xmlns:dc="http://purl.org/dc/elements/1.1/"
   xmlns:cc="http://creativecommons.org/ns#"
   xmlns:rdf="http://www.w3.org/1999/02/22-rdf-syntax-ns#"
   xmlns:svg="http://www.w3.org/2000/svg"
   xmlns="http://www.w3.org/2000/svg"
   xmlns:sodipodi="http://sodipodi.sourceforge.net/DTD/sodipodi-0.dtd"
   xmlns:inkscape="http://www.inkscape.org/namespaces/inkscape"
   width="45"
   height="380"
   viewBox="0 0 11.906251 100.54167"
   version="1.1"
   id="svg8"
   inkscape:version="0.92.3 (2405546, 2018-03-11)"
   sodipodi:docname="DigiModule.svg">
  <title
     id="title4816">Autinn Digi</title>
  <defs
     id="defs2">
    <inkscape:path-effect
       effect="spiro"
       id="path-effect848"
       is_visible="true" />
    <inkscape:path-effect
       effect="spiro"
       id="path-effect1529"
       is_visible="true" />
    <inkscape:path-effect
       effect="spiro"
       id="path-effect4668"
       is_visible="true" />
    <inkscape:path-effect
       effect="spiro"
       id="path-effect2944"
       is_visible="true" />
  </defs>
  <sodipodi:namedview
     id="base"
     pagecolor="#ffffff"
     bordercolor="#666666"
     borderopacity="1.0"
     inkscape:pageopacity="0.0"
     inkscape:pageshadow="2"
     inkscape:zoom="2.3900548"
     inkscape:cx="-99.460933"
     inkscape:cy="188.38149"
     inkscape:document-units="px"
     inkscape:current-layer="layer1"
     showgrid="true"
     units="px"
     inkscape:snap-bbox="true"
     inkscape:snap-page="true"
     inkscape:bbox-nodes="false"
     inkscape:snap-bbox-edge-midpoints="true"
     inkscape:window-width="1920"
     inkscape:window-height="1017"
     inkscape:window-x="-8"
     inkscape:window-y="-8"
     inkscape:window-maximized="1"
     inkscape:snap-grids="true"
     inkscape:snap-to-guides="false"
     inkscape:snap-global="false"
     inkscape:pagecheckerboard="true"
     inkscape:snap-nodes="false"
     inkscape:snap-others="false">
    <inkscape:grid
       type="xygrid"
       id="grid4367" />
  </sodipodi:namedview>
  <metadata
     id="metadata5">
    <rdf:RDF>
      <cc:Work
         rdf:about="">
        <dc:format>image/svg+xml</dc:format>
        <dc:type
           rdf:resource="http://purl.org/dc/dcmitype/StillImage" />
        <dc:title>Autinn Digi</dc:title>
      </cc:Work>
    </rdf:RDF>
  </metadata>
  <g
     inkscape:label="Layer 1"
     inkscape:groupmode="layer"
     id="layer1"
     transform="translate(0,-196.45832)">
    <path
       style="opacity:1;vector-effect:none;fill:#202020;fill-opacity:1;fill-rule:evenodd;stroke:none;stroke-width:0.3437039;stroke-linecap:butt;stroke-linejoin:round;stroke-miterlimit:4;stroke-dasharray:none;stroke-dashoffset:0;stroke-opacity:1;paint-order:normal"
       d="M 0,196.45831 H 11.906251 V 296.99999 H 0 Z"
       id="rect817"
       inkscape:connector-curvature="0" />
    <path
       style="fill:none;stroke:#5e110a;stroke-width:4.23333359;stroke-linecap:butt;stroke-linejoin:miter;stroke-miterlimit:4;stroke-dasharray:none;stroke-opacity:1"
       d="m 1.8970127,195.98406 c -1.69840234,6.95152 -1.23719104,14.41476 1.3041963,21.10427 1.7970208,4.73017 4.6305619,9.18924 5.0982217,14.2276 0.4138159,4.45827 -1.0838236,8.85692 -2.7277914,13.02162 -1.6439678,4.16471 -3.4806787,8.35867 -3.7931898,12.82518 -0.4420257,6.31758 2.1943996,12.3798 4.273676,18.36176 1.0396382,2.99098 1.9552119,6.04917 2.2852158,9.19844 0.3300039,3.14927 0.050039,6.41388 -1.2235435,9.31298 -0.5443644,1.23916 -1.2652621,2.4006 -2.1341394,3.43834"
       id="path846" />
    <g
       aria-label="Autinn"
       style="font-style:normal;font-weight:normal;font-size:7.05555534px;line-height:1.25;font-family:sans-serif;letter-spacing:0px;word-spacing:0px;fill:#ffd700;fill-opacity:1;stroke:none;stroke-width:0.26458332"
       id="text3739"
       transform="matrix(0.476,0,0,0.476,0.28574709,151.50542)">
      <path
         d="m 5.0556776,289.41931 q -0.1756999,-0.37896 -0.3858507,-0.93706 -0.2101508,-0.55811 -0.4409722,-1.25057 -0.1171332,0.32728 -0.4375271,0.9095 -0.3169488,0.58223 -0.7820367,1.31948 0.106798,0.007 0.2239312,0.007 0.1205784,0 0.3617351,0 0.3927408,0 0.7544759,-0.0103 0.3651801,-0.0138 0.7062445,-0.0379 z m 0.1481391,0.35485 q -0.099908,0 -0.2480469,0.003 -0.144694,0.003 -0.1963704,0.003 -1.2057834,0 -1.6467556,0.13436 -0.4409722,0.13436 -0.7165798,0.50643 -0.3135037,0.4203 -0.6924642,1.01975 -0.3789605,0.596 -0.4719781,0.596 -0.041341,0 -0.065457,-0.0241 -0.027561,-0.0241 -0.027561,-0.0689 0,-0.0413 0.4478624,-0.75448 0.4478624,-0.71658 0.8371581,-1.38148 0.7544759,-1.30225 1.1368815,-2.09806 0.3858507,-0.79582 0.3858507,-1.05765 0,-0.0344 -0.010335,-0.0758 -0.010335,-0.0448 -0.010335,-0.0517 0,-0.0413 0.2342665,-0.1688 0.2377116,-0.12747 0.323839,-0.12747 0.037896,0 0.2308214,0.65801 0.1929253,0.65457 0.4616427,1.33325 0.757921,1.93615 1.0610894,2.43568 0.3066135,0.49954 0.6028917,0.49954 0.082682,0 0.1722548,-0.0448 0.089573,-0.0482 0.1033528,-0.0482 0.020671,0 0.048231,0.0379 0.031006,0.0379 0.031006,0.0689 0,0.0207 -0.1550293,0.11714 -0.1550292,0.0965 -0.2928331,0.19292 -0.1274685,0.0965 -0.2928331,0.24116 -0.1619195,0.14125 -0.2067057,0.14125 -0.075792,0 -0.2928331,-0.42375 -0.2135959,-0.42375 -0.7510308,-1.66398 z"
         style="font-style:normal;font-variant:normal;font-weight:normal;font-stretch:normal;font-family:'Calligraph421 BT';-inkscape-font-specification:'Calligraph421 BT';stroke-width:0.26458332;fill:#ffd700;fill-opacity:1"
         id="path4612"
         inkscape:connector-curvature="0" />
      <path
         d="m 9.6410995,291.31067 q -0.2446018,0.12058 -0.6097819,0.31006 -0.4306369,0.22738 -0.5167643,0.22738 -0.4960938,0 -0.7269151,-0.31695 -0.2273763,-0.31695 -0.2273763,-1.00941 0,-0.16881 0.01378,-0.55811 0.01378,-0.39274 0.01378,-0.61323 0,-0.0482 -0.01378,-0.14469 -0.01378,-0.0999 -0.01378,-0.15159 0,-0.0276 0.1205783,-0.0654 0.096463,-0.031 0.1619195,-0.0551 0.1515842,-0.0551 0.3066135,-0.12058 0.1584744,-0.0689 0.1722547,-0.0689 0.051677,0 0.082682,0.0241 0.031006,0.0207 0.031006,0.0586 0,0.0413 -0.075792,0.11713 -0.072347,0.0758 -0.106798,0.13781 -0.082682,0.14124 -0.1205783,0.37551 -0.034451,0.23427 -0.034451,0.70969 0,0.65801 0.1584744,0.92329 0.1619195,0.26182 0.5477702,0.26182 0.1412489,0 0.3651801,-0.0654 0.2273763,-0.0655 0.4892035,-0.18604 v -1.5124 q 0,-0.40307 -0.1619194,-0.48575 -0.031006,-0.0138 -0.031006,-0.0276 0,-0.11025 0.082682,-0.13092 0.024116,-0.003 0.044786,-0.0103 0.1515842,-0.0551 0.323839,-0.14125 0.1722546,-0.0861 0.1998156,-0.0861 0.04479,0 0.103352,0.0551 0.05857,0.0551 0.05857,0.093 0,0.003 -0.0069,0.031 -0.04823,0.17914 -0.06546,0.43752 -0.01378,0.23771 -0.02067,0.63045 -0.0069,0.3893 -0.0069,0.86472 0,0.36863 0.02412,0.70625 0.0034,0.0517 0.0034,0.062 0,0.0792 -0.2377112,0.20671 -0.2377116,0.13091 -0.2962782,0.13091 -0.02067,0 -0.031006,-0.031 -0.00689,-0.0276 -0.00689,-0.0965 v -0.10335 q 0,-0.0758 0,-0.17226 0.00345,-0.0965 0.00689,-0.21015 z"
         style="font-style:normal;font-variant:normal;font-weight:normal;font-stretch:normal;font-family:'Calligraph421 BT';-inkscape-font-specification:'Calligraph421 BT';stroke-width:0.26458332;fill:#ffd700;fill-opacity:1"
         id="path4614"
         inkscape:connector-curvature="0" />
      <path
         d="m 11.346421,291.48637 q 0.0034,-0.30661 0.0034,-0.60289 0.0034,-0.29628 0.0034,-0.65801 0,-0.21704 -0.0034,-0.46165 0,-0.2446 -0.0034,-0.51331 h -0.19637 q -0.04479,0 -0.05857,-0.0103 -0.01033,-0.0138 -0.01378,-0.0586 0.0034,-0.0723 0.06201,-0.11713 0.02067,-0.0172 0.02756,-0.0241 l 0.799263,-0.72002 q 0.05512,-0.0551 0.07924,-0.0689 0.02412,-0.0172 0.04823,-0.0172 0.02412,0 0.04479,0.0207 0.02067,0.0172 0.02067,0.0448 0,0.0103 -0.03445,0.0827 -0.120578,0.25494 -0.151584,0.50988 h 1.036973 q 0.04823,0 0.06546,0.0344 0.02067,0.0344 0.02067,0.12057 0,0.10336 -0.02412,0.13092 -0.02412,0.0241 -0.158474,0.0241 h -0.981852 q -0.02412,0.30317 -0.0379,0.58912 -0.01034,0.28249 -0.01034,0.53743 0,0.61323 0.16881,0.8785 0.172255,0.26527 0.558105,0.26527 0.199816,0 0.416857,-0.0861 0.217041,-0.0896 0.230821,-0.0896 0.01378,0 0.02412,0.0172 0.01033,0.0138 0.01033,0.031 v 0.0517 q 0,0.13436 -0.36518,0.2825 -0.36518,0.14814 -0.706244,0.14814 -0.268718,0 -0.499539,-0.0896 -0.230822,-0.0896 -0.375516,-0.25149 z"
         style="font-style:normal;font-variant:normal;font-weight:normal;font-stretch:normal;font-family:'Calligraph421 BT';-inkscape-font-specification:'Calligraph421 BT';stroke-width:0.26458332;fill:#ffd700;fill-opacity:1"
         id="path4616"
         inkscape:connector-curvature="0" />
      <path
         d="m 14.677829,289.9223 v 1.55718 q 0,0.0482 -0.0069,0.10335 0,0.0138 0,0.0172 0,0.0482 -0.02412,0.0792 -0.02067,0.0276 -0.07579,0.0482 -0.124023,0.0413 -0.261827,0.0861 -0.137804,0.0482 -0.141249,0.0482 -0.02756,0 -0.04134,-0.062 -0.01378,-0.062 -0.01378,-0.31351 v -1.69843 q 0,-0.3893 -0.05512,-0.48576 -0.05512,-0.0999 -0.199816,-0.0999 -0.0379,0 -0.09991,0.0207 -0.05857,0.0207 -0.07579,0.0207 -0.0379,0 -0.06201,-0.0345 -0.02412,-0.0344 -0.02412,-0.093 0.0034,-0.0517 0.203261,-0.10336 0.141249,-0.0344 0.234266,-0.0654 0.16881,-0.0551 0.354845,-0.12747 0.186035,-0.0758 0.210151,-0.0758 0.03445,0 0.07235,0.0344 0.04134,0.0344 0.04134,0.0689 0,0.0138 -0.0034,0.0827 -0.03101,0.47887 -0.03101,0.99219 z m -0.347954,-3.00068 q 0.158474,0 0.268717,0.11369 0.113688,0.11369 0.113688,0.26872 0,0.15847 -0.110243,0.26527 -0.110243,0.1068 -0.272162,0.1068 -0.15503,0 -0.265273,-0.1068 -0.106798,-0.11024 -0.106798,-0.26527 0,-0.15848 0.106798,-0.26872 0.110243,-0.11369 0.265273,-0.11369 z"
         style="font-style:normal;font-variant:normal;font-weight:normal;font-stretch:normal;font-family:'Calligraph421 BT';-inkscape-font-specification:'Calligraph421 BT';stroke-width:0.26458332;fill:#ffd700;fill-opacity:1"
         id="path4618"
         inkscape:connector-curvature="0" />
      <path
         d="m 16.014526,291.70686 v -1.5813 q 0,-0.48576 -0.106798,-0.7028 -0.103353,-0.22049 -0.33073,-0.22049 -0.03101,0 -0.07924,0.0103 -0.04479,0.0103 -0.06201,0.0103 -0.03445,0 -0.05512,-0.0276 -0.01722,-0.0276 -0.01722,-0.0792 0,-0.0344 0.130913,-0.0792 0.09646,-0.031 0.151584,-0.0551 0.210151,-0.0861 0.389296,-0.20671 0.04823,-0.031 0.05512,-0.031 0.07235,0 0.20326,0.14814 0.130914,0.14469 0.199816,0.3445 0.347954,-0.2067 0.689019,-0.32383 0.341064,-0.12058 0.575331,-0.12058 0.389296,0 0.56155,0.29628 0.172255,0.29283 0.172255,0.98874 0,0.32039 -0.02067,0.70624 -0.01723,0.38585 -0.01723,0.44097 0,0.0861 0.03101,0.11714 0.03101,0.031 0.110243,0.031 0.04134,0 0.120578,-0.031 0.08268,-0.031 0.120579,-0.031 0.02756,0 0.04479,0.031 0.01722,0.031 0.01722,0.0827 0,0.0724 -0.19637,0.12402 -0.165365,0.0448 -0.282498,0.0861 -0.16881,0.0655 -0.341064,0.15159 -0.16881,0.0896 -0.189481,0.0896 -0.03445,0 -0.05857,-0.0241 -0.02412,-0.0207 -0.02412,-0.0551 0,-0.007 0.01378,-0.0517 0.148139,-0.50987 0.148139,-1.25401 0,-0.68557 -0.18259,-1.00252 -0.18259,-0.31695 -0.571886,-0.31695 -0.1757,0 -0.3514,0.0827 -0.172255,0.0827 -0.327284,0.23771 0,0.0482 0.0034,0.20326 0.0034,0.15159 0.0034,0.25494 0,0.5271 -0.0069,0.97841 -0.0069,0.44786 -0.02067,0.75792 l -0.403076,0.14125 q -0.0034,0 -0.01378,0.003 -0.01033,0.003 -0.02756,0.003 -0.03101,0 -0.04479,-0.0276 -0.01034,-0.0276 -0.01034,-0.0999 z"
         style="font-style:normal;font-variant:normal;font-weight:normal;font-stretch:normal;font-family:'Calligraph421 BT';-inkscape-font-specification:'Calligraph421 BT';stroke-width:0.26458332;fill:#ffd700;fill-opacity:1"
         id="path4620"
         inkscape:connector-curvature="0" />
      <path
         d="m 19.790351,291.70686 v -1.5813 q 0,-0.48576 -0.106798,-0.7028 -0.103353,-0.22049 -0.330729,-0.22049 -0.03101,0 -0.07924,0.0103 -0.04479,0.0103 -0.06201,0.0103 -0.03445,0 -0.05512,-0.0276 -0.01723,-0.0276 -0.01723,-0.0792 0,-0.0344 0.130914,-0.0792 0.09646,-0.031 0.151584,-0.0551 0.210151,-0.0861 0.389296,-0.20671 0.04823,-0.031 0.05512,-0.031 0.07235,0 0.203261,0.14814 0.130913,0.14469 0.199815,0.3445 0.347955,-0.2067 0.689019,-0.32383 0.341065,-0.12058 0.575331,-0.12058 0.389296,0 0.561551,0.29628 0.172255,0.29283 0.172255,0.98874 0,0.32039 -0.02067,0.70624 -0.01722,0.38585 -0.01722,0.44097 0,0.0861 0.03101,0.11714 0.03101,0.031 0.110244,0.031 0.04134,0 0.120578,-0.031 0.08268,-0.031 0.120578,-0.031 0.02756,0 0.04479,0.031 0.01723,0.031 0.01723,0.0827 0,0.0724 -0.196371,0.12402 -0.165364,0.0448 -0.282497,0.0861 -0.16881,0.0655 -0.341065,0.15159 -0.168809,0.0896 -0.18948,0.0896 -0.03445,0 -0.05857,-0.0241 -0.02412,-0.0207 -0.02412,-0.0551 0,-0.007 0.01378,-0.0517 0.148139,-0.50987 0.148139,-1.25401 0,-0.68557 -0.18259,-1.00252 -0.18259,-0.31695 -0.571886,-0.31695 -0.1757,0 -0.351399,0.0827 -0.172255,0.0827 -0.327285,0.23771 0,0.0482 0.0034,0.20326 0.0034,0.15159 0.0034,0.25494 0,0.5271 -0.0069,0.97841 -0.0069,0.44786 -0.02067,0.75792 l -0.403076,0.14125 q -0.0034,0 -0.01378,0.003 -0.01033,0.003 -0.02756,0.003 -0.03101,0 -0.04479,-0.0276 -0.01033,-0.0276 -0.01033,-0.0999 z"
         style="font-style:normal;font-variant:normal;font-weight:normal;font-stretch:normal;font-family:'Calligraph421 BT';-inkscape-font-specification:'Calligraph421 BT';stroke-width:0.26458332;fill:#ffd700;fill-opacity:1"
         id="path4622"
         inkscape:connector-curvature="0" />
    </g>
    <g
       style="font-style:normal;font-weight:normal;font-size:3.52777767px;line-height:1.25;font-family:sans-serif;letter-spacing:0px;word-spacing:0px;fill:#000000;fill-opacity:1;stroke:none;stroke-width:0.26458332"
       id="text4707" />
    <g
       style="font-style:normal;font-weight:normal;font-size:13.33333302px;line-height:1.25;font-family:sans-serif;letter-spacing:0px;word-spacing:0px;fill:#000000;fill-opacity:1;stroke:none"
       id="flowRoot4709" />
    <g
       aria-label="DIGI"
       style="font-style:normal;font-variant:normal;font-weight:500;font-stretch:normal;font-size:2.11666679px;line-height:1.25;font-family:OldSansBlack;-inkscape-font-specification:'OldSansBlack, Medium';font-variant-ligatures:normal;font-variant-position:normal;font-variant-caps:normal;font-variant-numeric:normal;font-variant-alternates:normal;font-feature-settings:normal;text-indent:0;text-align:start;text-decoration:none;text-decoration-line:none;text-decoration-style:solid;text-decoration-color:#000000;letter-spacing:0px;word-spacing:0px;text-transform:none;writing-mode:lr-tb;direction:ltr;text-orientation:mixed;dominant-baseline:auto;baseline-shift:baseline;text-anchor:start;white-space:normal;shape-padding:0;opacity:1;vector-effect:none;fill:#ffffff;fill-opacity:1;stroke:none;stroke-width:0.26458335;stroke-linecap:butt;stroke-linejoin:miter;stroke-miterlimit:4;stroke-dasharray:none;stroke-dashoffset:0;stroke-opacity:1"
       id="text858">
      <path
         d="m 4.0578967,206.24076 q 0.2063751,-0.22014 0.3026834,-0.53199 0.096308,-0.31644 0.096308,-0.72461 0,-0.38982 -0.091722,-0.70167 -0.091722,-0.31644 -0.2843389,-0.54116 -0.1926167,-0.22472 -0.4907139,-0.34396 -0.2935112,-0.12383 -0.7016751,-0.12383 H 1.7694271 v 3.41207 h 1.1281834 q 0.7612945,0 1.1602862,-0.44485 z m -0.5457472,-2.06834 q 0.1008944,0.133 0.1513416,0.33479 0.055033,0.1972 0.055033,0.46778 0,0.22013 -0.036689,0.41734 -0.036689,0.19261 -0.1329972,0.34395 -0.091722,0.14676 -0.2568223,0.2339 -0.1605139,0.0825 -0.41275,0.0825 H 2.5032049 v -2.1463 h 0.3852334 q 0.4219223,0 0.6237112,0.26599 z"
         style="font-size:4.58611155px;stroke-width:0.26458335"
         id="path875" />
      <path
         d="m 4.9199425,206.68561 h 0.7337778 v -3.41207 H 4.9199425 Z"
         style="font-size:4.58611155px;stroke-width:0.26458335"
         id="path877" />
      <path
         d="m 8.3227656,206.68561 h 0.5640918 v -1.77483 H 7.5431267 v 0.63289 H 8.171424 q -0.022931,0.22472 -0.1742723,0.37606 -0.1742722,0.17886 -0.4586111,0.17886 -0.2063751,0 -0.3393723,-0.11007 -0.1284111,-0.11007 -0.2017889,-0.27517 -0.068792,-0.1651 -0.096308,-0.35313 -0.022931,-0.19261 -0.022931,-0.34854 0,-0.15134 0.018345,-0.34855 0.022931,-0.20178 0.091722,-0.38064 0.068792,-0.17886 0.1926167,-0.2981 0.1284111,-0.12383 0.3393722,-0.12383 0.2659945,0 0.3989917,0.12383 0.1375834,0.11924 0.2430639,0.35313 l 0.6787445,-0.17886 q -0.091722,-0.27516 -0.2155472,-0.44944 -0.123825,-0.17427 -0.2935111,-0.27975 -0.3347862,-0.20179 -0.7200195,-0.20179 -0.408164,0 -0.6925029,0.15134 -0.2797528,0.14676 -0.454025,0.39899 -0.1696862,0.24765 -0.2476501,0.57785 -0.073378,0.32562 -0.073378,0.68792 0,0.3302 0.073378,0.63747 0.077964,0.30268 0.243064,0.53658 0.1651,0.23389 0.4265083,0.37606 0.2614084,0.13758 0.6328834,0.13758 0.24765,0 0.4356806,-0.0688 0.1880306,-0.0688 0.3668889,-0.24306 z"
         style="font-size:4.58611155px;stroke-width:0.26458335"
         id="path879" />
      <path
         d="m 9.4030458,206.68561 h 0.7337782 v -3.41207 H 9.4030458 Z"
         style="font-size:4.58611155px;stroke-width:0.26458335"
         id="path881" />
    </g>
    <g
       aria-label="CV"
       style="font-style:normal;font-variant:normal;font-weight:500;font-stretch:normal;font-size:2.11666679px;line-height:1.25;font-family:OldSansBlack;-inkscape-font-specification:'OldSansBlack, Medium';font-variant-ligatures:normal;font-variant-position:normal;font-variant-caps:normal;font-variant-numeric:normal;font-variant-alternates:normal;font-feature-settings:normal;text-indent:0;text-align:start;text-decoration:none;text-decoration-line:none;text-decoration-style:solid;text-decoration-color:#000000;letter-spacing:0px;word-spacing:0px;text-transform:none;writing-mode:lr-tb;direction:ltr;text-orientation:mixed;dominant-baseline:auto;baseline-shift:baseline;text-anchor:start;white-space:normal;shape-padding:0;opacity:1;vector-effect:none;fill:#ffffff;fill-opacity:1;stroke:none;stroke-width:0.26458335;stroke-linecap:butt;stroke-linejoin:miter;stroke-miterlimit:4;stroke-dasharray:none;stroke-dashoffset:0;stroke-opacity:1"
       id="text862">
      <path
         d="m 5.7045408,233.02052 q 0.086431,-0.0617 0.1506362,-0.15558 0.066675,-0.0938 0.1210027,-0.23459 l -0.3704166,-0.0963 q -0.027164,0.0593 -0.056797,0.10865 -0.029633,0.0494 -0.066675,0.0864 -0.037042,0.0346 -0.0889,0.0543 -0.049389,0.0198 -0.1210027,0.0198 -0.1827389,0 -0.2617612,-0.1457 -0.086431,-0.15064 -0.086431,-0.4445 0,-0.0543 0.00247,-0.121 0.00494,-0.0667 0.017286,-0.13335 0.012347,-0.0692 0.034572,-0.13335 0.024694,-0.0642 0.061736,-0.1136 0.037042,-0.0519 0.091369,-0.0815 0.056797,-0.0321 0.1308806,-0.0321 0.1284111,0 0.1975555,0.0741 0.069145,0.0741 0.1086556,0.18768 l 0.3605389,-0.0864 q -0.046919,-0.16051 -0.111125,-0.25929 -0.061736,-0.10125 -0.1481667,-0.15311 -0.1703916,-0.10371 -0.3951111,-0.10371 -0.2074333,0 -0.3506611,0.079 -0.1432278,0.079 -0.2321278,0.21237 -0.086431,0.13088 -0.1259417,0.30127 -0.037042,0.17039 -0.037042,0.35066 0,0.18274 0.037042,0.35313 0.039511,0.16793 0.1259417,0.30128 0.086431,0.13088 0.2296583,0.2099 0.1432278,0.079 0.3506612,0.079 0.2617611,0 0.4321527,-0.12347 z"
         style="font-size:2.46944451px;stroke-width:0.26458335"
         id="path884" />
      <path
         d="m 6.8882151,233.1193 0.48895,-1.83727 H 6.982054 l -0.31115,1.23719 -0.2963334,-1.23719 H 5.981929 l 0.4864805,1.83727 z"
         style="font-size:2.46944451px;stroke-width:0.26458335"
         id="path886" />
    </g>
    <g
       aria-label="ANALOG"
       style="font-style:normal;font-variant:normal;font-weight:500;font-stretch:normal;font-size:2.11666679px;line-height:1.25;font-family:OldSansBlack;-inkscape-font-specification:'OldSansBlack, Medium';font-variant-ligatures:normal;font-variant-position:normal;font-variant-caps:normal;font-variant-numeric:normal;font-variant-alternates:normal;font-feature-settings:normal;text-indent:0;text-align:start;text-decoration:none;text-decoration-line:none;text-decoration-style:solid;text-decoration-color:#000000;letter-spacing:0px;word-spacing:0px;text-transform:none;writing-mode:lr-tb;direction:ltr;text-orientation:mixed;dominant-baseline:auto;baseline-shift:baseline;text-anchor:start;white-space:normal;shape-padding:0;opacity:1;vector-effect:none;fill:#ffffff;fill-opacity:1;stroke:none;stroke-width:0.26458335;stroke-linecap:butt;stroke-linejoin:miter;stroke-miterlimit:4;stroke-dasharray:none;stroke-dashoffset:0;stroke-opacity:1"
       id="text866">
      <path
         d="M 2.395987,261.76932 H 2.7935675 L 2.2700453,259.92958 H 1.8057897 l -0.5309306,1.83974 h 0.3951112 l 0.1061861,-0.38523 h 0.5210528 z m -0.3531306,-1.37301 0.1679222,0.65193 H 1.8650564 Z"
         style="font-size:2.46944451px;stroke-width:0.26458335"
         id="path889" />
      <path
         d="m 4.0315696,261.76932 h 0.3679472 v -1.83727 H 4.0241612 v 1.15077 L 3.3598806,259.93205 H 2.9623001 v 1.83727 h 0.3753555 v -1.20509 z"
         style="font-size:2.46944451px;stroke-width:0.26458335"
         id="path891" />
      <path
         d="M 5.6901874,261.76932 H 6.0877679 L 5.5642457,259.92958 H 5.0999901 l -0.5309305,1.83974 h 0.3951111 l 0.1061861,-0.38523 h 0.5210528 z m -0.3531306,-1.37301 0.1679222,0.65193 H 5.1592568 Z"
         style="font-size:2.46944451px;stroke-width:0.26458335"
         id="path893" />
      <path
         d="m 6.2490924,261.76932 h 1.1680473 v -0.34078 H 6.6417341 v -1.49649 H 6.2490924 Z"
         style="font-size:2.46944451px;stroke-width:0.26458335"
         id="path895" />
      <path
         d="m 8.8608769,261.54213 q 0.1975555,-0.24447 0.1975555,-0.69144 0,-0.19015 -0.04198,-0.36054 -0.039511,-0.17286 -0.13335,-0.30127 -0.091369,-0.13088 -0.2395361,-0.20497 -0.1456973,-0.0765 -0.3605389,-0.0765 -0.2148417,0 -0.3630084,0.0765 -0.1481666,0.0741 -0.2420055,0.20497 -0.091369,0.12841 -0.13335,0.30127 -0.039511,0.17039 -0.039511,0.36054 0,0.19014 0.039511,0.36301 0.041981,0.17039 0.13335,0.30127 0.093839,0.12841 0.2420055,0.20496 0.1481667,0.0741 0.3630084,0.0741 0.377825,0 0.57785,-0.25189 z m -0.2913945,-1.14582 q 0.093839,0.15311 0.093839,0.45438 0,0.30127 -0.093839,0.45438 -0.0889,0.14816 -0.2864555,0.14816 -0.200025,0 -0.288925,-0.14816 -0.093839,-0.15311 -0.093839,-0.45438 0,-0.30127 0.093839,-0.45438 0.0889,-0.14817 0.288925,-0.14817 0.1975555,0 0.2864555,0.14817 z"
         style="font-size:2.46944451px;stroke-width:0.26458335"
         id="path897" />
      <path
         d="m 10.32765,261.76932 h 0.303741 v -0.95567 H 9.9078442 v 0.34078 h 0.3383138 q -0.01235,0.121 -0.09384,0.20249 -0.09384,0.0963 -0.2469442,0.0963 -0.111125,0 -0.1827389,-0.0593 -0.069144,-0.0593 -0.1086556,-0.14817 -0.037042,-0.0889 -0.051858,-0.19015 -0.012347,-0.10372 -0.012347,-0.18768 0,-0.0815 0.00988,-0.18767 0.012347,-0.10866 0.049389,-0.20497 0.037042,-0.0963 0.1037166,-0.16051 0.069145,-0.0667 0.1827389,-0.0667 0.143228,0 0.214842,0.0667 0.07408,0.0642 0.13088,0.19015 l 0.365478,-0.0963 q -0.04939,-0.14817 -0.116064,-0.24201 -0.06668,-0.0938 -0.158044,-0.15063 -0.18027,-0.10866 -0.3877031,-0.10866 -0.2197806,0 -0.3728861,0.0815 -0.1506361,0.079 -0.244475,0.21484 -0.09137,0.13335 -0.13335,0.31115 -0.039511,0.17533 -0.039511,0.37042 0,0.1778 0.039511,0.34325 0.04198,0.16299 0.1308805,0.28893 0.0889,0.12594 0.2296584,0.20249 0.1407583,0.0741 0.3407833,0.0741 0.13335,0 0.234597,-0.037 0.101247,-0.037 0.197556,-0.13088 z"
         style="font-size:2.46944451px;stroke-width:0.26458335"
         id="path899" />
    </g>
    <g
       aria-label="DIGITAL"
       style="font-style:normal;font-variant:normal;font-weight:500;font-stretch:normal;font-size:2.11666679px;line-height:1.25;font-family:OldSansBlack;-inkscape-font-specification:'OldSansBlack, Medium';font-variant-ligatures:normal;font-variant-position:normal;font-variant-caps:normal;font-variant-numeric:normal;font-variant-alternates:normal;font-feature-settings:normal;text-indent:0;text-align:start;text-decoration:none;text-decoration-line:none;text-decoration-style:solid;text-decoration-color:#000000;letter-spacing:0px;word-spacing:0px;text-transform:none;writing-mode:lr-tb;direction:ltr;text-orientation:mixed;dominant-baseline:auto;baseline-shift:baseline;text-anchor:start;white-space:normal;shape-padding:0;opacity:1;vector-effect:none;fill:#ffffff;fill-opacity:1;stroke:none;stroke-width:0.26458335;stroke-linecap:butt;stroke-linejoin:miter;stroke-miterlimit:4;stroke-dasharray:none;stroke-dashoffset:0;stroke-opacity:1"
       id="text870">
      <path
         d="m 2.8007251,274.47531 q 0.111125,-0.11853 0.1629834,-0.28645 0.051858,-0.1704 0.051858,-0.39018 0,-0.2099 -0.049389,-0.37782 -0.049389,-0.17039 -0.1531055,-0.2914 -0.1037167,-0.121 -0.2642306,-0.1852 -0.1580444,-0.0667 -0.377825,-0.0667 H 1.5684723 v 1.83727 h 0.6074834 q 0.4099278,0 0.6247694,-0.23954 z m -0.2938639,-1.11372 q 0.054328,0.0716 0.081492,0.18027 0.029633,0.10619 0.029633,0.25188 0,0.11854 -0.019756,0.22472 -0.019756,0.10372 -0.071614,0.18521 -0.049389,0.079 -0.1382889,0.12594 -0.086431,0.0444 -0.22225,0.0444 H 1.9635835 v -1.1557 h 0.2074333 q 0.2271889,0 0.3358444,0.14323 z"
         style="font-size:2.46944451px;stroke-width:0.26458335"
         id="path902" />
      <path
         d="m 3.2649036,274.71485 h 0.3951111 v -1.83727 H 3.2649036 Z"
         style="font-size:2.46944451px;stroke-width:0.26458335"
         id="path904" />
      <path
         d="m 5.0971929,274.71485 h 0.3037416 v -0.95568 H 4.6773873 v 0.34079 h 0.3383139 q -0.012347,0.121 -0.093839,0.20249 -0.093839,0.0963 -0.2469445,0.0963 -0.111125,0 -0.1827388,-0.0593 -0.069145,-0.0593 -0.1086556,-0.14817 -0.037042,-0.0889 -0.051858,-0.19014 -0.012347,-0.10372 -0.012347,-0.18768 0,-0.0815 0.00988,-0.18768 0.012347,-0.10865 0.049389,-0.20496 0.037042,-0.0963 0.1037167,-0.16052 0.069144,-0.0667 0.1827389,-0.0667 0.1432278,0 0.2148416,0.0667 0.074083,0.0642 0.1308806,0.19015 l 0.3654778,-0.0963 q -0.049389,-0.14816 -0.1160639,-0.242 -0.066675,-0.0938 -0.1580445,-0.15064 -0.1802694,-0.10865 -0.3877027,-0.10865 -0.2197806,0 -0.3728862,0.0815 -0.1506361,0.079 -0.244475,0.21484 -0.091369,0.13335 -0.13335,0.31115 -0.039511,0.17533 -0.039511,0.37042 0,0.1778 0.039511,0.34325 0.041981,0.16298 0.1308806,0.28892 0.0889,0.12595 0.2296583,0.2025 0.1407584,0.0741 0.3407834,0.0741 0.13335,0 0.2345972,-0.037 0.1012472,-0.037 0.1975556,-0.13088 z"
         style="font-size:2.46944451px;stroke-width:0.26458335"
         id="path906" />
      <path
         d="m 5.6788822,274.71485 h 0.3951111 v -1.83727 H 5.6788822 Z"
         style="font-size:2.46944451px;stroke-width:0.26458335"
         id="path908" />
      <path
         d="m 7.1752691,273.21589 h 0.4667251 v -0.33831 H 6.3183719 v 0.33831 h 0.4642556 v 1.49896 h 0.3926416 z"
         style="font-size:2.46944451px;stroke-width:0.26458335"
         id="path910" />
      <path
         d="M 8.6084147,274.71485 H 9.0059953 L 8.482473,272.87511 H 8.0182174 l -0.5309305,1.83974 H 7.882398 l 0.1061861,-0.38524 h 0.5210528 z m -0.3531306,-1.37301 0.1679222,0.65193 H 8.0774841 Z"
         style="font-size:2.46944451px;stroke-width:0.26458335"
         id="path912" />
      <path
         d="m 9.1697311,274.71485 h 1.1680469 v -0.34079 H 9.5623728 v -1.49648 H 9.1697311 Z"
         style="font-size:2.46944451px;stroke-width:0.26458335"
         id="path914" />
    </g>
  </g>
</svg>
