<?xml version="1.0" encoding="UTF-8" standalone="no"?>
<svg
   xmlns:dc="http://purl.org/dc/elements/1.1/"
   xmlns:cc="http://creativecommons.org/ns#"
   xmlns:rdf="http://www.w3.org/1999/02/22-rdf-syntax-ns#"
   xmlns:svg="http://www.w3.org/2000/svg"
   xmlns="http://www.w3.org/2000/svg"
   xmlns:xlink="http://www.w3.org/1999/xlink"
   xmlns:sodipodi="http://sodipodi.sourceforge.net/DTD/sodipodi-0.dtd"
   xmlns:inkscape="http://www.inkscape.org/namespaces/inkscape"
   width="240"
   height="380"
   viewBox="0 0 63.500005 100.54167"
   version="1.1"
   id="svg8"
   inkscape:version="1.0.2 (e86c870879, 2021-01-15, custom)"
   sodipodi:docname="MelodyModule.svg">
  <title
     id="title4816">Autinn Melody</title>
  <defs
     id="defs2">
    <linearGradient
       inkscape:collect="always"
       id="linearGradient3397">
      <stop
         style="stop-color:#394000;stop-opacity:1"
         offset="0"
         id="stop3401" />
      <stop
         style="stop-color:#202020;stop-opacity:1"
         offset="1"
         id="stop3403" />
    </linearGradient>
    <rect
       x="12.356802"
       y="202.70615"
       width="0.27768093"
       height="14.300568"
       id="rect89" />
    <inkscape:path-effect
       effect="spiro"
       id="path-effect4668"
       is_visible="true"
       lpeversion="0" />
    <inkscape:path-effect
       effect="spiro"
       id="path-effect2944"
       is_visible="true"
       lpeversion="0" />
    <linearGradient
       inkscape:collect="always"
       xlink:href="#linearGradient3397"
       id="linearGradient3399"
       x1="-211.76888"
       y1="38.673893"
       x2="130.68123"
       y2="299.58408"
       gradientUnits="userSpaceOnUse"
       spreadMethod="pad"
       gradientTransform="scale(0.49999999,1)" />
  </defs>
  <sodipodi:namedview
     id="base"
     pagecolor="#ffffff"
     bordercolor="#666666"
     borderopacity="1.0"
     inkscape:pageopacity="0.0"
     inkscape:pageshadow="2"
     inkscape:zoom="1.5132085"
     inkscape:cx="163.41127"
     inkscape:cy="273.44749"
     inkscape:document-units="px"
     inkscape:current-layer="layer1"
     showgrid="true"
     units="px"
     inkscape:snap-bbox="true"
     inkscape:snap-page="true"
     inkscape:bbox-nodes="false"
     inkscape:snap-bbox-edge-midpoints="true"
     inkscape:window-width="1392"
     inkscape:window-height="986"
     inkscape:window-x="520"
     inkscape:window-y="14"
     inkscape:window-maximized="0"
     inkscape:snap-grids="true"
     inkscape:snap-to-guides="false"
     inkscape:snap-global="false"
     inkscape:pagecheckerboard="true"
     inkscape:snap-nodes="false"
     inkscape:snap-others="false"
     inkscape:document-rotation="0"
     showguides="true">
    <inkscape:grid
       type="xygrid"
       id="grid4367"
       visible="true" />
  </sodipodi:namedview>
  <metadata
     id="metadata5">
    <rdf:RDF>
      <cc:Work
         rdf:about="">
        <dc:format>image/svg+xml</dc:format>
        <dc:type
           rdf:resource="http://purl.org/dc/dcmitype/StillImage" />
        <dc:title>Autinn Melody</dc:title>
      </cc:Work>
    </rdf:RDF>
  </metadata>
  <g
     inkscape:label="Layer 1"
     inkscape:groupmode="layer"
     id="layer1"
     transform="translate(0,-196.45832)"
     style="display:inline">
    <path
       style="opacity:1;vector-effect:none;fill:url(#linearGradient3399);fill-opacity:1;fill-rule:evenodd;stroke:none;stroke-width:0.793819;stroke-linecap:butt;stroke-linejoin:round;stroke-miterlimit:4;stroke-dasharray:none;stroke-dashoffset:0;stroke-opacity:1;paint-order:normal"
       d="M 0,196.45831 H 63.500004 V 296.99999 H 0 Z"
       id="rect817"
       inkscape:connector-curvature="0" />
    <g
       style="font-style:normal;font-weight:normal;font-size:3.52778px;line-height:1.25;font-family:sans-serif;letter-spacing:0px;word-spacing:0px;fill:#000000;fill-opacity:1;stroke:none;stroke-width:0.264583"
       id="text4707" />
    <g
       style="font-style:normal;font-weight:normal;font-size:13.3333px;line-height:1.25;font-family:sans-serif;letter-spacing:0px;word-spacing:0px;fill:#000000;fill-opacity:1;stroke:none"
       id="flowRoot4709" />
    <g
       id="text87"
       style="font-style:normal;font-weight:normal;font-size:10.5833px;line-height:1.25;font-family:sans-serif;white-space:pre;shape-inside:url(#rect89);fill:#000000;fill-opacity:1;stroke:none" />
    <path
       style="fill:none;stroke:#5e110a;stroke-width:4.23333;stroke-linecap:butt;stroke-linejoin:miter;stroke-miterlimit:4;stroke-dasharray:none;stroke-opacity:1"
       d="m 52.207425,304.45515 c 0,0 5.595909,-9.88049 3.456822,-14.28957 -5.526699,-11.39163 -33.539782,-3.21307 -34.525936,-15.83611 -0.836404,-10.70619 24.633674,-7.3067 26.841924,-17.81602 1.601917,-7.62371 -11.397294,-11.97499 -12.62338,-19.66809 -1.073279,-6.7343 5.737249,-13.00483 5.150752,-19.79886 -0.63922,-7.40478 -9.515769,-12.87062 -9.228752,-20.2974 0.05086,-1.31617 1.908255,-3.46015 1.908255,-3.46015"
       id="path4119"
       sodipodi:nodetypes="caaaaaac" />
    <g
       aria-label="Autinn"
       style="font-style:normal;font-weight:normal;font-size:7.05556px;line-height:1.25;font-family:sans-serif;letter-spacing:0px;word-spacing:0px;fill:#ffd700;fill-opacity:1;stroke:none;stroke-width:0.264583"
       id="text3739"
       transform="matrix(0.714,0,0,0.714,8.3504701,64.074589)">
      <path
         d="m 5.0556776,289.41931 q -0.1756999,-0.37896 -0.3858507,-0.93706 -0.2101508,-0.55811 -0.4409722,-1.25057 -0.1171332,0.32728 -0.4375271,0.9095 -0.3169488,0.58223 -0.7820367,1.31948 0.106798,0.007 0.2239312,0.007 0.1205784,0 0.3617351,0 0.3927408,0 0.7544759,-0.0103 0.3651801,-0.0138 0.7062445,-0.0379 z m 0.1481391,0.35485 q -0.099908,0 -0.2480469,0.003 -0.144694,0.003 -0.1963704,0.003 -1.2057834,0 -1.6467556,0.13436 -0.4409722,0.13436 -0.7165798,0.50643 -0.3135037,0.4203 -0.6924642,1.01975 -0.3789605,0.596 -0.4719781,0.596 -0.041341,0 -0.065457,-0.0241 -0.027561,-0.0241 -0.027561,-0.0689 0,-0.0413 0.4478624,-0.75448 0.4478624,-0.71658 0.8371581,-1.38148 0.7544759,-1.30225 1.1368815,-2.09806 0.3858507,-0.79582 0.3858507,-1.05765 0,-0.0344 -0.010335,-0.0758 -0.010335,-0.0448 -0.010335,-0.0517 0,-0.0413 0.2342665,-0.1688 0.2377116,-0.12747 0.323839,-0.12747 0.037896,0 0.2308214,0.65801 0.1929253,0.65457 0.4616427,1.33325 0.757921,1.93615 1.0610894,2.43568 0.3066135,0.49954 0.6028917,0.49954 0.082682,0 0.1722548,-0.0448 0.089573,-0.0482 0.1033528,-0.0482 0.020671,0 0.048231,0.0379 0.031006,0.0379 0.031006,0.0689 0,0.0207 -0.1550293,0.11714 -0.1550292,0.0965 -0.2928331,0.19292 -0.1274685,0.0965 -0.2928331,0.24116 -0.1619195,0.14125 -0.2067057,0.14125 -0.075792,0 -0.2928331,-0.42375 -0.2135959,-0.42375 -0.7510308,-1.66398 z"
         style="font-style:normal;font-variant:normal;font-weight:normal;font-stretch:normal;font-family:'Calligraph421 BT';-inkscape-font-specification:'Calligraph421 BT';fill:#ffd700;fill-opacity:1;stroke-width:0.264583"
         id="path4612"
         inkscape:connector-curvature="0" />
      <path
         d="m 9.6410995,291.31067 q -0.2446018,0.12058 -0.6097819,0.31006 -0.4306369,0.22738 -0.5167643,0.22738 -0.4960938,0 -0.7269151,-0.31695 -0.2273763,-0.31695 -0.2273763,-1.00941 0,-0.16881 0.01378,-0.55811 0.01378,-0.39274 0.01378,-0.61323 0,-0.0482 -0.01378,-0.14469 -0.01378,-0.0999 -0.01378,-0.15159 0,-0.0276 0.1205783,-0.0654 0.096463,-0.031 0.1619195,-0.0551 0.1515842,-0.0551 0.3066135,-0.12058 0.1584744,-0.0689 0.1722547,-0.0689 0.051677,0 0.082682,0.0241 0.031006,0.0207 0.031006,0.0586 0,0.0413 -0.075792,0.11713 -0.072347,0.0758 -0.106798,0.13781 -0.082682,0.14124 -0.1205783,0.37551 -0.034451,0.23427 -0.034451,0.70969 0,0.65801 0.1584744,0.92329 0.1619195,0.26182 0.5477702,0.26182 0.1412489,0 0.3651801,-0.0654 0.2273763,-0.0655 0.4892035,-0.18604 v -1.5124 q 0,-0.40307 -0.1619194,-0.48575 -0.031006,-0.0138 -0.031006,-0.0276 0,-0.11025 0.082682,-0.13092 0.024116,-0.003 0.044786,-0.0103 0.1515842,-0.0551 0.323839,-0.14125 0.1722546,-0.0861 0.1998156,-0.0861 0.04479,0 0.103352,0.0551 0.05857,0.0551 0.05857,0.093 0,0.003 -0.0069,0.031 -0.04823,0.17914 -0.06546,0.43752 -0.01378,0.23771 -0.02067,0.63045 -0.0069,0.3893 -0.0069,0.86472 0,0.36863 0.02412,0.70625 0.0034,0.0517 0.0034,0.062 0,0.0792 -0.2377112,0.20671 -0.2377116,0.13091 -0.2962782,0.13091 -0.02067,0 -0.031006,-0.031 -0.00689,-0.0276 -0.00689,-0.0965 v -0.10335 q 0,-0.0758 0,-0.17226 0.00345,-0.0965 0.00689,-0.21015 z"
         style="font-style:normal;font-variant:normal;font-weight:normal;font-stretch:normal;font-family:'Calligraph421 BT';-inkscape-font-specification:'Calligraph421 BT';fill:#ffd700;fill-opacity:1;stroke-width:0.264583"
         id="path4614"
         inkscape:connector-curvature="0" />
      <path
         d="m 11.346421,291.48637 q 0.0034,-0.30661 0.0034,-0.60289 0.0034,-0.29628 0.0034,-0.65801 0,-0.21704 -0.0034,-0.46165 0,-0.2446 -0.0034,-0.51331 h -0.19637 q -0.04479,0 -0.05857,-0.0103 -0.01033,-0.0138 -0.01378,-0.0586 0.0034,-0.0723 0.06201,-0.11713 0.02067,-0.0172 0.02756,-0.0241 l 0.799263,-0.72002 q 0.05512,-0.0551 0.07924,-0.0689 0.02412,-0.0172 0.04823,-0.0172 0.02412,0 0.04479,0.0207 0.02067,0.0172 0.02067,0.0448 0,0.0103 -0.03445,0.0827 -0.120578,0.25494 -0.151584,0.50988 h 1.036973 q 0.04823,0 0.06546,0.0344 0.02067,0.0344 0.02067,0.12057 0,0.10336 -0.02412,0.13092 -0.02412,0.0241 -0.158474,0.0241 h -0.981852 q -0.02412,0.30317 -0.0379,0.58912 -0.01034,0.28249 -0.01034,0.53743 0,0.61323 0.16881,0.8785 0.172255,0.26527 0.558105,0.26527 0.199816,0 0.416857,-0.0861 0.217041,-0.0896 0.230821,-0.0896 0.01378,0 0.02412,0.0172 0.01033,0.0138 0.01033,0.031 v 0.0517 q 0,0.13436 -0.36518,0.2825 -0.36518,0.14814 -0.706244,0.14814 -0.268718,0 -0.499539,-0.0896 -0.230822,-0.0896 -0.375516,-0.25149 z"
         style="font-style:normal;font-variant:normal;font-weight:normal;font-stretch:normal;font-family:'Calligraph421 BT';-inkscape-font-specification:'Calligraph421 BT';fill:#ffd700;fill-opacity:1;stroke-width:0.264583"
         id="path4616"
         inkscape:connector-curvature="0" />
      <path
         d="m 14.677829,289.9223 v 1.55718 q 0,0.0482 -0.0069,0.10335 0,0.0138 0,0.0172 0,0.0482 -0.02412,0.0792 -0.02067,0.0276 -0.07579,0.0482 -0.124023,0.0413 -0.261827,0.0861 -0.137804,0.0482 -0.141249,0.0482 -0.02756,0 -0.04134,-0.062 -0.01378,-0.062 -0.01378,-0.31351 v -1.69843 q 0,-0.3893 -0.05512,-0.48576 -0.05512,-0.0999 -0.199816,-0.0999 -0.0379,0 -0.09991,0.0207 -0.05857,0.0207 -0.07579,0.0207 -0.0379,0 -0.06201,-0.0345 -0.02412,-0.0344 -0.02412,-0.093 0.0034,-0.0517 0.203261,-0.10336 0.141249,-0.0344 0.234266,-0.0654 0.16881,-0.0551 0.354845,-0.12747 0.186035,-0.0758 0.210151,-0.0758 0.03445,0 0.07235,0.0344 0.04134,0.0344 0.04134,0.0689 0,0.0138 -0.0034,0.0827 -0.03101,0.47887 -0.03101,0.99219 z m -0.347954,-3.00068 q 0.158474,0 0.268717,0.11369 0.113688,0.11369 0.113688,0.26872 0,0.15847 -0.110243,0.26527 -0.110243,0.1068 -0.272162,0.1068 -0.15503,0 -0.265273,-0.1068 -0.106798,-0.11024 -0.106798,-0.26527 0,-0.15848 0.106798,-0.26872 0.110243,-0.11369 0.265273,-0.11369 z"
         style="font-style:normal;font-variant:normal;font-weight:normal;font-stretch:normal;font-family:'Calligraph421 BT';-inkscape-font-specification:'Calligraph421 BT';fill:#ffd700;fill-opacity:1;stroke-width:0.264583"
         id="path4618"
         inkscape:connector-curvature="0" />
      <path
         d="m 16.014526,291.70686 v -1.5813 q 0,-0.48576 -0.106798,-0.7028 -0.103353,-0.22049 -0.33073,-0.22049 -0.03101,0 -0.07924,0.0103 -0.04479,0.0103 -0.06201,0.0103 -0.03445,0 -0.05512,-0.0276 -0.01722,-0.0276 -0.01722,-0.0792 0,-0.0344 0.130913,-0.0792 0.09646,-0.031 0.151584,-0.0551 0.210151,-0.0861 0.389296,-0.20671 0.04823,-0.031 0.05512,-0.031 0.07235,0 0.20326,0.14814 0.130914,0.14469 0.199816,0.3445 0.347954,-0.2067 0.689019,-0.32383 0.341064,-0.12058 0.575331,-0.12058 0.389296,0 0.56155,0.29628 0.172255,0.29283 0.172255,0.98874 0,0.32039 -0.02067,0.70624 -0.01723,0.38585 -0.01723,0.44097 0,0.0861 0.03101,0.11714 0.03101,0.031 0.110243,0.031 0.04134,0 0.120578,-0.031 0.08268,-0.031 0.120579,-0.031 0.02756,0 0.04479,0.031 0.01722,0.031 0.01722,0.0827 0,0.0724 -0.19637,0.12402 -0.165365,0.0448 -0.282498,0.0861 -0.16881,0.0655 -0.341064,0.15159 -0.16881,0.0896 -0.189481,0.0896 -0.03445,0 -0.05857,-0.0241 -0.02412,-0.0207 -0.02412,-0.0551 0,-0.007 0.01378,-0.0517 0.148139,-0.50987 0.148139,-1.25401 0,-0.68557 -0.18259,-1.00252 -0.18259,-0.31695 -0.571886,-0.31695 -0.1757,0 -0.3514,0.0827 -0.172255,0.0827 -0.327284,0.23771 0,0.0482 0.0034,0.20326 0.0034,0.15159 0.0034,0.25494 0,0.5271 -0.0069,0.97841 -0.0069,0.44786 -0.02067,0.75792 l -0.403076,0.14125 q -0.0034,0 -0.01378,0.003 -0.01033,0.003 -0.02756,0.003 -0.03101,0 -0.04479,-0.0276 -0.01034,-0.0276 -0.01034,-0.0999 z"
         style="font-style:normal;font-variant:normal;font-weight:normal;font-stretch:normal;font-family:'Calligraph421 BT';-inkscape-font-specification:'Calligraph421 BT';fill:#ffd700;fill-opacity:1;stroke-width:0.264583"
         id="path4620"
         inkscape:connector-curvature="0" />
      <path
         d="m 19.790351,291.70686 v -1.5813 q 0,-0.48576 -0.106798,-0.7028 -0.103353,-0.22049 -0.330729,-0.22049 -0.03101,0 -0.07924,0.0103 -0.04479,0.0103 -0.06201,0.0103 -0.03445,0 -0.05512,-0.0276 -0.01723,-0.0276 -0.01723,-0.0792 0,-0.0344 0.130914,-0.0792 0.09646,-0.031 0.151584,-0.0551 0.210151,-0.0861 0.389296,-0.20671 0.04823,-0.031 0.05512,-0.031 0.07235,0 0.203261,0.14814 0.130913,0.14469 0.199815,0.3445 0.347955,-0.2067 0.689019,-0.32383 0.341065,-0.12058 0.575331,-0.12058 0.389296,0 0.561551,0.29628 0.172255,0.29283 0.172255,0.98874 0,0.32039 -0.02067,0.70624 -0.01722,0.38585 -0.01722,0.44097 0,0.0861 0.03101,0.11714 0.03101,0.031 0.110244,0.031 0.04134,0 0.120578,-0.031 0.08268,-0.031 0.120578,-0.031 0.02756,0 0.04479,0.031 0.01723,0.031 0.01723,0.0827 0,0.0724 -0.196371,0.12402 -0.165364,0.0448 -0.282497,0.0861 -0.16881,0.0655 -0.341065,0.15159 -0.168809,0.0896 -0.18948,0.0896 -0.03445,0 -0.05857,-0.0241 -0.02412,-0.0207 -0.02412,-0.0551 0,-0.007 0.01378,-0.0517 0.148139,-0.50987 0.148139,-1.25401 0,-0.68557 -0.18259,-1.00252 -0.18259,-0.31695 -0.571886,-0.31695 -0.1757,0 -0.351399,0.0827 -0.172255,0.0827 -0.327285,0.23771 0,0.0482 0.0034,0.20326 0.0034,0.15159 0.0034,0.25494 0,0.5271 -0.0069,0.97841 -0.0069,0.44786 -0.02067,0.75792 l -0.403076,0.14125 q -0.0034,0 -0.01378,0.003 -0.01033,0.003 -0.02756,0.003 -0.03101,0 -0.04479,-0.0276 -0.01033,-0.0276 -0.01033,-0.0999 z"
         style="font-style:normal;font-variant:normal;font-weight:normal;font-stretch:normal;font-family:'Calligraph421 BT';-inkscape-font-specification:'Calligraph421 BT';fill:#ffd700;fill-opacity:1;stroke-width:0.264583"
         id="path4622"
         inkscape:connector-curvature="0" />
    </g>
    <g
       aria-label="FLUENCERATOR"
       id="text1509"
       style="font-size:4.93889px;line-height:1.25;font-family:OldSansBlack;-inkscape-font-specification:OldSansBlack;stroke-width:0.264583">
      <path
         d="m 14.362671,203.77471 h 1.595261 v -0.68157 h -2.380544 v 3.67454 h 0.785283 v -1.57551 l 1.195211,-0.005 -0.0049,-0.67169 h -1.190273 z"
         style="font-size:4.93889px;fill:#ffffff;stroke-width:0.264583"
         id="path2118" />
      <path
         d="m 16.323409,206.76768 h 2.336095 v -0.68157 h -1.550811 v -2.99297 h -0.785284 z"
         style="font-size:4.93889px;fill:#ffffff;stroke-width:0.264583"
         id="path2120" />
      <path
         d="m 21.573448,206.44665 q 0.365478,-0.37042 0.365478,-1.07174 v -2.28177 h -0.785284 v 2.27189 q 0,0.42475 -0.143228,0.59761 -0.06914,0.084 -0.192616,0.12841 -0.118534,0.0445 -0.306212,0.0445 -0.350661,0 -0.484011,-0.1778 -0.143228,-0.17286 -0.143228,-0.60255 v -2.26201 h -0.785283 v 2.31634 q 0,0.68157 0.370417,1.04705 0.375355,0.36054 1.051983,0.36054 0.686506,0 1.051984,-0.37042 z"
         style="font-size:4.93889px;fill:#ffffff;stroke-width:0.264583"
         id="path2122" />
      <path
         d="m 22.482192,206.76768 h 2.523772 v -0.68157 h -1.738489 v -0.89394 l 1.224845,-0.005 v -0.67169 h -1.224845 v -0.74083 h 1.679223 v -0.68157 h -2.464506 z"
         style="font-size:4.93889px;fill:#ffffff;stroke-width:0.264583"
         id="path2124" />
      <path
         d="m 27.623567,206.76768 h 0.735894 v -3.67454 H 27.60875 v 2.30152 l -1.328561,-2.30152 h -0.795162 v 3.67454 h 0.750712 v -2.41018 z"
         style="font-size:4.93889px;fill:#ffffff;stroke-width:0.264583"
         id="path2126" />
      <path
         d="m 31.149925,206.57012 q 0.172861,-0.12347 0.301272,-0.31115 0.13335,-0.18768 0.242006,-0.46919 l -0.740834,-0.19262 q -0.05433,0.11853 -0.113594,0.21731 -0.05927,0.0988 -0.13335,0.17286 -0.07408,0.0692 -0.1778,0.10866 -0.09878,0.0395 -0.242006,0.0395 -0.365478,0 -0.523522,-0.2914 -0.172861,-0.30127 -0.172861,-0.889 0,-0.10865 0.0049,-0.242 0.0099,-0.13335 0.03457,-0.2667 0.02469,-0.13829 0.06914,-0.2667 0.04939,-0.12841 0.123473,-0.22719 0.07408,-0.10372 0.182739,-0.16298 0.113594,-0.0642 0.261761,-0.0642 0.256822,0 0.395111,0.14817 0.138289,0.14816 0.217311,0.37535 l 0.721078,-0.17286 q -0.09384,-0.32103 -0.22225,-0.51858 -0.123472,-0.2025 -0.296333,-0.30621 -0.340784,-0.20744 -0.790223,-0.20744 -0.414867,0 -0.701322,0.15805 -0.286456,0.15804 -0.464256,0.42474 -0.172861,0.26176 -0.251883,0.60255 -0.07408,0.34078 -0.07408,0.70132 0,0.36548 0.07408,0.70626 0.07902,0.33584 0.251883,0.60254 0.172861,0.26177 0.459317,0.41981 0.286455,0.15805 0.701322,0.15805 0.523523,0 0.864306,-0.24695 z"
         style="font-size:4.93889px;fill:#ffffff;stroke-width:0.264583"
         id="path2128" />
      <path
         d="m 32.083366,206.76768 h 2.523773 v -0.68157 h -1.73849 v -0.89394 l 1.224845,-0.005 v -0.67169 h -1.224845 v -0.74083 h 1.679223 v -0.68157 h -2.464506 z"
         style="font-size:4.93889px;fill:#ffffff;stroke-width:0.264583"
         id="path2130" />
      <path
         d="m 37.032126,206.76768 h 0.879123 l -0.8001,-1.61502 q 0.306211,-0.10866 0.469194,-0.34572 0.167922,-0.24201 0.167922,-0.56798 0,-0.28151 -0.0889,-0.49388 -0.08396,-0.21732 -0.242005,-0.36054 -0.153106,-0.14323 -0.375356,-0.21731 -0.22225,-0.0741 -0.493889,-0.0741 h -1.476728 v 3.67454 h 0.785284 v -1.45204 h 0.503766 z m -0.212372,-2.89913 q 0.06421,0.0543 0.09878,0.14323 0.03457,0.0889 0.03457,0.21731 0,0.14322 -0.05433,0.22719 -0.05433,0.084 -0.143228,0.12841 -0.0889,0.0445 -0.202494,0.0593 -0.113594,0.01 -0.227189,0.01 h -0.469194 v -0.89888 h 0.548216 q 0.286456,0 0.414867,0.1136 z"
         style="font-size:4.93889px;fill:#ffffff;stroke-width:0.264583"
         id="path2132" />
      <path
         d="m 40.267097,206.76768 h 0.795161 l -1.047045,-3.67948 h -0.928511 l -1.061861,3.67948 h 0.790222 l 0.212372,-0.77047 h 1.042106 z m -0.706261,-2.74603 0.335844,1.30387 h -0.691445 z"
         style="font-size:4.93889px;fill:#ffffff;stroke-width:0.264583"
         id="path2134" />
      <path
         d="m 42.474771,203.76977 h 0.93345 v -0.67663 h -2.647245 v 0.67663 h 0.928511 v 2.99791 h 0.785284 z"
         style="font-size:4.93889px;fill:#ffffff;stroke-width:0.264583"
         id="path2136" />
      <path
         d="m 46.262898,206.3133 q 0.395111,-0.48895 0.395111,-1.38289 0,-0.3803 -0.08396,-0.72108 -0.07902,-0.34572 -0.2667,-0.60254 -0.182739,-0.26176 -0.479073,-0.40993 -0.291394,-0.15311 -0.721078,-0.15311 -0.429683,0 -0.726016,0.15311 -0.296334,0.14817 -0.484012,0.40993 -0.182738,0.25682 -0.2667,0.60254 -0.07902,0.34078 -0.07902,0.72108 0,0.38029 0.07902,0.72602 0.08396,0.34078 0.2667,0.60254 0.187678,0.25682 0.484012,0.40993 0.296333,0.14817 0.726016,0.14817 0.755651,0 1.155701,-0.50377 z m -0.582789,-2.29165 q 0.187678,0.30621 0.187678,0.90876 0,0.60254 -0.187678,0.90875 -0.1778,0.29634 -0.572912,0.29634 -0.40005,0 -0.57785,-0.29634 -0.187677,-0.30621 -0.187677,-0.90875 0,-0.60255 0.187677,-0.90876 0.1778,-0.29633 0.57785,-0.29633 0.395112,0 0.572912,0.29633 z"
         style="font-size:4.93889px;fill:#ffffff;stroke-width:0.264583"
         id="path2138" />
      <path
         d="m 49.043494,206.76768 h 0.879123 l -0.800101,-1.61502 q 0.306212,-0.10866 0.469195,-0.34572 0.167922,-0.24201 0.167922,-0.56798 0,-0.28151 -0.0889,-0.49388 -0.08396,-0.21732 -0.242005,-0.36054 -0.153106,-0.14323 -0.375356,-0.21731 -0.22225,-0.0741 -0.493889,-0.0741 h -1.476728 v 3.67454 h 0.785283 v -1.45204 h 0.503767 z m -0.212372,-2.89913 q 0.06421,0.0543 0.09878,0.14323 0.03457,0.0889 0.03457,0.21731 0,0.14322 -0.05433,0.22719 -0.05433,0.084 -0.143228,0.12841 -0.0889,0.0445 -0.202494,0.0593 -0.113595,0.01 -0.227189,0.01 h -0.469195 v -0.89888 h 0.548217 q 0.286456,0 0.414867,0.1136 z"
         style="font-size:4.93889px;fill:#ffffff;stroke-width:0.264583"
         id="path2140" />
    </g>
    <g
       aria-label="TONIC"
       id="text1513"
       style="font-size:2.82222px;line-height:1.25;font-family:OldSansBlack;-inkscape-font-specification:OldSansBlack;fill:#ffffff;stroke-width:0.264583"
       transform="translate(0,-9.2847387)">
      <path
         d="m 17.972285,222.02737 h 0.533399 v -0.38665 h -1.51271 v 0.38665 h 0.530578 v 1.71309 h 0.448733 z"
         style="font-size:2.82222px;fill:#ffffff;stroke-width:0.264583"
         id="path2143" />
      <path
         d="m 20.136927,223.48081 q 0.225777,-0.2794 0.225777,-0.79022 0,-0.21731 -0.04798,-0.41204 -0.04516,-0.19756 -0.1524,-0.34431 -0.104422,-0.14958 -0.273755,-0.23425 -0.166511,-0.0875 -0.412045,-0.0875 -0.245533,0 -0.414866,0.0875 -0.169333,0.0847 -0.276578,0.23425 -0.104422,0.14675 -0.152399,0.34431 -0.04516,0.19473 -0.04516,0.41204 0,0.21731 0.04516,0.41487 0.04798,0.19473 0.152399,0.34431 0.107245,0.14675 0.276578,0.23424 0.169333,0.0847 0.414866,0.0847 0.4318,0 0.6604,-0.28787 z m -0.333022,-1.30951 q 0.107244,0.17498 0.107244,0.51929 0,0.34431 -0.107244,0.51929 -0.1016,0.16933 -0.327378,0.16933 -0.228599,0 -0.330199,-0.16933 -0.107245,-0.17498 -0.107245,-0.51929 0,-0.34431 0.107245,-0.51929 0.1016,-0.16933 0.330199,-0.16933 0.225778,0 0.327378,0.16933 z"
         style="font-size:2.82222px;fill:#ffffff;stroke-width:0.264583"
         id="path2145" />
      <path
         d="m 21.835903,223.74046 h 0.420511 v -2.09974 h -0.428978 v 1.31516 l -0.759177,-1.31516 h -0.454378 v 2.09974 h 0.428978 v -1.37725 z"
         style="font-size:2.82222px;fill:#ffffff;stroke-width:0.264583"
         id="path2147" />
      <path
         d="m 22.566849,223.74046 h 0.451555 v -2.09974 h -0.451555 z"
         style="font-size:2.82222px;fill:#ffffff;stroke-width:0.264583"
         id="path2149" />
      <path
         d="m 24.660931,223.62757 q 0.09878,-0.0706 0.172156,-0.1778 0.0762,-0.10725 0.138288,-0.26811 l -0.423333,-0.11007 q -0.03104,0.0677 -0.06491,0.12418 -0.03387,0.0564 -0.0762,0.0988 -0.04233,0.0395 -0.1016,0.0621 -0.05644,0.0226 -0.138288,0.0226 -0.208845,0 -0.299156,-0.16651 -0.09878,-0.17215 -0.09878,-0.508 0,-0.0621 0.0028,-0.13829 0.0056,-0.0762 0.01975,-0.1524 0.01411,-0.079 0.03951,-0.1524 0.02822,-0.0734 0.07056,-0.12982 0.04233,-0.0593 0.104422,-0.0931 0.06491,-0.0367 0.149578,-0.0367 0.146755,0 0.225777,0.0847 0.07902,0.0847 0.124178,0.21448 l 0.412044,-0.0988 q -0.05362,-0.18345 -0.127,-0.29634 -0.07055,-0.11571 -0.169333,-0.17497 -0.194733,-0.11854 -0.451555,-0.11854 -0.237067,0 -0.400755,0.0903 -0.163689,0.0903 -0.265289,0.24271 -0.09878,0.14958 -0.143933,0.34431 -0.04233,0.19474 -0.04233,0.40076 0,0.20884 0.04233,0.40358 0.04515,0.19191 0.143933,0.34431 0.09878,0.14958 0.262466,0.23989 0.163689,0.0903 0.400756,0.0903 0.299155,0 0.493888,-0.14111 z"
         style="font-size:2.82222px;fill:#ffffff;stroke-width:0.264583"
         id="path2151" />
    </g>
    <g
       aria-label="MODE"
       id="text1513-9"
       style="font-size:2.82222px;line-height:1.25;font-family:OldSansBlack;-inkscape-font-specification:OldSansBlack;display:inline;fill:#ffffff;stroke-width:0.264583"
       transform="translate(0,-9.2847387)">
      <path
         d="m 39.916566,223.78268 h 0.400755 v -2.09973 h -0.606777 l -0.375356,1.34902 -0.372533,-1.34902 h -0.601132 v 2.09973 h 0.400755 v -1.42805 l 0.403577,1.42805 h 0.341489 l 0.409222,-1.43087 z"
         style="font-size:2.82222px;fill:#ffffff;stroke-width:0.264583"
         id="path2154" />
      <path
         d="m 42.117893,223.52303 q 0.225777,-0.2794 0.225777,-0.79022 0,-0.21731 -0.04798,-0.41204 -0.04516,-0.19756 -0.152399,-0.34431 -0.104423,-0.14958 -0.273756,-0.23425 -0.166511,-0.0875 -0.412044,-0.0875 -0.245533,0 -0.414866,0.0875 -0.169333,0.0847 -0.276578,0.23425 -0.104422,0.14675 -0.1524,0.34431 -0.04516,0.19473 -0.04516,0.41204 0,0.21731 0.04516,0.41487 0.04798,0.19473 0.1524,0.34431 0.107245,0.14675 0.276578,0.23424 0.169333,0.0847 0.414866,0.0847 0.4318,0 0.6604,-0.28787 z m -0.333022,-1.30951 q 0.107244,0.17498 0.107244,0.51929 0,0.34431 -0.107244,0.51929 -0.1016,0.16933 -0.327378,0.16933 -0.2286,0 -0.3302,-0.16933 -0.107244,-0.17498 -0.107244,-0.51929 0,-0.34431 0.107244,-0.51929 0.1016,-0.16933 0.3302,-0.16933 0.225778,0 0.327378,0.16933 z"
         style="font-size:2.82222px;fill:#ffffff;stroke-width:0.264583"
         id="path2156" />
      <path
         d="m 43.994669,223.50892 q 0.127,-0.13546 0.186266,-0.32738 0.05927,-0.19473 0.05927,-0.44591 0,-0.23989 -0.05644,-0.4318 -0.05644,-0.19473 -0.174977,-0.33302 -0.118533,-0.13829 -0.301978,-0.21166 -0.180622,-0.0762 -0.431799,-0.0762 h -0.688622 v 2.09973 h 0.694266 q 0.468489,0 0.714022,-0.27376 z m -0.335844,-1.27282 q 0.06209,0.0818 0.09313,0.20602 0.03387,0.12136 0.03387,0.28787 0,0.13547 -0.02258,0.25682 -0.02258,0.11853 -0.08185,0.21167 -0.05644,0.0903 -0.158044,0.14393 -0.09878,0.0508 -0.254,0.0508 h -0.231422 v -1.3208 h 0.237067 q 0.259644,0 0.383822,0.16369 z"
         style="font-size:2.82222px;fill:#ffffff;stroke-width:0.264583"
         id="path2158" />
      <path
         d="m 44.485734,223.78268 h 1.442155 v -0.38947 h -0.993422 v -0.51082 l 0.699911,-0.003 v -0.38383 h -0.699911 v -0.42333 h 0.959555 v -0.38946 h -1.408288 z"
         style="font-size:2.82222px;fill:#ffffff;stroke-width:0.264583"
         id="path2160" />
    </g>
    <g
       aria-label="LENGTH"
       id="text1513-8"
       style="font-size:2.82222px;line-height:1.25;font-family:OldSansBlack;-inkscape-font-specification:OldSansBlack;display:inline;fill:#ffffff;stroke-width:0.264583"
       transform="translate(0,-9.2847387)">
      <path
         d="m 15.73877,238.2413 h 1.334911 v -0.38947 h -0.886178 v -1.71027 H 15.73877 Z"
         style="font-size:2.82222px;fill:#ffffff;stroke-width:0.264583"
         id="path2163" />
      <path
         d="m 17.324857,238.2413 h 1.442155 v -0.38947 H 17.77359 v -0.51082 l 0.699911,-0.003 v -0.38382 H 17.77359 v -0.42333 h 0.959555 v -0.38947 h -1.408288 z"
         style="font-size:2.82222px;fill:#ffffff;stroke-width:0.264583"
         id="path2165" />
      <path
         d="m 20.262783,238.2413 h 0.420511 v -2.09974 h -0.428977 v 1.31516 l -0.759178,-1.31516 h -0.454377 v 2.09974 h 0.428978 v -1.37725 z"
         style="font-size:2.82222px;fill:#ffffff;stroke-width:0.264583"
         id="path2167" />
      <path
         d="m 22.275021,238.2413 h 0.347133 v -1.0922 h -0.82691 v 0.38946 h 0.386644 q -0.01411,0.13829 -0.107244,0.23142 -0.107245,0.11007 -0.282222,0.11007 -0.127,0 -0.208845,-0.0677 -0.07902,-0.0677 -0.124177,-0.16934 -0.04233,-0.1016 -0.05927,-0.21731 -0.01411,-0.11853 -0.01411,-0.21449 0,-0.0931 0.01129,-0.21448 0.01411,-0.12418 0.05644,-0.23425 0.04233,-0.11006 0.118534,-0.18344 0.07902,-0.0762 0.208844,-0.0762 0.163689,0 0.245533,0.0762 0.08467,0.0734 0.149578,0.21731 l 0.417688,-0.11007 q -0.05644,-0.16933 -0.132644,-0.27658 -0.0762,-0.10724 -0.180622,-0.17215 -0.206022,-0.12418 -0.443089,-0.12418 -0.251177,0 -0.426155,0.0931 -0.172155,0.0903 -0.2794,0.24554 -0.104422,0.1524 -0.1524,0.3556 -0.04515,0.20038 -0.04515,0.42333 0,0.2032 0.04515,0.39229 0.04798,0.18627 0.149578,0.3302 0.1016,0.14393 0.262466,0.23142 0.160867,0.0847 0.389467,0.0847 0.1524,0 0.268111,-0.0423 0.115711,-0.0423 0.225777,-0.14957 z"
         style="font-size:2.82222px;fill:#ffffff;stroke-width:0.264583"
         id="path2169" />
      <path
         d="m 23.770797,236.52821 h 0.5334 v -0.38665 h -1.51271 v 0.38665 h 0.530577 v 1.71309 h 0.448733 z"
         style="font-size:2.82222px;fill:#ffffff;stroke-width:0.264583"
         id="path2171" />
      <path
         d="m 25.704017,238.2413 h 0.454378 v -2.09974 h -0.454378 v 0.80998 h -0.711199 v -0.80998 h -0.454377 v 2.09974 h 0.454377 v -0.87489 h 0.711199 z"
         style="font-size:2.82222px;fill:#ffffff;stroke-width:0.264583"
         id="path2173" />
    </g>
    <g
       aria-label="EXPRESSION"
       id="text1513-7"
       style="font-size:2.82222px;line-height:1.25;font-family:OldSansBlack;-inkscape-font-specification:OldSansBlack;display:inline;fill:#ffffff;stroke-width:0.264583"
       transform="translate(0,-9.2847387)">
      <path
         d="m 33.85898,238.28077 h 1.442154 v -0.38947 h -0.993421 v -0.51082 l 0.699911,-0.003 v -0.38382 h -0.699911 v -0.42334 h 0.959555 v -0.38946 H 33.85898 Z"
         style="font-size:2.82222px;fill:#ffffff;stroke-width:0.264583"
         id="path2176" />
      <path
         d="m 36.480817,238.28077 h 0.493889 l -0.567266,-1.07527 0.533399,-1.02446 h -0.493888 l -0.285045,0.58984 -0.285044,-0.58984 h -0.493888 l 0.533399,1.02446 -0.567266,1.07527 h 0.493889 l 0.31891,-0.65193 z"
         style="font-size:2.82222px;fill:#ffffff;stroke-width:0.264583"
         id="path2178" />
      <path
         d="m 38.436615,237.29581 q 0.200378,-0.16368 0.200378,-0.47413 0,-0.17498 -0.05927,-0.29633 -0.05644,-0.12418 -0.158044,-0.20038 -0.1016,-0.0762 -0.239889,-0.11007 -0.135466,-0.0339 -0.296333,-0.0339 h -0.776111 v 2.09973 h 0.451556 v -0.82409 h 0.321733 q 0.361244,0 0.555977,-0.16087 z m -0.3302,-0.67451 q 0.03669,0.0282 0.05645,0.079 0.01975,0.048 0.01975,0.127 0,0.079 -0.02822,0.12982 -0.02822,0.048 -0.0762,0.0762 -0.04516,0.0254 -0.107244,0.0367 -0.05927,0.008 -0.127,0.008 h -0.285044 v -0.51928 h 0.285044 q 0.183444,0 0.262466,0.0621 z"
         style="font-size:2.82222px;fill:#ffffff;stroke-width:0.264583"
         id="path2180" />
      <path
         d="m 39.980364,238.28077 h 0.502355 L 40.02552,237.3579 q 0.174977,-0.0621 0.268111,-0.19755 0.09596,-0.13829 0.09596,-0.32456 0,-0.16086 -0.0508,-0.28222 -0.04798,-0.12418 -0.138289,-0.20602 -0.08749,-0.0819 -0.214488,-0.12418 -0.127,-0.0423 -0.282222,-0.0423 h -0.843844 v 2.09973 h 0.448733 v -0.82973 h 0.287866 z m -0.121355,-1.65664 q 0.03669,0.031 0.05644,0.0818 0.01976,0.0508 0.01976,0.12418 0,0.0818 -0.03104,0.12982 -0.03104,0.048 -0.08184,0.0734 -0.0508,0.0254 -0.115711,0.0339 -0.06491,0.006 -0.129822,0.006 h -0.268111 v -0.51364 h 0.313266 q 0.163689,0 0.237067,0.0649 z"
         style="font-size:2.82222px;fill:#ffffff;stroke-width:0.264583"
         id="path2182" />
      <path
         d="m 40.759297,238.28077 h 1.442154 V 237.8913 H 41.20803 v -0.51082 l 0.69991,-0.003 v -0.38382 h -0.69991 v -0.42334 h 0.959555 v -0.38946 h -1.408288 z"
         style="font-size:2.82222px;fill:#ffffff;stroke-width:0.264583"
         id="path2184" />
      <path
         d="m 43.688756,238.1453 q 0.197556,-0.16933 0.197556,-0.47695 0,-0.28505 -0.200378,-0.43462 -0.189089,-0.14676 -0.428978,-0.2286 -0.169333,-0.0593 -0.304799,-0.13547 -0.06491,-0.0367 -0.09313,-0.0762 -0.0254,-0.0395 -0.0254,-0.0818 0,-0.0536 0.02258,-0.0903 0.0254,-0.0395 0.06209,-0.0593 0.03951,-0.0226 0.08467,-0.031 0.04798,-0.0113 0.09313,-0.0113 0.141111,0 0.217311,0.0762 0.07902,0.0734 0.129822,0.19474 l 0.414866,-0.127 q -0.06209,-0.14394 -0.138288,-0.23707 -0.0762,-0.0931 -0.174978,-0.1524 -0.197556,-0.12135 -0.445911,-0.12135 -0.296333,0 -0.493888,0.16368 -0.197556,0.16369 -0.197556,0.41487 0,0.254 0.169333,0.39793 0.160867,0.13265 0.488244,0.25683 0.166511,0.0621 0.285045,0.14111 0.107244,0.0705 0.107244,0.17497 0,0.0706 -0.0254,0.11854 -0.0254,0.0452 -0.07055,0.0734 -0.04233,0.0254 -0.09878,0.0367 -0.05644,0.0113 -0.115711,0.0113 -0.08467,0 -0.1524,-0.0226 -0.06491,-0.0254 -0.115711,-0.0677 -0.0508,-0.0423 -0.09031,-0.1016 -0.03951,-0.0621 -0.07338,-0.13546 l -0.375355,0.16368 q 0.06491,0.1524 0.149578,0.25118 0.08467,0.096 0.200377,0.15805 0.217311,0.12135 0.445911,0.12135 0.3556,0 0.553155,-0.16369 z"
         style="font-size:2.82222px;fill:#ffffff;stroke-width:0.264583"
         id="path2186" />
      <path
         d="m 45.413127,238.1453 q 0.197555,-0.16933 0.197555,-0.47695 0,-0.28505 -0.200377,-0.43462 -0.189089,-0.14676 -0.428978,-0.2286 -0.169333,-0.0593 -0.304799,-0.13547 -0.06491,-0.0367 -0.09313,-0.0762 -0.0254,-0.0395 -0.0254,-0.0818 0,-0.0536 0.02258,-0.0903 0.0254,-0.0395 0.06209,-0.0593 0.03951,-0.0226 0.08467,-0.031 0.04798,-0.0113 0.09313,-0.0113 0.141111,0 0.217311,0.0762 0.07902,0.0734 0.129822,0.19474 l 0.414866,-0.127 q -0.06209,-0.14394 -0.138289,-0.23707 -0.0762,-0.0931 -0.174977,-0.1524 -0.197556,-0.12135 -0.445911,-0.12135 -0.296333,0 -0.493888,0.16368 -0.197556,0.16369 -0.197556,0.41487 0,0.254 0.169333,0.39793 0.160867,0.13265 0.488244,0.25683 0.166511,0.0621 0.285045,0.14111 0.107244,0.0705 0.107244,0.17497 0,0.0706 -0.0254,0.11854 -0.0254,0.0452 -0.07056,0.0734 -0.04233,0.0254 -0.09878,0.0367 -0.05645,0.0113 -0.115711,0.0113 -0.08467,0 -0.1524,-0.0226 -0.06491,-0.0254 -0.115711,-0.0677 -0.0508,-0.0423 -0.09031,-0.1016 -0.03951,-0.0621 -0.07338,-0.13546 l -0.375355,0.16368 q 0.06491,0.1524 0.149578,0.25118 0.08467,0.096 0.200377,0.15805 0.217311,0.12135 0.445911,0.12135 0.3556,0 0.553155,-0.16369 z"
         style="font-size:2.82222px;fill:#ffffff;stroke-width:0.264583"
         id="path2188" />
      <path
         d="m 45.9691,238.28077 h 0.451555 v -2.09973 H 45.9691 Z"
         style="font-size:2.82222px;fill:#ffffff;stroke-width:0.264583"
         id="path2190" />
      <path
         d="m 48.269204,238.02113 q 0.225777,-0.2794 0.225777,-0.79023 0,-0.21731 -0.04798,-0.41204 -0.04516,-0.19756 -0.152399,-0.34431 -0.104423,-0.14958 -0.273756,-0.23425 -0.166511,-0.0875 -0.412044,-0.0875 -0.245533,0 -0.414866,0.0875 -0.169334,0.0847 -0.276578,0.23425 -0.104422,0.14675 -0.1524,0.34431 -0.04516,0.19473 -0.04516,0.41204 0,0.21731 0.04516,0.41487 0.04798,0.19473 0.1524,0.34431 0.107244,0.14676 0.276578,0.23425 0.169333,0.0847 0.414866,0.0847 0.4318,0 0.6604,-0.28786 z m -0.333022,-1.30951 q 0.107244,0.17497 0.107244,0.51928 0,0.34431 -0.107244,0.51929 -0.1016,0.16934 -0.327378,0.16934 -0.2286,0 -0.3302,-0.16934 -0.107244,-0.17498 -0.107244,-0.51929 0,-0.34431 0.107244,-0.51928 0.1016,-0.16934 0.3302,-0.16934 0.225778,0 0.327378,0.16934 z"
         style="font-size:2.82222px;fill:#ffffff;stroke-width:0.264583"
         id="path2192" />
      <path
         d="m 49.96818,238.28077 h 0.420511 v -2.09973 h -0.428978 v 1.31515 l -0.759177,-1.31515 h -0.454378 v 2.09973 h 0.428978 v -1.37724 z"
         style="font-size:2.82222px;fill:#ffffff;stroke-width:0.264583"
         id="path2194" />
    </g>
    <g
       aria-label="ACCENTS"
       id="text1513-5"
       style="font-size:2.82222px;line-height:1.25;font-family:OldSansBlack;-inkscape-font-specification:OldSansBlack;display:inline;fill:#ffffff;stroke-width:0.264583"
       transform="translate(0,-9.2847387)">
      <path
         d="m 16.171991,251.6256 h 0.454377 l -0.598311,-2.10255 H 15.49748 l -0.606777,2.10255 h 0.451555 l 0.121355,-0.44026 h 0.595489 z m -0.403578,-1.56915 0.191911,0.74506 h -0.395111 z"
         style="font-size:2.82222px;fill:#ffffff;stroke-width:0.264583"
         id="path2197" />
      <path
         d="m 18.017717,251.51271 q 0.09878,-0.0705 0.172156,-0.1778 0.0762,-0.10724 0.138289,-0.26811 l -0.423334,-0.11006 q -0.03104,0.0677 -0.06491,0.12417 -0.03387,0.0565 -0.0762,0.0988 -0.04233,0.0395 -0.101599,0.0621 -0.05645,0.0226 -0.138289,0.0226 -0.208844,0 -0.299156,-0.16651 -0.09878,-0.17216 -0.09878,-0.508 0,-0.0621 0.0028,-0.13829 0.0056,-0.0762 0.01976,-0.1524 0.01411,-0.079 0.03951,-0.1524 0.02822,-0.0734 0.07055,-0.12982 0.04233,-0.0593 0.104422,-0.0931 0.06491,-0.0367 0.149578,-0.0367 0.146755,0 0.225778,0.0847 0.07902,0.0847 0.124177,0.21449 l 0.412044,-0.0988 q -0.05362,-0.18344 -0.127,-0.29633 -0.07055,-0.11571 -0.169333,-0.17498 -0.194733,-0.11853 -0.451555,-0.11853 -0.237066,0 -0.400755,0.0903 -0.163689,0.0903 -0.265289,0.24271 -0.09878,0.14958 -0.143933,0.34431 -0.04233,0.19474 -0.04233,0.40076 0,0.20884 0.04233,0.40357 0.04515,0.19192 0.143933,0.34432 0.09878,0.14957 0.262467,0.23988 0.163688,0.0903 0.400755,0.0903 0.299155,0 0.493888,-0.14112 z"
         style="font-size:2.82222px;fill:#ffffff;stroke-width:0.264583"
         id="path2199" />
      <path
         d="m 19.742089,251.51271 q 0.09878,-0.0705 0.172155,-0.1778 0.0762,-0.10724 0.138289,-0.26811 L 19.6292,250.95674 q -0.03105,0.0677 -0.06491,0.12417 -0.03387,0.0565 -0.0762,0.0988 -0.04233,0.0395 -0.1016,0.0621 -0.05645,0.0226 -0.138289,0.0226 -0.208844,0 -0.299155,-0.16651 -0.09878,-0.17216 -0.09878,-0.508 0,-0.0621 0.0028,-0.13829 0.0056,-0.0762 0.01976,-0.1524 0.01411,-0.079 0.03951,-0.1524 0.02822,-0.0734 0.07056,-0.12982 0.04233,-0.0593 0.104423,-0.0931 0.06491,-0.0367 0.149577,-0.0367 0.146756,0 0.225778,0.0847 0.07902,0.0847 0.124178,0.21449 l 0.412044,-0.0988 q -0.05362,-0.18344 -0.127,-0.29633 -0.07056,-0.11571 -0.169333,-0.17498 -0.194734,-0.11853 -0.451556,-0.11853 -0.237066,0 -0.400755,0.0903 -0.163689,0.0903 -0.265289,0.24271 -0.09878,0.14958 -0.143933,0.34431 -0.04233,0.19474 -0.04233,0.40076 0,0.20884 0.04233,0.40357 0.04516,0.19192 0.143933,0.34432 0.09878,0.14957 0.262467,0.23988 0.163689,0.0903 0.400755,0.0903 0.299155,0 0.493889,-0.14112 z"
         style="font-size:2.82222px;fill:#ffffff;stroke-width:0.264583"
         id="path2201" />
      <path
         d="m 20.275483,251.6256 h 1.442154 v -0.38946 h -0.993421 v -0.51083 l 0.699911,-0.003 v -0.38382 h -0.699911 v -0.42333 h 0.959555 v -0.38947 h -1.408288 z"
         style="font-size:2.82222px;fill:#ffffff;stroke-width:0.264583"
         id="path2203" />
      <path
         d="m 23.213409,251.6256 h 0.420511 v -2.09973 h -0.428978 v 1.31516 l -0.759177,-1.31516 h -0.454377 v 2.09973 h 0.428977 v -1.37724 z"
         style="font-size:2.82222px;fill:#ffffff;stroke-width:0.264583"
         id="path2205" />
      <path
         d="m 24.839003,249.91252 h 0.5334 v -0.38665 h -1.51271 v 0.38665 h 0.530577 v 1.71308 h 0.448733 z"
         style="font-size:2.82222px;fill:#ffffff;stroke-width:0.264583"
         id="path2207" />
      <path
         d="m 26.811734,251.49014 q 0.197556,-0.16934 0.197556,-0.47696 0,-0.28504 -0.200378,-0.43462 -0.189089,-0.14676 -0.428977,-0.2286 -0.169334,-0.0593 -0.3048,-0.13547 -0.06491,-0.0367 -0.09313,-0.0762 -0.0254,-0.0395 -0.0254,-0.0818 0,-0.0536 0.02258,-0.0903 0.0254,-0.0395 0.06209,-0.0593 0.03951,-0.0226 0.08467,-0.031 0.04798,-0.0113 0.09313,-0.0113 0.141111,0 0.217311,0.0762 0.07902,0.0734 0.129822,0.19473 l 0.414867,-0.127 q -0.06209,-0.14393 -0.138289,-0.23707 -0.0762,-0.0931 -0.174978,-0.1524 -0.197555,-0.12135 -0.445911,-0.12135 -0.296333,0 -0.493888,0.16369 -0.197556,0.16369 -0.197556,0.41486 0,0.254 0.169334,0.39794 0.160866,0.13264 0.488244,0.25682 0.166511,0.0621 0.285044,0.14111 0.107244,0.0706 0.107244,0.17498 0,0.0705 -0.0254,0.11853 -0.0254,0.0452 -0.07056,0.0734 -0.04233,0.0254 -0.09878,0.0367 -0.05644,0.0113 -0.115711,0.0113 -0.08467,0 -0.1524,-0.0226 -0.06491,-0.0254 -0.115711,-0.0677 -0.0508,-0.0423 -0.09031,-0.1016 -0.03951,-0.0621 -0.07338,-0.13547 l -0.375355,0.16369 q 0.06491,0.1524 0.149578,0.25118 0.08467,0.096 0.200377,0.15804 0.217311,0.12136 0.445911,0.12136 0.3556,0 0.553155,-0.16369 z"
         style="font-size:2.82222px;fill:#ffffff;stroke-width:0.264583"
         id="path2209" />
    </g>
    <g
       aria-label="GLIDES"
       id="text1513-80"
       style="font-size:2.82222px;line-height:1.25;font-family:OldSansBlack;-inkscape-font-specification:OldSansBlack;display:inline;fill:#ffffff;stroke-width:0.264583"
       transform="translate(0,-9.2847387)">
      <path
         d="m 39.015934,251.51485 h 0.347133 v -1.09219 h -0.82691 v 0.38946 h 0.386644 q -0.01411,0.13829 -0.107244,0.23142 -0.107245,0.11007 -0.282222,0.11007 -0.127,0 -0.208845,-0.0677 -0.07902,-0.0677 -0.124177,-0.16934 -0.04233,-0.1016 -0.05927,-0.21731 -0.01411,-0.11853 -0.01411,-0.21449 0,-0.0931 0.01129,-0.21448 0.01411,-0.12418 0.05644,-0.23425 0.04233,-0.11007 0.118533,-0.18344 0.07902,-0.0762 0.208845,-0.0762 0.163688,0 0.245533,0.0762 0.08467,0.0734 0.149578,0.21731 l 0.417688,-0.11007 q -0.05644,-0.16933 -0.132644,-0.27658 -0.0762,-0.10724 -0.180622,-0.17215 -0.206022,-0.12418 -0.443089,-0.12418 -0.251177,0 -0.426155,0.0931 -0.172156,0.0903 -0.2794,0.24554 -0.104422,0.1524 -0.1524,0.3556 -0.04516,0.20037 -0.04516,0.42333 0,0.2032 0.04516,0.39229 0.04798,0.18627 0.149578,0.3302 0.1016,0.14393 0.262466,0.23142 0.160867,0.0847 0.389467,0.0847 0.1524,0 0.268111,-0.0423 0.115711,-0.0423 0.225777,-0.14957 z"
         style="font-size:2.82222px;fill:#ffffff;stroke-width:0.264583"
         id="path2212" />
      <path
         d="m 39.693267,251.51485 h 1.33491 v -0.38946 H 40.142 v -1.71027 h -0.448733 z"
         style="font-size:2.82222px;fill:#ffffff;stroke-width:0.264583"
         id="path2214" />
      <path
         d="m 41.316042,251.51485 h 0.451555 v -2.09973 h -0.451555 z"
         style="font-size:2.82222px;fill:#ffffff;stroke-width:0.264583"
         id="path2216" />
      <path
         d="m 43.486323,251.2411 q 0.127,-0.13547 0.186267,-0.32738 0.05927,-0.19473 0.05927,-0.44591 0,-0.23989 -0.05644,-0.4318 -0.05645,-0.19473 -0.174978,-0.33302 -0.118533,-0.13829 -0.301977,-0.21167 -0.180622,-0.0762 -0.4318,-0.0762 h -0.688622 v 2.09973 h 0.694266 q 0.468489,0 0.714022,-0.27375 z m -0.335844,-1.27282 q 0.06209,0.0818 0.09313,0.20602 0.03387,0.12136 0.03387,0.28787 0,0.13546 -0.02258,0.25682 -0.02258,0.11853 -0.08184,0.21167 -0.05644,0.0903 -0.158045,0.14393 -0.09878,0.0508 -0.253999,0.0508 H 42.52959 v -1.3208 h 0.237067 q 0.259644,0 0.383822,0.16369 z"
         style="font-size:2.82222px;fill:#ffffff;stroke-width:0.264583"
         id="path2218" />
      <path
         d="m 43.977389,251.51485 h 1.442154 v -0.38946 h -0.993421 v -0.51082 l 0.69991,-0.003 v -0.38382 h -0.69991 v -0.42333 h 0.959554 v -0.38947 h -1.408287 z"
         style="font-size:2.82222px;fill:#ffffff;stroke-width:0.264583"
         id="path2220" />
      <path
         d="m 46.906848,251.37939 q 0.197555,-0.16933 0.197555,-0.47696 0,-0.28504 -0.200377,-0.43462 -0.189089,-0.14675 -0.428978,-0.2286 -0.169333,-0.0593 -0.304799,-0.13547 -0.06491,-0.0367 -0.09313,-0.0762 -0.0254,-0.0395 -0.0254,-0.0818 0,-0.0536 0.02258,-0.0903 0.0254,-0.0395 0.06209,-0.0593 0.03951,-0.0226 0.08467,-0.031 0.04798,-0.0113 0.09313,-0.0113 0.141111,0 0.217311,0.0762 0.07902,0.0734 0.129822,0.19473 l 0.414866,-0.127 q -0.06209,-0.14393 -0.138289,-0.23706 -0.0762,-0.0931 -0.174977,-0.1524 -0.197556,-0.12136 -0.445911,-0.12136 -0.296333,0 -0.493888,0.16369 -0.197556,0.16369 -0.197556,0.41487 0,0.254 0.169333,0.39793 0.160867,0.13264 0.488244,0.25682 0.166511,0.0621 0.285045,0.14111 0.107244,0.0706 0.107244,0.17498 0,0.0706 -0.0254,0.11853 -0.0254,0.0452 -0.07055,0.0734 -0.04233,0.0254 -0.09878,0.0367 -0.05645,0.0113 -0.115711,0.0113 -0.08467,0 -0.1524,-0.0226 -0.06491,-0.0254 -0.115711,-0.0677 -0.0508,-0.0423 -0.09031,-0.1016 -0.03951,-0.0621 -0.07338,-0.13547 l -0.375355,0.16369 q 0.06491,0.1524 0.149578,0.25118 0.08467,0.096 0.200377,0.15804 0.217311,0.12136 0.445911,0.12136 0.3556,0 0.553155,-0.16369 z"
         style="font-size:2.82222px;fill:#ffffff;stroke-width:0.264583"
         id="path2222" />
    </g>
    <g
       aria-label="GENERATE"
       id="text1513-6"
       style="font-size:2.82222px;line-height:1.25;font-family:OldSansBlack;-inkscape-font-specification:OldSansBlack;display:inline;fill:#ffffff;stroke-width:0.264583"
       transform="translate(0,-9.2847387)">
      <path
         d="m 15.246775,264.80854 h 0.347133 v -1.0922 h -0.826911 v 0.38947 h 0.386645 q -0.01411,0.13829 -0.107245,0.23142 -0.107244,0.11007 -0.282222,0.11007 -0.127,0 -0.208844,-0.0677 -0.07902,-0.0677 -0.124178,-0.16933 -0.04233,-0.1016 -0.05927,-0.21731 -0.01411,-0.11853 -0.01411,-0.21449 0,-0.0931 0.01129,-0.21449 0.01411,-0.12418 0.05645,-0.23424 0.04233,-0.11007 0.118533,-0.18345 0.07902,-0.0762 0.208844,-0.0762 0.163689,0 0.245534,0.0762 0.08467,0.0734 0.149577,0.21731 l 0.417689,-0.11006 q -0.05645,-0.16934 -0.132645,-0.27658 -0.0762,-0.10724 -0.180622,-0.17216 -0.206022,-0.12417 -0.443088,-0.12417 -0.251178,0 -0.426155,0.0931 -0.172156,0.0903 -0.2794,0.24553 -0.104422,0.1524 -0.1524,0.3556 -0.04516,0.20038 -0.04516,0.42334 0,0.2032 0.04516,0.39228 0.04798,0.18627 0.149578,0.3302 0.101599,0.14394 0.262466,0.23143 0.160867,0.0847 0.389466,0.0847 0.1524,0 0.268111,-0.0423 0.115711,-0.0423 0.225778,-0.14958 z"
         style="font-size:2.82222px;fill:#ffffff;stroke-width:0.264583"
         id="path2225" />
      <path
         d="m 15.941041,264.80854 h 1.442154 v -0.38947 h -0.993421 v -0.51082 l 0.69991,-0.003 v -0.38382 h -0.69991 v -0.42333 h 0.959554 v -0.38947 h -1.408287 z"
         style="font-size:2.82222px;fill:#ffffff;stroke-width:0.264583"
         id="path2227" />
      <path
         d="m 18.878966,264.80854 h 0.420511 v -2.09973 H 18.8705 v 1.31515 l -0.759177,-1.31515 h -0.454378 v 2.09973 h 0.428978 v -1.37724 z"
         style="font-size:2.82222px;fill:#ffffff;stroke-width:0.264583"
         id="path2229" />
      <path
         d="m 19.609914,264.80854 h 1.442154 v -0.38947 h -0.993421 v -0.51082 l 0.69991,-0.003 v -0.38382 h -0.69991 v -0.42333 h 0.959554 v -0.38947 h -1.408287 z"
         style="font-size:2.82222px;fill:#ffffff;stroke-width:0.264583"
         id="path2231" />
      <path
         d="m 22.437773,264.80854 h 0.502355 l -0.457199,-0.92287 q 0.174977,-0.0621 0.268111,-0.19755 0.09596,-0.13829 0.09596,-0.32456 0,-0.16086 -0.0508,-0.28222 -0.04798,-0.12418 -0.138289,-0.20602 -0.08749,-0.0818 -0.214488,-0.12418 -0.127,-0.0423 -0.282222,-0.0423 h -0.843844 v 2.09973 h 0.448733 v -0.82973 h 0.287866 z m -0.121355,-1.65664 q 0.03669,0.031 0.05644,0.0818 0.01976,0.0508 0.01976,0.12418 0,0.0818 -0.03104,0.12982 -0.03104,0.048 -0.08184,0.0734 -0.0508,0.0254 -0.115711,0.0339 -0.06491,0.006 -0.129822,0.006 h -0.268111 v -0.51364 h 0.313266 q 0.163689,0 0.237067,0.0649 z"
         style="font-size:2.82222px;fill:#ffffff;stroke-width:0.264583"
         id="path2233" />
      <path
         d="m 24.286327,264.80854 h 0.454377 l -0.598311,-2.10255 h -0.530577 l -0.606777,2.10255 h 0.451555 l 0.121355,-0.44027 h 0.595489 z m -0.403578,-1.56915 0.191911,0.74506 h -0.395111 z"
         style="font-size:2.82222px;fill:#ffffff;stroke-width:0.264583"
         id="path2235" />
      <path
         d="m 25.547853,263.09545 h 0.5334 v -0.38664 h -1.51271 v 0.38664 h 0.530577 v 1.71309 h 0.448733 z"
         style="font-size:2.82222px;fill:#ffffff;stroke-width:0.264583"
         id="path2237" />
      <path
         d="m 26.315496,264.80854 h 1.442155 v -0.38947 h -0.993422 v -0.51082 l 0.699911,-0.003 v -0.38382 h -0.699911 v -0.42333 h 0.959555 v -0.38947 h -1.408288 z"
         style="font-size:2.82222px;fill:#ffffff;stroke-width:0.264583"
         id="path2239" />
    </g>
    <g
       aria-label="REST"
       id="text1513-1"
       style="font-size:2.82222px;line-height:1.25;font-family:OldSansBlack;-inkscape-font-specification:OldSansBlack;display:inline;fill:#ffffff;stroke-width:0.264583"
       transform="translate(0,-9.2847387)">
      <path
         d="m 40.054906,264.78831 h 0.502355 l -0.4572,-0.92287 q 0.174978,-0.0621 0.268111,-0.19755 0.09596,-0.13829 0.09596,-0.32456 0,-0.16087 -0.0508,-0.28222 -0.04798,-0.12418 -0.138289,-0.20602 -0.08749,-0.0819 -0.214489,-0.12418 -0.127,-0.0423 -0.282222,-0.0423 h -0.843844 v 2.09973 h 0.448733 v -0.82974 h 0.287867 z m -0.121356,-1.65665 q 0.03669,0.031 0.05645,0.0818 0.01975,0.0508 0.01975,0.12418 0,0.0818 -0.03104,0.12982 -0.03105,0.048 -0.08185,0.0734 -0.0508,0.0254 -0.115711,0.0339 -0.06491,0.006 -0.129822,0.006 h -0.268111 v -0.51365 h 0.313267 q 0.163689,0 0.237066,0.0649 z"
         style="font-size:2.82222px;fill:#ffffff;stroke-width:0.264583"
         id="path2242" />
      <path
         d="m 40.833838,264.78831 h 1.442154 v -0.38947 h -0.993421 v -0.51082 l 0.699911,-0.003 v -0.38382 h -0.699911 v -0.42334 h 0.959555 v -0.38946 h -1.408288 z"
         style="font-size:2.82222px;fill:#ffffff;stroke-width:0.264583"
         id="path2244" />
      <path
         d="m 43.763297,264.65284 q 0.197556,-0.16933 0.197556,-0.47695 0,-0.28505 -0.200378,-0.43463 -0.189089,-0.14675 -0.428977,-0.2286 -0.169334,-0.0593 -0.3048,-0.13546 -0.06491,-0.0367 -0.09313,-0.0762 -0.0254,-0.0395 -0.0254,-0.0818 0,-0.0536 0.02258,-0.0903 0.0254,-0.0395 0.06209,-0.0593 0.03951,-0.0226 0.08467,-0.031 0.04798,-0.0113 0.09313,-0.0113 0.141111,0 0.217311,0.0762 0.07902,0.0734 0.129822,0.19474 l 0.414866,-0.127 q -0.06209,-0.14394 -0.138288,-0.23707 -0.0762,-0.0931 -0.174978,-0.1524 -0.197555,-0.12136 -0.445911,-0.12136 -0.296333,0 -0.493888,0.16369 -0.197556,0.16369 -0.197556,0.41487 0,0.254 0.169333,0.39793 0.160867,0.13265 0.488245,0.25682 0.166511,0.0621 0.285044,0.14111 0.107244,0.0706 0.107244,0.17498 0,0.0706 -0.0254,0.11854 -0.0254,0.0452 -0.07055,0.0734 -0.04233,0.0254 -0.09878,0.0367 -0.05644,0.0113 -0.115711,0.0113 -0.08467,0 -0.1524,-0.0226 -0.06491,-0.0254 -0.115711,-0.0677 -0.0508,-0.0423 -0.09031,-0.1016 -0.03951,-0.0621 -0.07338,-0.13547 l -0.375355,0.16369 q 0.06491,0.1524 0.149578,0.25118 0.08467,0.096 0.200377,0.15804 0.217311,0.12136 0.445911,0.12136 0.3556,0 0.553155,-0.16369 z"
         style="font-size:2.82222px;fill:#ffffff;stroke-width:0.264583"
         id="path2246" />
      <path
         d="m 45.084091,263.07522 h 0.5334 v -0.38664 h -1.51271 v 0.38664 h 0.530577 v 1.71309 h 0.448733 z"
         style="font-size:2.82222px;fill:#ffffff;stroke-width:0.264583"
         id="path2248" />
    </g>
    <g
       aria-label="CLOCK"
       id="text1746"
       style="font-size:2.82222px;line-height:1.25;font-family:OldSansBlack;-inkscape-font-specification:OldSansBlack;fill:#ffffff;stroke-width:0.264583">
      <path
         d="m 6.6302367,279.56272 q 0.098778,-0.0706 0.1721554,-0.1778 0.0762,-0.10725 0.1382888,-0.26811 l -0.423333,-0.11007 q -0.031044,0.0677 -0.064911,0.12418 -0.033867,0.0564 -0.0762,0.0988 -0.042333,0.0395 -0.1015999,0.0621 -0.056444,0.0226 -0.1382888,0.0226 -0.2088443,0 -0.2991554,-0.16651 -0.098778,-0.17215 -0.098778,-0.508 0,-0.0621 0.00282,-0.13829 0.00564,-0.0762 0.019755,-0.1524 0.014111,-0.079 0.039511,-0.1524 0.028222,-0.0734 0.070556,-0.12982 0.042333,-0.0593 0.1044221,-0.0931 0.064911,-0.0367 0.1495777,-0.0367 0.1467554,0 0.2257776,0.0847 0.079022,0.0847 0.1241777,0.21448 l 0.4120441,-0.0988 q -0.053622,-0.18345 -0.1269999,-0.29634 -0.070556,-0.11571 -0.1693332,-0.17497 -0.1947332,-0.11854 -0.4515552,-0.11854 -0.2370665,0 -0.4007553,0.0903 -0.1636887,0.0903 -0.2652886,0.24271 -0.098778,0.14958 -0.1439333,0.34432 -0.042333,0.19473 -0.042333,0.40075 0,0.20884 0.042333,0.40358 0.045155,0.19191 0.1439333,0.34431 0.098778,0.14958 0.2624664,0.23989 0.1636888,0.0903 0.4007553,0.0903 0.2991553,0 0.4938885,-0.14111 z"
         style="font-size:2.82222px;fill:#ffffff;stroke-width:0.264583"
         id="path2251" />
      <path
         d="m 7.1466978,279.67561 h 1.3349101 v -0.38947 H 7.5954308 v -1.71027 h -0.448733 z"
         style="font-size:2.82222px;fill:#ffffff;stroke-width:0.264583"
         id="path2253" />
      <path
         d="m 10.129784,279.41596 q 0.225777,-0.2794 0.225777,-0.79022 0,-0.21731 -0.04798,-0.41204 -0.04516,-0.19756 -0.1524,-0.34431 -0.104422,-0.14958 -0.2737556,-0.23425 -0.166511,-0.0875 -0.4120442,-0.0875 -0.2455331,0 -0.4148663,0.0875 -0.1693332,0.0847 -0.2765776,0.23425 -0.1044221,0.14675 -0.1523999,0.34431 -0.045155,0.19473 -0.045155,0.41204 0,0.21731 0.045155,0.41487 0.047978,0.19473 0.1523999,0.34431 0.1072444,0.14675 0.2765776,0.23424 0.1693332,0.0847 0.4148663,0.0847 0.4317997,0 0.6603998,-0.28787 z m -0.3330222,-1.30951 q 0.1072443,0.17498 0.1072443,0.51929 0,0.34431 -0.1072443,0.51929 -0.1016,0.16933 -0.3273776,0.16933 -0.2285998,0 -0.3301997,-0.16933 -0.1072444,-0.17498 -0.1072444,-0.51929 0,-0.34431 0.1072444,-0.51929 0.1015999,-0.16933 0.3301997,-0.16933 0.2257776,0 0.3273776,0.16933 z"
         style="font-size:2.82222px;fill:#ffffff;stroke-width:0.264583"
         id="path2255" />
      <path
         d="m 11.806182,279.56272 q 0.09878,-0.0706 0.172155,-0.1778 0.0762,-0.10725 0.138289,-0.26811 l -0.423333,-0.11007 q -0.03104,0.0677 -0.06491,0.12418 -0.03387,0.0564 -0.0762,0.0988 -0.04233,0.0395 -0.1016,0.0621 -0.05644,0.0226 -0.138289,0.0226 -0.208844,0 -0.299155,-0.16651 -0.09878,-0.17215 -0.09878,-0.508 0,-0.0621 0.0028,-0.13829 0.0056,-0.0762 0.01975,-0.1524 0.01411,-0.079 0.03951,-0.1524 0.02822,-0.0734 0.07056,-0.12982 0.04233,-0.0593 0.104422,-0.0931 0.06491,-0.0367 0.149578,-0.0367 0.146755,0 0.225777,0.0847 0.07902,0.0847 0.124178,0.21448 l 0.412044,-0.0988 q -0.05362,-0.18345 -0.127,-0.29634 -0.07056,-0.11571 -0.169333,-0.17497 -0.194733,-0.11854 -0.451555,-0.11854 -0.237067,0 -0.400756,0.0903 -0.163688,0.0903 -0.265288,0.24271 -0.09878,0.14958 -0.143933,0.34432 -0.04233,0.19473 -0.04233,0.40075 0,0.20884 0.04233,0.40358 0.04515,0.19191 0.143933,0.34431 0.09878,0.14958 0.262466,0.23989 0.163689,0.0903 0.400755,0.0903 0.299156,0 0.493889,-0.14111 z"
         style="font-size:2.82222px;fill:#ffffff;stroke-width:0.264583"
         id="path2257" />
      <path
         d="m 13.51362,279.67561 h 0.505177 l -0.688621,-1.30105 0.603955,-0.79869 H 13.41202 l -0.637822,0.84103 v -0.84103 h -0.451555 v 2.09974 h 0.451555 v -0.62936 l 0.248356,-0.31327 z"
         style="font-size:2.82222px;fill:#ffffff;stroke-width:0.264583"
         id="path2259" />
    </g>
    <g
       aria-label="1V/OCT"
       id="text1750"
       style="font-size:2.82222px;line-height:1.25;font-family:OldSansBlack;-inkscape-font-specification:OldSansBlack;fill:#ffffff;stroke-width:0.264583"
       transform="translate(-0.60757901)">
      <path
         d="m 18.875451,279.75779 h 1.058333 v -0.34431 h -0.318911 v -1.78364 h -0.324555 q -0.09031,0.0847 -0.217311,0.11288 -0.127,0.0254 -0.245534,0.0282 v 0.29915 h 0.364067 v 1.34338 h -0.316089 z"
         style="font-size:2.82222px;fill:#ffffff;stroke-width:0.264583"
         id="path2262" />
      <path
         d="m 20.963886,279.75779 0.5588,-2.09973 h -0.451555 l -0.3556,1.41393 -0.338667,-1.41393 h -0.448733 l 0.555978,2.09973 z"
         style="font-size:2.82222px;fill:#ffffff;stroke-width:0.264583"
         id="path2264" />
      <path
         d="m 21.759752,279.78601 0.654755,-2.15617 h -0.372533 l -0.654755,2.15617 z"
         style="font-size:2.82222px;fill:#ffffff;stroke-width:0.264583"
         id="path2266" />
      <path
         d="m 23.896172,279.49815 q 0.225778,-0.2794 0.225778,-0.79023 0,-0.21731 -0.04798,-0.41204 -0.04516,-0.19756 -0.1524,-0.34431 -0.104422,-0.14958 -0.273755,-0.23425 -0.166511,-0.0875 -0.412045,-0.0875 -0.245533,0 -0.414866,0.0875 -0.169333,0.0847 -0.276578,0.23425 -0.104422,0.14675 -0.152399,0.34431 -0.04516,0.19473 -0.04516,0.41204 0,0.21732 0.04516,0.41487 0.04798,0.19473 0.152399,0.34431 0.107245,0.14676 0.276578,0.23425 0.169333,0.0847 0.414866,0.0847 0.4318,0 0.6604,-0.28786 z m -0.333022,-1.30951 q 0.107244,0.17497 0.107244,0.51928 0,0.34432 -0.107244,0.51929 -0.1016,0.16934 -0.327378,0.16934 -0.228599,0 -0.330199,-0.16934 -0.107245,-0.17497 -0.107245,-0.51929 0,-0.34431 0.107245,-0.51928 0.1016,-0.16934 0.330199,-0.16934 0.225778,0 0.327378,0.16934 z"
         style="font-size:2.82222px;fill:#ffffff;stroke-width:0.264583"
         id="path2268" />
      <path
         d="m 25.57257,279.6449 q 0.09878,-0.0706 0.172155,-0.1778 0.0762,-0.10724 0.138289,-0.26811 l -0.423333,-0.11007 q -0.03104,0.0677 -0.06491,0.12418 -0.03387,0.0564 -0.0762,0.0988 -0.04233,0.0395 -0.1016,0.0621 -0.05644,0.0226 -0.138289,0.0226 -0.208844,0 -0.299155,-0.16652 -0.09878,-0.17215 -0.09878,-0.50799 0,-0.0621 0.0028,-0.13829 0.0056,-0.0762 0.01975,-0.1524 0.01411,-0.079 0.03951,-0.1524 0.02822,-0.0734 0.07056,-0.12983 0.04233,-0.0593 0.104422,-0.0931 0.06491,-0.0367 0.149578,-0.0367 0.146755,0 0.225777,0.0847 0.07902,0.0847 0.124178,0.21449 l 0.412044,-0.0988 q -0.05362,-0.18344 -0.127,-0.29633 -0.07055,-0.11571 -0.169333,-0.17498 -0.194733,-0.11853 -0.451555,-0.11853 -0.237067,0 -0.400756,0.0903 -0.163688,0.0903 -0.265288,0.24271 -0.09878,0.14958 -0.143934,0.34431 -0.04233,0.19473 -0.04233,0.40075 0,0.20885 0.04233,0.40358 0.04516,0.19191 0.143934,0.34431 0.09878,0.14958 0.262466,0.23989 0.163689,0.0903 0.400755,0.0903 0.299156,0 0.493889,-0.14111 z"
         style="font-size:2.82222px;fill:#ffffff;stroke-width:0.264583"
         id="path2270" />
      <path
         d="m 26.907475,278.0447 h 0.5334 v -0.38664 h -1.51271 v 0.38664 h 0.530577 v 1.71309 h 0.448733 z"
         style="font-size:2.82222px;fill:#ffffff;stroke-width:0.264583"
         id="path2272" />
    </g>
    <g
       aria-label="ACCENT"
       id="text1754"
       style="font-size:2.82222px;line-height:1.25;font-family:OldSansBlack;-inkscape-font-specification:OldSansBlack;fill:#ffffff;stroke-width:0.264583"
       transform="translate(-0.55636685)">
      <path
         d="m 31.679366,279.63368 h 0.454378 l -0.598311,-2.10256 h -0.530577 l -0.606778,2.10256 h 0.451556 l 0.121355,-0.44027 h 0.595488 z m -0.403577,-1.56916 0.191911,0.74507 h -0.395111 z"
         style="font-size:2.82222px;fill:#ffffff;stroke-width:0.264583"
         id="path2275" />
      <path
         d="m 33.525093,279.52079 q 0.09878,-0.0706 0.172155,-0.1778 0.0762,-0.10725 0.138289,-0.26811 l -0.423333,-0.11007 q -0.03104,0.0677 -0.06491,0.12418 -0.03387,0.0564 -0.0762,0.0988 -0.04233,0.0395 -0.1016,0.0621 -0.05644,0.0226 -0.138288,0.0226 -0.208845,0 -0.299156,-0.16651 -0.09878,-0.17216 -0.09878,-0.508 0,-0.0621 0.0028,-0.13829 0.0056,-0.0762 0.01976,-0.1524 0.01411,-0.079 0.03951,-0.1524 0.02822,-0.0734 0.07056,-0.12982 0.04233,-0.0593 0.104422,-0.0931 0.06491,-0.0367 0.149578,-0.0367 0.146755,0 0.225777,0.0847 0.07902,0.0847 0.124178,0.21449 l 0.412044,-0.0988 q -0.05362,-0.18345 -0.127,-0.29634 -0.07056,-0.11571 -0.169333,-0.17498 -0.194733,-0.11853 -0.451555,-0.11853 -0.237067,0 -0.400756,0.0903 -0.163688,0.0903 -0.265288,0.24271 -0.09878,0.14958 -0.143933,0.34431 -0.04233,0.19474 -0.04233,0.40076 0,0.20884 0.04233,0.40358 0.04516,0.19191 0.143933,0.34431 0.09878,0.14958 0.262466,0.23989 0.163689,0.0903 0.400756,0.0903 0.299155,0 0.493888,-0.14111 z"
         style="font-size:2.82222px;fill:#ffffff;stroke-width:0.264583"
         id="path2277" />
      <path
         d="m 35.249464,279.52079 q 0.09878,-0.0706 0.172156,-0.1778 0.0762,-0.10725 0.138289,-0.26811 l -0.423333,-0.11007 q -0.03104,0.0677 -0.06491,0.12418 -0.03387,0.0564 -0.0762,0.0988 -0.04233,0.0395 -0.1016,0.0621 -0.05644,0.0226 -0.138289,0.0226 -0.208844,0 -0.299156,-0.16651 -0.09878,-0.17216 -0.09878,-0.508 0,-0.0621 0.0028,-0.13829 0.0056,-0.0762 0.01976,-0.1524 0.01411,-0.079 0.03951,-0.1524 0.02822,-0.0734 0.07055,-0.12982 0.04233,-0.0593 0.104422,-0.0931 0.06491,-0.0367 0.149578,-0.0367 0.146755,0 0.225778,0.0847 0.07902,0.0847 0.124177,0.21449 l 0.412044,-0.0988 q -0.05362,-0.18345 -0.127,-0.29634 -0.07055,-0.11571 -0.169333,-0.17498 -0.194733,-0.11853 -0.451555,-0.11853 -0.237066,0 -0.400755,0.0903 -0.163689,0.0903 -0.265289,0.24271 -0.09878,0.14958 -0.143933,0.34431 -0.04233,0.19474 -0.04233,0.40076 0,0.20884 0.04233,0.40358 0.04515,0.19191 0.143933,0.34431 0.09878,0.14958 0.262467,0.23989 0.163688,0.0903 0.400755,0.0903 0.299155,0 0.493888,-0.14111 z"
         style="font-size:2.82222px;fill:#ffffff;stroke-width:0.264583"
         id="path2279" />
      <path
         d="m 35.782859,279.63368 h 1.442154 v -0.38947 h -0.993421 v -0.51082 l 0.69991,-0.003 v -0.38382 h -0.69991 v -0.42333 h 0.959554 v -0.38947 h -1.408287 z"
         style="font-size:2.82222px;fill:#ffffff;stroke-width:0.264583"
         id="path2281" />
      <path
         d="m 38.720785,279.63368 h 0.420511 v -2.09974 h -0.428978 v 1.31516 l -0.759177,-1.31516 h -0.454378 v 2.09974 h 0.428978 v -1.37725 z"
         style="font-size:2.82222px;fill:#ffffff;stroke-width:0.264583"
         id="path2283" />
      <path
         d="m 40.346379,277.92059 h 0.533399 v -0.38665 h -1.51271 v 0.38665 h 0.530578 v 1.71309 h 0.448733 z"
         style="font-size:2.82222px;fill:#ffffff;stroke-width:0.264583"
         id="path2285" />
    </g>
    <g
       aria-label="GATE"
       id="text1758"
       style="font-size:2.82222px;line-height:1.25;font-family:OldSansBlack;-inkscape-font-specification:OldSansBlack;fill:#ffffff;stroke-width:0.264583"
       transform="translate(-0.49454831)">
      <path
         d="m 46.11789,279.72285 h 0.347133 v -1.0922 h -0.826911 v 0.38946 h 0.386644 q -0.01411,0.13829 -0.107244,0.23143 -0.107244,0.11006 -0.282222,0.11006 -0.127,0 -0.208844,-0.0677 -0.07902,-0.0677 -0.124178,-0.16933 -0.04233,-0.1016 -0.05927,-0.21731 -0.01411,-0.11854 -0.01411,-0.21449 0,-0.0931 0.01129,-0.21449 0.01411,-0.12418 0.05645,-0.23425 0.04233,-0.11006 0.118533,-0.18344 0.07902,-0.0762 0.208844,-0.0762 0.163689,0 0.245533,0.0762 0.08467,0.0734 0.149578,0.21731 l 0.417689,-0.11007 q -0.05645,-0.16933 -0.132645,-0.27657 -0.0762,-0.10725 -0.180622,-0.17216 -0.206022,-0.12418 -0.443088,-0.12418 -0.251178,0 -0.426156,0.0931 -0.172155,0.0903 -0.279399,0.24553 -0.104423,0.1524 -0.1524,0.3556 -0.04516,0.20038 -0.04516,0.42333 0,0.2032 0.04516,0.39229 0.04798,0.18627 0.149577,0.3302 0.1016,0.14393 0.262467,0.23142 0.160866,0.0847 0.389466,0.0847 0.1524,0 0.268111,-0.0423 0.115711,-0.0423 0.225778,-0.14958 z"
         style="font-size:2.82222px;fill:#ffffff;stroke-width:0.264583"
         id="path2288" />
      <path
         d="m 47.881777,279.72285 h 0.454377 l -0.598311,-2.10256 h -0.530577 l -0.606777,2.10256 h 0.451555 l 0.121355,-0.44027 h 0.595489 z m -0.403578,-1.56916 0.191911,0.74507 h -0.395111 z"
         style="font-size:2.82222px;fill:#ffffff;stroke-width:0.264583"
         id="path2290" />
      <path
         d="m 49.143303,278.00976 h 0.5334 v -0.38664 h -1.51271 v 0.38664 h 0.530577 v 1.71309 h 0.448733 z"
         style="font-size:2.82222px;fill:#ffffff;stroke-width:0.264583"
         id="path2292" />
      <path
         d="m 49.910946,279.72285 h 1.442155 v -0.38947 h -0.993422 v -0.51082 l 0.699911,-0.003 v -0.38382 h -0.699911 v -0.42334 h 0.959555 v -0.38946 h -1.408288 z"
         style="font-size:2.82222px;fill:#ffffff;stroke-width:0.264583"
         id="path2294" />
    </g>
    <g
       aria-label="START"
       id="text2299"
       style="font-size:2.82223px;line-height:1.25;font-family:OldSansBlack;-inkscape-font-specification:OldSansBlack;fill:#ffffff;stroke-width:0.264583"
       transform="translate(0.34969847)">
      <path
         d="m 32.196748,267.19795 q 0.197556,-0.16934 0.197556,-0.47696 0,-0.28505 -0.200378,-0.43462 -0.18909,-0.14676 -0.428979,-0.22861 -0.169334,-0.0593 -0.304801,-0.13546 -0.06491,-0.0367 -0.09313,-0.0762 -0.0254,-0.0395 -0.0254,-0.0818 0,-0.0536 0.02258,-0.0903 0.0254,-0.0395 0.06209,-0.0593 0.03951,-0.0226 0.08467,-0.031 0.04798,-0.0113 0.09313,-0.0113 0.141111,0 0.217312,0.0762 0.07902,0.0734 0.129822,0.19474 l 0.414868,-0.12701 q -0.06209,-0.14393 -0.138289,-0.23706 -0.0762,-0.0931 -0.174979,-0.1524 -0.197556,-0.12136 -0.445912,-0.12136 -0.296334,0 -0.49389,0.16369 -0.197556,0.16369 -0.197556,0.41487 0,0.254 0.169333,0.39793 0.160868,0.13265 0.488246,0.25683 0.166512,0.0621 0.285046,0.14111 0.107244,0.0705 0.107244,0.17498 0,0.0705 -0.0254,0.11853 -0.0254,0.0452 -0.07056,0.0734 -0.04233,0.0254 -0.09878,0.0367 -0.05644,0.0113 -0.115711,0.0113 -0.08467,0 -0.1524,-0.0226 -0.06491,-0.0254 -0.115712,-0.0677 -0.0508,-0.0423 -0.09031,-0.1016 -0.03951,-0.0621 -0.07338,-0.13546 l -0.375357,0.16369 q 0.06491,0.1524 0.149578,0.25117 0.08467,0.096 0.200379,0.15805 0.217311,0.12135 0.445912,0.12135 0.355601,0 0.553157,-0.16368 z"
         style="fill:#ffffff;stroke-width:0.264583"
         id="path2305" />
      <path
         d="m 33.517547,265.62032 h 0.533401 v -0.38665 h -1.512715 v 0.38665 h 0.530579 v 1.71309 h 0.448735 z"
         style="fill:#ffffff;stroke-width:0.264583"
         id="path2307" />
      <path
         d="m 35.151616,267.33341 h 0.454379 l -0.598313,-2.10256 h -0.530579 l -0.60678,2.10256 h 0.451557 l 0.121356,-0.44027 h 0.595491 z m -0.403579,-1.56916 0.191911,0.74507 h -0.395112 z"
         style="fill:#ffffff;stroke-width:0.264583"
         id="path2309" />
      <path
         d="m 36.90986,267.33341 h 0.502357 l -0.457201,-0.92287 q 0.174978,-0.0621 0.268111,-0.19755 0.09596,-0.13829 0.09596,-0.32456 0,-0.16087 -0.0508,-0.28222 -0.04798,-0.12418 -0.138289,-0.20602 -0.08749,-0.0819 -0.21449,-0.12418 -0.127,-0.0423 -0.282223,-0.0423 h -0.843846 v 2.09974 h 0.448734 v -0.82973 h 0.287868 z m -0.121356,-1.65665 q 0.03669,0.031 0.05644,0.0818 0.01976,0.0508 0.01976,0.12418 0,0.0818 -0.03104,0.12982 -0.03104,0.048 -0.08185,0.0734 -0.0508,0.0254 -0.115711,0.0339 -0.06491,0.006 -0.129823,0.006 h -0.268112 v -0.51365 h 0.313268 q 0.163689,0 0.237067,0.0649 z"
         style="fill:#ffffff;stroke-width:0.264583"
         id="path2311" />
      <path
         d="m 38.490308,265.62032 h 0.533402 v -0.38665 h -1.512716 v 0.38665 h 0.530579 v 1.71309 h 0.448735 z"
         style="fill:#ffffff;stroke-width:0.264583"
         id="path2313" />
    </g>
    <g
       aria-label="NEW"
       id="text2303"
       style="font-size:2.82223px;line-height:1.25;font-family:OldSansBlack;-inkscape-font-specification:OldSansBlack;fill:#ffffff;stroke-width:0.264583"
       transform="translate(0.34969847)">
      <path
         d="m 45.681659,267.39524 h 0.420512 v -2.09974 h -0.428979 v 1.31516 l -0.75918,-1.31516 h -0.454379 v 2.09974 h 0.428979 v -1.37725 z"
         style="fill:#ffffff;stroke-width:0.264583"
         id="path2316" />
      <path
         d="m 46.412609,267.39524 h 1.44216 v -0.38947 h -0.993425 v -0.51082 l 0.699913,-0.003 v -0.38383 h -0.699913 v -0.42333 h 0.959558 v -0.38947 h -1.408293 z"
         style="fill:#ffffff;stroke-width:0.264583"
         id="path2318" />
      <path
         d="m 49.82468,267.39524 0.434623,-2.09974 h -0.426156 l -0.256823,1.26154 -0.245534,-1.26154 h -0.451557 l -0.26529,1.26154 -0.237067,-1.26154 h -0.428979 l 0.440268,2.09974 h 0.445912 l 0.270934,-1.33774 0.273757,1.33774 z"
         style="fill:#ffffff;stroke-width:0.264583"
         id="path2320" />
    </g>
  </g>
</svg>
