<?xml version="1.0" encoding="UTF-8" standalone="no"?>
<!-- Created with Inkscape (http://www.inkscape.org/) -->

<svg
   xmlns:dc="http://purl.org/dc/elements/1.1/"
   xmlns:cc="http://creativecommons.org/ns#"
   xmlns:rdf="http://www.w3.org/1999/02/22-rdf-syntax-ns#"
   xmlns:svg="http://www.w3.org/2000/svg"
   xmlns="http://www.w3.org/2000/svg"
   xmlns:sodipodi="http://sodipodi.sourceforge.net/DTD/sodipodi-0.dtd"
   xmlns:inkscape="http://www.inkscape.org/namespaces/inkscape"
   width="45"
   height="380"
   viewBox="0 0 11.906251 100.54167"
   version="1.1"
   id="svg8"
   inkscape:version="0.92.3 (2405546, 2018-03-11)"
   sodipodi:docname="MeraModule.svg">
  <title
     id="title4816">Autinn Mera</title>
  <defs
     id="defs2">
    <inkscape:path-effect
       effect="spiro"
       id="path-effect1440"
       is_visible="true" />
    <inkscape:path-effect
       effect="spiro"
       id="path-effect4668"
       is_visible="true" />
    <inkscape:path-effect
       effect="spiro"
       id="path-effect2944"
       is_visible="true" />
  </defs>
  <sodipodi:namedview
     id="base"
     pagecolor="#ffffff"
     bordercolor="#666666"
     borderopacity="1.0"
     inkscape:pageopacity="0.0"
     inkscape:pageshadow="2"
     inkscape:zoom="1.7984046"
     inkscape:cx="-176.71965"
     inkscape:cy="187.32926"
     inkscape:document-units="px"
     inkscape:current-layer="layer1"
     showgrid="true"
     units="px"
     inkscape:snap-bbox="false"
     inkscape:snap-page="true"
     inkscape:bbox-nodes="false"
     inkscape:snap-bbox-edge-midpoints="false"
     inkscape:window-width="1920"
     inkscape:window-height="1017"
     inkscape:window-x="-8"
     inkscape:window-y="-8"
     inkscape:window-maximized="1"
     inkscape:snap-grids="true"
     inkscape:snap-to-guides="false"
     inkscape:snap-global="true"
     inkscape:pagecheckerboard="true"
     inkscape:snap-nodes="false"
     inkscape:snap-others="false">
    <inkscape:grid
       type="xygrid"
       id="grid4367" />
  </sodipodi:namedview>
  <metadata
     id="metadata5">
    <rdf:RDF>
      <cc:Work
         rdf:about="">
        <dc:format>image/svg+xml</dc:format>
        <dc:type
           rdf:resource="http://purl.org/dc/dcmitype/StillImage" />
        <dc:title>Autinn Mera</dc:title>
      </cc:Work>
    </rdf:RDF>
  </metadata>
  <g
     inkscape:label="Layer 1"
     inkscape:groupmode="layer"
     id="layer1"
     transform="translate(0,-196.45832)">
    <path
       style="opacity:1;vector-effect:none;fill:#202020;fill-opacity:1;fill-rule:evenodd;stroke:none;stroke-width:0.3437039;stroke-linecap:butt;stroke-linejoin:round;stroke-miterlimit:4;stroke-dasharray:none;stroke-dashoffset:0;stroke-opacity:1;paint-order:normal"
       d="M 0,196.45831 H 11.906251 V 296.99999 H 0 Z"
       id="rect817"
       inkscape:connector-curvature="0" />
    <path
       style="fill:none;stroke:#5e110a;stroke-width:4.23333359;stroke-linecap:butt;stroke-linejoin:miter;stroke-miterlimit:4;stroke-dasharray:none;stroke-opacity:1"
       d="m -0.59281648,197.99964 c 4.65588818,4.99636 7.68824188,11.48223 8.53655748,18.25875 1.2133102,9.69218 -1.9236755,19.31998 -3.6754623,28.92944 -3.1852228,17.47259 -1.739769,35.76791 4.1497152,52.52354"
       id="path1438" />
    <g
       aria-label="Autinn"
       style="font-style:normal;font-weight:normal;font-size:7.05555534px;line-height:1.25;font-family:sans-serif;letter-spacing:0px;word-spacing:0px;fill:#ffd700;fill-opacity:1;stroke:none;stroke-width:0.26458332"
       id="text3739"
       transform="matrix(0.476,0,0,0.476,0.28574709,151.50542)">
      <path
         d="m 5.0556776,289.41931 q -0.1756999,-0.37896 -0.3858507,-0.93706 -0.2101508,-0.55811 -0.4409722,-1.25057 -0.1171332,0.32728 -0.4375271,0.9095 -0.3169488,0.58223 -0.7820367,1.31948 0.106798,0.007 0.2239312,0.007 0.1205784,0 0.3617351,0 0.3927408,0 0.7544759,-0.0103 0.3651801,-0.0138 0.7062445,-0.0379 z m 0.1481391,0.35485 q -0.099908,0 -0.2480469,0.003 -0.144694,0.003 -0.1963704,0.003 -1.2057834,0 -1.6467556,0.13436 -0.4409722,0.13436 -0.7165798,0.50643 -0.3135037,0.4203 -0.6924642,1.01975 -0.3789605,0.596 -0.4719781,0.596 -0.041341,0 -0.065457,-0.0241 -0.027561,-0.0241 -0.027561,-0.0689 0,-0.0413 0.4478624,-0.75448 0.4478624,-0.71658 0.8371581,-1.38148 0.7544759,-1.30225 1.1368815,-2.09806 0.3858507,-0.79582 0.3858507,-1.05765 0,-0.0344 -0.010335,-0.0758 -0.010335,-0.0448 -0.010335,-0.0517 0,-0.0413 0.2342665,-0.1688 0.2377116,-0.12747 0.323839,-0.12747 0.037896,0 0.2308214,0.65801 0.1929253,0.65457 0.4616427,1.33325 0.757921,1.93615 1.0610894,2.43568 0.3066135,0.49954 0.6028917,0.49954 0.082682,0 0.1722548,-0.0448 0.089573,-0.0482 0.1033528,-0.0482 0.020671,0 0.048231,0.0379 0.031006,0.0379 0.031006,0.0689 0,0.0207 -0.1550293,0.11714 -0.1550292,0.0965 -0.2928331,0.19292 -0.1274685,0.0965 -0.2928331,0.24116 -0.1619195,0.14125 -0.2067057,0.14125 -0.075792,0 -0.2928331,-0.42375 -0.2135959,-0.42375 -0.7510308,-1.66398 z"
         style="font-style:normal;font-variant:normal;font-weight:normal;font-stretch:normal;font-family:'Calligraph421 BT';-inkscape-font-specification:'Calligraph421 BT';stroke-width:0.26458332;fill:#ffd700;fill-opacity:1"
         id="path4612"
         inkscape:connector-curvature="0" />
      <path
         d="m 9.6410995,291.31067 q -0.2446018,0.12058 -0.6097819,0.31006 -0.4306369,0.22738 -0.5167643,0.22738 -0.4960938,0 -0.7269151,-0.31695 -0.2273763,-0.31695 -0.2273763,-1.00941 0,-0.16881 0.01378,-0.55811 0.01378,-0.39274 0.01378,-0.61323 0,-0.0482 -0.01378,-0.14469 -0.01378,-0.0999 -0.01378,-0.15159 0,-0.0276 0.1205783,-0.0654 0.096463,-0.031 0.1619195,-0.0551 0.1515842,-0.0551 0.3066135,-0.12058 0.1584744,-0.0689 0.1722547,-0.0689 0.051677,0 0.082682,0.0241 0.031006,0.0207 0.031006,0.0586 0,0.0413 -0.075792,0.11713 -0.072347,0.0758 -0.106798,0.13781 -0.082682,0.14124 -0.1205783,0.37551 -0.034451,0.23427 -0.034451,0.70969 0,0.65801 0.1584744,0.92329 0.1619195,0.26182 0.5477702,0.26182 0.1412489,0 0.3651801,-0.0654 0.2273763,-0.0655 0.4892035,-0.18604 v -1.5124 q 0,-0.40307 -0.1619194,-0.48575 -0.031006,-0.0138 -0.031006,-0.0276 0,-0.11025 0.082682,-0.13092 0.024116,-0.003 0.044786,-0.0103 0.1515842,-0.0551 0.323839,-0.14125 0.1722546,-0.0861 0.1998156,-0.0861 0.04479,0 0.103352,0.0551 0.05857,0.0551 0.05857,0.093 0,0.003 -0.0069,0.031 -0.04823,0.17914 -0.06546,0.43752 -0.01378,0.23771 -0.02067,0.63045 -0.0069,0.3893 -0.0069,0.86472 0,0.36863 0.02412,0.70625 0.0034,0.0517 0.0034,0.062 0,0.0792 -0.2377112,0.20671 -0.2377116,0.13091 -0.2962782,0.13091 -0.02067,0 -0.031006,-0.031 -0.00689,-0.0276 -0.00689,-0.0965 v -0.10335 q 0,-0.0758 0,-0.17226 0.00345,-0.0965 0.00689,-0.21015 z"
         style="font-style:normal;font-variant:normal;font-weight:normal;font-stretch:normal;font-family:'Calligraph421 BT';-inkscape-font-specification:'Calligraph421 BT';stroke-width:0.26458332;fill:#ffd700;fill-opacity:1"
         id="path4614"
         inkscape:connector-curvature="0" />
      <path
         d="m 11.346421,291.48637 q 0.0034,-0.30661 0.0034,-0.60289 0.0034,-0.29628 0.0034,-0.65801 0,-0.21704 -0.0034,-0.46165 0,-0.2446 -0.0034,-0.51331 h -0.19637 q -0.04479,0 -0.05857,-0.0103 -0.01033,-0.0138 -0.01378,-0.0586 0.0034,-0.0723 0.06201,-0.11713 0.02067,-0.0172 0.02756,-0.0241 l 0.799263,-0.72002 q 0.05512,-0.0551 0.07924,-0.0689 0.02412,-0.0172 0.04823,-0.0172 0.02412,0 0.04479,0.0207 0.02067,0.0172 0.02067,0.0448 0,0.0103 -0.03445,0.0827 -0.120578,0.25494 -0.151584,0.50988 h 1.036973 q 0.04823,0 0.06546,0.0344 0.02067,0.0344 0.02067,0.12057 0,0.10336 -0.02412,0.13092 -0.02412,0.0241 -0.158474,0.0241 h -0.981852 q -0.02412,0.30317 -0.0379,0.58912 -0.01034,0.28249 -0.01034,0.53743 0,0.61323 0.16881,0.8785 0.172255,0.26527 0.558105,0.26527 0.199816,0 0.416857,-0.0861 0.217041,-0.0896 0.230821,-0.0896 0.01378,0 0.02412,0.0172 0.01033,0.0138 0.01033,0.031 v 0.0517 q 0,0.13436 -0.36518,0.2825 -0.36518,0.14814 -0.706244,0.14814 -0.268718,0 -0.499539,-0.0896 -0.230822,-0.0896 -0.375516,-0.25149 z"
         style="font-style:normal;font-variant:normal;font-weight:normal;font-stretch:normal;font-family:'Calligraph421 BT';-inkscape-font-specification:'Calligraph421 BT';stroke-width:0.26458332;fill:#ffd700;fill-opacity:1"
         id="path4616"
         inkscape:connector-curvature="0" />
      <path
         d="m 14.677829,289.9223 v 1.55718 q 0,0.0482 -0.0069,0.10335 0,0.0138 0,0.0172 0,0.0482 -0.02412,0.0792 -0.02067,0.0276 -0.07579,0.0482 -0.124023,0.0413 -0.261827,0.0861 -0.137804,0.0482 -0.141249,0.0482 -0.02756,0 -0.04134,-0.062 -0.01378,-0.062 -0.01378,-0.31351 v -1.69843 q 0,-0.3893 -0.05512,-0.48576 -0.05512,-0.0999 -0.199816,-0.0999 -0.0379,0 -0.09991,0.0207 -0.05857,0.0207 -0.07579,0.0207 -0.0379,0 -0.06201,-0.0345 -0.02412,-0.0344 -0.02412,-0.093 0.0034,-0.0517 0.203261,-0.10336 0.141249,-0.0344 0.234266,-0.0654 0.16881,-0.0551 0.354845,-0.12747 0.186035,-0.0758 0.210151,-0.0758 0.03445,0 0.07235,0.0344 0.04134,0.0344 0.04134,0.0689 0,0.0138 -0.0034,0.0827 -0.03101,0.47887 -0.03101,0.99219 z m -0.347954,-3.00068 q 0.158474,0 0.268717,0.11369 0.113688,0.11369 0.113688,0.26872 0,0.15847 -0.110243,0.26527 -0.110243,0.1068 -0.272162,0.1068 -0.15503,0 -0.265273,-0.1068 -0.106798,-0.11024 -0.106798,-0.26527 0,-0.15848 0.106798,-0.26872 0.110243,-0.11369 0.265273,-0.11369 z"
         style="font-style:normal;font-variant:normal;font-weight:normal;font-stretch:normal;font-family:'Calligraph421 BT';-inkscape-font-specification:'Calligraph421 BT';stroke-width:0.26458332;fill:#ffd700;fill-opacity:1"
         id="path4618"
         inkscape:connector-curvature="0" />
      <path
         d="m 16.014526,291.70686 v -1.5813 q 0,-0.48576 -0.106798,-0.7028 -0.103353,-0.22049 -0.33073,-0.22049 -0.03101,0 -0.07924,0.0103 -0.04479,0.0103 -0.06201,0.0103 -0.03445,0 -0.05512,-0.0276 -0.01722,-0.0276 -0.01722,-0.0792 0,-0.0344 0.130913,-0.0792 0.09646,-0.031 0.151584,-0.0551 0.210151,-0.0861 0.389296,-0.20671 0.04823,-0.031 0.05512,-0.031 0.07235,0 0.20326,0.14814 0.130914,0.14469 0.199816,0.3445 0.347954,-0.2067 0.689019,-0.32383 0.341064,-0.12058 0.575331,-0.12058 0.389296,0 0.56155,0.29628 0.172255,0.29283 0.172255,0.98874 0,0.32039 -0.02067,0.70624 -0.01723,0.38585 -0.01723,0.44097 0,0.0861 0.03101,0.11714 0.03101,0.031 0.110243,0.031 0.04134,0 0.120578,-0.031 0.08268,-0.031 0.120579,-0.031 0.02756,0 0.04479,0.031 0.01722,0.031 0.01722,0.0827 0,0.0724 -0.19637,0.12402 -0.165365,0.0448 -0.282498,0.0861 -0.16881,0.0655 -0.341064,0.15159 -0.16881,0.0896 -0.189481,0.0896 -0.03445,0 -0.05857,-0.0241 -0.02412,-0.0207 -0.02412,-0.0551 0,-0.007 0.01378,-0.0517 0.148139,-0.50987 0.148139,-1.25401 0,-0.68557 -0.18259,-1.00252 -0.18259,-0.31695 -0.571886,-0.31695 -0.1757,0 -0.3514,0.0827 -0.172255,0.0827 -0.327284,0.23771 0,0.0482 0.0034,0.20326 0.0034,0.15159 0.0034,0.25494 0,0.5271 -0.0069,0.97841 -0.0069,0.44786 -0.02067,0.75792 l -0.403076,0.14125 q -0.0034,0 -0.01378,0.003 -0.01033,0.003 -0.02756,0.003 -0.03101,0 -0.04479,-0.0276 -0.01034,-0.0276 -0.01034,-0.0999 z"
         style="font-style:normal;font-variant:normal;font-weight:normal;font-stretch:normal;font-family:'Calligraph421 BT';-inkscape-font-specification:'Calligraph421 BT';stroke-width:0.26458332;fill:#ffd700;fill-opacity:1"
         id="path4620"
         inkscape:connector-curvature="0" />
      <path
         d="m 19.790351,291.70686 v -1.5813 q 0,-0.48576 -0.106798,-0.7028 -0.103353,-0.22049 -0.330729,-0.22049 -0.03101,0 -0.07924,0.0103 -0.04479,0.0103 -0.06201,0.0103 -0.03445,0 -0.05512,-0.0276 -0.01723,-0.0276 -0.01723,-0.0792 0,-0.0344 0.130914,-0.0792 0.09646,-0.031 0.151584,-0.0551 0.210151,-0.0861 0.389296,-0.20671 0.04823,-0.031 0.05512,-0.031 0.07235,0 0.203261,0.14814 0.130913,0.14469 0.199815,0.3445 0.347955,-0.2067 0.689019,-0.32383 0.341065,-0.12058 0.575331,-0.12058 0.389296,0 0.561551,0.29628 0.172255,0.29283 0.172255,0.98874 0,0.32039 -0.02067,0.70624 -0.01722,0.38585 -0.01722,0.44097 0,0.0861 0.03101,0.11714 0.03101,0.031 0.110244,0.031 0.04134,0 0.120578,-0.031 0.08268,-0.031 0.120578,-0.031 0.02756,0 0.04479,0.031 0.01723,0.031 0.01723,0.0827 0,0.0724 -0.196371,0.12402 -0.165364,0.0448 -0.282497,0.0861 -0.16881,0.0655 -0.341065,0.15159 -0.168809,0.0896 -0.18948,0.0896 -0.03445,0 -0.05857,-0.0241 -0.02412,-0.0207 -0.02412,-0.0551 0,-0.007 0.01378,-0.0517 0.148139,-0.50987 0.148139,-1.25401 0,-0.68557 -0.18259,-1.00252 -0.18259,-0.31695 -0.571886,-0.31695 -0.1757,0 -0.351399,0.0827 -0.172255,0.0827 -0.327285,0.23771 0,0.0482 0.0034,0.20326 0.0034,0.15159 0.0034,0.25494 0,0.5271 -0.0069,0.97841 -0.0069,0.44786 -0.02067,0.75792 l -0.403076,0.14125 q -0.0034,0 -0.01378,0.003 -0.01033,0.003 -0.02756,0.003 -0.03101,0 -0.04479,-0.0276 -0.01033,-0.0276 -0.01033,-0.0999 z"
         style="font-style:normal;font-variant:normal;font-weight:normal;font-stretch:normal;font-family:'Calligraph421 BT';-inkscape-font-specification:'Calligraph421 BT';stroke-width:0.26458332;fill:#ffd700;fill-opacity:1"
         id="path4622"
         inkscape:connector-curvature="0" />
    </g>
    <g
       style="font-style:normal;font-weight:normal;font-size:3.52777767px;line-height:1.25;font-family:sans-serif;letter-spacing:0px;word-spacing:0px;fill:#000000;fill-opacity:1;stroke:none;stroke-width:0.26458332"
       id="text4707" />
    <g
       style="font-style:normal;font-weight:normal;font-size:13.33333302px;line-height:1.25;font-family:sans-serif;letter-spacing:0px;word-spacing:0px;fill:#000000;fill-opacity:1;stroke:none"
       id="flowRoot4709" />
    <g
       style="font-style:normal;font-weight:normal;font-size:3.17500019px;line-height:1.25;font-family:sans-serif;letter-spacing:0px;word-spacing:0px;fill:#000000;fill-opacity:1;stroke:none;stroke-width:0.26458335"
       id="text1444" />
    <g
       style="font-style:normal;font-weight:normal;font-size:10.58333397px;line-height:1.25;font-family:sans-serif;letter-spacing:0px;word-spacing:0px;fill:#000000;fill-opacity:1;stroke:none;stroke-width:0.26458335"
       id="text45" />
    <g
       aria-label="MERA"
       style="font-style:normal;font-variant:normal;font-weight:500;font-stretch:normal;font-size:2.11666679px;line-height:1.25;font-family:OldSansBlack;-inkscape-font-specification:'OldSansBlack, Medium';font-variant-ligatures:normal;font-variant-position:normal;font-variant-caps:normal;font-variant-numeric:normal;font-variant-alternates:normal;font-feature-settings:normal;text-indent:0;text-align:start;text-decoration:none;text-decoration-line:none;text-decoration-style:solid;text-decoration-color:#000000;letter-spacing:0px;word-spacing:0px;text-transform:none;writing-mode:lr-tb;direction:ltr;text-orientation:mixed;dominant-baseline:auto;baseline-shift:baseline;text-anchor:start;white-space:normal;shape-padding:0;opacity:1;vector-effect:none;fill:#ffffff;fill-opacity:1;stroke:none;stroke-width:0.26458335;stroke-linecap:butt;stroke-linejoin:miter;stroke-miterlimit:4;stroke-dasharray:none;stroke-dashoffset:0;stroke-opacity:1"
       id="text855">
      <path
         d="m 2.4607297,206.57094 h 0.6512279 v -3.41207 h -0.986014 l -0.6099528,2.19216 -0.60536677,-2.19216 h -0.97684176 v 3.41207 h 0.65122784 v -2.32057 l 0.65581399,2.32057 h 0.5549195 l 0.6649861,-2.32516 z"
         style="font-size:4.58611155px;stroke-width:0.26458335"
         id="path874" />
      <path
         d="m 3.6244913,206.57094 h 2.343503 v -0.63288 H 4.353683 v -0.83009 l 1.1373557,-0.005 v -0.62371 H 4.353683 v -0.68791 h 1.559278 v -0.63289 H 3.6244913 Z"
         style="font-size:4.58611155px;stroke-width:0.26458335"
         id="path876" />
      <path
         d="m 8.2257585,206.57094 h 0.8163279 l -0.7429501,-1.49966 q 0.2843389,-0.10089 0.4356806,-0.32103 0.1559278,-0.22472 0.1559278,-0.5274 0,-0.26141 -0.08255,-0.45861 -0.077964,-0.20179 -0.2247195,-0.33479 -0.1421694,-0.13299 -0.3485445,-0.20179 -0.206375,-0.0688 -0.4586111,-0.0688 H 6.4050722 v 3.41207 H 7.134264 v -1.34832 h 0.4677833 z m -0.1972028,-2.69205 q 0.05962,0.0504 0.091722,0.133 0.032103,0.0825 0.032103,0.20179 0,0.133 -0.050447,0.21096 -0.050447,0.078 -0.1329972,0.11924 -0.08255,0.0413 -0.1880306,0.055 -0.1054806,0.009 -0.2109611,0.009 H 7.134264 v -0.83467 h 0.5090583 q 0.2659945,0 0.3852334,0.10548 z"
         style="font-size:4.58611155px;stroke-width:0.26458335"
         id="path878" />
      <path
         d="m 11.234104,206.57094 h 0.738364 l -0.972255,-3.41665 h -0.862189 l -0.9860142,3.41665 h 0.7337779 l 0.1972023,-0.71543 h 0.96767 z m -0.655813,-2.54988 0.311855,1.21074 H 10.24809 Z"
         style="font-size:4.58611155px;stroke-width:0.26458335"
         id="path880" />
    </g>
    <g
       aria-label="CV"
       style="font-style:normal;font-variant:normal;font-weight:500;font-stretch:normal;font-size:2.11666679px;line-height:1.25;font-family:OldSansBlack;-inkscape-font-specification:'OldSansBlack, Medium';font-variant-ligatures:normal;font-variant-position:normal;font-variant-caps:normal;font-variant-numeric:normal;font-variant-alternates:normal;font-feature-settings:normal;text-indent:0;text-align:start;text-decoration:none;text-decoration-line:none;text-decoration-style:solid;text-decoration-color:#000000;letter-spacing:0px;word-spacing:0px;text-transform:none;writing-mode:lr-tb;direction:ltr;text-orientation:mixed;dominant-baseline:auto;baseline-shift:baseline;text-anchor:start;white-space:normal;shape-padding:0;opacity:1;vector-effect:none;fill:#ffffff;fill-opacity:1;stroke:none;stroke-width:0.26458335;stroke-linecap:butt;stroke-linejoin:miter;stroke-miterlimit:4;stroke-dasharray:none;stroke-dashoffset:0;stroke-opacity:1"
       id="text859">
      <path
         d="m 5.7045408,212.1866 q 0.086431,-0.0617 0.1506362,-0.15558 0.066675,-0.0938 0.1210027,-0.2346 l -0.3704166,-0.0963 q -0.027164,0.0593 -0.056797,0.10866 -0.029633,0.0494 -0.066675,0.0864 -0.037042,0.0346 -0.0889,0.0543 -0.049389,0.0197 -0.1210027,0.0197 -0.1827389,0 -0.2617612,-0.14569 -0.086431,-0.15064 -0.086431,-0.4445 0,-0.0543 0.00247,-0.12101 0.00494,-0.0667 0.017286,-0.13335 0.012347,-0.0691 0.034572,-0.13335 0.024694,-0.0642 0.061736,-0.11359 0.037042,-0.0519 0.091369,-0.0815 0.056797,-0.0321 0.1308806,-0.0321 0.1284111,0 0.1975555,0.0741 0.069145,0.0741 0.1086556,0.18768 l 0.3605389,-0.0864 q -0.046919,-0.16052 -0.111125,-0.2593 -0.061736,-0.10124 -0.1481667,-0.1531 -0.1703916,-0.10372 -0.3951111,-0.10372 -0.2074333,0 -0.3506611,0.079 -0.1432278,0.079 -0.2321278,0.21238 -0.086431,0.13088 -0.1259417,0.30127 -0.037042,0.17039 -0.037042,0.35066 0,0.18274 0.037042,0.35313 0.039511,0.16792 0.1259417,0.30127 0.086431,0.13088 0.2296583,0.20991 0.1432278,0.079 0.3506612,0.079 0.2617611,0 0.4321527,-0.12347 z"
         style="font-size:2.46944451px;stroke-width:0.26458335"
         id="path883" />
      <path
         d="m 6.8882151,212.28537 0.48895,-1.83726 H 6.982054 l -0.31115,1.23719 -0.2963334,-1.23719 H 5.981929 l 0.4864805,1.83726 z"
         style="font-size:2.46944451px;stroke-width:0.26458335"
         id="path885" />
    </g>
    <g
       aria-label="PRE"
       style="font-style:normal;font-variant:normal;font-weight:500;font-stretch:normal;font-size:2.11666679px;line-height:1.25;font-family:OldSansBlack;-inkscape-font-specification:'OldSansBlack, Medium';font-variant-ligatures:normal;font-variant-position:normal;font-variant-caps:normal;font-variant-numeric:normal;font-variant-alternates:normal;font-feature-settings:normal;text-indent:0;text-align:start;text-decoration:none;text-decoration-line:none;text-decoration-style:solid;text-decoration-color:#000000;letter-spacing:0px;word-spacing:0px;text-transform:none;writing-mode:lr-tb;direction:ltr;text-orientation:mixed;dominant-baseline:auto;baseline-shift:baseline;text-anchor:start;white-space:normal;shape-padding:0;opacity:1;vector-effect:none;fill:#ffffff;fill-opacity:1;stroke:none;stroke-width:0.26458335;stroke-linecap:butt;stroke-linejoin:miter;stroke-miterlimit:4;stroke-dasharray:none;stroke-dashoffset:0;stroke-opacity:1"
       id="text863">
      <path
         d="m 4.8859587,245.99701 q 0.1753306,-0.14323 0.1753306,-0.41487 0,-0.1531 -0.051858,-0.25929 -0.049389,-0.10866 -0.1382889,-0.17533 -0.0889,-0.0667 -0.2099028,-0.0963 -0.1185333,-0.0296 -0.2592917,-0.0296 H 3.7228504 v 1.83726 h 0.3951111 v -0.72107 h 0.2815167 q 0.3160889,0 0.4864805,-0.14076 z m -0.288925,-0.5902 q 0.032103,0.0247 0.049389,0.0691 0.017286,0.042 0.017286,0.11112 0,0.0691 -0.024694,0.11359 -0.024694,0.042 -0.066675,0.0667 -0.039511,0.0222 -0.093839,0.0321 -0.051858,0.007 -0.111125,0.007 H 4.1179615 v -0.45438 h 0.2494139 q 0.1605139,0 0.2296583,0.0543 z"
         style="font-size:2.46944451px;stroke-width:0.26458335"
         id="path888" />
      <path
         d="m 6.2375552,246.85884 h 0.4395612 l -0.4000501,-0.8075 q 0.1531056,-0.0543 0.2345973,-0.17287 0.083961,-0.121 0.083961,-0.28398 0,-0.14076 -0.04445,-0.24695 -0.041981,-0.10865 -0.1210028,-0.18027 -0.076553,-0.0716 -0.1876778,-0.10865 -0.111125,-0.037 -0.2469444,-0.037 H 5.2571858 v 1.83726 h 0.3926416 v -0.72601 h 0.2518834 z m -0.1061861,-1.44956 q 0.032103,0.0272 0.049389,0.0716 0.017286,0.0445 0.017286,0.10866 0,0.0716 -0.027164,0.11359 -0.027164,0.042 -0.071614,0.0642 -0.04445,0.0222 -0.1012472,0.0296 -0.056797,0.005 -0.1135944,0.005 H 5.6498274 v -0.44944 h 0.2741084 q 0.1432278,0 0.2074333,0.0568 z"
         style="font-size:2.46944451px;stroke-width:0.26458335"
         id="path890" />
      <path
         d="m 6.9215142,246.85884 h 1.2618862 v -0.34078 H 7.3141559 v -0.44697 l 0.6124223,-0.002 v -0.33584 H 7.3141559 v -0.37042 h 0.8396112 v -0.34078 H 6.9215142 Z"
         style="font-size:2.46944451px;stroke-width:0.26458335"
         id="path892" />
    </g>
    <g
       aria-label="POST"
       style="font-style:normal;font-variant:normal;font-weight:500;font-stretch:normal;font-size:2.11666679px;line-height:1.25;font-family:OldSansBlack;-inkscape-font-specification:'OldSansBlack, Medium';font-variant-ligatures:normal;font-variant-position:normal;font-variant-caps:normal;font-variant-numeric:normal;font-variant-alternates:normal;font-feature-settings:normal;text-indent:0;text-align:start;text-decoration:none;text-decoration-line:none;text-decoration-style:solid;text-decoration-color:#000000;letter-spacing:0px;word-spacing:0px;text-transform:none;writing-mode:lr-tb;direction:ltr;text-orientation:mixed;dominant-baseline:auto;baseline-shift:baseline;text-anchor:start;white-space:normal;shape-padding:0;opacity:1;vector-effect:none;fill:#ffffff;fill-opacity:1;stroke:none;stroke-width:0.26458335;stroke-linecap:butt;stroke-linejoin:miter;stroke-miterlimit:4;stroke-dasharray:none;stroke-dashoffset:0;stroke-opacity:1"
       id="text867">
      <path
         d="m 4.1780577,272.4788 q 0.1753306,-0.14322 0.1753306,-0.41486 0,-0.15311 -0.051858,-0.25929 -0.049389,-0.10866 -0.1382889,-0.17533 -0.0889,-0.0667 -0.2099028,-0.0963 -0.1185333,-0.0296 -0.2592917,-0.0296 H 3.0149494 v 1.83727 h 0.3951111 v -0.72108 h 0.2815167 q 0.3160889,0 0.4864805,-0.14076 z m -0.288925,-0.59019 q 0.032103,0.0247 0.049389,0.0691 0.017286,0.042 0.017286,0.11113 0,0.0691 -0.024694,0.11359 -0.024694,0.042 -0.066675,0.0667 -0.039511,0.0222 -0.093839,0.0321 -0.051858,0.007 -0.111125,0.007 H 3.4100605 v -0.45438 h 0.2494139 q 0.1605139,0 0.2296583,0.0543 z"
         style="font-size:2.46944451px;stroke-width:0.26458335"
         id="path895" />
      <path
         d="m 5.7864765,273.11345 q 0.1975555,-0.24447 0.1975555,-0.69144 0,-0.19015 -0.041981,-0.36054 -0.039511,-0.17286 -0.13335,-0.30127 -0.091369,-0.13088 -0.2395362,-0.20497 -0.1456972,-0.0765 -0.3605389,-0.0765 -0.2148416,0 -0.3630083,0.0765 -0.1481667,0.0741 -0.2420056,0.20497 -0.091369,0.12841 -0.13335,0.30127 -0.039511,0.17039 -0.039511,0.36054 0,0.19014 0.039511,0.36301 0.041981,0.17039 0.13335,0.30127 0.093839,0.12841 0.2420056,0.20496 0.1481667,0.0741 0.3630083,0.0741 0.3778251,0 0.5778501,-0.25188 z M 5.495082,271.96763 q 0.093839,0.1531 0.093839,0.45438 0,0.30127 -0.093839,0.45437 -0.0889,0.14817 -0.2864556,0.14817 -0.200025,0 -0.288925,-0.14817 -0.093839,-0.1531 -0.093839,-0.45437 0,-0.30128 0.093839,-0.45438 0.0889,-0.14817 0.288925,-0.14817 0.1975556,0 0.2864556,0.14817 z"
         style="font-size:2.46944451px;stroke-width:0.26458335"
         id="path897" />
      <path
         d="m 7.268066,273.22211 q 0.1728612,-0.14817 0.1728612,-0.41734 0,-0.24941 -0.1753306,-0.38029 -0.1654528,-0.12841 -0.3753556,-0.20003 -0.1481666,-0.0519 -0.2667,-0.11853 -0.056797,-0.0321 -0.081492,-0.0667 -0.022225,-0.0346 -0.022225,-0.0716 0,-0.0469 0.019755,-0.079 0.022225,-0.0346 0.054328,-0.0519 0.034572,-0.0198 0.074083,-0.0272 0.041981,-0.01 0.081492,-0.01 0.1234722,0 0.1901472,0.0667 0.069145,0.0642 0.1135945,0.17039 l 0.3630083,-0.11112 q -0.054328,-0.12594 -0.1210028,-0.20743 -0.066675,-0.0815 -0.1531055,-0.13335 -0.1728611,-0.10619 -0.3901723,-0.10619 -0.2592916,0 -0.4321527,0.14323 -0.1728612,0.14322 -0.1728612,0.36301 0,0.22225 0.1481667,0.34819 0.1407583,0.11606 0.4272139,0.22472 0.1456972,0.0543 0.2494139,0.12347 0.093839,0.0617 0.093839,0.1531 0,0.0617 -0.022225,0.10372 -0.022225,0.0395 -0.061736,0.0642 -0.037042,0.0222 -0.086431,0.0321 -0.049389,0.01 -0.1012472,0.01 -0.074083,0 -0.13335,-0.0198 -0.056797,-0.0222 -0.1012472,-0.0593 -0.04445,-0.037 -0.079022,-0.0889 -0.034572,-0.0543 -0.064205,-0.11853 l -0.3284361,0.14323 q 0.056797,0.13335 0.1308805,0.21978 0.074083,0.084 0.1753306,0.13829 0.1901472,0.10618 0.3901722,0.10618 0.31115,0 0.4840111,-0.14322 z"
         style="font-size:2.46944451px;stroke-width:0.26458335"
         id="path899" />
      <path
         d="m 8.4245764,271.84169 h 0.466725 v -0.33832 H 7.5676792 v 0.33832 h 0.4642555 v 1.49895 h 0.3926417 z"
         style="font-size:2.46944451px;stroke-width:0.26458335"
         id="path901" />
    </g>
  </g>
</svg>
