<?xml version="1.0" encoding="UTF-8" standalone="no"?>
<svg
   xmlns:dc="http://purl.org/dc/elements/1.1/"
   xmlns:cc="http://creativecommons.org/ns#"
   xmlns:rdf="http://www.w3.org/1999/02/22-rdf-syntax-ns#"
   xmlns:svg="http://www.w3.org/2000/svg"
   xmlns="http://www.w3.org/2000/svg"
   xmlns:sodipodi="http://sodipodi.sourceforge.net/DTD/sodipodi-0.dtd"
   xmlns:inkscape="http://www.inkscape.org/namespaces/inkscape"
   width="75"
   height="380"
   viewBox="0 0 19.843752 100.54167"
   version="1.1"
   id="svg8"
   inkscape:version="1.0.2 (e86c870879, 2021-01-15, custom)"
   sodipodi:docname="RebelModule.svg">
  <title
     id="title4816">Autinn Rebel</title>
  <defs
     id="defs2">
    <inkscape:path-effect
       effect="spiro"
       id="path-effect4668"
       is_visible="true"
       lpeversion="0" />
    <inkscape:path-effect
       effect="spiro"
       id="path-effect2944"
       is_visible="true"
       lpeversion="0" />
  </defs>
  <sodipodi:namedview
     id="base"
     pagecolor="#ffffff"
     bordercolor="#666666"
     borderopacity="1.0"
     inkscape:pageopacity="0.0"
     inkscape:pageshadow="2"
     inkscape:zoom="1.3475083"
     inkscape:cx="-61.061228"
     inkscape:cy="214.3724"
     inkscape:document-units="px"
     inkscape:current-layer="layer1"
     showgrid="true"
     units="px"
     inkscape:snap-bbox="true"
     inkscape:snap-page="true"
     inkscape:bbox-nodes="false"
     inkscape:snap-bbox-edge-midpoints="true"
     inkscape:window-width="1920"
     inkscape:window-height="1017"
     inkscape:window-x="-8"
     inkscape:window-y="-8"
     inkscape:window-maximized="1"
     inkscape:snap-grids="true"
     inkscape:snap-to-guides="false"
     inkscape:snap-global="false"
     inkscape:pagecheckerboard="true"
     inkscape:snap-nodes="false"
     inkscape:snap-others="false"
     inkscape:document-rotation="0">
    <inkscape:grid
       type="xygrid"
       id="grid4367" />
  </sodipodi:namedview>
  <metadata
     id="metadata5">
    <rdf:RDF>
      <cc:Work
         rdf:about="">
        <dc:format>image/svg+xml</dc:format>
        <dc:type
           rdf:resource="http://purl.org/dc/dcmitype/StillImage" />
        <dc:title>Autinn Rebel</dc:title>
      </cc:Work>
    </rdf:RDF>
  </metadata>
  <g
     inkscape:label="Layer 1"
     inkscape:groupmode="layer"
     id="layer1"
     transform="translate(0,-196.45832)">
    <path
       style="opacity:1;vector-effect:none;fill:#202020;fill-opacity:1;fill-rule:evenodd;stroke:none;stroke-width:0.44372;stroke-linecap:butt;stroke-linejoin:round;stroke-miterlimit:4;stroke-dasharray:none;stroke-dashoffset:0;stroke-opacity:1;paint-order:normal"
       d="M 0,196.45831 H 19.843751 V 296.99999 H 0 Z"
       id="rect817"
       inkscape:connector-curvature="0" />
    <path
       style="fill:none;stroke:#5e110a;stroke-width:4.23333;stroke-linecap:butt;stroke-linejoin:miter;stroke-miterlimit:4;stroke-dasharray:none;stroke-opacity:1"
       d="m 5.8905022,192.92402 c 0,0 10.8337028,9.71333 9.2284538,15.51165 -1.031342,3.72531 -8.9902618,1.82993 -10.210204,5.49781 -1.9130155,5.75167 7.052284,10.46224 7.657653,16.4934 1.068591,10.64613 -10.512277,20.96424 -7.4613031,31.21966 1.4389824,4.83694 10.5039561,5.38412 10.9956041,10.40656 0.59448,6.07294 -10.9322862,8.82954 -10.602904,14.92261 0.3353532,6.20352 12.370055,13.94085 12.370055,13.94085"
       id="path4119"
       sodipodi:nodetypes="caaaaaac" />
    <g
       aria-label="Autinn"
       style="font-style:normal;font-weight:normal;font-size:7.05556px;line-height:1.25;font-family:sans-serif;letter-spacing:0px;word-spacing:0px;fill:#ffd700;fill-opacity:1;stroke:none;stroke-width:0.264583"
       id="text3739"
       transform="matrix(0.714,0,0,0.714,1.4208083,84.496816)">
      <path
         d="m 5.0556776,289.41931 q -0.1756999,-0.37896 -0.3858507,-0.93706 -0.2101508,-0.55811 -0.4409722,-1.25057 -0.1171332,0.32728 -0.4375271,0.9095 -0.3169488,0.58223 -0.7820367,1.31948 0.106798,0.007 0.2239312,0.007 0.1205784,0 0.3617351,0 0.3927408,0 0.7544759,-0.0103 0.3651801,-0.0138 0.7062445,-0.0379 z m 0.1481391,0.35485 q -0.099908,0 -0.2480469,0.003 -0.144694,0.003 -0.1963704,0.003 -1.2057834,0 -1.6467556,0.13436 -0.4409722,0.13436 -0.7165798,0.50643 -0.3135037,0.4203 -0.6924642,1.01975 -0.3789605,0.596 -0.4719781,0.596 -0.041341,0 -0.065457,-0.0241 -0.027561,-0.0241 -0.027561,-0.0689 0,-0.0413 0.4478624,-0.75448 0.4478624,-0.71658 0.8371581,-1.38148 0.7544759,-1.30225 1.1368815,-2.09806 0.3858507,-0.79582 0.3858507,-1.05765 0,-0.0344 -0.010335,-0.0758 -0.010335,-0.0448 -0.010335,-0.0517 0,-0.0413 0.2342665,-0.1688 0.2377116,-0.12747 0.323839,-0.12747 0.037896,0 0.2308214,0.65801 0.1929253,0.65457 0.4616427,1.33325 0.757921,1.93615 1.0610894,2.43568 0.3066135,0.49954 0.6028917,0.49954 0.082682,0 0.1722548,-0.0448 0.089573,-0.0482 0.1033528,-0.0482 0.020671,0 0.048231,0.0379 0.031006,0.0379 0.031006,0.0689 0,0.0207 -0.1550293,0.11714 -0.1550292,0.0965 -0.2928331,0.19292 -0.1274685,0.0965 -0.2928331,0.24116 -0.1619195,0.14125 -0.2067057,0.14125 -0.075792,0 -0.2928331,-0.42375 -0.2135959,-0.42375 -0.7510308,-1.66398 z"
         style="font-style:normal;font-variant:normal;font-weight:normal;font-stretch:normal;font-family:'Calligraph421 BT';-inkscape-font-specification:'Calligraph421 BT';fill:#ffd700;fill-opacity:1;stroke-width:0.264583"
         id="path4612"
         inkscape:connector-curvature="0" />
      <path
         d="m 9.6410995,291.31067 q -0.2446018,0.12058 -0.6097819,0.31006 -0.4306369,0.22738 -0.5167643,0.22738 -0.4960938,0 -0.7269151,-0.31695 -0.2273763,-0.31695 -0.2273763,-1.00941 0,-0.16881 0.01378,-0.55811 0.01378,-0.39274 0.01378,-0.61323 0,-0.0482 -0.01378,-0.14469 -0.01378,-0.0999 -0.01378,-0.15159 0,-0.0276 0.1205783,-0.0654 0.096463,-0.031 0.1619195,-0.0551 0.1515842,-0.0551 0.3066135,-0.12058 0.1584744,-0.0689 0.1722547,-0.0689 0.051677,0 0.082682,0.0241 0.031006,0.0207 0.031006,0.0586 0,0.0413 -0.075792,0.11713 -0.072347,0.0758 -0.106798,0.13781 -0.082682,0.14124 -0.1205783,0.37551 -0.034451,0.23427 -0.034451,0.70969 0,0.65801 0.1584744,0.92329 0.1619195,0.26182 0.5477702,0.26182 0.1412489,0 0.3651801,-0.0654 0.2273763,-0.0655 0.4892035,-0.18604 v -1.5124 q 0,-0.40307 -0.1619194,-0.48575 -0.031006,-0.0138 -0.031006,-0.0276 0,-0.11025 0.082682,-0.13092 0.024116,-0.003 0.044786,-0.0103 0.1515842,-0.0551 0.323839,-0.14125 0.1722546,-0.0861 0.1998156,-0.0861 0.04479,0 0.103352,0.0551 0.05857,0.0551 0.05857,0.093 0,0.003 -0.0069,0.031 -0.04823,0.17914 -0.06546,0.43752 -0.01378,0.23771 -0.02067,0.63045 -0.0069,0.3893 -0.0069,0.86472 0,0.36863 0.02412,0.70625 0.0034,0.0517 0.0034,0.062 0,0.0792 -0.2377112,0.20671 -0.2377116,0.13091 -0.2962782,0.13091 -0.02067,0 -0.031006,-0.031 -0.00689,-0.0276 -0.00689,-0.0965 v -0.10335 q 0,-0.0758 0,-0.17226 0.00345,-0.0965 0.00689,-0.21015 z"
         style="font-style:normal;font-variant:normal;font-weight:normal;font-stretch:normal;font-family:'Calligraph421 BT';-inkscape-font-specification:'Calligraph421 BT';fill:#ffd700;fill-opacity:1;stroke-width:0.264583"
         id="path4614"
         inkscape:connector-curvature="0" />
      <path
         d="m 11.346421,291.48637 q 0.0034,-0.30661 0.0034,-0.60289 0.0034,-0.29628 0.0034,-0.65801 0,-0.21704 -0.0034,-0.46165 0,-0.2446 -0.0034,-0.51331 h -0.19637 q -0.04479,0 -0.05857,-0.0103 -0.01033,-0.0138 -0.01378,-0.0586 0.0034,-0.0723 0.06201,-0.11713 0.02067,-0.0172 0.02756,-0.0241 l 0.799263,-0.72002 q 0.05512,-0.0551 0.07924,-0.0689 0.02412,-0.0172 0.04823,-0.0172 0.02412,0 0.04479,0.0207 0.02067,0.0172 0.02067,0.0448 0,0.0103 -0.03445,0.0827 -0.120578,0.25494 -0.151584,0.50988 h 1.036973 q 0.04823,0 0.06546,0.0344 0.02067,0.0344 0.02067,0.12057 0,0.10336 -0.02412,0.13092 -0.02412,0.0241 -0.158474,0.0241 h -0.981852 q -0.02412,0.30317 -0.0379,0.58912 -0.01034,0.28249 -0.01034,0.53743 0,0.61323 0.16881,0.8785 0.172255,0.26527 0.558105,0.26527 0.199816,0 0.416857,-0.0861 0.217041,-0.0896 0.230821,-0.0896 0.01378,0 0.02412,0.0172 0.01033,0.0138 0.01033,0.031 v 0.0517 q 0,0.13436 -0.36518,0.2825 -0.36518,0.14814 -0.706244,0.14814 -0.268718,0 -0.499539,-0.0896 -0.230822,-0.0896 -0.375516,-0.25149 z"
         style="font-style:normal;font-variant:normal;font-weight:normal;font-stretch:normal;font-family:'Calligraph421 BT';-inkscape-font-specification:'Calligraph421 BT';fill:#ffd700;fill-opacity:1;stroke-width:0.264583"
         id="path4616"
         inkscape:connector-curvature="0" />
      <path
         d="m 14.677829,289.9223 v 1.55718 q 0,0.0482 -0.0069,0.10335 0,0.0138 0,0.0172 0,0.0482 -0.02412,0.0792 -0.02067,0.0276 -0.07579,0.0482 -0.124023,0.0413 -0.261827,0.0861 -0.137804,0.0482 -0.141249,0.0482 -0.02756,0 -0.04134,-0.062 -0.01378,-0.062 -0.01378,-0.31351 v -1.69843 q 0,-0.3893 -0.05512,-0.48576 -0.05512,-0.0999 -0.199816,-0.0999 -0.0379,0 -0.09991,0.0207 -0.05857,0.0207 -0.07579,0.0207 -0.0379,0 -0.06201,-0.0345 -0.02412,-0.0344 -0.02412,-0.093 0.0034,-0.0517 0.203261,-0.10336 0.141249,-0.0344 0.234266,-0.0654 0.16881,-0.0551 0.354845,-0.12747 0.186035,-0.0758 0.210151,-0.0758 0.03445,0 0.07235,0.0344 0.04134,0.0344 0.04134,0.0689 0,0.0138 -0.0034,0.0827 -0.03101,0.47887 -0.03101,0.99219 z m -0.347954,-3.00068 q 0.158474,0 0.268717,0.11369 0.113688,0.11369 0.113688,0.26872 0,0.15847 -0.110243,0.26527 -0.110243,0.1068 -0.272162,0.1068 -0.15503,0 -0.265273,-0.1068 -0.106798,-0.11024 -0.106798,-0.26527 0,-0.15848 0.106798,-0.26872 0.110243,-0.11369 0.265273,-0.11369 z"
         style="font-style:normal;font-variant:normal;font-weight:normal;font-stretch:normal;font-family:'Calligraph421 BT';-inkscape-font-specification:'Calligraph421 BT';fill:#ffd700;fill-opacity:1;stroke-width:0.264583"
         id="path4618"
         inkscape:connector-curvature="0" />
      <path
         d="m 16.014526,291.70686 v -1.5813 q 0,-0.48576 -0.106798,-0.7028 -0.103353,-0.22049 -0.33073,-0.22049 -0.03101,0 -0.07924,0.0103 -0.04479,0.0103 -0.06201,0.0103 -0.03445,0 -0.05512,-0.0276 -0.01722,-0.0276 -0.01722,-0.0792 0,-0.0344 0.130913,-0.0792 0.09646,-0.031 0.151584,-0.0551 0.210151,-0.0861 0.389296,-0.20671 0.04823,-0.031 0.05512,-0.031 0.07235,0 0.20326,0.14814 0.130914,0.14469 0.199816,0.3445 0.347954,-0.2067 0.689019,-0.32383 0.341064,-0.12058 0.575331,-0.12058 0.389296,0 0.56155,0.29628 0.172255,0.29283 0.172255,0.98874 0,0.32039 -0.02067,0.70624 -0.01723,0.38585 -0.01723,0.44097 0,0.0861 0.03101,0.11714 0.03101,0.031 0.110243,0.031 0.04134,0 0.120578,-0.031 0.08268,-0.031 0.120579,-0.031 0.02756,0 0.04479,0.031 0.01722,0.031 0.01722,0.0827 0,0.0724 -0.19637,0.12402 -0.165365,0.0448 -0.282498,0.0861 -0.16881,0.0655 -0.341064,0.15159 -0.16881,0.0896 -0.189481,0.0896 -0.03445,0 -0.05857,-0.0241 -0.02412,-0.0207 -0.02412,-0.0551 0,-0.007 0.01378,-0.0517 0.148139,-0.50987 0.148139,-1.25401 0,-0.68557 -0.18259,-1.00252 -0.18259,-0.31695 -0.571886,-0.31695 -0.1757,0 -0.3514,0.0827 -0.172255,0.0827 -0.327284,0.23771 0,0.0482 0.0034,0.20326 0.0034,0.15159 0.0034,0.25494 0,0.5271 -0.0069,0.97841 -0.0069,0.44786 -0.02067,0.75792 l -0.403076,0.14125 q -0.0034,0 -0.01378,0.003 -0.01033,0.003 -0.02756,0.003 -0.03101,0 -0.04479,-0.0276 -0.01034,-0.0276 -0.01034,-0.0999 z"
         style="font-style:normal;font-variant:normal;font-weight:normal;font-stretch:normal;font-family:'Calligraph421 BT';-inkscape-font-specification:'Calligraph421 BT';fill:#ffd700;fill-opacity:1;stroke-width:0.264583"
         id="path4620"
         inkscape:connector-curvature="0" />
      <path
         d="m 19.790351,291.70686 v -1.5813 q 0,-0.48576 -0.106798,-0.7028 -0.103353,-0.22049 -0.330729,-0.22049 -0.03101,0 -0.07924,0.0103 -0.04479,0.0103 -0.06201,0.0103 -0.03445,0 -0.05512,-0.0276 -0.01723,-0.0276 -0.01723,-0.0792 0,-0.0344 0.130914,-0.0792 0.09646,-0.031 0.151584,-0.0551 0.210151,-0.0861 0.389296,-0.20671 0.04823,-0.031 0.05512,-0.031 0.07235,0 0.203261,0.14814 0.130913,0.14469 0.199815,0.3445 0.347955,-0.2067 0.689019,-0.32383 0.341065,-0.12058 0.575331,-0.12058 0.389296,0 0.561551,0.29628 0.172255,0.29283 0.172255,0.98874 0,0.32039 -0.02067,0.70624 -0.01722,0.38585 -0.01722,0.44097 0,0.0861 0.03101,0.11714 0.03101,0.031 0.110244,0.031 0.04134,0 0.120578,-0.031 0.08268,-0.031 0.120578,-0.031 0.02756,0 0.04479,0.031 0.01723,0.031 0.01723,0.0827 0,0.0724 -0.196371,0.12402 -0.165364,0.0448 -0.282497,0.0861 -0.16881,0.0655 -0.341065,0.15159 -0.168809,0.0896 -0.18948,0.0896 -0.03445,0 -0.05857,-0.0241 -0.02412,-0.0207 -0.02412,-0.0551 0,-0.007 0.01378,-0.0517 0.148139,-0.50987 0.148139,-1.25401 0,-0.68557 -0.18259,-1.00252 -0.18259,-0.31695 -0.571886,-0.31695 -0.1757,0 -0.351399,0.0827 -0.172255,0.0827 -0.327285,0.23771 0,0.0482 0.0034,0.20326 0.0034,0.15159 0.0034,0.25494 0,0.5271 -0.0069,0.97841 -0.0069,0.44786 -0.02067,0.75792 l -0.403076,0.14125 q -0.0034,0 -0.01378,0.003 -0.01033,0.003 -0.02756,0.003 -0.03101,0 -0.04479,-0.0276 -0.01033,-0.0276 -0.01033,-0.0999 z"
         style="font-style:normal;font-variant:normal;font-weight:normal;font-stretch:normal;font-family:'Calligraph421 BT';-inkscape-font-specification:'Calligraph421 BT';fill:#ffd700;fill-opacity:1;stroke-width:0.264583"
         id="path4622"
         inkscape:connector-curvature="0" />
    </g>
    <g
       style="font-style:normal;font-weight:normal;font-size:3.52778px;line-height:1.25;font-family:sans-serif;letter-spacing:0px;word-spacing:0px;fill:#000000;fill-opacity:1;stroke:none;stroke-width:0.264583"
       id="text4707" />
    <g
       style="font-style:normal;font-weight:normal;font-size:13.3333px;line-height:1.25;font-family:sans-serif;letter-spacing:0px;word-spacing:0px;fill:#000000;fill-opacity:1;stroke:none"
       id="flowRoot4709" />
    <g
       aria-label="REBEL"
       id="text858"
       style="font-size:4.93889px;line-height:1.25;font-family:OldSansBlack;-inkscape-font-specification:OldSansBlack;fill:#ffffff;stroke-width:0.264583">
      <path
         d="m 4.402676,206.76397 h 0.8791224 l -0.8001002,-1.61502 q 0.3062112,-0.10865 0.4691946,-0.34572 0.1679223,-0.24201 0.1679223,-0.56797 0,-0.28152 -0.0889,-0.49389 -0.083961,-0.21731 -0.2420056,-0.36054 -0.1531056,-0.14323 -0.3753556,-0.21731 -0.2222501,-0.0741 -0.493889,-0.0741 H 2.4419367 v 3.67454 h 0.7852835 v -1.45204 H 3.730987 Z m -0.2123723,-2.89913 q 0.064206,0.0543 0.098778,0.14323 0.034572,0.0889 0.034572,0.21731 0,0.14323 -0.054328,0.22719 -0.054328,0.084 -0.1432278,0.12841 -0.0889,0.0444 -0.2024945,0.0593 -0.1135945,0.01 -0.227189,0.01 H 3.2272202 v -0.89887 H 3.775437 q 0.2864556,0 0.4148667,0.11359 z"
         style="font-size:4.93889px;fill:#ffffff;stroke-width:0.264583"
         id="path860" />
      <path
         d="M 5.7658088,206.76397 H 8.2895816 V 206.0824 H 6.5510923 v -0.89394 l 1.2248448,-0.005 v -0.67169 H 6.5510923 V 203.771 h 1.6792226 v -0.68157 H 5.7658088 Z"
         style="font-size:4.93889px;fill:#ffffff;stroke-width:0.264583"
         id="path862" />
      <path
         d="m 11.114618,206.51208 q 0.360539,-0.25188 0.360539,-0.79516 0,-0.32102 -0.118534,-0.54327 -0.113594,-0.20744 -0.424744,-0.34573 0.227189,-0.11359 0.345722,-0.31609 0.118533,-0.20249 0.118533,-0.45437 0,-0.28152 -0.108655,-0.4692 -0.103717,-0.18768 -0.281517,-0.29633 -0.1778,-0.1136 -0.409928,-0.15805 -0.227189,-0.0445 -0.469194,-0.0445 H 8.7538282 v 3.67454 h 1.3384388 q 0.676628,0 1.022351,-0.25189 z m -0.6223,-2.65712 q 0.113594,0.0988 0.113594,0.29634 0,0.0938 -0.03951,0.16298 -0.03457,0.0642 -0.09384,0.10865 -0.05927,0.0444 -0.138289,0.0691 -0.07902,0.0198 -0.162983,0.0198 H 9.5440506 v -0.76058 h 0.6074834 q 0.227189,0 0.340784,0.10371 z m 0.06914,1.42734 q 0.123472,0.10866 0.123472,0.34572 0,0.26176 -0.128411,0.37042 -0.128411,0.10372 -0.380294,0.10372 H 9.5440506 v -0.92851 h 0.6223004 q 0.261761,0 0.395111,0.10865 z"
         style="font-size:4.93889px;fill:#ffffff;stroke-width:0.264583"
         id="path864" />
      <path
         d="m 12.077701,206.76397 h 2.523772 v -0.68157 h -1.738489 v -0.89394 l 1.224845,-0.005 v -0.67169 H 12.862984 V 203.771 h 1.679223 v -0.68157 h -2.464506 z"
         style="font-size:4.93889px;fill:#ffffff;stroke-width:0.264583"
         id="path866" />
      <path
         d="m 15.06572,206.76397 h 2.336095 v -0.68157 h -1.550812 v -2.99297 H 15.06572 Z"
         style="font-size:4.93889px;fill:#ffffff;stroke-width:0.264583"
         id="path868" />
    </g>
    <g
       aria-label="NEW"
       id="text873"
       style="font-size:2.11667px;line-height:1.25;font-family:OldSansBlack;-inkscape-font-specification:OldSansBlack;stroke-width:0.264583">
      <path
         d="m 8.6635204,244.24808 h 0.3153838 v -1.57481 H 8.6571704 v 0.98637 L 8.0877862,242.67327 H 7.7470024 v 1.57481 h 0.3217338 v -1.03294 z"
         style="font-size:2.11667px;fill:#ffffff;stroke-width:0.264583"
         id="path925" />
      <path
         d="M 9.2117321,244.24808 H 10.29335 v -0.2921 H 9.5482826 v -0.38312 l 0.5249344,-0.002 v -0.28787 H 9.5482826 v -0.3175 H 10.26795 v -0.2921 H 9.2117321 Z"
         style="font-size:2.11667px;fill:#ffffff;stroke-width:0.264583"
         id="path927" />
      <path
         d="m 11.770782,244.24808 0.325967,-1.57481 h -0.319617 l -0.192617,0.94615 -0.18415,-0.94615 h -0.338667 l -0.198967,0.94615 -0.1778,-0.94615 h -0.321734 l 0.3302,1.57481 h 0.334434 l 0.2032,-1.00331 0.205317,1.00331 z"
         style="font-size:2.11667px;fill:#ffffff;stroke-width:0.264583"
         id="path929" />
    </g>
    <g
       aria-label="GATE"
       id="text873-6"
       style="font-size:2.11667px;line-height:1.25;font-family:OldSansBlack;-inkscape-font-specification:OldSansBlack;stroke-width:0.264583">
      <path
         d="m 8.4613759,228.5233 h 0.2603504 v -0.81915 H 8.101542 v 0.2921 h 0.2899838 q -0.010583,0.10371 -0.080433,0.17356 -0.080433,0.0825 -0.211667,0.0825 -0.09525,0 -0.1566335,-0.0508 -0.059267,-0.0508 -0.093134,-0.127 -0.03175,-0.0762 -0.04445,-0.16298 -0.010583,-0.0889 -0.010583,-0.16087 0,-0.0699 0.00847,-0.16086 0.010583,-0.0931 0.042333,-0.17569 0.03175,-0.0825 0.0889,-0.13758 0.059267,-0.0572 0.1566336,-0.0572 0.1227668,0 0.1841502,0.0572 0.0635,0.055 0.1121835,0.16298 l 0.3132672,-0.0825 q -0.042333,-0.127 -0.099483,-0.20743 -0.05715,-0.0804 -0.1354669,-0.12912 -0.1545169,-0.0931 -0.3323171,-0.0931 -0.1883837,0 -0.3196172,0.0698 -0.1291169,0.0677 -0.2095503,0.18415 -0.078317,0.1143 -0.1143002,0.2667 -0.033867,0.15028 -0.033867,0.3175 0,0.1524 0.033867,0.29422 0.035983,0.1397 0.1121835,0.24765 0.0762,0.10795 0.1968503,0.17357 0.1206502,0.0635 0.2921005,0.0635 0.1143001,0 0.2010836,-0.0317 0.086783,-0.0317 0.1693336,-0.11219 z"
         style="font-size:2.11667px;fill:#ffffff;stroke-width:0.264583"
         id="path932" />
      <path
         d="M 9.7842941,228.5233 H 10.125078 L 9.676344,226.94638 H 9.27841 l -0.455084,1.57692 h 0.3386672 l 0.091017,-0.3302 h 0.4466173 z m -0.3026838,-1.17687 0.1439336,0.5588 H 9.3292101 Z"
         style="font-size:2.11667px;fill:#ffffff;stroke-width:0.264583"
         id="path934" />
      <path
         d="m 10.730441,227.23848 h 0.400051 V 226.9485 H 9.9959566 v 0.28998 H 10.39389 v 1.28482 h 0.336551 z"
         style="font-size:2.11667px;fill:#ffffff;stroke-width:0.264583"
         id="path936" />
      <path
         d="m 11.306175,228.5233 h 1.081618 v -0.2921 h -0.745068 v -0.38312 l 0.524935,-0.002 v -0.28786 h -0.524935 v -0.3175 h 0.719668 v -0.2921 h -1.056218 z"
         style="font-size:2.11667px;fill:#ffffff;stroke-width:0.264583"
         id="path938" />
    </g>
    <g
       aria-label="1V/OCT IN"
       id="text873-2"
       style="font-size:2.11667px;line-height:1.25;font-family:OldSansBlack;-inkscape-font-specification:OldSansBlack;stroke-width:0.264583">
      <path
         d="m 5.4017373,259.97287 h 0.7937512 v -0.25824 H 5.9563048 V 258.3769 H 5.7128877 q -0.067733,0.0635 -0.1629835,0.0847 -0.09525,0.019 -0.1841503,0.0212 v 0.22437 h 0.2730504 v 1.00753 h -0.237067 z"
         style="font-size:2.11667px;fill:#ffffff;stroke-width:0.264583"
         id="path941" />
      <path
         d="m 6.9680671,259.97287 0.4191007,-1.5748 H 7.0485006 l -0.2667004,1.06045 -0.2540004,-1.06045 H 6.1912493 l 0.416984,1.5748 z"
         style="font-size:2.11667px;fill:#ffffff;stroke-width:0.264583"
         id="path943" />
      <path
         d="M 7.5649677,259.99404 8.0560351,258.3769 H 7.7766347 l -0.4910675,1.61714 z"
         style="font-size:2.11667px;fill:#ffffff;stroke-width:0.264583"
         id="path945" />
      <path
         d="m 9.1672863,259.77813 q 0.1693336,-0.20955 0.1693336,-0.59266 0,-0.16299 -0.035983,-0.30904 -0.033867,-0.14816 -0.1143002,-0.25823 -0.078317,-0.11218 -0.205317,-0.17568 -0.1248835,-0.0656 -0.3090338,-0.0656 -0.1841502,0 -0.3111504,0.0656 -0.1270002,0.0635 -0.2074337,0.17568 -0.078317,0.11007 -0.1143002,0.25823 -0.033867,0.14605 -0.033867,0.30904 0,0.16298 0.033867,0.31115 0.035983,0.14605 0.1143002,0.25823 0.080433,0.11007 0.2074337,0.17568 0.1270002,0.0635 0.3111504,0.0635 0.3238505,0 0.4953008,-0.21591 z M 8.9175192,258.796 q 0.080434,0.13123 0.080434,0.38947 0,0.25823 -0.080434,0.38946 -0.0762,0.127 -0.2455337,0.127 -0.1714502,0 -0.2476503,-0.127 -0.080433,-0.13123 -0.080433,-0.38946 0,-0.25824 0.080433,-0.38947 0.0762,-0.127 0.2476503,-0.127 0.1693336,0 0.2455337,0.127 z"
         style="font-size:2.11667px;fill:#ffffff;stroke-width:0.264583"
         id="path947" />
      <path
         d="m 10.424588,259.8882 q 0.07408,-0.0529 0.129117,-0.13335 0.05715,-0.0804 0.103717,-0.20108 l -0.317501,-0.0825 q -0.02328,0.0508 -0.04868,0.0931 -0.0254,0.0423 -0.05715,0.0741 -0.03175,0.0296 -0.0762,0.0466 -0.04233,0.0169 -0.103716,0.0169 -0.1566339,0 -0.2243673,-0.12488 -0.074083,-0.12912 -0.074083,-0.381 0,-0.0466 0.00212,-0.10372 0.00423,-0.0571 0.014817,-0.1143 0.010583,-0.0593 0.029633,-0.1143 0.021167,-0.055 0.052917,-0.0974 0.03175,-0.0444 0.078317,-0.0698 0.048683,-0.0275 0.1121835,-0.0275 0.110067,0 0.169334,0.0635 0.05927,0.0635 0.09313,0.16087 l 0.309034,-0.0741 q -0.04022,-0.13758 -0.09525,-0.22225 -0.05292,-0.0868 -0.127,-0.13123 -0.146051,-0.0889 -0.338668,-0.0889 -0.1777999,0 -0.3005668,0.0677 -0.1227668,0.0677 -0.198967,0.18204 -0.074083,0.11218 -0.1079501,0.25823 -0.03175,0.14605 -0.03175,0.30057 0,0.15663 0.03175,0.30268 0.033867,0.14393 0.1079501,0.25823 0.074084,0.11219 0.1968503,0.17992 0.1227669,0.0677 0.3005675,0.0677 0.224367,0 0.370417,-0.10584 z"
         style="font-size:2.11667px;fill:#ffffff;stroke-width:0.264583"
         id="path949" />
      <path
         d="m 11.425769,258.68805 h 0.400051 v -0.28998 h -1.134535 v 0.28998 h 0.397933 v 1.28482 h 0.336551 z"
         style="font-size:2.11667px;fill:#ffffff;stroke-width:0.264583"
         id="path951" />
      <path
         d="m 12.6746,259.97287 h 0.338667 v -1.5748 H 12.6746 Z"
         style="font-size:2.11667px;fill:#ffffff;stroke-width:0.264583"
         id="path953" />
      <path
         d="m 14.162614,259.97287 h 0.315384 v -1.5748 h -0.321734 v 0.98636 l -0.569384,-0.98636 h -0.340784 v 1.5748 h 0.321734 v -1.03294 z"
         style="font-size:2.11667px;fill:#ffffff;stroke-width:0.264583"
         id="path955" />
    </g>
    <g
       aria-label="1V/OCT
POLY OUT"
       id="text873-0"
       style="font-size:2.11667px;line-height:1.25;font-family:OldSansBlack;-inkscape-font-specification:OldSansBlack;text-align:center;text-anchor:middle;stroke-width:0.264583">
      <path
         d="m 6.7923843,274.37472 h 0.7937512 v -0.25823 H 7.3469518 v -1.33774 h -0.243417 q -0.067734,0.0635 -0.1629836,0.0847 -0.09525,0.019 -0.1841503,0.0212 v 0.22437 h 0.2730504 v 1.00753 h -0.237067 z"
         style="font-size:2.11667px;text-align:center;text-anchor:middle;fill:#ffffff;stroke-width:0.264583"
         id="path958" />
      <path
         d="m 8.3587142,274.37472 0.4191006,-1.5748 H 8.4391476 l -0.2667004,1.06045 -0.2540004,-1.06045 H 7.5818963 l 0.416984,1.5748 z"
         style="font-size:2.11667px;text-align:center;text-anchor:middle;fill:#ffffff;stroke-width:0.264583"
         id="path960" />
      <path
         d="m 8.9556147,274.39589 0.4910674,-1.61714 H 9.1672817 l -0.4910674,1.61714 z"
         style="font-size:2.11667px;text-align:center;text-anchor:middle;fill:#ffffff;stroke-width:0.264583"
         id="path962" />
      <path
         d="m 10.557933,274.17999 q 0.169334,-0.20955 0.169334,-0.59267 0,-0.16298 -0.03598,-0.30903 -0.03387,-0.14817 -0.114301,-0.25823 -0.07832,-0.11219 -0.205317,-0.17569 -0.124883,-0.0656 -0.309033,-0.0656 -0.1841507,0 -0.3111509,0.0656 -0.1270002,0.0635 -0.2074337,0.17569 -0.078317,0.11006 -0.1143001,0.25823 -0.033867,0.14605 -0.033867,0.30903 0,0.16299 0.033867,0.31115 0.035983,0.14605 0.1143001,0.25824 0.080433,0.11006 0.2074337,0.17568 0.1270002,0.0635 0.3111509,0.0635 0.32385,0 0.4953,-0.2159 z m -0.249767,-0.98213 q 0.08043,0.13123 0.08043,0.38946 0,0.25824 -0.08043,0.38947 -0.0762,0.127 -0.245533,0.127 -0.1714507,0 -0.2476508,-0.127 -0.080433,-0.13123 -0.080433,-0.38947 0,-0.25823 0.080433,-0.38946 0.0762,-0.127 0.2476508,-0.127 0.169333,0 0.245533,0.127 z"
         style="font-size:2.11667px;text-align:center;text-anchor:middle;fill:#ffffff;stroke-width:0.264583"
         id="path964" />
      <path
         d="m 11.815235,274.29006 q 0.07408,-0.0529 0.129117,-0.13335 0.05715,-0.0804 0.103717,-0.20109 l -0.317501,-0.0826 q -0.02328,0.0508 -0.04868,0.0931 -0.0254,0.0423 -0.05715,0.0741 -0.03175,0.0296 -0.0762,0.0466 -0.04233,0.0169 -0.103717,0.0169 -0.156634,0 -0.224367,-0.12488 -0.07408,-0.12912 -0.07408,-0.381 0,-0.0466 0.0021,-0.10372 0.0042,-0.0571 0.01482,-0.1143 0.01058,-0.0593 0.02963,-0.1143 0.02117,-0.055 0.05292,-0.0974 0.03175,-0.0445 0.07832,-0.0699 0.04868,-0.0275 0.112183,-0.0275 0.110067,0 0.169334,0.0635 0.05927,0.0635 0.09313,0.16086 l 0.309034,-0.0741 q -0.04022,-0.13758 -0.09525,-0.22225 -0.05292,-0.0868 -0.127,-0.13124 -0.146051,-0.0889 -0.338668,-0.0889 -0.1778,0 -0.300567,0.0677 -0.122767,0.0677 -0.198967,0.18203 -0.07408,0.11219 -0.10795,0.25824 -0.03175,0.14605 -0.03175,0.30056 0,0.15664 0.03175,0.30269 0.03387,0.14393 0.10795,0.25823 0.07408,0.11218 0.196851,0.17992 0.122766,0.0677 0.300567,0.0677 0.224367,0 0.370417,-0.10583 z"
         style="font-size:2.11667px;text-align:center;text-anchor:middle;fill:#ffffff;stroke-width:0.264583"
         id="path966" />
      <path
         d="m 12.816416,273.08991 h 0.400051 v -0.28999 h -1.134535 v 0.28999 h 0.397934 v 1.28481 h 0.33655 z"
         style="font-size:2.11667px;text-align:center;text-anchor:middle;fill:#ffffff;stroke-width:0.264583"
         id="path968" />
      <path
         d="m 6.1901942,276.28184 q 0.1502836,-0.12276 0.1502836,-0.3556 0,-0.13123 -0.04445,-0.22225 -0.042333,-0.0931 -0.1185335,-0.15028 -0.0762,-0.0572 -0.1799169,-0.0826 -0.1016002,-0.0254 -0.2222504,-0.0254 H 5.1932427 v 1.5748 h 0.3386672 v -0.61807 h 0.2413003 q 0.2709338,0 0.416984,-0.12065 z m -0.2476504,-0.50588 q 0.027517,0.0212 0.042333,0.0593 0.014817,0.036 0.014817,0.0952 0,0.0593 -0.021167,0.0974 -0.021167,0.036 -0.05715,0.0571 -0.033867,0.019 -0.080433,0.0275 -0.04445,0.006 -0.09525,0.006 H 5.5319099 v -0.38947 h 0.2137836 q 0.1375836,0 0.1968503,0.0466 z"
         style="font-size:2.11667px;text-align:center;text-anchor:middle;fill:#ffffff;stroke-width:0.264583"
         id="path970" />
      <path
         d="m 7.5681424,276.82583 q 0.1693336,-0.20955 0.1693336,-0.59267 0,-0.16298 -0.035983,-0.30903 -0.033867,-0.14817 -0.1143001,-0.25824 -0.078317,-0.11218 -0.205317,-0.17568 -0.1248835,-0.0656 -0.3090338,-0.0656 -0.1841503,0 -0.3111505,0.0656 -0.1270002,0.0635 -0.2074336,0.17568 -0.078317,0.11007 -0.1143002,0.25824 -0.033867,0.14605 -0.033867,0.30903 0,0.16298 0.033867,0.31115 0.035983,0.14605 0.1143002,0.25823 0.080433,0.11007 0.2074336,0.17569 0.1270002,0.0635 0.3111505,0.0635 0.3238505,0 0.4953007,-0.2159 z m -0.249767,-0.98214 q 0.080433,0.13124 0.080433,0.38947 0,0.25823 -0.080433,0.38947 -0.0762,0.127 -0.2455337,0.127 -0.1714503,0 -0.2476504,-0.127 -0.080433,-0.13124 -0.080433,-0.38947 0,-0.25823 0.080433,-0.38947 0.0762,-0.127 0.2476504,-0.127 0.1693336,0 0.2455337,0.127 z"
         style="font-size:2.11667px;text-align:center;text-anchor:middle;fill:#ffffff;stroke-width:0.264583"
         id="path972" />
      <path
         d="m 7.9195092,277.02056 h 1.0011849 v -0.2921 H 8.2560597 v -1.2827 H 7.9195092 Z"
         style="font-size:2.11667px;text-align:center;text-anchor:middle;fill:#ffffff;stroke-width:0.264583"
         id="path974" />
      <path
         d="m 9.4900748,276.38979 0.4339173,-0.94403 H 9.5683916 l -0.2476504,0.56938 -0.2476504,-0.56938 H 8.7174903 l 0.436034,0.95038 v 0.62442 h 0.3365505 z"
         style="font-size:2.11667px;text-align:center;text-anchor:middle;fill:#ffffff;stroke-width:0.264583"
         id="path976" />
      <path
         d="m 11.757024,276.82583 q 0.169334,-0.20955 0.169334,-0.59267 0,-0.16298 -0.03598,-0.30903 -0.03387,-0.14817 -0.114301,-0.25824 -0.07832,-0.11218 -0.205317,-0.17568 -0.124883,-0.0656 -0.309033,-0.0656 -0.184151,0 -0.311151,0.0656 -0.127,0.0635 -0.207433,0.17568 -0.07832,0.11007 -0.114301,0.25824 -0.03387,0.14605 -0.03387,0.30903 0,0.16298 0.03387,0.31115 0.03598,0.14605 0.114301,0.25823 0.08043,0.11007 0.207433,0.17569 0.127,0.0635 0.311151,0.0635 0.32385,0 0.4953,-0.2159 z m -0.249767,-0.98214 q 0.08043,0.13124 0.08043,0.38947 0,0.25823 -0.08043,0.38947 -0.0762,0.127 -0.245533,0.127 -0.171451,0 -0.247651,-0.127 -0.08043,-0.13124 -0.08043,-0.38947 0,-0.25823 0.08043,-0.38947 0.0762,-0.127 0.247651,-0.127 0.169333,0 0.245533,0.127 z"
         style="font-size:2.11667px;text-align:center;text-anchor:middle;fill:#ffffff;stroke-width:0.264583"
         id="path978" />
      <path
         d="m 13.181542,276.88298 q 0.156634,-0.15875 0.156634,-0.45932 v -0.9779 h -0.33655 v 0.97367 q 0,0.18203 -0.06138,0.25611 -0.02963,0.036 -0.08255,0.055 -0.0508,0.0191 -0.131234,0.0191 -0.150283,0 -0.207433,-0.0762 -0.06138,-0.0741 -0.06138,-0.25824 v -0.96943 h -0.33655 v 0.99272 q 0,0.2921 0.15875,0.44873 0.160867,0.15452 0.450851,0.15452 0.294217,0 0.45085,-0.15875 z"
         style="font-size:2.11667px;text-align:center;text-anchor:middle;fill:#ffffff;stroke-width:0.264583"
         id="path980" />
      <path
         d="m 14.250457,275.73574 h 0.400051 v -0.28998 h -1.134535 v 0.28998 h 0.397934 v 1.28482 h 0.33655 z"
         style="font-size:2.11667px;text-align:center;text-anchor:middle;fill:#ffffff;stroke-width:0.264583"
         id="path982" />
    </g>
  </g>
</svg>
