<?xml version="1.0" encoding="UTF-8" standalone="no"?>
<!-- Created with Inkscape (http://www.inkscape.org/) -->

<svg
   xmlns:dc="http://purl.org/dc/elements/1.1/"
   xmlns:cc="http://creativecommons.org/ns#"
   xmlns:rdf="http://www.w3.org/1999/02/22-rdf-syntax-ns#"
   xmlns:svg="http://www.w3.org/2000/svg"
   xmlns="http://www.w3.org/2000/svg"
   xmlns:sodipodi="http://sodipodi.sourceforge.net/DTD/sodipodi-0.dtd"
   xmlns:inkscape="http://www.inkscape.org/namespaces/inkscape"
   width="135"
   height="380"
   viewBox="0 0 35.718752 100.54167"
   version="1.1"
   id="svg8"
   inkscape:version="0.92.3 (2405546, 2018-03-11)"
   sodipodi:docname="RetriModule.svg">
  <sodipodi:namedview
     id="base"
     pagecolor="#ffffff"
     bordercolor="#666666"
     borderopacity="1.0"
     inkscape:pageopacity="0.0"
     inkscape:pageshadow="2"
     inkscape:zoom="3.77"
     inkscape:cx="27.988933"
     inkscape:cy="129.01745"
     inkscape:document-units="px"
     inkscape:current-layer="layer1"
     showgrid="true"
     units="px"
     inkscape:snap-bbox="false"
     inkscape:snap-page="false"
     inkscape:bbox-nodes="false"
     inkscape:snap-bbox-edge-midpoints="true"
     inkscape:window-width="1920"
     inkscape:window-height="1017"
     inkscape:window-x="-8"
     inkscape:window-y="-8"
     inkscape:window-maximized="1"
     inkscape:snap-grids="false"
     inkscape:snap-to-guides="true"
     inkscape:snap-global="true"
     inkscape:pagecheckerboard="true"
     inkscape:snap-nodes="false"
     inkscape:snap-others="true"
     inkscape:snap-object-midpoints="true">
    <inkscape:grid
       id="grid3204"
       type="xygrid" />
    <sodipodi:guide
       id="guide905"
       position="8.9297,0"
       orientation="100.5417,0"
       inkscape:locked="false" />
    <sodipodi:guide
       id="guide907"
       position="17.8594,0"
       orientation="100.5417,0"
       inkscape:locked="false" />
    <sodipodi:guide
       id="guide909"
       position="26.7891,0"
       orientation="100.5417,0"
       inkscape:locked="false" />
  </sodipodi:namedview>
  <title
     id="title4816">Autinn Flora</title>
  <defs
     id="defs2">
    <inkscape:path-effect
       is_visible="true"
       id="path-effect687"
       effect="spiro" />
  </defs>
  <metadata
     id="metadata5">
    <rdf:RDF>
      <cc:Work
         rdf:about="">
        <dc:format>image/svg+xml</dc:format>
        <dc:type
           rdf:resource="http://purl.org/dc/dcmitype/StillImage" />
        <dc:title>Autinn Flora</dc:title>
      </cc:Work>
    </rdf:RDF>
  </metadata>
  <g
     transform="translate(0,-196.45832)"
     id="layer1"
     inkscape:groupmode="layer"
     inkscape:label="Layer 1">
    <path
       inkscape:connector-curvature="0"
       id="rect817"
       d="M 2.5e-7,196.45831 H 35.71875 V 296.99999 H 2.5e-7 Z"
       style="opacity:1;vector-effect:none;fill:#202020;fill-opacity:1;fill-rule:evenodd;stroke:none;stroke-width:0.5953126;stroke-linecap:butt;stroke-linejoin:round;stroke-miterlimit:4;stroke-dasharray:none;stroke-dashoffset:0;stroke-opacity:1;paint-order:normal" />
    <path
       style="fill:none;fill-opacity:1;stroke:#5e110a;stroke-width:4.23333359;stroke-linecap:butt;stroke-linejoin:miter;stroke-miterlimit:4;stroke-dasharray:none;stroke-opacity:1"
       d="m -1.5560866,195.07632 c 1.56409593,-0.39446 3.2602682,-0.24328 4.7299477,0.42158 1.4696796,0.66486 2.7030962,1.83897 3.4395069,3.27413 1.0337955,2.01472 1.0570326,4.44966 0.3890217,6.61336 -0.4622534,1.49725 -1.2313642,2.88082 -1.7747198,4.35058 -0.2716778,0.73488 -0.487331,1.49471 -0.5725773,2.27355 -0.085246,0.77884 -0.037055,1.57908 0.2076782,2.32337 0.342589,1.04189 1.0532559,1.92842 1.8647668,2.66622 0.8115108,0.7378 1.7298747,1.34625 2.608982,2.00204 1.2078504,0.90103 2.3541124,1.90386 3.2692464,3.10106 0.915134,1.19719 1.593624,2.60153 1.788036,4.09584 0.245017,1.88328 -0.290946,3.80214 -1.17206,5.48452 -0.881115,1.68238 -2.094482,3.16395 -3.3016893,4.63004 -1.6621875,2.01864 -3.3465438,4.05938 -4.4737497,6.41886 -0.9453024,1.97872 -1.4776269,4.1629 -1.4700528,6.35581 0.00757,2.19292 0.5625063,4.39151 1.6645636,6.2874 1.139348,1.96004 2.8271264,3.55409 4.6709152,4.8733 1.843789,1.31921 3.853477,2.38491 5.832669,3.49066 3.415761,1.90834 6.824459,4.00261 9.336521,7.0024 3.1736,3.78977 4.678214,8.8833 4.279236,13.81026 -0.30757,3.79817 -1.714218,7.50096 -4.006048,10.54533 -2.291829,3.04437 -5.4612,5.42017 -9.026177,6.76613"
       id="path685" />
    <g
       transform="translate(5.9531181)"
       id="text3739"
       style="font-style:normal;font-weight:normal;font-size:7.05555534px;line-height:1.25;font-family:sans-serif;letter-spacing:0px;word-spacing:0px;fill:#ffd700;fill-opacity:1;stroke:none;stroke-width:0.26458332"
       aria-label="Autinn">
      <path
         inkscape:connector-curvature="0"
         id="path4612"
         style="font-style:normal;font-variant:normal;font-weight:normal;font-stretch:normal;font-family:'Calligraph421 BT';-inkscape-font-specification:'Calligraph421 BT';stroke-width:0.26458332;fill:#ffd700;fill-opacity:1"
         d="m 5.0556776,289.41931 q -0.1756999,-0.37896 -0.3858507,-0.93706 -0.2101508,-0.55811 -0.4409722,-1.25057 -0.1171332,0.32728 -0.4375271,0.9095 -0.3169488,0.58223 -0.7820367,1.31948 0.106798,0.007 0.2239312,0.007 0.1205784,0 0.3617351,0 0.3927408,0 0.7544759,-0.0103 0.3651801,-0.0138 0.7062445,-0.0379 z m 0.1481391,0.35485 q -0.099908,0 -0.2480469,0.003 -0.144694,0.003 -0.1963704,0.003 -1.2057834,0 -1.6467556,0.13436 -0.4409722,0.13436 -0.7165798,0.50643 -0.3135037,0.4203 -0.6924642,1.01975 -0.3789605,0.596 -0.4719781,0.596 -0.041341,0 -0.065457,-0.0241 -0.027561,-0.0241 -0.027561,-0.0689 0,-0.0413 0.4478624,-0.75448 0.4478624,-0.71658 0.8371581,-1.38148 0.7544759,-1.30225 1.1368815,-2.09806 0.3858507,-0.79582 0.3858507,-1.05765 0,-0.0344 -0.010335,-0.0758 -0.010335,-0.0448 -0.010335,-0.0517 0,-0.0413 0.2342665,-0.1688 0.2377116,-0.12747 0.323839,-0.12747 0.037896,0 0.2308214,0.65801 0.1929253,0.65457 0.4616427,1.33325 0.757921,1.93615 1.0610894,2.43568 0.3066135,0.49954 0.6028917,0.49954 0.082682,0 0.1722548,-0.0448 0.089573,-0.0482 0.1033528,-0.0482 0.020671,0 0.048231,0.0379 0.031006,0.0379 0.031006,0.0689 0,0.0207 -0.1550293,0.11714 -0.1550292,0.0965 -0.2928331,0.19292 -0.1274685,0.0965 -0.2928331,0.24116 -0.1619195,0.14125 -0.2067057,0.14125 -0.075792,0 -0.2928331,-0.42375 -0.2135959,-0.42375 -0.7510308,-1.66398 z" />
      <path
         inkscape:connector-curvature="0"
         id="path4614"
         style="font-style:normal;font-variant:normal;font-weight:normal;font-stretch:normal;font-family:'Calligraph421 BT';-inkscape-font-specification:'Calligraph421 BT';stroke-width:0.26458332;fill:#ffd700;fill-opacity:1"
         d="m 9.6410995,291.31067 q -0.2446018,0.12058 -0.6097819,0.31006 -0.4306369,0.22738 -0.5167643,0.22738 -0.4960938,0 -0.7269151,-0.31695 -0.2273763,-0.31695 -0.2273763,-1.00941 0,-0.16881 0.01378,-0.55811 0.01378,-0.39274 0.01378,-0.61323 0,-0.0482 -0.01378,-0.14469 -0.01378,-0.0999 -0.01378,-0.15159 0,-0.0276 0.1205783,-0.0654 0.096463,-0.031 0.1619195,-0.0551 0.1515842,-0.0551 0.3066135,-0.12058 0.1584744,-0.0689 0.1722547,-0.0689 0.051677,0 0.082682,0.0241 0.031006,0.0207 0.031006,0.0586 0,0.0413 -0.075792,0.11713 -0.072347,0.0758 -0.106798,0.13781 -0.082682,0.14124 -0.1205783,0.37551 -0.034451,0.23427 -0.034451,0.70969 0,0.65801 0.1584744,0.92329 0.1619195,0.26182 0.5477702,0.26182 0.1412489,0 0.3651801,-0.0654 0.2273763,-0.0655 0.4892035,-0.18604 v -1.5124 q 0,-0.40307 -0.1619194,-0.48575 -0.031006,-0.0138 -0.031006,-0.0276 0,-0.11025 0.082682,-0.13092 0.024116,-0.003 0.044786,-0.0103 0.1515842,-0.0551 0.323839,-0.14125 0.1722546,-0.0861 0.1998156,-0.0861 0.04479,0 0.103352,0.0551 0.05857,0.0551 0.05857,0.093 0,0.003 -0.0069,0.031 -0.04823,0.17914 -0.06546,0.43752 -0.01378,0.23771 -0.02067,0.63045 -0.0069,0.3893 -0.0069,0.86472 0,0.36863 0.02412,0.70625 0.0034,0.0517 0.0034,0.062 0,0.0792 -0.2377112,0.20671 -0.2377116,0.13091 -0.2962782,0.13091 -0.02067,0 -0.031006,-0.031 -0.00689,-0.0276 -0.00689,-0.0965 v -0.10335 q 0,-0.0758 0,-0.17226 0.00345,-0.0965 0.00689,-0.21015 z" />
      <path
         inkscape:connector-curvature="0"
         id="path4616"
         style="font-style:normal;font-variant:normal;font-weight:normal;font-stretch:normal;font-family:'Calligraph421 BT';-inkscape-font-specification:'Calligraph421 BT';stroke-width:0.26458332;fill:#ffd700;fill-opacity:1"
         d="m 11.346421,291.48637 q 0.0034,-0.30661 0.0034,-0.60289 0.0034,-0.29628 0.0034,-0.65801 0,-0.21704 -0.0034,-0.46165 0,-0.2446 -0.0034,-0.51331 h -0.19637 q -0.04479,0 -0.05857,-0.0103 -0.01033,-0.0138 -0.01378,-0.0586 0.0034,-0.0723 0.06201,-0.11713 0.02067,-0.0172 0.02756,-0.0241 l 0.799263,-0.72002 q 0.05512,-0.0551 0.07924,-0.0689 0.02412,-0.0172 0.04823,-0.0172 0.02412,0 0.04479,0.0207 0.02067,0.0172 0.02067,0.0448 0,0.0103 -0.03445,0.0827 -0.120578,0.25494 -0.151584,0.50988 h 1.036973 q 0.04823,0 0.06546,0.0344 0.02067,0.0344 0.02067,0.12057 0,0.10336 -0.02412,0.13092 -0.02412,0.0241 -0.158474,0.0241 h -0.981852 q -0.02412,0.30317 -0.0379,0.58912 -0.01034,0.28249 -0.01034,0.53743 0,0.61323 0.16881,0.8785 0.172255,0.26527 0.558105,0.26527 0.199816,0 0.416857,-0.0861 0.217041,-0.0896 0.230821,-0.0896 0.01378,0 0.02412,0.0172 0.01033,0.0138 0.01033,0.031 v 0.0517 q 0,0.13436 -0.36518,0.2825 -0.36518,0.14814 -0.706244,0.14814 -0.268718,0 -0.499539,-0.0896 -0.230822,-0.0896 -0.375516,-0.25149 z" />
      <path
         inkscape:connector-curvature="0"
         id="path4618"
         style="font-style:normal;font-variant:normal;font-weight:normal;font-stretch:normal;font-family:'Calligraph421 BT';-inkscape-font-specification:'Calligraph421 BT';stroke-width:0.26458332;fill:#ffd700;fill-opacity:1"
         d="m 14.677829,289.9223 v 1.55718 q 0,0.0482 -0.0069,0.10335 0,0.0138 0,0.0172 0,0.0482 -0.02412,0.0792 -0.02067,0.0276 -0.07579,0.0482 -0.124023,0.0413 -0.261827,0.0861 -0.137804,0.0482 -0.141249,0.0482 -0.02756,0 -0.04134,-0.062 -0.01378,-0.062 -0.01378,-0.31351 v -1.69843 q 0,-0.3893 -0.05512,-0.48576 -0.05512,-0.0999 -0.199816,-0.0999 -0.0379,0 -0.09991,0.0207 -0.05857,0.0207 -0.07579,0.0207 -0.0379,0 -0.06201,-0.0345 -0.02412,-0.0344 -0.02412,-0.093 0.0034,-0.0517 0.203261,-0.10336 0.141249,-0.0344 0.234266,-0.0654 0.16881,-0.0551 0.354845,-0.12747 0.186035,-0.0758 0.210151,-0.0758 0.03445,0 0.07235,0.0344 0.04134,0.0344 0.04134,0.0689 0,0.0138 -0.0034,0.0827 -0.03101,0.47887 -0.03101,0.99219 z m -0.347954,-3.00068 q 0.158474,0 0.268717,0.11369 0.113688,0.11369 0.113688,0.26872 0,0.15847 -0.110243,0.26527 -0.110243,0.1068 -0.272162,0.1068 -0.15503,0 -0.265273,-0.1068 -0.106798,-0.11024 -0.106798,-0.26527 0,-0.15848 0.106798,-0.26872 0.110243,-0.11369 0.265273,-0.11369 z" />
      <path
         inkscape:connector-curvature="0"
         id="path4620"
         style="font-style:normal;font-variant:normal;font-weight:normal;font-stretch:normal;font-family:'Calligraph421 BT';-inkscape-font-specification:'Calligraph421 BT';stroke-width:0.26458332;fill:#ffd700;fill-opacity:1"
         d="m 16.014526,291.70686 v -1.5813 q 0,-0.48576 -0.106798,-0.7028 -0.103353,-0.22049 -0.33073,-0.22049 -0.03101,0 -0.07924,0.0103 -0.04479,0.0103 -0.06201,0.0103 -0.03445,0 -0.05512,-0.0276 -0.01722,-0.0276 -0.01722,-0.0792 0,-0.0344 0.130913,-0.0792 0.09646,-0.031 0.151584,-0.0551 0.210151,-0.0861 0.389296,-0.20671 0.04823,-0.031 0.05512,-0.031 0.07235,0 0.20326,0.14814 0.130914,0.14469 0.199816,0.3445 0.347954,-0.2067 0.689019,-0.32383 0.341064,-0.12058 0.575331,-0.12058 0.389296,0 0.56155,0.29628 0.172255,0.29283 0.172255,0.98874 0,0.32039 -0.02067,0.70624 -0.01723,0.38585 -0.01723,0.44097 0,0.0861 0.03101,0.11714 0.03101,0.031 0.110243,0.031 0.04134,0 0.120578,-0.031 0.08268,-0.031 0.120579,-0.031 0.02756,0 0.04479,0.031 0.01722,0.031 0.01722,0.0827 0,0.0724 -0.19637,0.12402 -0.165365,0.0448 -0.282498,0.0861 -0.16881,0.0655 -0.341064,0.15159 -0.16881,0.0896 -0.189481,0.0896 -0.03445,0 -0.05857,-0.0241 -0.02412,-0.0207 -0.02412,-0.0551 0,-0.007 0.01378,-0.0517 0.148139,-0.50987 0.148139,-1.25401 0,-0.68557 -0.18259,-1.00252 -0.18259,-0.31695 -0.571886,-0.31695 -0.1757,0 -0.3514,0.0827 -0.172255,0.0827 -0.327284,0.23771 0,0.0482 0.0034,0.20326 0.0034,0.15159 0.0034,0.25494 0,0.5271 -0.0069,0.97841 -0.0069,0.44786 -0.02067,0.75792 l -0.403076,0.14125 q -0.0034,0 -0.01378,0.003 -0.01033,0.003 -0.02756,0.003 -0.03101,0 -0.04479,-0.0276 -0.01034,-0.0276 -0.01034,-0.0999 z" />
      <path
         inkscape:connector-curvature="0"
         id="path4622"
         style="font-style:normal;font-variant:normal;font-weight:normal;font-stretch:normal;font-family:'Calligraph421 BT';-inkscape-font-specification:'Calligraph421 BT';stroke-width:0.26458332;fill:#ffd700;fill-opacity:1"
         d="m 19.790351,291.70686 v -1.5813 q 0,-0.48576 -0.106798,-0.7028 -0.103353,-0.22049 -0.330729,-0.22049 -0.03101,0 -0.07924,0.0103 -0.04479,0.0103 -0.06201,0.0103 -0.03445,0 -0.05512,-0.0276 -0.01723,-0.0276 -0.01723,-0.0792 0,-0.0344 0.130914,-0.0792 0.09646,-0.031 0.151584,-0.0551 0.210151,-0.0861 0.389296,-0.20671 0.04823,-0.031 0.05512,-0.031 0.07235,0 0.203261,0.14814 0.130913,0.14469 0.199815,0.3445 0.347955,-0.2067 0.689019,-0.32383 0.341065,-0.12058 0.575331,-0.12058 0.389296,0 0.561551,0.29628 0.172255,0.29283 0.172255,0.98874 0,0.32039 -0.02067,0.70624 -0.01722,0.38585 -0.01722,0.44097 0,0.0861 0.03101,0.11714 0.03101,0.031 0.110244,0.031 0.04134,0 0.120578,-0.031 0.08268,-0.031 0.120578,-0.031 0.02756,0 0.04479,0.031 0.01723,0.031 0.01723,0.0827 0,0.0724 -0.196371,0.12402 -0.165364,0.0448 -0.282497,0.0861 -0.16881,0.0655 -0.341065,0.15159 -0.168809,0.0896 -0.18948,0.0896 -0.03445,0 -0.05857,-0.0241 -0.02412,-0.0207 -0.02412,-0.0551 0,-0.007 0.01378,-0.0517 0.148139,-0.50987 0.148139,-1.25401 0,-0.68557 -0.18259,-1.00252 -0.18259,-0.31695 -0.571886,-0.31695 -0.1757,0 -0.351399,0.0827 -0.172255,0.0827 -0.327285,0.23771 0,0.0482 0.0034,0.20326 0.0034,0.15159 0.0034,0.25494 0,0.5271 -0.0069,0.97841 -0.0069,0.44786 -0.02067,0.75792 l -0.403076,0.14125 q -0.0034,0 -0.01378,0.003 -0.01033,0.003 -0.02756,0.003 -0.03101,0 -0.04479,-0.0276 -0.01033,-0.0276 -0.01033,-0.0999 z" />
    </g>
    <g
       style="font-style:normal;font-weight:normal;font-size:3.52777767px;line-height:1.25;font-family:sans-serif;letter-spacing:0px;word-spacing:0px;fill:#000000;fill-opacity:1;stroke:none;stroke-width:0.26458332"
       id="text4707" />
    <g
       style="font-style:normal;font-weight:normal;font-size:13.33333302px;line-height:1.25;font-family:sans-serif;letter-spacing:0px;word-spacing:0px;fill:#000000;fill-opacity:1;stroke:none"
       id="flowRoot4709" />
    <g
       aria-label="1V/OCT"
       style="font-style:normal;font-variant:normal;font-weight:500;font-stretch:normal;font-size:2.11666679px;line-height:1.25;font-family:OldSansBlack;-inkscape-font-specification:'OldSansBlack, Medium';font-variant-ligatures:normal;font-variant-position:normal;font-variant-caps:normal;font-variant-numeric:normal;font-variant-alternates:normal;font-feature-settings:normal;text-indent:0;text-align:start;text-decoration:none;text-decoration-line:none;text-decoration-style:solid;text-decoration-color:#000000;letter-spacing:0px;word-spacing:0px;text-transform:none;writing-mode:lr-tb;direction:ltr;text-orientation:mixed;dominant-baseline:auto;baseline-shift:baseline;text-anchor:start;white-space:normal;shape-padding:0;opacity:1;vector-effect:none;fill:#ffffff;fill-opacity:1;stroke:none;stroke-width:0.26458335;stroke-linecap:butt;stroke-linejoin:miter;stroke-miterlimit:4;stroke-dasharray:none;stroke-dashoffset:0;stroke-opacity:1"
       id="text875">
      <path
         d="m 3.754768,218.68802 h 0.79375 v -0.25824 H 4.3093347 v -1.33773 H 4.065918 q -0.067733,0.0635 -0.1629833,0.0847 -0.09525,0.0191 -0.18415,0.0212 v 0.22437 h 0.27305 v 1.00753 H 3.754768 Z"
         style="stroke-width:0.26458335"
         id="path850" />
      <path
         d="m 5.3225732,218.68802 0.4191001,-1.5748 H 5.4030066 l -0.2667001,1.06045 -0.254,-1.06045 h -0.33655 l 0.4169834,1.5748 z"
         style="stroke-width:0.26458335"
         id="path852" />
      <path
         d="m 5.9228962,218.70918 0.4910666,-1.61713 h -0.2794 l -0.4910667,1.61713 z"
         style="stroke-width:0.26458335"
         id="path854" />
      <path
         d="m 7.523824,218.49328 q 0.1693334,-0.20955 0.1693334,-0.59266 0,-0.16299 -0.035983,-0.30904 -0.033867,-0.14816 -0.1143,-0.25823 -0.078317,-0.11218 -0.2053167,-0.17568 -0.1248833,-0.0656 -0.3090333,-0.0656 -0.18415,0 -0.31115,0.0656 -0.127,0.0635 -0.2074334,0.17568 -0.078317,0.11007 -0.1143,0.25823 -0.033867,0.14605 -0.033867,0.30904 0,0.16298 0.033867,0.31115 0.035983,0.14605 0.1143,0.25823 0.080433,0.11007 0.2074334,0.17568 0.127,0.0635 0.31115,0.0635 0.32385,0 0.4953,-0.2159 z m -0.2497667,-0.98213 q 0.080433,0.13123 0.080433,0.38947 0,0.25823 -0.080433,0.38946 -0.0762,0.127 -0.2455333,0.127 -0.17145,0 -0.24765,-0.127 -0.080433,-0.13123 -0.080433,-0.38946 0,-0.25824 0.080433,-0.38947 0.0762,-0.127 0.24765,-0.127 0.1693333,0 0.2455333,0.127 z"
         style="stroke-width:0.26458335"
         id="path856" />
      <path
         d="m 8.7831746,218.60335 q 0.074083,-0.0529 0.1291167,-0.13335 0.05715,-0.0804 0.1037166,-0.20108 l -0.3175,-0.0825 q -0.023283,0.0508 -0.048683,0.0931 -0.0254,0.0423 -0.05715,0.0741 -0.03175,0.0296 -0.0762,0.0466 -0.042333,0.0169 -0.1037167,0.0169 -0.1566334,0 -0.2243667,-0.12488 -0.074083,-0.12912 -0.074083,-0.381 0,-0.0466 0.00212,-0.10372 0.00423,-0.0572 0.014817,-0.1143 0.010583,-0.0593 0.029633,-0.1143 0.021167,-0.055 0.052917,-0.0974 0.03175,-0.0444 0.078317,-0.0699 0.048683,-0.0275 0.1121833,-0.0275 0.1100667,0 0.1693334,0.0635 0.059267,0.0635 0.093133,0.16087 l 0.3090334,-0.0741 q -0.040217,-0.13758 -0.09525,-0.22225 -0.052917,-0.0868 -0.1270001,-0.13123 -0.14605,-0.0889 -0.3386666,-0.0889 -0.1778001,0 -0.3005667,0.0677 -0.1227667,0.0677 -0.1989667,0.18204 -0.074083,0.11218 -0.10795,0.25823 -0.03175,0.14605 -0.03175,0.30057 0,0.15663 0.03175,0.30268 0.033867,0.14393 0.10795,0.25823 0.074083,0.11219 0.19685,0.17992 0.1227667,0.0677 0.3005667,0.0677 0.2243667,0 0.3704167,-0.10583 z"
         style="stroke-width:0.26458335"
         id="path858" />
      <path
         d="m 9.7850523,217.4032 h 0.4000497 v -0.28998 H 9.0505689 v 0.28998 h 0.3979334 v 1.28482 h 0.33655 z"
         style="stroke-width:0.26458335"
         id="path860" />
    </g>
    <g
       aria-label="CUTOFF"
       style="font-style:normal;font-variant:normal;font-weight:500;font-stretch:normal;font-size:2.11666679px;line-height:1.25;font-family:OldSansBlack;-inkscape-font-specification:'OldSansBlack, Medium';font-variant-ligatures:normal;font-variant-position:normal;font-variant-caps:normal;font-variant-numeric:normal;font-variant-alternates:normal;font-feature-settings:normal;text-indent:0;text-align:start;text-decoration:none;text-decoration-line:none;text-decoration-style:solid;text-decoration-color:#000000;letter-spacing:0px;word-spacing:0px;text-transform:none;writing-mode:lr-tb;direction:ltr;text-orientation:mixed;dominant-baseline:auto;baseline-shift:baseline;text-anchor:start;white-space:normal;shape-padding:0;opacity:1;vector-effect:none;fill:#ffffff;fill-opacity:1;stroke:none;stroke-width:0.26458335;stroke-linecap:butt;stroke-linejoin:miter;stroke-miterlimit:4;stroke-dasharray:none;stroke-dashoffset:0;stroke-opacity:1"
       id="text879">
      <path
         d="m 14.533979,216.33421 q 0.08643,-0.0617 0.150636,-0.15558 0.06667,-0.0938 0.121002,-0.23459 l -0.370416,-0.0963 q -0.02716,0.0593 -0.0568,0.10865 -0.02963,0.0494 -0.06668,0.0864 -0.03704,0.0346 -0.0889,0.0543 -0.04939,0.0198 -0.121003,0.0198 -0.182739,0 -0.261761,-0.1457 -0.08643,-0.15064 -0.08643,-0.4445 0,-0.0543 0.0025,-0.121 0.0049,-0.0667 0.01729,-0.13335 0.01235,-0.0691 0.03457,-0.13335 0.02469,-0.0642 0.06174,-0.1136 0.03704,-0.0519 0.09137,-0.0815 0.0568,-0.0321 0.130881,-0.0321 0.128411,0 0.197556,0.0741 0.06914,0.0741 0.108655,0.18768 l 0.360539,-0.0864 q -0.04692,-0.16051 -0.111125,-0.25929 -0.06174,-0.10125 -0.148167,-0.15311 -0.170391,-0.10371 -0.395111,-0.10371 -0.207433,0 -0.350661,0.079 -0.143228,0.079 -0.232128,0.21237 -0.08643,0.13088 -0.125941,0.30127 -0.03704,0.17039 -0.03704,0.35066 0,0.18274 0.03704,0.35313 0.03951,0.16793 0.125941,0.30128 0.08643,0.13088 0.229659,0.2099 0.143227,0.079 0.350661,0.079 0.261761,0 0.432153,-0.12347 z"
         style="font-size:2.46944451px;stroke-width:0.26458335"
         id="path863" />
      <path
         d="m 16.238706,216.27247 q 0.182739,-0.18521 0.182739,-0.53587 v -1.14088 h -0.392642 v 1.13594 q 0,0.21238 -0.07161,0.29881 -0.03457,0.042 -0.09631,0.0642 -0.05927,0.0222 -0.153106,0.0222 -0.175331,0 -0.242006,-0.0889 -0.07161,-0.0864 -0.07161,-0.30127 v -1.13101 h -0.392642 v 1.15817 q 0,0.34078 0.185208,0.52352 0.187678,0.18027 0.525992,0.18027 0.343253,0 0.525992,-0.18521 z"
         style="font-size:2.46944451px;stroke-width:0.26458335"
         id="path865" />
      <path
         d="m 17.487396,214.93403 h 0.466725 v -0.33831 h -1.323623 v 0.33831 h 0.464256 v 1.49896 h 0.392642 z"
         style="font-size:2.46944451px;stroke-width:0.26458335"
         id="path867" />
      <path
         d="m 19.383042,216.2058 q 0.197555,-0.24448 0.197555,-0.69145 0,-0.19014 -0.04198,-0.36054 -0.03951,-0.17286 -0.13335,-0.30127 -0.09137,-0.13088 -0.239536,-0.20496 -0.145698,-0.0765 -0.360539,-0.0765 -0.214842,0 -0.363009,0.0765 -0.148166,0.0741 -0.242005,0.20496 -0.09137,0.12841 -0.13335,0.30127 -0.03951,0.1704 -0.03951,0.36054 0,0.19015 0.03951,0.36301 0.04198,0.17039 0.13335,0.30127 0.09384,0.12841 0.242005,0.20497 0.148167,0.0741 0.363009,0.0741 0.377825,0 0.57785,-0.25188 z m -0.291395,-1.14582 q 0.09384,0.1531 0.09384,0.45437 0,0.30128 -0.09384,0.45438 -0.0889,0.14817 -0.286455,0.14817 -0.200025,0 -0.288925,-0.14817 -0.09384,-0.1531 -0.09384,-0.45438 0,-0.30127 0.09384,-0.45437 0.0889,-0.14817 0.288925,-0.14817 0.197555,0 0.286455,0.14817 z"
         style="font-size:2.46944451px;stroke-width:0.26458335"
         id="path869" />
      <path
         d="m 20.188003,214.9365 h 0.797631 v -0.34078 h -1.190272 v 1.83727 h 0.392641 v -0.78776 l 0.597606,-0.002 -0.0025,-0.33584 h -0.595137 z"
         style="font-size:2.46944451px;stroke-width:0.26458335"
         id="path871" />
      <path
         d="m 21.562597,214.9365 h 0.79763 v -0.34078 h -1.190272 v 1.83727 h 0.392642 v -0.78776 l 0.597605,-0.002 -0.0025,-0.33584 h -0.595136 z"
         style="font-size:2.46944451px;stroke-width:0.26458335"
         id="path873" />
    </g>
    <g
       aria-label="RESONANCE"
       style="font-style:normal;font-variant:normal;font-weight:500;font-stretch:normal;font-size:2.11666679px;line-height:1.25;font-family:OldSansBlack;-inkscape-font-specification:'OldSansBlack, Medium';font-variant-ligatures:normal;font-variant-position:normal;font-variant-caps:normal;font-variant-numeric:normal;font-variant-alternates:normal;font-feature-settings:normal;text-indent:0;text-align:start;text-decoration:none;text-decoration-line:none;text-decoration-style:solid;text-decoration-color:#000000;letter-spacing:0px;word-spacing:0px;text-transform:none;writing-mode:lr-tb;direction:ltr;text-orientation:mixed;dominant-baseline:auto;baseline-shift:baseline;text-anchor:start;white-space:normal;shape-padding:0;opacity:1;vector-effect:none;fill:#ffffff;fill-opacity:1;stroke:none;stroke-width:0.26458335;stroke-linecap:butt;stroke-linejoin:miter;stroke-miterlimit:4;stroke-dasharray:none;stroke-dashoffset:0;stroke-opacity:1"
       id="text883">
      <path
         d="m 11.748041,235.39157 h 0.439561 l -0.40005,-0.8075 q 0.153106,-0.0543 0.234597,-0.17287 0.08396,-0.121 0.08396,-0.28398 0,-0.14076 -0.04445,-0.24695 -0.04198,-0.10865 -0.121002,-0.18027 -0.07655,-0.0716 -0.187678,-0.10865 -0.111125,-0.037 -0.246945,-0.037 h -0.738364 v 1.83726 h 0.392642 v -0.72601 h 0.251883 z m -0.106186,-1.44956 q 0.0321,0.0272 0.04939,0.0716 0.01729,0.0444 0.01729,0.10866 0,0.0716 -0.02716,0.11359 -0.02716,0.042 -0.07161,0.0642 -0.04445,0.0222 -0.101247,0.0296 -0.0568,0.005 -0.113595,0.005 h -0.234597 v -0.44944 h 0.274108 q 0.143228,0 0.207434,0.0568 z"
         style="font-size:2.46944451px;stroke-width:0.26458335"
         id="path876" />
      <path
         d="m 12.432,235.39157 h 1.261886 v -0.34078 h -0.869244 v -0.44697 l 0.612422,-0.002 v -0.33584 h -0.612422 v -0.37042 h 0.839611 v -0.34078 H 12.432 Z"
         style="font-size:2.46944451px;stroke-width:0.26458335"
         id="path878" />
      <path
         d="m 14.996094,235.27304 q 0.172861,-0.14817 0.172861,-0.41734 0,-0.24941 -0.175331,-0.38029 -0.165453,-0.12841 -0.375355,-0.20002 -0.148167,-0.0519 -0.2667,-0.11854 -0.0568,-0.0321 -0.08149,-0.0667 -0.02223,-0.0346 -0.02223,-0.0716 0,-0.0469 0.01975,-0.079 0.02223,-0.0346 0.05433,-0.0519 0.03457,-0.0197 0.07408,-0.0272 0.04198,-0.01 0.08149,-0.01 0.123473,0 0.190148,0.0667 0.06914,0.0642 0.113594,0.17039 l 0.363008,-0.11113 q -0.05433,-0.12594 -0.121002,-0.20743 -0.06668,-0.0815 -0.153106,-0.13335 -0.172861,-0.10619 -0.390172,-0.10619 -0.259292,0 -0.432153,0.14323 -0.172861,0.14323 -0.172861,0.36301 0,0.22225 0.148166,0.34819 0.140759,0.11606 0.427214,0.22472 0.145698,0.0543 0.249414,0.12347 0.09384,0.0617 0.09384,0.15311 0,0.0617 -0.02223,0.10371 -0.02223,0.0395 -0.06174,0.0642 -0.03704,0.0222 -0.08643,0.0321 -0.04939,0.01 -0.101248,0.01 -0.07408,0 -0.13335,-0.0197 -0.0568,-0.0222 -0.101247,-0.0593 -0.04445,-0.037 -0.07902,-0.0889 -0.03457,-0.0543 -0.06421,-0.11853 l -0.328436,0.14322 q 0.0568,0.13335 0.130881,0.21978 0.07408,0.084 0.17533,0.13829 0.190148,0.10619 0.390173,0.10619 0.31115,0 0.484011,-0.14323 z"
         style="font-size:2.46944451px;stroke-width:0.26458335"
         id="path880" />
      <path
         d="m 16.673657,235.16439 q 0.197555,-0.24448 0.197555,-0.69145 0,-0.19015 -0.04198,-0.36054 -0.03951,-0.17286 -0.13335,-0.30127 -0.09137,-0.13088 -0.239536,-0.20496 -0.145698,-0.0766 -0.360539,-0.0766 -0.214842,0 -0.363009,0.0766 -0.148166,0.0741 -0.242005,0.20496 -0.09137,0.12841 -0.13335,0.30127 -0.03951,0.17039 -0.03951,0.36054 0,0.19015 0.03951,0.36301 0.04198,0.17039 0.13335,0.30127 0.09384,0.12841 0.242005,0.20497 0.148167,0.0741 0.363009,0.0741 0.377825,0 0.57785,-0.25188 z m -0.291395,-1.14583 q 0.09384,0.15311 0.09384,0.45438 0,0.30127 -0.09384,0.45438 -0.0889,0.14817 -0.286455,0.14817 -0.200025,0 -0.288925,-0.14817 -0.09384,-0.15311 -0.09384,-0.45438 0,-0.30127 0.09384,-0.45438 0.0889,-0.14816 0.288925,-0.14816 0.197555,0 0.286455,0.14816 z"
         style="font-size:2.46944451px;stroke-width:0.26458335"
         id="path882" />
      <path
         d="m 18.162655,235.39157 h 0.367947 v -1.83726 h -0.375356 v 1.15076 l -0.66428,-1.15076 h -0.397581 v 1.83726 h 0.375356 v -1.20508 z"
         style="font-size:2.46944451px;stroke-width:0.26458335"
         id="path884" />
      <path
         d="m 19.821273,235.39157 h 0.39758 l -0.523522,-1.83973 h -0.464255 l -0.530931,1.83973 h 0.395111 l 0.106186,-0.38523 h 0.521053 z m -0.353131,-1.37301 0.167922,0.65194 h -0.345722 z"
         style="font-size:2.46944451px;stroke-width:0.26458335"
         id="path886" />
      <path
         d="m 21.456855,235.39157 h 0.367947 v -1.83726 h -0.375355 v 1.15076 l -0.664281,-1.15076 h -0.39758 v 1.83726 h 0.375355 v -1.20508 z"
         style="font-size:2.46944451px;stroke-width:0.26458335"
         id="path888" />
      <path
         d="m 23.221659,235.2928 q 0.08643,-0.0617 0.150636,-0.15558 0.06668,-0.0938 0.121003,-0.2346 l -0.370417,-0.0963 q -0.02716,0.0593 -0.0568,0.10865 -0.02963,0.0494 -0.06668,0.0864 -0.03704,0.0346 -0.0889,0.0543 -0.04939,0.0198 -0.121003,0.0198 -0.182739,0 -0.261761,-0.1457 -0.08643,-0.15064 -0.08643,-0.4445 0,-0.0543 0.0025,-0.121 0.0049,-0.0667 0.01729,-0.13335 0.01235,-0.0692 0.03457,-0.13335 0.0247,-0.0642 0.06174,-0.1136 0.03704,-0.0519 0.09137,-0.0815 0.0568,-0.0321 0.13088,-0.0321 0.128411,0 0.197556,0.0741 0.06914,0.0741 0.108655,0.18768 l 0.360539,-0.0864 q -0.04692,-0.16052 -0.111125,-0.25929 -0.06174,-0.10125 -0.148166,-0.15311 -0.170392,-0.10372 -0.395112,-0.10372 -0.207433,0 -0.350661,0.079 -0.143227,0.079 -0.232127,0.21237 -0.08643,0.13088 -0.125942,0.30127 -0.03704,0.17039 -0.03704,0.35066 0,0.18274 0.03704,0.35313 0.03951,0.16792 0.125942,0.30127 0.08643,0.13088 0.229658,0.20991 0.143228,0.079 0.350661,0.079 0.261761,0 0.432153,-0.12347 z"
         style="font-size:2.46944451px;stroke-width:0.26458335"
         id="path890" />
      <path
         d="m 23.689194,235.39157 h 1.261886 v -0.34078 h -0.869244 v -0.44697 l 0.612422,-0.002 v -0.33584 h -0.612422 v -0.37042 h 0.839611 v -0.34078 h -1.232253 z"
         style="font-size:2.46944451px;stroke-width:0.26458335"
         id="path892" />
    </g>
    <g
       aria-label="DRIVE"
       style="font-style:normal;font-variant:normal;font-weight:500;font-stretch:normal;font-size:2.11666679px;line-height:1.25;font-family:OldSansBlack;-inkscape-font-specification:'OldSansBlack, Medium';font-variant-ligatures:normal;font-variant-position:normal;font-variant-caps:normal;font-variant-numeric:normal;font-variant-alternates:normal;font-feature-settings:normal;text-indent:0;text-align:start;text-decoration:none;text-decoration-line:none;text-decoration-style:solid;text-decoration-color:#000000;letter-spacing:0px;word-spacing:0px;text-transform:none;writing-mode:lr-tb;direction:ltr;text-orientation:mixed;dominant-baseline:auto;baseline-shift:baseline;text-anchor:start;white-space:normal;shape-padding:0;opacity:1;vector-effect:none;fill:#ffffff;fill-opacity:1;stroke:none;stroke-width:0.26458335;stroke-linecap:butt;stroke-linejoin:miter;stroke-miterlimit:4;stroke-dasharray:none;stroke-dashoffset:0;stroke-opacity:1"
       id="text887">
      <path
         d="m 15.704091,253.86861 q 0.111125,-0.11854 0.162983,-0.28646 0.05186,-0.17039 0.05186,-0.39017 0,-0.2099 -0.04939,-0.37783 -0.04939,-0.17039 -0.153105,-0.29139 -0.103717,-0.121 -0.264231,-0.18521 -0.158044,-0.0667 -0.377825,-0.0667 h -0.602544 v 1.83726 h 0.607483 q 0.409928,0 0.62477,-0.23953 z m -0.293864,-1.11372 q 0.05433,0.0716 0.08149,0.18027 0.02963,0.10618 0.02963,0.25188 0,0.11853 -0.01976,0.22472 -0.01975,0.10372 -0.07161,0.18521 -0.04939,0.079 -0.138289,0.12594 -0.08643,0.0444 -0.22225,0.0444 h -0.202494 v -1.1557 h 0.207433 q 0.227189,0 0.335845,0.14323 z"
         style="font-size:2.46944451px;stroke-width:0.26458335"
         id="path895" />
      <path
         d="m 17.101719,254.10814 h 0.439561 l -0.40005,-0.80751 q 0.153106,-0.0543 0.234597,-0.17286 0.08396,-0.121 0.08396,-0.28398 0,-0.14076 -0.04445,-0.24695 -0.04198,-0.10865 -0.121003,-0.18027 -0.07655,-0.0716 -0.187678,-0.10865 -0.111125,-0.037 -0.246944,-0.037 H 16.12135 v 1.83726 h 0.392641 v -0.72601 h 0.251884 z m -0.106186,-1.44956 q 0.0321,0.0272 0.04939,0.0716 0.01729,0.0445 0.01729,0.10866 0,0.0716 -0.02716,0.11359 -0.02716,0.042 -0.07161,0.0642 -0.04445,0.0222 -0.101247,0.0296 -0.0568,0.005 -0.113594,0.005 h -0.234598 v -0.44944 H 16.7881 q 0.143227,0 0.207433,0.0568 z"
         style="font-size:2.46944451px;stroke-width:0.26458335"
         id="path897" />
      <path
         d="m 17.817781,254.10814 h 0.395111 v -1.83726 h -0.395111 z"
         style="font-size:2.46944451px;stroke-width:0.26458335"
         id="path899" />
      <path
         d="m 19.326573,254.10814 0.48895,-1.83726 h -0.395111 l -0.31115,1.23719 -0.296334,-1.23719 h -0.392641 l 0.48648,1.83726 z"
         style="font-size:2.46944451px;stroke-width:0.26458335"
         id="path901" />
      <path
         d="m 19.985027,254.10814 h 1.261886 v -0.34078 h -0.869244 v -0.44697 l 0.612422,-0.002 v -0.33584 h -0.612422 v -0.37042 h 0.839611 v -0.34078 h -1.232253 z"
         style="font-size:2.46944451px;stroke-width:0.26458335"
         id="path903" />
    </g>
    <g
       aria-label="FLORA"
       style="font-style:normal;font-variant:normal;font-weight:500;font-stretch:normal;font-size:2.11666679px;line-height:1.25;font-family:OldSansBlack;-inkscape-font-specification:'OldSansBlack, Medium';font-variant-ligatures:normal;font-variant-position:normal;font-variant-caps:normal;font-variant-numeric:normal;font-variant-alternates:normal;font-feature-settings:normal;text-indent:0;text-align:start;text-decoration:none;text-decoration-line:none;text-decoration-style:solid;text-decoration-color:#000000;letter-spacing:0px;word-spacing:0px;text-transform:none;writing-mode:lr-tb;direction:ltr;text-orientation:mixed;dominant-baseline:auto;baseline-shift:baseline;text-anchor:start;white-space:normal;shape-padding:0;opacity:1;vector-effect:none;fill:#ffffff;fill-opacity:1;stroke:none;stroke-width:0.26458335;stroke-linecap:butt;stroke-linejoin:miter;stroke-miterlimit:4;stroke-dasharray:none;stroke-dashoffset:0;stroke-opacity:1"
       id="text891">
      <path
         d="m 11.248133,203.94758 h 1.595261 v -0.68157 h -2.380545 v 3.67453 h 0.785284 v -1.5755 l 1.195211,-0.005 -0.0049,-0.67169 h -1.190272 z"
         style="font-size:4.93888903px;stroke-width:0.26458335"
         id="path906" />
      <path
         d="m 13.212036,206.94054 h 2.336094 v -0.68156 h -1.550811 v -2.99297 h -0.785283 z"
         style="font-size:4.93888903px;stroke-width:0.26458335"
         id="path908" />
      <path
         d="m 18.435605,206.48617 q 0.395111,-0.48895 0.395111,-1.38289 0,-0.3803 -0.08396,-0.72108 -0.07902,-0.34572 -0.2667,-0.60255 -0.182739,-0.26176 -0.479072,-0.40992 -0.291394,-0.15311 -0.721078,-0.15311 -0.429683,0 -0.726016,0.15311 -0.296334,0.14816 -0.484012,0.40992 -0.182739,0.25683 -0.2667,0.60255 -0.07902,0.34078 -0.07902,0.72108 0,0.38029 0.07902,0.72601 0.08396,0.34079 0.2667,0.60255 0.187678,0.25682 0.484012,0.40993 0.296333,0.14816 0.726016,0.14816 0.75565,0 1.1557,-0.50376 z m -0.582789,-2.29165 q 0.187678,0.30621 0.187678,0.90876 0,0.60254 -0.187678,0.90875 -0.1778,0.29634 -0.572911,0.29634 -0.40005,0 -0.57785,-0.29634 -0.187678,-0.30621 -0.187678,-0.90875 0,-0.60255 0.187678,-0.90876 0.1778,-0.29633 0.57785,-0.29633 0.395111,0 0.572911,0.29633 z"
         style="font-size:4.93888903px;stroke-width:0.26458335"
         id="path910" />
      <path
         d="m 21.220984,206.94054 h 0.879122 l -0.8001,-1.61501 q 0.306211,-0.10866 0.469195,-0.34573 0.167922,-0.242 0.167922,-0.56797 0,-0.28151 -0.0889,-0.49389 -0.08396,-0.21731 -0.242006,-0.36054 -0.153105,-0.14322 -0.375355,-0.21731 -0.22225,-0.0741 -0.493889,-0.0741 h -1.476728 v 3.67453 h 0.785283 v -1.45203 h 0.503767 z m -0.212372,-2.89912 q 0.06421,0.0543 0.09878,0.14322 0.03457,0.0889 0.03457,0.21731 0,0.14323 -0.05433,0.22719 -0.05433,0.084 -0.143228,0.12841 -0.0889,0.0444 -0.202494,0.0593 -0.113595,0.01 -0.227189,0.01 h -0.469195 v -0.89888 h 0.548217 q 0.286456,0 0.414867,0.1136 z"
         style="font-size:4.93888903px;stroke-width:0.26458335"
         id="path912" />
      <path
         d="m 24.460742,206.94054 h 0.795161 l -1.047045,-3.67947 h -0.928511 l -1.061861,3.67947 h 0.790222 l 0.212373,-0.77046 h 1.042105 z m -0.706261,-2.74602 0.335844,1.30387 h -0.691444 z"
         style="font-size:4.93888903px;stroke-width:0.26458335"
         id="path914" />
    </g>
    <g
       aria-label="IN"
       style="font-style:normal;font-variant:normal;font-weight:500;font-stretch:normal;font-size:2.11666679px;line-height:1.25;font-family:OldSansBlack;-inkscape-font-specification:'OldSansBlack, Medium';font-variant-ligatures:normal;font-variant-position:normal;font-variant-caps:normal;font-variant-numeric:normal;font-variant-alternates:normal;font-feature-settings:normal;text-indent:0;text-align:start;text-decoration:none;text-decoration-line:none;text-decoration-style:solid;text-decoration-color:#000000;letter-spacing:0px;word-spacing:0px;text-transform:none;writing-mode:lr-tb;direction:ltr;text-orientation:mixed;dominant-baseline:auto;baseline-shift:baseline;text-anchor:start;white-space:normal;shape-padding:0;opacity:1;vector-effect:none;fill:#ffffff;fill-opacity:1;stroke:none;stroke-width:0.26458335;stroke-linecap:butt;stroke-linejoin:miter;stroke-miterlimit:4;stroke-dasharray:none;stroke-dashoffset:0;stroke-opacity:1"
       id="text895">
      <path
         d="m 8.053829,274.44113 h 0.3386667 v -1.5748 H 8.053829 Z"
         style="font-size:2.11666679px;stroke-width:0.26458335"
         id="path917" />
      <path
         d="m 9.5441939,274.44113 h 0.3153834 v -1.5748 H 9.5378439 v 0.98637 L 8.9684606,272.86633 H 8.6276772 v 1.5748 h 0.3217334 v -1.03293 z"
         style="font-size:2.11666679px;stroke-width:0.26458335"
         id="path919" />
    </g>
    <g
       aria-label="OUT"
       style="font-style:normal;font-variant:normal;font-weight:500;font-stretch:normal;font-size:2.11666679px;line-height:1.25;font-family:OldSansBlack;-inkscape-font-specification:'OldSansBlack, Medium';font-variant-ligatures:normal;font-variant-position:normal;font-variant-caps:normal;font-variant-numeric:normal;font-variant-alternates:normal;font-feature-settings:normal;text-indent:0;text-align:start;text-decoration:none;text-decoration-line:none;text-decoration-style:solid;text-decoration-color:#000000;letter-spacing:0px;word-spacing:0px;text-transform:none;writing-mode:lr-tb;direction:ltr;text-orientation:mixed;dominant-baseline:auto;baseline-shift:baseline;text-anchor:start;white-space:normal;shape-padding:0;opacity:1;vector-effect:none;fill:#ffffff;fill-opacity:1;stroke:none;stroke-width:0.26458335;stroke-linecap:butt;stroke-linejoin:miter;stroke-miterlimit:4;stroke-dasharray:none;stroke-dashoffset:0;stroke-opacity:1"
       id="text899">
      <path
         d="m 25.902424,274.21209 q 0.169333,-0.20955 0.169333,-0.59266 0,-0.16299 -0.03598,-0.30904 -0.03387,-0.14816 -0.1143,-0.25823 -0.07832,-0.11218 -0.205317,-0.17568 -0.124883,-0.0656 -0.309033,-0.0656 -0.18415,0 -0.31115,0.0656 -0.127,0.0635 -0.207433,0.17568 -0.07832,0.11007 -0.1143,0.25823 -0.03387,0.14605 -0.03387,0.30904 0,0.16298 0.03387,0.31115 0.03598,0.14605 0.1143,0.25823 0.08043,0.11007 0.207433,0.17568 0.127,0.0635 0.31115,0.0635 0.32385,0 0.4953,-0.2159 z m -0.249767,-0.98213 q 0.08043,0.13123 0.08043,0.38947 0,0.25823 -0.08043,0.38946 -0.0762,0.127 -0.245533,0.127 -0.17145,0 -0.24765,-0.127 -0.08043,-0.13123 -0.08043,-0.38946 0,-0.25824 0.08043,-0.38947 0.0762,-0.127 0.24765,-0.127 0.169333,0 0.245533,0.127 z"
         style="font-size:2.11666679px;stroke-width:0.26458335"
         id="path922" />
      <path
         d="m 27.328991,274.26924 q 0.156633,-0.15875 0.156633,-0.45931 v -0.9779 h -0.33655 v 0.97366 q 0,0.18204 -0.06138,0.25612 -0.02963,0.036 -0.08255,0.055 -0.0508,0.019 -0.131233,0.019 -0.150284,0 -0.207434,-0.0762 -0.06138,-0.0741 -0.06138,-0.25823 v -0.96943 h -0.33655 v 0.99271 q 0,0.2921 0.15875,0.44874 0.160867,0.15451 0.45085,0.15451 0.294217,0 0.45085,-0.15875 z"
         style="font-size:2.11666679px;stroke-width:0.26458335"
         id="path924" />
      <path
         d="m 28.399297,273.12201 h 0.40005 v -0.28998 h -1.134534 v 0.28998 h 0.397934 v 1.28482 h 0.33655 z"
         style="font-size:2.11666679px;stroke-width:0.26458335"
         id="path926" />
    </g>
  </g>
</svg>
