<?xml version="1.0" encoding="UTF-8" standalone="no"?>
<!-- Created with Inkscape (http://www.inkscape.org/) -->

<svg
   xmlns:dc="http://purl.org/dc/elements/1.1/"
   xmlns:cc="http://creativecommons.org/ns#"
   xmlns:rdf="http://www.w3.org/1999/02/22-rdf-syntax-ns#"
   xmlns:svg="http://www.w3.org/2000/svg"
   xmlns="http://www.w3.org/2000/svg"
   xmlns:sodipodi="http://sodipodi.sourceforge.net/DTD/sodipodi-0.dtd"
   xmlns:inkscape="http://www.inkscape.org/namespaces/inkscape"
   width="75"
   height="380"
   viewBox="0 0 19.843751 100.54167"
   version="1.1"
   id="svg8"
   inkscape:version="0.92.3 (2405546, 2018-03-11)"
   sodipodi:docname="SquareModule.svg">
  <title
     id="title4816">Autinn Square</title>
  <defs
     id="defs2">
    <inkscape:path-effect
       effect="spiro"
       id="path-effect4567"
       is_visible="true" />
    <inkscape:path-effect
       effect="spiro"
       id="path-effect4535"
       is_visible="true" />
    <inkscape:path-effect
       effect="spiro"
       id="path-effect4101"
       is_visible="true" />
  </defs>
  <sodipodi:namedview
     id="base"
     pagecolor="#ffffff"
     bordercolor="#666666"
     borderopacity="1.0"
     inkscape:pageopacity="0.0"
     inkscape:pageshadow="2"
     inkscape:zoom="2.6151272"
     inkscape:cx="-63.192796"
     inkscape:cy="191.85716"
     inkscape:document-units="px"
     inkscape:current-layer="layer1"
     showgrid="true"
     units="px"
     inkscape:snap-bbox="true"
     inkscape:snap-page="true"
     inkscape:bbox-nodes="false"
     inkscape:snap-bbox-edge-midpoints="true"
     inkscape:window-width="1920"
     inkscape:window-height="1017"
     inkscape:window-x="-8"
     inkscape:window-y="-8"
     inkscape:window-maximized="1"
     inkscape:snap-grids="true"
     inkscape:snap-to-guides="true"
     inkscape:snap-global="false"
     inkscape:pagecheckerboard="true"
     inkscape:snap-others="false"
     inkscape:object-nodes="false"
     inkscape:snap-nodes="false">
    <inkscape:grid
       type="xygrid"
       id="grid2601" />
  </sodipodi:namedview>
  <metadata
     id="metadata5">
    <rdf:RDF>
      <cc:Work
         rdf:about="">
        <dc:format>image/svg+xml</dc:format>
        <dc:type
           rdf:resource="http://purl.org/dc/dcmitype/StillImage" />
        <dc:title>Autinn Square</dc:title>
      </cc:Work>
    </rdf:RDF>
  </metadata>
  <g
     inkscape:label="Layer 1"
     inkscape:groupmode="layer"
     id="layer1"
     transform="translate(0,-196.45832)">
    <path
       style="opacity:1;vector-effect:none;fill:#202020;fill-opacity:1;fill-rule:evenodd;stroke:none;stroke-width:0.44371983;stroke-linecap:butt;stroke-linejoin:round;stroke-miterlimit:4;stroke-dasharray:none;stroke-dashoffset:0;stroke-opacity:1;paint-order:normal"
       d="M 0,196.45831 H 19.843751 V 296.99999 H 0 Z"
       id="rect817"
       inkscape:connector-curvature="0" />
    <path
       style="fill:none;stroke:#5e110a;stroke-width:4.23333359;stroke-linecap:butt;stroke-linejoin:miter;stroke-miterlimit:4;stroke-dasharray:none;stroke-opacity:1"
       d="m -2.4757182,196.18324 c 3.6599003,1.71496 6.8299844,4.46079 9.0496382,7.83853 2.2196538,3.37773 3.482145,7.37712 3.604033,11.41706 0.148427,4.91957 -1.3491978,9.72817 -2.9612607,14.37849 -1.612063,4.65031 -3.3712088,9.32486 -3.7781947,14.22981 -0.4915357,5.92393 1.0229294,11.83585 3.0002556,17.44162 1.9773263,5.60578 4.4333558,11.05558 5.9398378,16.80581 1.675271,6.39449 2.144383,13.10279 1.375399,19.66821"
       id="path4565" />
    <g
       aria-label="Autinn"
       style="font-style:normal;font-weight:normal;font-size:7.05555534px;line-height:1.25;font-family:sans-serif;letter-spacing:0px;word-spacing:0px;fill:#ffd700;fill-opacity:1;stroke:none;stroke-width:0.26458332"
       id="text3739"
       transform="matrix(0.8,0,0,0.8,0.39686993,57.826496)">
      <path
         d="m 5.0556776,289.41931 q -0.1756999,-0.37896 -0.3858507,-0.93706 -0.2101508,-0.55811 -0.4409722,-1.25057 -0.1171332,0.32728 -0.4375271,0.9095 -0.3169488,0.58223 -0.7820367,1.31948 0.106798,0.007 0.2239312,0.007 0.1205784,0 0.3617351,0 0.3927408,0 0.7544759,-0.0103 0.3651801,-0.0138 0.7062445,-0.0379 z m 0.1481391,0.35485 q -0.099908,0 -0.2480469,0.003 -0.144694,0.003 -0.1963704,0.003 -1.2057834,0 -1.6467556,0.13436 -0.4409722,0.13436 -0.7165798,0.50643 -0.3135037,0.4203 -0.6924642,1.01975 -0.3789605,0.596 -0.4719781,0.596 -0.041341,0 -0.065457,-0.0241 -0.027561,-0.0241 -0.027561,-0.0689 0,-0.0413 0.4478624,-0.75448 0.4478624,-0.71658 0.8371581,-1.38148 0.7544759,-1.30225 1.1368815,-2.09806 0.3858507,-0.79582 0.3858507,-1.05765 0,-0.0344 -0.010335,-0.0758 -0.010335,-0.0448 -0.010335,-0.0517 0,-0.0413 0.2342665,-0.1688 0.2377116,-0.12747 0.323839,-0.12747 0.037896,0 0.2308214,0.65801 0.1929253,0.65457 0.4616427,1.33325 0.757921,1.93615 1.0610894,2.43568 0.3066135,0.49954 0.6028917,0.49954 0.082682,0 0.1722548,-0.0448 0.089573,-0.0482 0.1033528,-0.0482 0.020671,0 0.048231,0.0379 0.031006,0.0379 0.031006,0.0689 0,0.0207 -0.1550293,0.11714 -0.1550292,0.0965 -0.2928331,0.19292 -0.1274685,0.0965 -0.2928331,0.24116 -0.1619195,0.14125 -0.2067057,0.14125 -0.075792,0 -0.2928331,-0.42375 -0.2135959,-0.42375 -0.7510308,-1.66398 z"
         style="font-style:normal;font-variant:normal;font-weight:normal;font-stretch:normal;font-family:'Calligraph421 BT';-inkscape-font-specification:'Calligraph421 BT';stroke-width:0.26458332;fill:#ffd700;fill-opacity:1"
         id="path4612"
         inkscape:connector-curvature="0" />
      <path
         d="m 9.6410995,291.31067 q -0.2446018,0.12058 -0.6097819,0.31006 -0.4306369,0.22738 -0.5167643,0.22738 -0.4960938,0 -0.7269151,-0.31695 -0.2273763,-0.31695 -0.2273763,-1.00941 0,-0.16881 0.01378,-0.55811 0.01378,-0.39274 0.01378,-0.61323 0,-0.0482 -0.01378,-0.14469 -0.01378,-0.0999 -0.01378,-0.15159 0,-0.0276 0.1205783,-0.0654 0.096463,-0.031 0.1619195,-0.0551 0.1515842,-0.0551 0.3066135,-0.12058 0.1584744,-0.0689 0.1722547,-0.0689 0.051677,0 0.082682,0.0241 0.031006,0.0207 0.031006,0.0586 0,0.0413 -0.075792,0.11713 -0.072347,0.0758 -0.106798,0.13781 -0.082682,0.14124 -0.1205783,0.37551 -0.034451,0.23427 -0.034451,0.70969 0,0.65801 0.1584744,0.92329 0.1619195,0.26182 0.5477702,0.26182 0.1412489,0 0.3651801,-0.0654 0.2273763,-0.0655 0.4892035,-0.18604 v -1.5124 q 0,-0.40307 -0.1619194,-0.48575 -0.031006,-0.0138 -0.031006,-0.0276 0,-0.11025 0.082682,-0.13092 0.024116,-0.003 0.044786,-0.0103 0.1515842,-0.0551 0.323839,-0.14125 0.1722546,-0.0861 0.1998156,-0.0861 0.04479,0 0.103352,0.0551 0.05857,0.0551 0.05857,0.093 0,0.003 -0.0069,0.031 -0.04823,0.17914 -0.06546,0.43752 -0.01378,0.23771 -0.02067,0.63045 -0.0069,0.3893 -0.0069,0.86472 0,0.36863 0.02412,0.70625 0.0034,0.0517 0.0034,0.062 0,0.0792 -0.2377112,0.20671 -0.2377116,0.13091 -0.2962782,0.13091 -0.02067,0 -0.031006,-0.031 -0.00689,-0.0276 -0.00689,-0.0965 v -0.10335 q 0,-0.0758 0,-0.17226 0.00345,-0.0965 0.00689,-0.21015 z"
         style="font-style:normal;font-variant:normal;font-weight:normal;font-stretch:normal;font-family:'Calligraph421 BT';-inkscape-font-specification:'Calligraph421 BT';stroke-width:0.26458332;fill:#ffd700;fill-opacity:1"
         id="path4614"
         inkscape:connector-curvature="0" />
      <path
         d="m 11.346421,291.48637 q 0.0034,-0.30661 0.0034,-0.60289 0.0034,-0.29628 0.0034,-0.65801 0,-0.21704 -0.0034,-0.46165 0,-0.2446 -0.0034,-0.51331 h -0.19637 q -0.04479,0 -0.05857,-0.0103 -0.01033,-0.0138 -0.01378,-0.0586 0.0034,-0.0723 0.06201,-0.11713 0.02067,-0.0172 0.02756,-0.0241 l 0.799263,-0.72002 q 0.05512,-0.0551 0.07924,-0.0689 0.02412,-0.0172 0.04823,-0.0172 0.02412,0 0.04479,0.0207 0.02067,0.0172 0.02067,0.0448 0,0.0103 -0.03445,0.0827 -0.120578,0.25494 -0.151584,0.50988 h 1.036973 q 0.04823,0 0.06546,0.0344 0.02067,0.0344 0.02067,0.12057 0,0.10336 -0.02412,0.13092 -0.02412,0.0241 -0.158474,0.0241 h -0.981852 q -0.02412,0.30317 -0.0379,0.58912 -0.01034,0.28249 -0.01034,0.53743 0,0.61323 0.16881,0.8785 0.172255,0.26527 0.558105,0.26527 0.199816,0 0.416857,-0.0861 0.217041,-0.0896 0.230821,-0.0896 0.01378,0 0.02412,0.0172 0.01033,0.0138 0.01033,0.031 v 0.0517 q 0,0.13436 -0.36518,0.2825 -0.36518,0.14814 -0.706244,0.14814 -0.268718,0 -0.499539,-0.0896 -0.230822,-0.0896 -0.375516,-0.25149 z"
         style="font-style:normal;font-variant:normal;font-weight:normal;font-stretch:normal;font-family:'Calligraph421 BT';-inkscape-font-specification:'Calligraph421 BT';stroke-width:0.26458332;fill:#ffd700;fill-opacity:1"
         id="path4616"
         inkscape:connector-curvature="0" />
      <path
         d="m 14.677829,289.9223 v 1.55718 q 0,0.0482 -0.0069,0.10335 0,0.0138 0,0.0172 0,0.0482 -0.02412,0.0792 -0.02067,0.0276 -0.07579,0.0482 -0.124023,0.0413 -0.261827,0.0861 -0.137804,0.0482 -0.141249,0.0482 -0.02756,0 -0.04134,-0.062 -0.01378,-0.062 -0.01378,-0.31351 v -1.69843 q 0,-0.3893 -0.05512,-0.48576 -0.05512,-0.0999 -0.199816,-0.0999 -0.0379,0 -0.09991,0.0207 -0.05857,0.0207 -0.07579,0.0207 -0.0379,0 -0.06201,-0.0345 -0.02412,-0.0344 -0.02412,-0.093 0.0034,-0.0517 0.203261,-0.10336 0.141249,-0.0344 0.234266,-0.0654 0.16881,-0.0551 0.354845,-0.12747 0.186035,-0.0758 0.210151,-0.0758 0.03445,0 0.07235,0.0344 0.04134,0.0344 0.04134,0.0689 0,0.0138 -0.0034,0.0827 -0.03101,0.47887 -0.03101,0.99219 z m -0.347954,-3.00068 q 0.158474,0 0.268717,0.11369 0.113688,0.11369 0.113688,0.26872 0,0.15847 -0.110243,0.26527 -0.110243,0.1068 -0.272162,0.1068 -0.15503,0 -0.265273,-0.1068 -0.106798,-0.11024 -0.106798,-0.26527 0,-0.15848 0.106798,-0.26872 0.110243,-0.11369 0.265273,-0.11369 z"
         style="font-style:normal;font-variant:normal;font-weight:normal;font-stretch:normal;font-family:'Calligraph421 BT';-inkscape-font-specification:'Calligraph421 BT';stroke-width:0.26458332;fill:#ffd700;fill-opacity:1"
         id="path4618"
         inkscape:connector-curvature="0" />
      <path
         d="m 16.014526,291.70686 v -1.5813 q 0,-0.48576 -0.106798,-0.7028 -0.103353,-0.22049 -0.33073,-0.22049 -0.03101,0 -0.07924,0.0103 -0.04479,0.0103 -0.06201,0.0103 -0.03445,0 -0.05512,-0.0276 -0.01722,-0.0276 -0.01722,-0.0792 0,-0.0344 0.130913,-0.0792 0.09646,-0.031 0.151584,-0.0551 0.210151,-0.0861 0.389296,-0.20671 0.04823,-0.031 0.05512,-0.031 0.07235,0 0.20326,0.14814 0.130914,0.14469 0.199816,0.3445 0.347954,-0.2067 0.689019,-0.32383 0.341064,-0.12058 0.575331,-0.12058 0.389296,0 0.56155,0.29628 0.172255,0.29283 0.172255,0.98874 0,0.32039 -0.02067,0.70624 -0.01723,0.38585 -0.01723,0.44097 0,0.0861 0.03101,0.11714 0.03101,0.031 0.110243,0.031 0.04134,0 0.120578,-0.031 0.08268,-0.031 0.120579,-0.031 0.02756,0 0.04479,0.031 0.01722,0.031 0.01722,0.0827 0,0.0724 -0.19637,0.12402 -0.165365,0.0448 -0.282498,0.0861 -0.16881,0.0655 -0.341064,0.15159 -0.16881,0.0896 -0.189481,0.0896 -0.03445,0 -0.05857,-0.0241 -0.02412,-0.0207 -0.02412,-0.0551 0,-0.007 0.01378,-0.0517 0.148139,-0.50987 0.148139,-1.25401 0,-0.68557 -0.18259,-1.00252 -0.18259,-0.31695 -0.571886,-0.31695 -0.1757,0 -0.3514,0.0827 -0.172255,0.0827 -0.327284,0.23771 0,0.0482 0.0034,0.20326 0.0034,0.15159 0.0034,0.25494 0,0.5271 -0.0069,0.97841 -0.0069,0.44786 -0.02067,0.75792 l -0.403076,0.14125 q -0.0034,0 -0.01378,0.003 -0.01033,0.003 -0.02756,0.003 -0.03101,0 -0.04479,-0.0276 -0.01034,-0.0276 -0.01034,-0.0999 z"
         style="font-style:normal;font-variant:normal;font-weight:normal;font-stretch:normal;font-family:'Calligraph421 BT';-inkscape-font-specification:'Calligraph421 BT';stroke-width:0.26458332;fill:#ffd700;fill-opacity:1"
         id="path4620"
         inkscape:connector-curvature="0" />
      <path
         d="m 19.790351,291.70686 v -1.5813 q 0,-0.48576 -0.106798,-0.7028 -0.103353,-0.22049 -0.330729,-0.22049 -0.03101,0 -0.07924,0.0103 -0.04479,0.0103 -0.06201,0.0103 -0.03445,0 -0.05512,-0.0276 -0.01723,-0.0276 -0.01723,-0.0792 0,-0.0344 0.130914,-0.0792 0.09646,-0.031 0.151584,-0.0551 0.210151,-0.0861 0.389296,-0.20671 0.04823,-0.031 0.05512,-0.031 0.07235,0 0.203261,0.14814 0.130913,0.14469 0.199815,0.3445 0.347955,-0.2067 0.689019,-0.32383 0.341065,-0.12058 0.575331,-0.12058 0.389296,0 0.561551,0.29628 0.172255,0.29283 0.172255,0.98874 0,0.32039 -0.02067,0.70624 -0.01722,0.38585 -0.01722,0.44097 0,0.0861 0.03101,0.11714 0.03101,0.031 0.110244,0.031 0.04134,0 0.120578,-0.031 0.08268,-0.031 0.120578,-0.031 0.02756,0 0.04479,0.031 0.01723,0.031 0.01723,0.0827 0,0.0724 -0.196371,0.12402 -0.165364,0.0448 -0.282497,0.0861 -0.16881,0.0655 -0.341065,0.15159 -0.168809,0.0896 -0.18948,0.0896 -0.03445,0 -0.05857,-0.0241 -0.02412,-0.0207 -0.02412,-0.0551 0,-0.007 0.01378,-0.0517 0.148139,-0.50987 0.148139,-1.25401 0,-0.68557 -0.18259,-1.00252 -0.18259,-0.31695 -0.571886,-0.31695 -0.1757,0 -0.351399,0.0827 -0.172255,0.0827 -0.327285,0.23771 0,0.0482 0.0034,0.20326 0.0034,0.15159 0.0034,0.25494 0,0.5271 -0.0069,0.97841 -0.0069,0.44786 -0.02067,0.75792 l -0.403076,0.14125 q -0.0034,0 -0.01378,0.003 -0.01033,0.003 -0.02756,0.003 -0.03101,0 -0.04479,-0.0276 -0.01033,-0.0276 -0.01033,-0.0999 z"
         style="font-style:normal;font-variant:normal;font-weight:normal;font-stretch:normal;font-family:'Calligraph421 BT';-inkscape-font-specification:'Calligraph421 BT';stroke-width:0.26458332;fill:#ffd700;fill-opacity:1"
         id="path4622"
         inkscape:connector-curvature="0" />
    </g>
    <g
       style="font-style:normal;font-weight:normal;font-size:3.52777767px;line-height:1.25;font-family:sans-serif;letter-spacing:0px;word-spacing:0px;fill:#000000;fill-opacity:1;stroke:none;stroke-width:0.26458332"
       id="text4707" />
    <g
       style="font-style:normal;font-weight:normal;font-size:13.33333302px;line-height:1.25;font-family:sans-serif;letter-spacing:0px;word-spacing:0px;fill:#000000;fill-opacity:1;stroke:none"
       id="flowRoot4709" />
    <g
       aria-label="SQUARE"
       style="font-style:normal;font-variant:normal;font-weight:500;font-stretch:normal;font-size:2.11666679px;line-height:1.25;font-family:OldSansBlack;-inkscape-font-specification:'OldSansBlack, Medium';font-variant-ligatures:normal;font-variant-position:normal;font-variant-caps:normal;font-variant-numeric:normal;font-variant-alternates:normal;font-feature-settings:normal;text-indent:0;text-align:start;text-decoration:none;text-decoration-line:none;text-decoration-style:solid;text-decoration-color:#000000;letter-spacing:0px;word-spacing:0px;text-transform:none;writing-mode:lr-tb;direction:ltr;text-orientation:mixed;dominant-baseline:auto;baseline-shift:baseline;text-anchor:start;white-space:normal;shape-padding:0;opacity:1;vector-effect:none;fill:#ffffff;fill-opacity:1;stroke:none;stroke-width:0.26458335;stroke-linecap:butt;stroke-linejoin:miter;stroke-miterlimit:4;stroke-dasharray:none;stroke-dashoffset:0;stroke-opacity:1"
       id="text852">
      <path
         d="m 3.3460369,206.38059 q 0.3210278,-0.27517 0.3210278,-0.77505 0,-0.4632 -0.3256139,-0.70626 -0.3072694,-0.23848 -0.6970889,-0.37148 -0.2751666,-0.0963 -0.4953,-0.22013 -0.1054805,-0.0596 -0.1513416,-0.12383 -0.041275,-0.0642 -0.041275,-0.13299 0,-0.0871 0.036689,-0.14676 0.041275,-0.0642 0.1008945,-0.0963 0.064205,-0.0367 0.1375833,-0.0504 0.077964,-0.0183 0.1513417,-0.0183 0.2293055,0 0.3531305,0.12383 0.1284111,0.11924 0.2109611,0.31644 l 0.6741584,-0.20638 q -0.1008945,-0.23389 -0.2247195,-0.38523 -0.123825,-0.15134 -0.2843389,-0.24765 -0.3210277,-0.1972 -0.7246055,-0.1972 -0.4815417,0 -0.8025694,0.26599 -0.3210278,0.266 -0.3210278,0.67416 0,0.41275 0.2751666,0.64664 0.2614084,0.21555 0.7933973,0.41734 0.2705805,0.10089 0.4631972,0.2293 0.1742722,0.11466 0.1742722,0.28434 0,0.11465 -0.041275,0.19262 -0.041275,0.0734 -0.1146528,0.11924 -0.068792,0.0413 -0.1605139,0.0596 -0.091722,0.0183 -0.1880305,0.0183 -0.1375833,0 -0.24765,-0.0367 -0.1054806,-0.0413 -0.1880306,-0.11006 -0.08255,-0.0688 -0.1467555,-0.1651 -0.064206,-0.1009 -0.1192389,-0.22014 l -0.6099528,0.266 q 0.1054806,0.24765 0.2430639,0.40816 0.1375833,0.15593 0.3256139,0.25682 0.3531305,0.19721 0.7246055,0.19721 0.57785,0 0.8988778,-0.266 z"
         style="font-size:4.58611107px;stroke-width:0.26458335"
         id="path865" />
      <path
         d="m 6.1450695,206.56862 q 0.1192389,0.14676 0.3026833,0.21096 0.1880306,0.0688 0.4631972,0.0688 v -0.62829 q -0.1605139,-0.0138 -0.2522361,-0.0413 -0.091722,-0.0275 -0.1421694,-0.0688 0.3118555,-0.44944 0.3118555,-1.21532 0,-0.35313 -0.077964,-0.66957 -0.073378,-0.32103 -0.24765,-0.55951 Q 6.3331,203.42255 6.0579334,203.28497 5.7873528,203.1428 5.3883611,203.1428 q -0.3989916,0 -0.6741583,0.14217 -0.2751666,0.13758 -0.4494389,0.38064 -0.1696861,0.23848 -0.24765,0.55951 -0.073378,0.31644 -0.073378,0.66957 0,0.35313 0.073378,0.67416 0.077964,0.31644 0.24765,0.55951 0.1742723,0.23847 0.4494389,0.38064 0.2751667,0.13759 0.6741583,0.13759 0.4402667,0 0.6970889,-0.15135 0.022931,0.0275 0.05962,0.0734 z m -0.1008945,-1.1557 q -0.1192389,-0.16051 -0.2935111,-0.25223 -0.1696861,-0.0917 -0.4173361,-0.11466 v 0.6604 q 0.1284111,0.0229 0.2155472,0.0825 0.091722,0.0596 0.1605139,0.15593 -0.1054805,0.0688 -0.3210278,0.0688 -0.371475,0 -0.536575,-0.27516 -0.1742722,-0.28434 -0.1742722,-0.84385 0,-0.5595 0.1742722,-0.84384 0.1651,-0.27517 0.536575,-0.27517 0.3668889,0 0.5319889,0.27517 0.1742722,0.28434 0.1742722,0.84384 0,0.31644 -0.050447,0.51823 z"
         style="font-size:4.58611107px;stroke-width:0.26458335"
         id="path867" />
      <path
         d="m 9.5524068,206.30263 q 0.3393723,-0.34396 0.3393723,-0.99519 v -2.11878 H 9.1625874 v 2.10961 q 0,0.3944 -0.1329972,0.55492 -0.064206,0.078 -0.1788583,0.11924 -0.1100667,0.0413 -0.2843389,0.0413 -0.3256139,0 -0.4494389,-0.1651 -0.1329972,-0.16051 -0.1329972,-0.5595 v -2.10044 H 7.2547652 v 2.15088 q 0,0.63289 0.3439583,0.97226 0.3485445,0.33479 0.9768417,0.33479 0.6374694,0 0.9768416,-0.34396 z"
         style="font-size:4.58611107px;stroke-width:0.26458335"
         id="path869" />
      <path
         d="m 12.213032,206.60072 h 0.738364 l -0.972255,-3.41665 h -0.862189 l -0.986014,3.41665 h 0.733778 l 0.197202,-0.71543 h 0.96767 z m -0.655814,-2.54987 0.311856,1.21073 h -0.642056 z"
         style="font-size:4.58611107px;stroke-width:0.26458335"
         id="path871" />
      <path
         d="m 15.076162,206.60072 h 0.816328 l -0.74295,-1.49965 q 0.284339,-0.1009 0.435681,-0.32103 0.155928,-0.22472 0.155928,-0.5274 0,-0.26141 -0.08255,-0.45862 -0.07796,-0.20178 -0.22472,-0.33478 -0.142169,-0.133 -0.348544,-0.20179 -0.206375,-0.0688 -0.458611,-0.0688 h -1.371248 v 3.41206 h 0.729192 v -1.34831 h 0.467783 z m -0.197202,-2.69204 q 0.05962,0.0504 0.09172,0.13299 0.0321,0.0825 0.0321,0.20179 0,0.133 -0.05045,0.21096 -0.05045,0.078 -0.132997,0.11924 -0.08255,0.0413 -0.18803,0.055 -0.105481,0.009 -0.210961,0.009 h -0.435681 v -0.83467 h 0.509058 q 0.265995,0 0.385234,0.10548 z"
         style="font-size:4.58611107px;stroke-width:0.26458335"
         id="path873" />
      <path
         d="m 16.346372,206.60072 h 2.343503 v -0.63288 h -1.614311 v -0.83008 l 1.137356,-0.005 v -0.62371 h -1.137356 v -0.68792 h 1.559278 v -0.63288 h -2.28847 z"
         style="font-size:4.58611107px;stroke-width:0.26458335"
         id="path875" />
    </g>
    <g
       aria-label="1V/OCT"
       style="font-style:normal;font-variant:normal;font-weight:500;font-stretch:normal;font-size:2.11666679px;line-height:1.25;font-family:OldSansBlack;-inkscape-font-specification:'OldSansBlack, Medium';font-variant-ligatures:normal;font-variant-position:normal;font-variant-caps:normal;font-variant-numeric:normal;font-variant-alternates:normal;font-feature-settings:normal;text-indent:0;text-align:start;text-decoration:none;text-decoration-line:none;text-decoration-style:solid;text-decoration-color:#000000;letter-spacing:0px;word-spacing:0px;text-transform:none;writing-mode:lr-tb;direction:ltr;text-orientation:mixed;dominant-baseline:auto;baseline-shift:baseline;text-anchor:start;white-space:normal;shape-padding:0;opacity:1;vector-effect:none;fill:#ffffff;fill-opacity:1;stroke:none;stroke-width:0.26458335;stroke-linecap:butt;stroke-linejoin:miter;stroke-miterlimit:4;stroke-dasharray:none;stroke-dashoffset:0;stroke-opacity:1"
       id="text856">
      <path
         d="m 6.7247001,260.60058 h 0.79375 v -0.25823 H 7.2792668 v -1.33773 H 7.0358501 q -0.067733,0.0635 -0.1629833,0.0847 -0.09525,0.0191 -0.1841501,0.0212 v 0.22437 h 0.2730501 v 1.00753 H 6.7247001 Z"
         style="stroke-width:0.26458335"
         id="path878" />
      <path
         d="m 8.2925053,260.60058 0.4191,-1.5748 H 8.3729386 l -0.2667,1.06045 -0.254,-1.06045 h -0.33655 l 0.4169834,1.5748 z"
         style="stroke-width:0.26458335"
         id="path880" />
      <path
         d="m 8.8928282,260.62175 0.4910667,-1.61713 h -0.2794 l -0.4910667,1.61713 z"
         style="stroke-width:0.26458335"
         id="path882" />
      <path
         d="m 10.493756,260.40585 q 0.169333,-0.20955 0.169333,-0.59267 0,-0.16298 -0.03598,-0.30903 -0.03387,-0.14817 -0.1143,-0.25823 -0.07832,-0.11219 -0.205317,-0.17569 -0.124883,-0.0656 -0.3090329,-0.0656 -0.18415,0 -0.31115,0.0656 -0.1270001,0.0635 -0.2074334,0.17569 -0.078317,0.11006 -0.1143,0.25823 -0.033867,0.14605 -0.033867,0.30903 0,0.16299 0.033867,0.31115 0.035983,0.14605 0.1143,0.25824 0.080433,0.11006 0.2074334,0.17568 0.127,0.0635 0.31115,0.0635 0.3238499,0 0.4952999,-0.2159 z m -0.249767,-0.98213 q 0.08043,0.13123 0.08043,0.38946 0,0.25824 -0.08043,0.38947 -0.0762,0.127 -0.2455329,0.127 -0.17145,0 -0.24765,-0.127 -0.080433,-0.13123 -0.080433,-0.38947 0,-0.25823 0.080433,-0.38946 0.0762,-0.127 0.24765,-0.127 0.1693329,0 0.2455329,0.127 z"
         style="stroke-width:0.26458335"
         id="path884" />
      <path
         d="m 11.753107,260.51592 q 0.07408,-0.0529 0.129116,-0.13335 0.05715,-0.0804 0.103717,-0.20109 l -0.3175,-0.0826 q -0.02328,0.0508 -0.04868,0.0931 -0.0254,0.0423 -0.05715,0.0741 -0.03175,0.0296 -0.0762,0.0466 -0.04233,0.0169 -0.103717,0.0169 -0.156633,0 -0.224367,-0.12488 -0.07408,-0.12912 -0.07408,-0.381 0,-0.0466 0.0021,-0.10372 0.0042,-0.0572 0.01482,-0.1143 0.01058,-0.0593 0.02963,-0.1143 0.02117,-0.055 0.05292,-0.0974 0.03175,-0.0444 0.07832,-0.0698 0.04868,-0.0275 0.112183,-0.0275 0.110067,0 0.169334,0.0635 0.05927,0.0635 0.09313,0.16086 l 0.309033,-0.0741 q -0.04022,-0.13758 -0.09525,-0.22225 -0.05292,-0.0868 -0.127,-0.13123 -0.14605,-0.0889 -0.338666,-0.0889 -0.1778,0 -0.300567,0.0677 -0.122767,0.0677 -0.198967,0.18203 -0.07408,0.11219 -0.10795,0.25824 -0.03175,0.14605 -0.03175,0.30056 0,0.15664 0.03175,0.30269 0.03387,0.14393 0.10795,0.25823 0.07408,0.11218 0.19685,0.17992 0.122767,0.0677 0.300567,0.0677 0.224367,0 0.370417,-0.10583 z"
         style="stroke-width:0.26458335"
         id="path886" />
      <path
         d="m 12.754984,259.31577 h 0.40005 v -0.28999 h -1.134533 v 0.28999 h 0.397933 v 1.28481 h 0.33655 z"
         style="stroke-width:0.26458335"
         id="path888" />
    </g>
    <g
       aria-label="OUT"
       style="font-style:normal;font-variant:normal;font-weight:500;font-stretch:normal;font-size:2.11666679px;line-height:1.25;font-family:OldSansBlack;-inkscape-font-specification:'OldSansBlack, Medium';font-variant-ligatures:normal;font-variant-position:normal;font-variant-caps:normal;font-variant-numeric:normal;font-variant-alternates:normal;font-feature-settings:normal;text-indent:0;text-align:start;text-decoration:none;text-decoration-line:none;text-decoration-style:solid;text-decoration-color:#000000;letter-spacing:0px;word-spacing:0px;text-transform:none;writing-mode:lr-tb;direction:ltr;text-orientation:mixed;dominant-baseline:auto;baseline-shift:baseline;text-anchor:start;white-space:normal;shape-padding:0;opacity:1;vector-effect:none;fill:#ffffff;fill-opacity:1;stroke:none;stroke-width:0.26458335;stroke-linecap:butt;stroke-linejoin:miter;stroke-miterlimit:4;stroke-dasharray:none;stroke-dashoffset:0;stroke-opacity:1"
       id="text860">
      <path
         d="m 9.0544391,272.95141 q 0.1693334,-0.20955 0.1693334,-0.59266 0,-0.16299 -0.035983,-0.30904 -0.033867,-0.14816 -0.1143,-0.25823 -0.078317,-0.11218 -0.2053167,-0.17568 -0.1248833,-0.0656 -0.3090333,-0.0656 -0.18415,0 -0.31115,0.0656 -0.127,0.0635 -0.2074334,0.17568 -0.078317,0.11007 -0.1143,0.25823 -0.033867,0.14605 -0.033867,0.30904 0,0.16298 0.033867,0.31115 0.035983,0.14605 0.1143,0.25823 0.080433,0.11007 0.2074334,0.17568 0.127,0.0635 0.31115,0.0635 0.32385,0 0.4953,-0.2159 z m -0.2497667,-0.98213 q 0.080433,0.13123 0.080433,0.38947 0,0.25823 -0.080433,0.38946 -0.0762,0.127 -0.2455333,0.127 -0.17145,0 -0.24765,-0.127 -0.080433,-0.13123 -0.080433,-0.38946 0,-0.25824 0.080433,-0.38947 0.0762,-0.127 0.24765,-0.127 0.1693333,0 0.2455333,0.127 z"
         style="stroke-width:0.26458335"
         id="path891" />
      <path
         d="m 10.481006,273.00856 q 0.156634,-0.15875 0.156634,-0.45931 v -0.9779 h -0.33655 v 0.97366 q 0,0.18204 -0.06138,0.25612 -0.02963,0.036 -0.08255,0.055 -0.0508,0.019 -0.131233,0.019 -0.1502834,0 -0.2074334,-0.0762 -0.061383,-0.0741 -0.061383,-0.25823 v -0.96943 h -0.33655 v 0.99271 q 0,0.2921 0.15875,0.44874 0.1608667,0.15451 0.4508497,0.15451 0.294217,0 0.45085,-0.15875 z"
         style="stroke-width:0.26458335"
         id="path893" />
      <path
         d="m 11.551312,271.86133 h 0.40005 v -0.28998 h -1.134533 v 0.28998 h 0.397933 v 1.28482 h 0.33655 z"
         style="stroke-width:0.26458335"
         id="path895" />
    </g>
  </g>
</svg>
