<?xml version="1.0" encoding="UTF-8" standalone="no"?>
<!-- Created with Inkscape (http://www.inkscape.org/) -->

<svg
   xmlns:dc="http://purl.org/dc/elements/1.1/"
   xmlns:cc="http://creativecommons.org/ns#"
   xmlns:rdf="http://www.w3.org/1999/02/22-rdf-syntax-ns#"
   xmlns:svg="http://www.w3.org/2000/svg"
   xmlns="http://www.w3.org/2000/svg"
   xmlns:sodipodi="http://sodipodi.sourceforge.net/DTD/sodipodi-0.dtd"
   xmlns:inkscape="http://www.inkscape.org/namespaces/inkscape"
   width="135"
   height="380"
   viewBox="0 0 35.718753 100.54167"
   version="1.1"
   id="svg8"
   inkscape:version="0.92.3 (2405546, 2018-03-11)"
   sodipodi:docname="VibratoModule.svg">
  <sodipodi:namedview
     id="base"
     pagecolor="#ffffff"
     bordercolor="#666666"
     borderopacity="1.0"
     inkscape:pageopacity="0.0"
     inkscape:pageshadow="2"
     inkscape:zoom="2.95"
     inkscape:cx="-31.250035"
     inkscape:cy="271.35594"
     inkscape:document-units="px"
     inkscape:current-layer="layer1"
     showgrid="true"
     units="px"
     inkscape:snap-bbox="true"
     inkscape:snap-page="true"
     inkscape:bbox-nodes="false"
     inkscape:snap-bbox-edge-midpoints="true"
     inkscape:window-width="1920"
     inkscape:window-height="1017"
     inkscape:window-x="-8"
     inkscape:window-y="-8"
     inkscape:window-maximized="1"
     inkscape:snap-grids="false"
     inkscape:snap-to-guides="false"
     inkscape:snap-global="false"
     inkscape:pagecheckerboard="true"
     inkscape:snap-nodes="false"
     inkscape:snap-others="false"
     inkscape:snap-text-baseline="true">
    <inkscape:grid
       id="grid4367"
       type="xygrid" />
    <sodipodi:guide
       id="guide905"
       position="8.9297,0"
       orientation="100.5417,0"
       inkscape:locked="false" />
    <sodipodi:guide
       id="guide907"
       position="17.8594,0"
       orientation="100.5417,0"
       inkscape:locked="false" />
    <sodipodi:guide
       id="guide909"
       position="26.7891,0"
       orientation="100.5417,0"
       inkscape:locked="false" />
  </sodipodi:namedview>
  <title
     id="title4816">Autinn Vibrato</title>
  <defs
     id="defs2">
    <inkscape:path-effect
       is_visible="true"
       id="path-effect859"
       effect="spiro" />
    <inkscape:path-effect
       is_visible="true"
       id="path-effect4668"
       effect="spiro" />
    <inkscape:path-effect
       is_visible="true"
       id="path-effect2944"
       effect="spiro" />
  </defs>
  <metadata
     id="metadata5">
    <rdf:RDF>
      <cc:Work
         rdf:about="">
        <dc:format>image/svg+xml</dc:format>
        <dc:type
           rdf:resource="http://purl.org/dc/dcmitype/StillImage" />
        <dc:title>Autinn Vibrato</dc:title>
      </cc:Work>
    </rdf:RDF>
  </metadata>
  <g
     transform="translate(0,-196.45832)"
     id="layer1"
     inkscape:groupmode="layer"
     inkscape:label="Layer 1">
    <path
       inkscape:connector-curvature="0"
       id="rect817"
       d="M 0,196.45831 H 35.718752 V 296.99999 H 0 Z"
       style="opacity:1;vector-effect:none;fill:#202020;fill-opacity:1;fill-rule:evenodd;stroke:none;stroke-width:0.5953126;stroke-linecap:butt;stroke-linejoin:round;stroke-miterlimit:4;stroke-dasharray:none;stroke-dashoffset:0;stroke-opacity:1;paint-order:normal" />
    <path
       style="fill:none;stroke:#5e110a;stroke-width:4.26383734;stroke-linecap:butt;stroke-linejoin:miter;stroke-miterlimit:4;stroke-dasharray:none;stroke-opacity:1"
       d="m 23.579613,193.99039 c -3.568922,0.45327 -6.95371,2.23425 -9.348521,4.91894 -2.39481,2.68469 -3.779161,6.25011 -3.823469,9.84743 -0.03227,2.61972 0.621115,5.21181 1.592014,7.64519 0.9709,2.43338 2.255769,4.727 3.540561,7.01026 1.284792,2.28327 2.577162,4.57201 3.564485,6.99877 0.987322,2.42677 1.666639,5.01042 1.669783,7.63034 0.0032,2.65242 -0.686607,5.26821 -1.683671,7.7261 -0.997064,2.45789 -2.298708,4.77833 -3.577066,7.10237 -1.278358,2.32404 -2.541547,4.66907 -3.454397,7.15947 -0.912849,2.4904 -1.469405,5.14693 -1.28582,7.79299 0.166027,2.39301 0.928762,4.70397 1.809918,6.93503 0.881155,2.23106 1.888665,4.4178 2.580745,6.71455 1.667575,5.53405 1.405184,11.62966 -0.731777,16.99994"
       id="path857" />
    <g
       transform="matrix(0.714,0,0,0.714,9.3583087,82.69189)"
       id="text3739"
       style="font-style:normal;font-weight:normal;font-size:7.05555534px;line-height:1.25;font-family:sans-serif;letter-spacing:0px;word-spacing:0px;fill:#ffd700;fill-opacity:1;stroke:none;stroke-width:0.26458332"
       aria-label="Autinn">
      <path
         inkscape:connector-curvature="0"
         id="path4612"
         style="font-style:normal;font-variant:normal;font-weight:normal;font-stretch:normal;font-family:'Calligraph421 BT';-inkscape-font-specification:'Calligraph421 BT';fill:#ffd700;fill-opacity:1;stroke-width:0.26458332"
         d="m 5.0556776,289.41931 q -0.1756999,-0.37896 -0.3858507,-0.93706 -0.2101508,-0.55811 -0.4409722,-1.25057 -0.1171332,0.32728 -0.4375271,0.9095 -0.3169488,0.58223 -0.7820367,1.31948 0.106798,0.007 0.2239312,0.007 0.1205784,0 0.3617351,0 0.3927408,0 0.7544759,-0.0103 0.3651801,-0.0138 0.7062445,-0.0379 z m 0.1481391,0.35485 q -0.099908,0 -0.2480469,0.003 -0.144694,0.003 -0.1963704,0.003 -1.2057834,0 -1.6467556,0.13436 -0.4409722,0.13436 -0.7165798,0.50643 -0.3135037,0.4203 -0.6924642,1.01975 -0.3789605,0.596 -0.4719781,0.596 -0.041341,0 -0.065457,-0.0241 -0.027561,-0.0241 -0.027561,-0.0689 0,-0.0413 0.4478624,-0.75448 0.4478624,-0.71658 0.8371581,-1.38148 0.7544759,-1.30225 1.1368815,-2.09806 0.3858507,-0.79582 0.3858507,-1.05765 0,-0.0344 -0.010335,-0.0758 -0.010335,-0.0448 -0.010335,-0.0517 0,-0.0413 0.2342665,-0.1688 0.2377116,-0.12747 0.323839,-0.12747 0.037896,0 0.2308214,0.65801 0.1929253,0.65457 0.4616427,1.33325 0.757921,1.93615 1.0610894,2.43568 0.3066135,0.49954 0.6028917,0.49954 0.082682,0 0.1722548,-0.0448 0.089573,-0.0482 0.1033528,-0.0482 0.020671,0 0.048231,0.0379 0.031006,0.0379 0.031006,0.0689 0,0.0207 -0.1550293,0.11714 -0.1550292,0.0965 -0.2928331,0.19292 -0.1274685,0.0965 -0.2928331,0.24116 -0.1619195,0.14125 -0.2067057,0.14125 -0.075792,0 -0.2928331,-0.42375 -0.2135959,-0.42375 -0.7510308,-1.66398 z" />
      <path
         inkscape:connector-curvature="0"
         id="path4614"
         style="font-style:normal;font-variant:normal;font-weight:normal;font-stretch:normal;font-family:'Calligraph421 BT';-inkscape-font-specification:'Calligraph421 BT';fill:#ffd700;fill-opacity:1;stroke-width:0.26458332"
         d="m 9.6410995,291.31067 q -0.2446018,0.12058 -0.6097819,0.31006 -0.4306369,0.22738 -0.5167643,0.22738 -0.4960938,0 -0.7269151,-0.31695 -0.2273763,-0.31695 -0.2273763,-1.00941 0,-0.16881 0.01378,-0.55811 0.01378,-0.39274 0.01378,-0.61323 0,-0.0482 -0.01378,-0.14469 -0.01378,-0.0999 -0.01378,-0.15159 0,-0.0276 0.1205783,-0.0654 0.096463,-0.031 0.1619195,-0.0551 0.1515842,-0.0551 0.3066135,-0.12058 0.1584744,-0.0689 0.1722547,-0.0689 0.051677,0 0.082682,0.0241 0.031006,0.0207 0.031006,0.0586 0,0.0413 -0.075792,0.11713 -0.072347,0.0758 -0.106798,0.13781 -0.082682,0.14124 -0.1205783,0.37551 -0.034451,0.23427 -0.034451,0.70969 0,0.65801 0.1584744,0.92329 0.1619195,0.26182 0.5477702,0.26182 0.1412489,0 0.3651801,-0.0654 0.2273763,-0.0655 0.4892035,-0.18604 v -1.5124 q 0,-0.40307 -0.1619194,-0.48575 -0.031006,-0.0138 -0.031006,-0.0276 0,-0.11025 0.082682,-0.13092 0.024116,-0.003 0.044786,-0.0103 0.1515842,-0.0551 0.323839,-0.14125 0.1722546,-0.0861 0.1998156,-0.0861 0.04479,0 0.103352,0.0551 0.05857,0.0551 0.05857,0.093 0,0.003 -0.0069,0.031 -0.04823,0.17914 -0.06546,0.43752 -0.01378,0.23771 -0.02067,0.63045 -0.0069,0.3893 -0.0069,0.86472 0,0.36863 0.02412,0.70625 0.0034,0.0517 0.0034,0.062 0,0.0792 -0.2377112,0.20671 -0.2377116,0.13091 -0.2962782,0.13091 -0.02067,0 -0.031006,-0.031 -0.00689,-0.0276 -0.00689,-0.0965 v -0.10335 q 0,-0.0758 0,-0.17226 0.00345,-0.0965 0.00689,-0.21015 z" />
      <path
         inkscape:connector-curvature="0"
         id="path4616"
         style="font-style:normal;font-variant:normal;font-weight:normal;font-stretch:normal;font-family:'Calligraph421 BT';-inkscape-font-specification:'Calligraph421 BT';fill:#ffd700;fill-opacity:1;stroke-width:0.26458332"
         d="m 11.346421,291.48637 q 0.0034,-0.30661 0.0034,-0.60289 0.0034,-0.29628 0.0034,-0.65801 0,-0.21704 -0.0034,-0.46165 0,-0.2446 -0.0034,-0.51331 h -0.19637 q -0.04479,0 -0.05857,-0.0103 -0.01033,-0.0138 -0.01378,-0.0586 0.0034,-0.0723 0.06201,-0.11713 0.02067,-0.0172 0.02756,-0.0241 l 0.799263,-0.72002 q 0.05512,-0.0551 0.07924,-0.0689 0.02412,-0.0172 0.04823,-0.0172 0.02412,0 0.04479,0.0207 0.02067,0.0172 0.02067,0.0448 0,0.0103 -0.03445,0.0827 -0.120578,0.25494 -0.151584,0.50988 h 1.036973 q 0.04823,0 0.06546,0.0344 0.02067,0.0344 0.02067,0.12057 0,0.10336 -0.02412,0.13092 -0.02412,0.0241 -0.158474,0.0241 h -0.981852 q -0.02412,0.30317 -0.0379,0.58912 -0.01034,0.28249 -0.01034,0.53743 0,0.61323 0.16881,0.8785 0.172255,0.26527 0.558105,0.26527 0.199816,0 0.416857,-0.0861 0.217041,-0.0896 0.230821,-0.0896 0.01378,0 0.02412,0.0172 0.01033,0.0138 0.01033,0.031 v 0.0517 q 0,0.13436 -0.36518,0.2825 -0.36518,0.14814 -0.706244,0.14814 -0.268718,0 -0.499539,-0.0896 -0.230822,-0.0896 -0.375516,-0.25149 z" />
      <path
         inkscape:connector-curvature="0"
         id="path4618"
         style="font-style:normal;font-variant:normal;font-weight:normal;font-stretch:normal;font-family:'Calligraph421 BT';-inkscape-font-specification:'Calligraph421 BT';fill:#ffd700;fill-opacity:1;stroke-width:0.26458332"
         d="m 14.677829,289.9223 v 1.55718 q 0,0.0482 -0.0069,0.10335 0,0.0138 0,0.0172 0,0.0482 -0.02412,0.0792 -0.02067,0.0276 -0.07579,0.0482 -0.124023,0.0413 -0.261827,0.0861 -0.137804,0.0482 -0.141249,0.0482 -0.02756,0 -0.04134,-0.062 -0.01378,-0.062 -0.01378,-0.31351 v -1.69843 q 0,-0.3893 -0.05512,-0.48576 -0.05512,-0.0999 -0.199816,-0.0999 -0.0379,0 -0.09991,0.0207 -0.05857,0.0207 -0.07579,0.0207 -0.0379,0 -0.06201,-0.0345 -0.02412,-0.0344 -0.02412,-0.093 0.0034,-0.0517 0.203261,-0.10336 0.141249,-0.0344 0.234266,-0.0654 0.16881,-0.0551 0.354845,-0.12747 0.186035,-0.0758 0.210151,-0.0758 0.03445,0 0.07235,0.0344 0.04134,0.0344 0.04134,0.0689 0,0.0138 -0.0034,0.0827 -0.03101,0.47887 -0.03101,0.99219 z m -0.347954,-3.00068 q 0.158474,0 0.268717,0.11369 0.113688,0.11369 0.113688,0.26872 0,0.15847 -0.110243,0.26527 -0.110243,0.1068 -0.272162,0.1068 -0.15503,0 -0.265273,-0.1068 -0.106798,-0.11024 -0.106798,-0.26527 0,-0.15848 0.106798,-0.26872 0.110243,-0.11369 0.265273,-0.11369 z" />
      <path
         inkscape:connector-curvature="0"
         id="path4620"
         style="font-style:normal;font-variant:normal;font-weight:normal;font-stretch:normal;font-family:'Calligraph421 BT';-inkscape-font-specification:'Calligraph421 BT';fill:#ffd700;fill-opacity:1;stroke-width:0.26458332"
         d="m 16.014526,291.70686 v -1.5813 q 0,-0.48576 -0.106798,-0.7028 -0.103353,-0.22049 -0.33073,-0.22049 -0.03101,0 -0.07924,0.0103 -0.04479,0.0103 -0.06201,0.0103 -0.03445,0 -0.05512,-0.0276 -0.01722,-0.0276 -0.01722,-0.0792 0,-0.0344 0.130913,-0.0792 0.09646,-0.031 0.151584,-0.0551 0.210151,-0.0861 0.389296,-0.20671 0.04823,-0.031 0.05512,-0.031 0.07235,0 0.20326,0.14814 0.130914,0.14469 0.199816,0.3445 0.347954,-0.2067 0.689019,-0.32383 0.341064,-0.12058 0.575331,-0.12058 0.389296,0 0.56155,0.29628 0.172255,0.29283 0.172255,0.98874 0,0.32039 -0.02067,0.70624 -0.01723,0.38585 -0.01723,0.44097 0,0.0861 0.03101,0.11714 0.03101,0.031 0.110243,0.031 0.04134,0 0.120578,-0.031 0.08268,-0.031 0.120579,-0.031 0.02756,0 0.04479,0.031 0.01722,0.031 0.01722,0.0827 0,0.0724 -0.19637,0.12402 -0.165365,0.0448 -0.282498,0.0861 -0.16881,0.0655 -0.341064,0.15159 -0.16881,0.0896 -0.189481,0.0896 -0.03445,0 -0.05857,-0.0241 -0.02412,-0.0207 -0.02412,-0.0551 0,-0.007 0.01378,-0.0517 0.148139,-0.50987 0.148139,-1.25401 0,-0.68557 -0.18259,-1.00252 -0.18259,-0.31695 -0.571886,-0.31695 -0.1757,0 -0.3514,0.0827 -0.172255,0.0827 -0.327284,0.23771 0,0.0482 0.0034,0.20326 0.0034,0.15159 0.0034,0.25494 0,0.5271 -0.0069,0.97841 -0.0069,0.44786 -0.02067,0.75792 l -0.403076,0.14125 q -0.0034,0 -0.01378,0.003 -0.01033,0.003 -0.02756,0.003 -0.03101,0 -0.04479,-0.0276 -0.01034,-0.0276 -0.01034,-0.0999 z" />
      <path
         inkscape:connector-curvature="0"
         id="path4622"
         style="font-style:normal;font-variant:normal;font-weight:normal;font-stretch:normal;font-family:'Calligraph421 BT';-inkscape-font-specification:'Calligraph421 BT';fill:#ffd700;fill-opacity:1;stroke-width:0.26458332"
         d="m 19.790351,291.70686 v -1.5813 q 0,-0.48576 -0.106798,-0.7028 -0.103353,-0.22049 -0.330729,-0.22049 -0.03101,0 -0.07924,0.0103 -0.04479,0.0103 -0.06201,0.0103 -0.03445,0 -0.05512,-0.0276 -0.01723,-0.0276 -0.01723,-0.0792 0,-0.0344 0.130914,-0.0792 0.09646,-0.031 0.151584,-0.0551 0.210151,-0.0861 0.389296,-0.20671 0.04823,-0.031 0.05512,-0.031 0.07235,0 0.203261,0.14814 0.130913,0.14469 0.199815,0.3445 0.347955,-0.2067 0.689019,-0.32383 0.341065,-0.12058 0.575331,-0.12058 0.389296,0 0.561551,0.29628 0.172255,0.29283 0.172255,0.98874 0,0.32039 -0.02067,0.70624 -0.01722,0.38585 -0.01722,0.44097 0,0.0861 0.03101,0.11714 0.03101,0.031 0.110244,0.031 0.04134,0 0.120578,-0.031 0.08268,-0.031 0.120578,-0.031 0.02756,0 0.04479,0.031 0.01723,0.031 0.01723,0.0827 0,0.0724 -0.196371,0.12402 -0.165364,0.0448 -0.282497,0.0861 -0.16881,0.0655 -0.341065,0.15159 -0.168809,0.0896 -0.18948,0.0896 -0.03445,0 -0.05857,-0.0241 -0.02412,-0.0207 -0.02412,-0.0551 0,-0.007 0.01378,-0.0517 0.148139,-0.50987 0.148139,-1.25401 0,-0.68557 -0.18259,-1.00252 -0.18259,-0.31695 -0.571886,-0.31695 -0.1757,0 -0.351399,0.0827 -0.172255,0.0827 -0.327285,0.23771 0,0.0482 0.0034,0.20326 0.0034,0.15159 0.0034,0.25494 0,0.5271 -0.0069,0.97841 -0.0069,0.44786 -0.02067,0.75792 l -0.403076,0.14125 q -0.0034,0 -0.01378,0.003 -0.01033,0.003 -0.02756,0.003 -0.03101,0 -0.04479,-0.0276 -0.01033,-0.0276 -0.01033,-0.0999 z" />
    </g>
    <g
       style="font-style:normal;font-weight:normal;font-size:3.52777767px;line-height:1.25;font-family:sans-serif;letter-spacing:0px;word-spacing:0px;fill:#000000;fill-opacity:1;stroke:none;stroke-width:0.26458332"
       id="text4707" />
    <g
       style="font-style:normal;font-weight:normal;font-size:13.33333302px;line-height:1.25;font-family:sans-serif;letter-spacing:0px;word-spacing:0px;fill:#000000;fill-opacity:1;stroke:none"
       id="flowRoot4709" />
    <g
       aria-label="VIBRATO"
       style="font-style:normal;font-variant:normal;font-weight:500;font-stretch:normal;font-size:2.11666679px;line-height:1.25;font-family:OldSansBlack;-inkscape-font-specification:'OldSansBlack, Medium';font-variant-ligatures:normal;font-variant-position:normal;font-variant-caps:normal;font-variant-numeric:normal;font-variant-alternates:normal;font-feature-settings:normal;text-indent:0;text-align:start;text-decoration:none;text-decoration-line:none;text-decoration-style:solid;text-decoration-color:#000000;letter-spacing:0px;word-spacing:0px;text-transform:none;writing-mode:lr-tb;direction:ltr;text-orientation:mixed;dominant-baseline:auto;baseline-shift:baseline;text-anchor:start;white-space:normal;shape-padding:0;opacity:1;vector-effect:none;fill:#ffffff;fill-opacity:1;stroke:none;stroke-width:0.26458335;stroke-linecap:butt;stroke-linejoin:miter;stroke-miterlimit:4;stroke-dasharray:none;stroke-dashoffset:0;stroke-opacity:1"
       id="text873">
      <path
         d="m 9.9493595,206.96999 0.9779005,-3.67453 h -0.790223 l -0.6222997,2.47438 -0.5926667,-2.47438 H 8.1367872 l 0.9729612,3.67453 z"
         style="font-size:4.93888903px;stroke-width:0.26458335"
         id="path1663" />
      <path
         d="m 11.330474,206.96999 h 0.790222 v -3.67453 h -0.790222 z"
         style="font-size:4.93888903px;stroke-width:0.26458335"
         id="path1665" />
      <path
         d="m 15.029894,206.71811 q 0.360539,-0.25188 0.360539,-0.79516 0,-0.32103 -0.118533,-0.54328 -0.113595,-0.20743 -0.424745,-0.34572 0.227189,-0.1136 0.345722,-0.31609 0.118534,-0.2025 0.118534,-0.45438 0,-0.28152 -0.108656,-0.46919 -0.103716,-0.18768 -0.281516,-0.29634 -0.1778,-0.11359 -0.409928,-0.15804 -0.227189,-0.0445 -0.469195,-0.0445 h -1.373011 v 3.67453 h 1.338439 q 0.676628,0 1.02235,-0.25188 z m -0.6223,-2.65712 q 0.113595,0.0988 0.113595,0.29633 0,0.0938 -0.03951,0.16298 -0.03457,0.0642 -0.09384,0.10866 -0.05927,0.0444 -0.138289,0.0691 -0.07902,0.0198 -0.162984,0.0198 h -0.627239 v -0.76059 h 0.607484 q 0.227189,0 0.340783,0.10372 z m 0.06915,1.42734 q 0.123472,0.10865 0.123472,0.34572 0,0.26176 -0.128411,0.37041 -0.128411,0.10372 -0.380295,0.10372 h -0.632178 v -0.92851 h 0.6223 q 0.261762,0 0.395112,0.10866 z"
         style="font-size:4.93888903px;stroke-width:0.26458335"
         id="path1667" />
      <path
         d="m 17.933691,206.96999 h 0.879122 l -0.8001,-1.61501 q 0.306211,-0.10866 0.469195,-0.34573 0.167922,-0.242 0.167922,-0.56797 0,-0.28152 -0.0889,-0.49389 -0.08396,-0.21731 -0.242006,-0.36054 -0.153105,-0.14322 -0.375355,-0.21731 -0.22225,-0.0741 -0.493889,-0.0741 h -1.476728 v 3.67453 h 0.785283 v -1.45203 h 0.503767 z m -0.212372,-2.89913 q 0.0642,0.0543 0.09878,0.14323 0.03457,0.0889 0.03457,0.21731 0,0.14323 -0.05433,0.22719 -0.05433,0.084 -0.143228,0.12841 -0.0889,0.0444 -0.202494,0.0593 -0.113595,0.01 -0.227189,0.01 h -0.469195 v -0.89888 h 0.548217 q 0.286456,0 0.414867,0.11359 z"
         style="font-size:4.93888903px;stroke-width:0.26458335"
         id="path1669" />
      <path
         d="m 21.173447,206.96999 h 0.795162 l -1.047045,-3.67947 h -0.928511 l -1.061861,3.67947 h 0.790222 l 0.212372,-0.77046 h 1.042106 z m -0.706261,-2.74602 0.335845,1.30387 h -0.691445 z"
         style="font-size:4.93888903px;stroke-width:0.26458335"
         id="path1671" />
      <path
         d="m 23.390739,203.97209 h 0.93345 v -0.67663 h -2.647244 v 0.67663 h 0.928511 v 2.9979 h 0.785283 z"
         style="font-size:4.93888903px;stroke-width:0.26458335"
         id="path1673" />
      <path
         d="m 27.186853,206.51561 q 0.395111,-0.48895 0.395111,-1.38288 0,-0.3803 -0.08396,-0.72108 -0.07902,-0.34572 -0.2667,-0.60255 -0.182739,-0.26176 -0.479072,-0.40992 -0.291395,-0.15311 -0.721078,-0.15311 -0.429683,0 -0.726017,0.15311 -0.296333,0.14816 -0.484011,0.40992 -0.182739,0.25683 -0.2667,0.60255 -0.07902,0.34078 -0.07902,0.72108 0,0.38029 0.07902,0.72601 0.08396,0.34079 0.2667,0.60255 0.187678,0.25682 0.484011,0.40992 0.296334,0.14817 0.726017,0.14817 0.75565,0 1.1557,-0.50377 z m -0.582789,-2.29164 q 0.187678,0.30621 0.187678,0.90876 0,0.60254 -0.187678,0.90875 -0.1778,0.29633 -0.572911,0.29633 -0.40005,0 -0.57785,-0.29633 -0.187678,-0.30621 -0.187678,-0.90875 0,-0.60255 0.187678,-0.90876 0.1778,-0.29633 0.57785,-0.29633 0.395111,0 0.572911,0.29633 z"
         style="font-size:4.93888903px;stroke-width:0.26458335"
         id="path1675" />
    </g>
    <g
       aria-label="FREQ"
       style="font-style:normal;font-variant:normal;font-weight:500;font-stretch:normal;font-size:2.11666679px;line-height:1.25;font-family:OldSansBlack;-inkscape-font-specification:'OldSansBlack, Medium';font-variant-ligatures:normal;font-variant-position:normal;font-variant-caps:normal;font-variant-numeric:normal;font-variant-alternates:normal;font-feature-settings:normal;text-indent:0;text-align:start;text-decoration:none;text-decoration-line:none;text-decoration-style:solid;text-decoration-color:#000000;letter-spacing:0px;word-spacing:0px;text-transform:none;writing-mode:lr-tb;direction:ltr;text-orientation:mixed;dominant-baseline:auto;baseline-shift:baseline;text-anchor:start;white-space:normal;shape-padding:0;opacity:1;vector-effect:none;fill:#ffffff;fill-opacity:1;stroke:none;stroke-width:0.26458335;stroke-linecap:butt;stroke-linejoin:miter;stroke-miterlimit:4;stroke-dasharray:none;stroke-dashoffset:0;stroke-opacity:1"
       id="text877">
      <path
         d="m 3.435975,212.66035 h 0.7976306 v -0.34078 H 3.0433334 v 1.83726 H 3.435975 v -0.78775 l 0.5976056,-0.002 -0.00247,-0.33584 H 3.435975 Z"
         style="font-size:2.46944451px;stroke-width:0.26458335"
         id="path1678" />
      <path
         d="m 5.398296,214.15683 h 0.4395611 l -0.40005,-0.80751 q 0.1531055,-0.0543 0.2345972,-0.17286 0.083961,-0.121 0.083961,-0.28398 0,-0.14076 -0.04445,-0.24695 -0.04198,-0.10865 -0.1210028,-0.18027 -0.076553,-0.0716 -0.1876777,-0.10865 -0.111125,-0.037 -0.2469445,-0.037 H 4.4179265 v 1.83726 h 0.3926417 v -0.72601 h 0.2518833 z m -0.1061861,-1.44956 q 0.032103,0.0272 0.049389,0.0716 0.017286,0.0445 0.017286,0.10866 0,0.0716 -0.027164,0.11359 -0.027164,0.042 -0.071614,0.0642 -0.04445,0.0222 -0.1012473,0.0296 -0.056797,0.005 -0.1135944,0.005 H 4.8105682 v -0.44944 h 0.2741083 q 0.1432278,0 0.2074334,0.0568 z"
         style="font-size:2.46944451px;stroke-width:0.26458335"
         id="path1680" />
      <path
         d="m 6.0822551,214.15683 h 1.2618861 v -0.34078 H 6.4748968 v -0.44697 l 0.6124222,-0.002 v -0.33584 H 6.4748968 v -0.37042 h 0.8396111 v -0.34078 H 6.0822551 Z"
         style="font-size:2.46944451px;stroke-width:0.26458335"
         id="path1682" />
      <path
         d="m 8.6438792,214.13955 q 0.064205,0.079 0.1629833,0.11359 0.1012472,0.037 0.2494139,0.037 v -0.33831 q -0.086431,-0.007 -0.1358195,-0.0222 -0.049389,-0.0148 -0.076553,-0.037 0.1679222,-0.242 0.1679222,-0.6544 0,-0.19015 -0.041981,-0.36054 -0.039511,-0.17286 -0.13335,-0.30127 -0.091369,-0.13088 -0.2395361,-0.20497 -0.1456972,-0.0765 -0.3605389,-0.0765 -0.2148417,0 -0.3630083,0.0765 -0.1481667,0.0741 -0.2420056,0.20497 -0.091369,0.12841 -0.13335,0.30127 -0.039511,0.17039 -0.039511,0.36054 0,0.19015 0.039511,0.36301 0.041981,0.17039 0.13335,0.30127 0.093839,0.12841 0.2420056,0.20496 0.1481666,0.0741 0.3630083,0.0741 0.2370667,0 0.3753556,-0.0815 0.012347,0.0148 0.032103,0.0395 z m -0.054328,-0.6223 q -0.064206,-0.0864 -0.1580445,-0.13582 -0.091369,-0.0494 -0.2247194,-0.0617 v 0.3556 q 0.069144,0.0123 0.1160639,0.0445 0.049389,0.0321 0.086431,0.084 -0.056797,0.037 -0.1728611,0.037 -0.200025,0 -0.288925,-0.14816 -0.093839,-0.15311 -0.093839,-0.45438 0,-0.30127 0.093839,-0.45438 0.0889,-0.14816 0.288925,-0.14816 0.1975556,0 0.2864556,0.14816 0.093839,0.15311 0.093839,0.45438 0,0.17039 -0.027164,0.27905 z"
         style="font-size:2.46944451px;stroke-width:0.26458335"
         id="path1684" />
    </g>
    <g
       aria-label="WIDTH"
       style="font-style:normal;font-variant:normal;font-weight:500;font-stretch:normal;font-size:2.11666679px;line-height:1.25;font-family:OldSansBlack;-inkscape-font-specification:'OldSansBlack, Medium';font-variant-ligatures:normal;font-variant-position:normal;font-variant-caps:normal;font-variant-numeric:normal;font-variant-alternates:normal;font-feature-settings:normal;text-indent:0;text-align:start;text-decoration:none;text-decoration-line:none;text-decoration-style:solid;text-decoration-color:#000000;letter-spacing:0px;word-spacing:0px;text-transform:none;writing-mode:lr-tb;direction:ltr;text-orientation:mixed;dominant-baseline:auto;baseline-shift:baseline;text-anchor:start;white-space:normal;shape-padding:0;opacity:1;vector-effect:none;fill:#ffffff;fill-opacity:1;stroke:none;stroke-width:0.26458335;stroke-linecap:butt;stroke-linejoin:miter;stroke-miterlimit:4;stroke-dasharray:none;stroke-dashoffset:0;stroke-opacity:1"
       id="text881">
      <path
         d="m 15.808984,214.18306 0.380295,-1.83726 h -0.372886 l -0.22472,1.10384 -0.214841,-1.10384 H 14.98172 l -0.232127,1.10384 -0.207434,-1.10384 h -0.375355 l 0.385233,1.83726 h 0.390172 l 0.237067,-1.17051 0.239536,1.17051 z"
         style="font-size:2.46944451px;stroke-width:0.26458335"
         id="path1687" />
      <path
         d="m 16.423837,214.18306 h 0.395111 v -1.83726 h -0.395111 z"
         style="font-size:2.46944451px;stroke-width:0.26458335"
         id="path1689" />
      <path
         d="m 18.325406,213.94353 q 0.111125,-0.11854 0.162983,-0.28646 0.05186,-0.17039 0.05186,-0.39017 0,-0.2099 -0.04939,-0.37783 -0.04939,-0.17039 -0.153106,-0.29139 -0.103716,-0.121 -0.26423,-0.18521 -0.158045,-0.0667 -0.377825,-0.0667 h -0.602545 v 1.83726 h 0.607484 q 0.409927,0 0.624769,-0.23953 z m -0.293864,-1.11372 q 0.05433,0.0716 0.08149,0.18027 0.02963,0.10618 0.02963,0.25188 0,0.11853 -0.01975,0.22472 -0.01976,0.10372 -0.07161,0.18521 -0.04939,0.079 -0.138289,0.12594 -0.08643,0.0444 -0.22225,0.0444 h -0.202495 v -1.1557 h 0.207434 q 0.227189,0 0.335844,0.14323 z"
         style="font-size:2.46944451px;stroke-width:0.26458335"
         id="path1691" />
      <path
         d="m 19.461215,212.68411 h 0.466725 v -0.33831 h -1.323622 v 0.33831 h 0.464256 v 1.49895 h 0.392641 z"
         style="font-size:2.46944451px;stroke-width:0.26458335"
         id="path1693" />
      <path
         d="m 21.154367,214.18306 h 0.397581 v -1.83726 h -0.397581 v 0.70873 h -0.6223 v -0.70873 h -0.397581 v 1.83726 h 0.397581 v -0.76552 h 0.6223 z"
         style="font-size:2.46944451px;stroke-width:0.26458335"
         id="path1695" />
    </g>
    <g
       aria-label="FLANGE"
       style="font-style:normal;font-variant:normal;font-weight:500;font-stretch:normal;font-size:2.11666679px;line-height:1.25;font-family:OldSansBlack;-inkscape-font-specification:'OldSansBlack, Medium';font-variant-ligatures:normal;font-variant-position:normal;font-variant-caps:normal;font-variant-numeric:normal;font-variant-alternates:normal;font-feature-settings:normal;text-indent:0;text-align:start;text-decoration:none;text-decoration-line:none;text-decoration-style:solid;text-decoration-color:#000000;letter-spacing:0px;word-spacing:0px;text-transform:none;writing-mode:lr-tb;direction:ltr;text-orientation:mixed;dominant-baseline:auto;baseline-shift:baseline;text-anchor:start;white-space:normal;shape-padding:0;opacity:1;vector-effect:none;fill:#ffffff;fill-opacity:1;stroke:none;stroke-width:0.26458335;stroke-linecap:butt;stroke-linejoin:miter;stroke-miterlimit:4;stroke-dasharray:none;stroke-dashoffset:0;stroke-opacity:1"
       id="text885">
      <path
         d="m 25.697745,212.69755 h 0.79763 v -0.34078 h -1.190272 v 1.83726 h 0.392642 v -0.78775 l 0.597605,-0.002 -0.0025,-0.33584 h -0.595136 z"
         style="font-size:2.46944451px;stroke-width:0.26458335"
         id="path1698" />
      <path
         d="m 26.679696,214.19403 h 1.168048 v -0.34078 h -0.775406 v -1.49648 h -0.392642 z"
         style="font-size:2.46944451px;stroke-width:0.26458335"
         id="path1700" />
      <path
         d="m 29.005026,214.19403 h 0.39758 l -0.523522,-1.83973 h -0.464256 l -0.53093,1.83973 h 0.395111 l 0.106186,-0.38523 h 0.521053 z m -0.353131,-1.37301 0.167922,0.65194 h -0.345722 z"
         style="font-size:2.46944451px;stroke-width:0.26458335"
         id="path1702" />
      <path
         d="m 30.640608,214.19403 h 0.367947 v -1.83726 H 30.6332 v 1.15076 l -0.664281,-1.15076 h -0.39758 v 1.83726 h 0.375355 v -1.20508 z"
         style="font-size:2.46944451px;stroke-width:0.26458335"
         id="path1704" />
      <path
         d="m 32.402942,214.19403 h 0.303742 v -0.95567 h -0.723547 v 0.34078 h 0.338314 q -0.01235,0.12101 -0.09384,0.2025 -0.09384,0.0963 -0.246945,0.0963 -0.111125,0 -0.182739,-0.0593 -0.06914,-0.0593 -0.108655,-0.14817 -0.03704,-0.0889 -0.05186,-0.19015 -0.01235,-0.10371 -0.01235,-0.18767 0,-0.0815 0.0099,-0.18768 0.01235,-0.10866 0.04939,-0.20496 0.03704,-0.0963 0.103717,-0.16052 0.06914,-0.0667 0.182739,-0.0667 0.143227,0 0.214841,0.0667 0.07408,0.0642 0.130881,0.19015 l 0.365478,-0.0963 q -0.04939,-0.14817 -0.116064,-0.24201 -0.06667,-0.0938 -0.158045,-0.15063 -0.180269,-0.10866 -0.387703,-0.10866 -0.21978,0 -0.372886,0.0815 -0.150636,0.079 -0.244475,0.21485 -0.09137,0.13335 -0.13335,0.31115 -0.03951,0.17533 -0.03951,0.37041 0,0.1778 0.03951,0.34326 0.04198,0.16298 0.130881,0.28892 0.0889,0.12594 0.229658,0.2025 0.140759,0.0741 0.340784,0.0741 0.13335,0 0.234597,-0.037 0.101247,-0.037 0.197555,-0.13088 z"
         style="font-size:2.46944451px;stroke-width:0.26458335"
         id="path1706" />
      <path
         d="m 33.012819,214.19403 h 1.261886 v -0.34078 H 33.40546 v -0.44697 l 0.612422,-0.002 v -0.33584 H 33.40546 v -0.37042 h 0.839611 v -0.34078 h -1.232252 z"
         style="font-size:2.46944451px;stroke-width:0.26458335"
         id="path1708" />
    </g>
    <g
       aria-label="CV"
       style="font-style:normal;font-variant:normal;font-weight:500;font-stretch:normal;font-size:2.11666679px;line-height:1.25;font-family:OldSansBlack;-inkscape-font-specification:'OldSansBlack, Medium';font-variant-ligatures:normal;font-variant-position:normal;font-variant-caps:normal;font-variant-numeric:normal;font-variant-alternates:normal;font-feature-settings:normal;text-indent:0;text-align:start;text-decoration:none;text-decoration-line:none;text-decoration-style:solid;text-decoration-color:#000000;letter-spacing:0px;word-spacing:0px;text-transform:none;writing-mode:lr-tb;direction:ltr;text-orientation:mixed;dominant-baseline:auto;baseline-shift:baseline;text-anchor:start;white-space:normal;shape-padding:0;opacity:1;vector-effect:none;fill:#ffffff;fill-opacity:1;stroke:none;stroke-width:0.26458335;stroke-linecap:butt;stroke-linejoin:miter;stroke-miterlimit:4;stroke-dasharray:none;stroke-dashoffset:0;stroke-opacity:1"
       id="text889">
      <path
         d="m 17.610791,232.59349 q 0.08643,-0.0617 0.150636,-0.15558 0.06668,-0.0938 0.121003,-0.2346 l -0.370416,-0.0963 q -0.02716,0.0593 -0.0568,0.10865 -0.02963,0.0494 -0.06668,0.0864 -0.03704,0.0346 -0.0889,0.0543 -0.04939,0.0198 -0.121002,0.0198 -0.182739,0 -0.261762,-0.1457 -0.08643,-0.15064 -0.08643,-0.4445 0,-0.0543 0.0025,-0.121 0.0049,-0.0667 0.01729,-0.13335 0.01235,-0.0692 0.03457,-0.13335 0.02469,-0.0642 0.06174,-0.1136 0.03704,-0.0519 0.09137,-0.0815 0.0568,-0.0321 0.130881,-0.0321 0.128411,0 0.197555,0.0741 0.06914,0.0741 0.108656,0.18768 l 0.360539,-0.0864 q -0.04692,-0.16052 -0.111125,-0.25929 -0.06174,-0.10125 -0.148167,-0.15311 -0.170392,-0.10372 -0.395111,-0.10372 -0.207433,0 -0.350661,0.079 -0.143228,0.079 -0.232128,0.21237 -0.08643,0.13088 -0.125942,0.30127 -0.03704,0.17039 -0.03704,0.35066 0,0.18274 0.03704,0.35313 0.03951,0.16792 0.125942,0.30127 0.08643,0.13088 0.229658,0.20991 0.143228,0.079 0.350662,0.079 0.261761,0 0.432152,-0.12347 z"
         style="font-size:2.46944451px;stroke-width:0.26458335"
         id="path1711" />
      <path
         d="m 18.794466,232.69226 0.48895,-1.83726 h -0.395112 l -0.31115,1.23719 -0.296333,-1.23719 h -0.392642 l 0.486481,1.83726 z"
         style="font-size:2.46944451px;stroke-width:0.26458335"
         id="path1713" />
    </g>
    <g
       aria-label="IN"
       style="font-style:normal;font-variant:normal;font-weight:500;font-stretch:normal;font-size:2.11666679px;line-height:1.25;font-family:OldSansBlack;-inkscape-font-specification:'OldSansBlack, Medium';font-variant-ligatures:normal;font-variant-position:normal;font-variant-caps:normal;font-variant-numeric:normal;font-variant-alternates:normal;font-feature-settings:normal;text-indent:0;text-align:start;text-decoration:none;text-decoration-line:none;text-decoration-style:solid;text-decoration-color:#000000;letter-spacing:0px;word-spacing:0px;text-transform:none;writing-mode:lr-tb;direction:ltr;text-orientation:mixed;dominant-baseline:auto;baseline-shift:baseline;text-anchor:start;white-space:normal;shape-padding:0;opacity:1;vector-effect:none;fill:#ffffff;fill-opacity:1;stroke:none;stroke-width:0.26458335;stroke-linecap:butt;stroke-linejoin:miter;stroke-miterlimit:4;stroke-dasharray:none;stroke-dashoffset:0;stroke-opacity:1"
       id="text893">
      <path
         d="m 5.092253,273.23038 h 0.3386667 v -1.5748 H 5.092253 Z"
         style="stroke-width:0.26458335"
         id="path1716" />
      <path
         d="m 6.582618,273.23038 h 0.3153833 v -1.5748 H 6.576268 v 0.98636 L 6.0068846,271.65558 H 5.6661012 v 1.5748 h 0.3217334 v -1.03294 z"
         style="stroke-width:0.26458335"
         id="path1718" />
    </g>
    <g
       aria-label="OUT"
       style="font-style:normal;font-variant:normal;font-weight:500;font-stretch:normal;font-size:2.11666679px;line-height:1.25;font-family:OldSansBlack;-inkscape-font-specification:'OldSansBlack, Medium';font-variant-ligatures:normal;font-variant-position:normal;font-variant-caps:normal;font-variant-numeric:normal;font-variant-alternates:normal;font-feature-settings:normal;text-indent:0;text-align:start;text-decoration:none;text-decoration-line:none;text-decoration-style:solid;text-decoration-color:#000000;letter-spacing:0px;word-spacing:0px;text-transform:none;writing-mode:lr-tb;direction:ltr;text-orientation:mixed;dominant-baseline:auto;baseline-shift:baseline;text-anchor:start;white-space:normal;shape-padding:0;opacity:1;vector-effect:none;fill:#ffffff;fill-opacity:1;stroke:none;stroke-width:0.26458335;stroke-linecap:butt;stroke-linejoin:miter;stroke-miterlimit:4;stroke-dasharray:none;stroke-dashoffset:0;stroke-opacity:1"
       id="text897">
      <path
         d="m 28.686384,272.94809 q 0.169334,-0.20955 0.169334,-0.59267 0,-0.16298 -0.03598,-0.30903 -0.03387,-0.14817 -0.1143,-0.25824 -0.07832,-0.11218 -0.205316,-0.17568 -0.124884,-0.0656 -0.309034,-0.0656 -0.18415,0 -0.31115,0.0656 -0.127,0.0635 -0.207433,0.17568 -0.07832,0.11007 -0.1143,0.25824 -0.03387,0.14605 -0.03387,0.30903 0,0.16298 0.03387,0.31115 0.03598,0.14605 0.1143,0.25823 0.08043,0.11007 0.207433,0.17569 0.127,0.0635 0.31115,0.0635 0.32385,0 0.4953,-0.2159 z m -0.249766,-0.98214 q 0.08043,0.13124 0.08043,0.38947 0,0.25823 -0.08043,0.38947 -0.0762,0.127 -0.245534,0.127 -0.17145,0 -0.24765,-0.127 -0.08043,-0.13124 -0.08043,-0.38947 0,-0.25823 0.08043,-0.38947 0.0762,-0.127 0.24765,-0.127 0.169334,0 0.245534,0.127 z"
         style="stroke-width:0.26458335"
         id="path1721" />
      <path
         d="m 30.112951,273.00524 q 0.156634,-0.15875 0.156634,-0.45932 v -0.9779 h -0.33655 v 0.97367 q 0,0.18203 -0.06138,0.25611 -0.02963,0.036 -0.08255,0.055 -0.0508,0.019 -0.131233,0.019 -0.150283,0 -0.207433,-0.0762 -0.06138,-0.0741 -0.06138,-0.25824 v -0.96943 h -0.33655 v 0.99272 q 0,0.2921 0.15875,0.44873 0.160867,0.15452 0.45085,0.15452 0.294217,0 0.45085,-0.15875 z"
         style="stroke-width:0.26458335"
         id="path1723" />
      <path
         d="m 31.183257,271.858 h 0.40005 v -0.28998 h -1.134533 v 0.28998 h 0.397933 v 1.28482 h 0.33655 z"
         style="stroke-width:0.26458335"
         id="path1725" />
    </g>
  </g>
</svg>
