<?xml version="1.0" encoding="UTF-8" standalone="no"?>
<!-- Created with Inkscape (http://www.inkscape.org/) -->

<svg
   xmlns:dc="http://purl.org/dc/elements/1.1/"
   xmlns:cc="http://creativecommons.org/ns#"
   xmlns:rdf="http://www.w3.org/1999/02/22-rdf-syntax-ns#"
   xmlns:svg="http://www.w3.org/2000/svg"
   xmlns="http://www.w3.org/2000/svg"
   xmlns:sodipodi="http://sodipodi.sourceforge.net/DTD/sodipodi-0.dtd"
   xmlns:inkscape="http://www.inkscape.org/namespaces/inkscape"
   width="45"
   height="380"
   viewBox="0 0 11.906251 100.54167"
   version="1.1"
   id="svg8"
   inkscape:version="0.92.3 (2405546, 2018-03-11)"
   sodipodi:docname="VxyModule.svg">
  <title
     id="title4816">Autinn Vector</title>
  <defs
     id="defs2">
    <inkscape:path-effect
       effect="spiro"
       id="path-effect1529"
       is_visible="true" />
    <inkscape:path-effect
       effect="spiro"
       id="path-effect4668"
       is_visible="true" />
    <inkscape:path-effect
       effect="spiro"
       id="path-effect2944"
       is_visible="true" />
  </defs>
  <sodipodi:namedview
     id="base"
     pagecolor="#ffffff"
     bordercolor="#666666"
     borderopacity="1.0"
     inkscape:pageopacity="0.0"
     inkscape:pageshadow="2"
     inkscape:zoom="2.4436435"
     inkscape:cx="-86.782879"
     inkscape:cy="219.50287"
     inkscape:document-units="px"
     inkscape:current-layer="layer1"
     showgrid="true"
     units="px"
     inkscape:snap-bbox="true"
     inkscape:snap-page="true"
     inkscape:bbox-nodes="false"
     inkscape:snap-bbox-edge-midpoints="true"
     inkscape:window-width="1920"
     inkscape:window-height="1017"
     inkscape:window-x="-8"
     inkscape:window-y="-8"
     inkscape:window-maximized="1"
     inkscape:snap-grids="true"
     inkscape:snap-to-guides="false"
     inkscape:snap-global="false"
     inkscape:pagecheckerboard="true"
     inkscape:snap-nodes="false"
     inkscape:snap-others="false">
    <inkscape:grid
       type="xygrid"
       id="grid4367" />
  </sodipodi:namedview>
  <metadata
     id="metadata5">
    <rdf:RDF>
      <cc:Work
         rdf:about="">
        <dc:format>image/svg+xml</dc:format>
        <dc:type
           rdf:resource="http://purl.org/dc/dcmitype/StillImage" />
        <dc:title>Autinn Vector</dc:title>
      </cc:Work>
    </rdf:RDF>
  </metadata>
  <g
     inkscape:label="Layer 1"
     inkscape:groupmode="layer"
     id="layer1"
     transform="translate(0,-196.45832)">
    <path
       style="opacity:1;vector-effect:none;fill:#202020;fill-opacity:1;fill-rule:evenodd;stroke:none;stroke-width:0.3437039;stroke-linecap:butt;stroke-linejoin:round;stroke-miterlimit:4;stroke-dasharray:none;stroke-dashoffset:0;stroke-opacity:1;paint-order:normal"
       d="M 0,196.45831 H 11.906251 V 296.99999 H 0 Z"
       id="rect817"
       inkscape:connector-curvature="0" />
    <path
       style="fill:none;stroke:#5e110a;stroke-width:4.23333359;stroke-linecap:butt;stroke-linejoin:miter;stroke-miterlimit:4;stroke-dasharray:none;stroke-opacity:1"
       d="m 4.1497155,196.22119 c 4.2620219,8.14426 6.1371155,17.51973 5.3353481,26.67674 -0.8046325,9.18973 -4.2022229,17.92691 -6.2838546,26.91387 -1.8425521,7.95479 -2.6546737,16.19787 -1.7809108,24.31638 0.873763,8.11851 3.4768422,16.11721 8.0647654,22.87181 0.3820805,0.56252 0.7774384,1.11602 1.1856334,1.65989"
       id="path1527" />
    <g
       aria-label="Autinn"
       style="font-style:normal;font-weight:normal;font-size:7.05555534px;line-height:1.25;font-family:sans-serif;letter-spacing:0px;word-spacing:0px;fill:#ffd700;fill-opacity:1;stroke:none;stroke-width:0.26458332"
       id="text3739"
       transform="matrix(0.476,0,0,0.476,0.28574709,151.50542)">
      <path
         d="m 5.0556776,289.41931 q -0.1756999,-0.37896 -0.3858507,-0.93706 -0.2101508,-0.55811 -0.4409722,-1.25057 -0.1171332,0.32728 -0.4375271,0.9095 -0.3169488,0.58223 -0.7820367,1.31948 0.106798,0.007 0.2239312,0.007 0.1205784,0 0.3617351,0 0.3927408,0 0.7544759,-0.0103 0.3651801,-0.0138 0.7062445,-0.0379 z m 0.1481391,0.35485 q -0.099908,0 -0.2480469,0.003 -0.144694,0.003 -0.1963704,0.003 -1.2057834,0 -1.6467556,0.13436 -0.4409722,0.13436 -0.7165798,0.50643 -0.3135037,0.4203 -0.6924642,1.01975 -0.3789605,0.596 -0.4719781,0.596 -0.041341,0 -0.065457,-0.0241 -0.027561,-0.0241 -0.027561,-0.0689 0,-0.0413 0.4478624,-0.75448 0.4478624,-0.71658 0.8371581,-1.38148 0.7544759,-1.30225 1.1368815,-2.09806 0.3858507,-0.79582 0.3858507,-1.05765 0,-0.0344 -0.010335,-0.0758 -0.010335,-0.0448 -0.010335,-0.0517 0,-0.0413 0.2342665,-0.1688 0.2377116,-0.12747 0.323839,-0.12747 0.037896,0 0.2308214,0.65801 0.1929253,0.65457 0.4616427,1.33325 0.757921,1.93615 1.0610894,2.43568 0.3066135,0.49954 0.6028917,0.49954 0.082682,0 0.1722548,-0.0448 0.089573,-0.0482 0.1033528,-0.0482 0.020671,0 0.048231,0.0379 0.031006,0.0379 0.031006,0.0689 0,0.0207 -0.1550293,0.11714 -0.1550292,0.0965 -0.2928331,0.19292 -0.1274685,0.0965 -0.2928331,0.24116 -0.1619195,0.14125 -0.2067057,0.14125 -0.075792,0 -0.2928331,-0.42375 -0.2135959,-0.42375 -0.7510308,-1.66398 z"
         style="font-style:normal;font-variant:normal;font-weight:normal;font-stretch:normal;font-family:'Calligraph421 BT';-inkscape-font-specification:'Calligraph421 BT';stroke-width:0.26458332;fill:#ffd700;fill-opacity:1"
         id="path4612"
         inkscape:connector-curvature="0" />
      <path
         d="m 9.6410995,291.31067 q -0.2446018,0.12058 -0.6097819,0.31006 -0.4306369,0.22738 -0.5167643,0.22738 -0.4960938,0 -0.7269151,-0.31695 -0.2273763,-0.31695 -0.2273763,-1.00941 0,-0.16881 0.01378,-0.55811 0.01378,-0.39274 0.01378,-0.61323 0,-0.0482 -0.01378,-0.14469 -0.01378,-0.0999 -0.01378,-0.15159 0,-0.0276 0.1205783,-0.0654 0.096463,-0.031 0.1619195,-0.0551 0.1515842,-0.0551 0.3066135,-0.12058 0.1584744,-0.0689 0.1722547,-0.0689 0.051677,0 0.082682,0.0241 0.031006,0.0207 0.031006,0.0586 0,0.0413 -0.075792,0.11713 -0.072347,0.0758 -0.106798,0.13781 -0.082682,0.14124 -0.1205783,0.37551 -0.034451,0.23427 -0.034451,0.70969 0,0.65801 0.1584744,0.92329 0.1619195,0.26182 0.5477702,0.26182 0.1412489,0 0.3651801,-0.0654 0.2273763,-0.0655 0.4892035,-0.18604 v -1.5124 q 0,-0.40307 -0.1619194,-0.48575 -0.031006,-0.0138 -0.031006,-0.0276 0,-0.11025 0.082682,-0.13092 0.024116,-0.003 0.044786,-0.0103 0.1515842,-0.0551 0.323839,-0.14125 0.1722546,-0.0861 0.1998156,-0.0861 0.04479,0 0.103352,0.0551 0.05857,0.0551 0.05857,0.093 0,0.003 -0.0069,0.031 -0.04823,0.17914 -0.06546,0.43752 -0.01378,0.23771 -0.02067,0.63045 -0.0069,0.3893 -0.0069,0.86472 0,0.36863 0.02412,0.70625 0.0034,0.0517 0.0034,0.062 0,0.0792 -0.2377112,0.20671 -0.2377116,0.13091 -0.2962782,0.13091 -0.02067,0 -0.031006,-0.031 -0.00689,-0.0276 -0.00689,-0.0965 v -0.10335 q 0,-0.0758 0,-0.17226 0.00345,-0.0965 0.00689,-0.21015 z"
         style="font-style:normal;font-variant:normal;font-weight:normal;font-stretch:normal;font-family:'Calligraph421 BT';-inkscape-font-specification:'Calligraph421 BT';stroke-width:0.26458332;fill:#ffd700;fill-opacity:1"
         id="path4614"
         inkscape:connector-curvature="0" />
      <path
         d="m 11.346421,291.48637 q 0.0034,-0.30661 0.0034,-0.60289 0.0034,-0.29628 0.0034,-0.65801 0,-0.21704 -0.0034,-0.46165 0,-0.2446 -0.0034,-0.51331 h -0.19637 q -0.04479,0 -0.05857,-0.0103 -0.01033,-0.0138 -0.01378,-0.0586 0.0034,-0.0723 0.06201,-0.11713 0.02067,-0.0172 0.02756,-0.0241 l 0.799263,-0.72002 q 0.05512,-0.0551 0.07924,-0.0689 0.02412,-0.0172 0.04823,-0.0172 0.02412,0 0.04479,0.0207 0.02067,0.0172 0.02067,0.0448 0,0.0103 -0.03445,0.0827 -0.120578,0.25494 -0.151584,0.50988 h 1.036973 q 0.04823,0 0.06546,0.0344 0.02067,0.0344 0.02067,0.12057 0,0.10336 -0.02412,0.13092 -0.02412,0.0241 -0.158474,0.0241 h -0.981852 q -0.02412,0.30317 -0.0379,0.58912 -0.01034,0.28249 -0.01034,0.53743 0,0.61323 0.16881,0.8785 0.172255,0.26527 0.558105,0.26527 0.199816,0 0.416857,-0.0861 0.217041,-0.0896 0.230821,-0.0896 0.01378,0 0.02412,0.0172 0.01033,0.0138 0.01033,0.031 v 0.0517 q 0,0.13436 -0.36518,0.2825 -0.36518,0.14814 -0.706244,0.14814 -0.268718,0 -0.499539,-0.0896 -0.230822,-0.0896 -0.375516,-0.25149 z"
         style="font-style:normal;font-variant:normal;font-weight:normal;font-stretch:normal;font-family:'Calligraph421 BT';-inkscape-font-specification:'Calligraph421 BT';stroke-width:0.26458332;fill:#ffd700;fill-opacity:1"
         id="path4616"
         inkscape:connector-curvature="0" />
      <path
         d="m 14.677829,289.9223 v 1.55718 q 0,0.0482 -0.0069,0.10335 0,0.0138 0,0.0172 0,0.0482 -0.02412,0.0792 -0.02067,0.0276 -0.07579,0.0482 -0.124023,0.0413 -0.261827,0.0861 -0.137804,0.0482 -0.141249,0.0482 -0.02756,0 -0.04134,-0.062 -0.01378,-0.062 -0.01378,-0.31351 v -1.69843 q 0,-0.3893 -0.05512,-0.48576 -0.05512,-0.0999 -0.199816,-0.0999 -0.0379,0 -0.09991,0.0207 -0.05857,0.0207 -0.07579,0.0207 -0.0379,0 -0.06201,-0.0345 -0.02412,-0.0344 -0.02412,-0.093 0.0034,-0.0517 0.203261,-0.10336 0.141249,-0.0344 0.234266,-0.0654 0.16881,-0.0551 0.354845,-0.12747 0.186035,-0.0758 0.210151,-0.0758 0.03445,0 0.07235,0.0344 0.04134,0.0344 0.04134,0.0689 0,0.0138 -0.0034,0.0827 -0.03101,0.47887 -0.03101,0.99219 z m -0.347954,-3.00068 q 0.158474,0 0.268717,0.11369 0.113688,0.11369 0.113688,0.26872 0,0.15847 -0.110243,0.26527 -0.110243,0.1068 -0.272162,0.1068 -0.15503,0 -0.265273,-0.1068 -0.106798,-0.11024 -0.106798,-0.26527 0,-0.15848 0.106798,-0.26872 0.110243,-0.11369 0.265273,-0.11369 z"
         style="font-style:normal;font-variant:normal;font-weight:normal;font-stretch:normal;font-family:'Calligraph421 BT';-inkscape-font-specification:'Calligraph421 BT';stroke-width:0.26458332;fill:#ffd700;fill-opacity:1"
         id="path4618"
         inkscape:connector-curvature="0" />
      <path
         d="m 16.014526,291.70686 v -1.5813 q 0,-0.48576 -0.106798,-0.7028 -0.103353,-0.22049 -0.33073,-0.22049 -0.03101,0 -0.07924,0.0103 -0.04479,0.0103 -0.06201,0.0103 -0.03445,0 -0.05512,-0.0276 -0.01722,-0.0276 -0.01722,-0.0792 0,-0.0344 0.130913,-0.0792 0.09646,-0.031 0.151584,-0.0551 0.210151,-0.0861 0.389296,-0.20671 0.04823,-0.031 0.05512,-0.031 0.07235,0 0.20326,0.14814 0.130914,0.14469 0.199816,0.3445 0.347954,-0.2067 0.689019,-0.32383 0.341064,-0.12058 0.575331,-0.12058 0.389296,0 0.56155,0.29628 0.172255,0.29283 0.172255,0.98874 0,0.32039 -0.02067,0.70624 -0.01723,0.38585 -0.01723,0.44097 0,0.0861 0.03101,0.11714 0.03101,0.031 0.110243,0.031 0.04134,0 0.120578,-0.031 0.08268,-0.031 0.120579,-0.031 0.02756,0 0.04479,0.031 0.01722,0.031 0.01722,0.0827 0,0.0724 -0.19637,0.12402 -0.165365,0.0448 -0.282498,0.0861 -0.16881,0.0655 -0.341064,0.15159 -0.16881,0.0896 -0.189481,0.0896 -0.03445,0 -0.05857,-0.0241 -0.02412,-0.0207 -0.02412,-0.0551 0,-0.007 0.01378,-0.0517 0.148139,-0.50987 0.148139,-1.25401 0,-0.68557 -0.18259,-1.00252 -0.18259,-0.31695 -0.571886,-0.31695 -0.1757,0 -0.3514,0.0827 -0.172255,0.0827 -0.327284,0.23771 0,0.0482 0.0034,0.20326 0.0034,0.15159 0.0034,0.25494 0,0.5271 -0.0069,0.97841 -0.0069,0.44786 -0.02067,0.75792 l -0.403076,0.14125 q -0.0034,0 -0.01378,0.003 -0.01033,0.003 -0.02756,0.003 -0.03101,0 -0.04479,-0.0276 -0.01034,-0.0276 -0.01034,-0.0999 z"
         style="font-style:normal;font-variant:normal;font-weight:normal;font-stretch:normal;font-family:'Calligraph421 BT';-inkscape-font-specification:'Calligraph421 BT';stroke-width:0.26458332;fill:#ffd700;fill-opacity:1"
         id="path4620"
         inkscape:connector-curvature="0" />
      <path
         d="m 19.790351,291.70686 v -1.5813 q 0,-0.48576 -0.106798,-0.7028 -0.103353,-0.22049 -0.330729,-0.22049 -0.03101,0 -0.07924,0.0103 -0.04479,0.0103 -0.06201,0.0103 -0.03445,0 -0.05512,-0.0276 -0.01723,-0.0276 -0.01723,-0.0792 0,-0.0344 0.130914,-0.0792 0.09646,-0.031 0.151584,-0.0551 0.210151,-0.0861 0.389296,-0.20671 0.04823,-0.031 0.05512,-0.031 0.07235,0 0.203261,0.14814 0.130913,0.14469 0.199815,0.3445 0.347955,-0.2067 0.689019,-0.32383 0.341065,-0.12058 0.575331,-0.12058 0.389296,0 0.561551,0.29628 0.172255,0.29283 0.172255,0.98874 0,0.32039 -0.02067,0.70624 -0.01722,0.38585 -0.01722,0.44097 0,0.0861 0.03101,0.11714 0.03101,0.031 0.110244,0.031 0.04134,0 0.120578,-0.031 0.08268,-0.031 0.120578,-0.031 0.02756,0 0.04479,0.031 0.01723,0.031 0.01723,0.0827 0,0.0724 -0.196371,0.12402 -0.165364,0.0448 -0.282497,0.0861 -0.16881,0.0655 -0.341065,0.15159 -0.168809,0.0896 -0.18948,0.0896 -0.03445,0 -0.05857,-0.0241 -0.02412,-0.0207 -0.02412,-0.0551 0,-0.007 0.01378,-0.0517 0.148139,-0.50987 0.148139,-1.25401 0,-0.68557 -0.18259,-1.00252 -0.18259,-0.31695 -0.571886,-0.31695 -0.1757,0 -0.351399,0.0827 -0.172255,0.0827 -0.327285,0.23771 0,0.0482 0.0034,0.20326 0.0034,0.15159 0.0034,0.25494 0,0.5271 -0.0069,0.97841 -0.0069,0.44786 -0.02067,0.75792 l -0.403076,0.14125 q -0.0034,0 -0.01378,0.003 -0.01033,0.003 -0.02756,0.003 -0.03101,0 -0.04479,-0.0276 -0.01033,-0.0276 -0.01033,-0.0999 z"
         style="font-style:normal;font-variant:normal;font-weight:normal;font-stretch:normal;font-family:'Calligraph421 BT';-inkscape-font-specification:'Calligraph421 BT';stroke-width:0.26458332;fill:#ffd700;fill-opacity:1"
         id="path4622"
         inkscape:connector-curvature="0" />
    </g>
    <g
       style="font-style:normal;font-weight:normal;font-size:3.52777767px;line-height:1.25;font-family:sans-serif;letter-spacing:0px;word-spacing:0px;fill:#000000;fill-opacity:1;stroke:none;stroke-width:0.26458332"
       id="text4707" />
    <g
       style="font-style:normal;font-weight:normal;font-size:13.33333302px;line-height:1.25;font-family:sans-serif;letter-spacing:0px;word-spacing:0px;fill:#000000;fill-opacity:1;stroke:none"
       id="flowRoot4709" />
    <g
       aria-label="VXY"
       style="font-style:normal;font-variant:normal;font-weight:500;font-stretch:normal;font-size:2.11666679px;line-height:1.25;font-family:OldSansBlack;-inkscape-font-specification:'OldSansBlack, Medium';font-variant-ligatures:normal;font-variant-position:normal;font-variant-caps:normal;font-variant-numeric:normal;font-variant-alternates:normal;font-feature-settings:normal;text-indent:0;text-align:start;text-decoration:none;text-decoration-line:none;text-decoration-style:solid;text-decoration-color:#000000;letter-spacing:0px;word-spacing:0px;text-transform:none;writing-mode:lr-tb;direction:ltr;text-orientation:mixed;dominant-baseline:auto;baseline-shift:baseline;text-anchor:start;white-space:normal;shape-padding:0;opacity:1;vector-effect:none;fill:#ffffff;fill-opacity:1;stroke:none;stroke-width:0.26458335;stroke-linecap:butt;stroke-linejoin:miter;stroke-miterlimit:4;stroke-dasharray:none;stroke-dashoffset:0;stroke-opacity:1"
       id="text848">
      <path
         d="m 3.7832497,206.64154 0.90805,-3.41206 H 3.9575219 l -0.5778501,2.29764 -0.5503333,-2.29764 H 2.1001467 l 0.903464,3.41206 z"
         style="font-size:4.58611155px;stroke-width:0.26458335"
         id="path865" />
      <path
         d="m 6.4644767,206.64154 h 0.8025695 l -0.9218084,-1.74731 0.8667751,-1.66475 H 6.4094434 l -0.4631973,0.95849 -0.4631973,-0.95849 H 4.6804793 l 0.8667751,1.66475 -0.9218084,1.74731 h 0.8025695 l 0.5182306,-1.05939 z"
         style="font-size:4.58611155px;stroke-width:0.26458335"
         id="path867" />
      <path
         d="m 8.8659509,205.27488 0.9401529,-2.0454 H 9.0356371 L 8.499062,204.46314 7.962487,203.22948 H 7.1920202 l 0.944739,2.05916 v 1.3529 h 0.7291917 z"
         style="font-size:4.58611155px;stroke-width:0.26458335"
         id="path869" />
    </g>
    <g
       aria-label="SPEED"
       style="font-style:normal;font-variant:normal;font-weight:500;font-stretch:normal;font-size:2.11666679px;line-height:1.25;font-family:OldSansBlack;-inkscape-font-specification:'OldSansBlack, Medium';font-variant-ligatures:normal;font-variant-position:normal;font-variant-caps:normal;font-variant-numeric:normal;font-variant-alternates:normal;font-feature-settings:normal;text-indent:0;text-align:start;text-decoration:none;text-decoration-line:none;text-decoration-style:solid;text-decoration-color:#000000;letter-spacing:0px;word-spacing:0px;text-transform:none;writing-mode:lr-tb;direction:ltr;text-orientation:mixed;dominant-baseline:auto;baseline-shift:baseline;text-anchor:start;white-space:normal;shape-padding:0;opacity:1;vector-effect:none;fill:#ffffff;fill-opacity:1;stroke:none;stroke-width:0.26458335;stroke-linecap:butt;stroke-linejoin:miter;stroke-miterlimit:4;stroke-dasharray:none;stroke-dashoffset:0;stroke-opacity:1"
       id="text852">
      <path
         d="m 3.3351282,233.78482 q 0.1728611,-0.14817 0.1728611,-0.41734 0,-0.24941 -0.1753306,-0.38029 -0.1654527,-0.12841 -0.3753555,-0.20002 -0.1481667,-0.0519 -0.2667,-0.11854 -0.056797,-0.0321 -0.081492,-0.0667 -0.022225,-0.0346 -0.022225,-0.0716 0,-0.0469 0.019756,-0.079 0.022225,-0.0346 0.054328,-0.0519 0.034572,-0.0198 0.074083,-0.0272 0.041981,-0.01 0.081492,-0.01 0.1234723,0 0.1901473,0.0667 0.069144,0.0642 0.1135944,0.17039 l 0.3630084,-0.11113 q -0.054328,-0.12594 -0.1210028,-0.20743 -0.066675,-0.0815 -0.1531056,-0.13335 -0.1728611,-0.10619 -0.3901722,-0.10619 -0.2592917,0 -0.4321528,0.14323 -0.1728611,0.14323 -0.1728611,0.36301 0,0.22225 0.1481666,0.34819 0.1407584,0.11606 0.427214,0.22472 0.1456972,0.0543 0.2494138,0.12347 0.093839,0.0617 0.093839,0.15311 0,0.0617 -0.022225,0.10371 -0.022225,0.0395 -0.061736,0.0642 -0.037042,0.0222 -0.086431,0.0321 -0.049389,0.01 -0.1012473,0.01 -0.074083,0 -0.13335,-0.0198 -0.056797,-0.0222 -0.1012472,-0.0593 -0.04445,-0.037 -0.079022,-0.0889 -0.034572,-0.0543 -0.064206,-0.11853 l -0.3284361,0.14322 q 0.056797,0.13335 0.1308806,0.21978 0.074083,0.084 0.1753305,0.13829 0.1901473,0.10619 0.3901723,0.10619 0.31115,0 0.4840111,-0.14323 z"
         style="font-size:2.46944451px;stroke-width:0.26458335"
         id="path872" />
      <path
         d="m 4.9139136,233.04152 q 0.1753305,-0.14323 0.1753305,-0.41487 0,-0.1531 -0.051858,-0.25929 -0.049389,-0.10866 -0.1382889,-0.17533 -0.0889,-0.0667 -0.2099028,-0.0963 -0.1185333,-0.0296 -0.2592917,-0.0296 H 3.7508052 v 1.83726 h 0.3951111 v -0.72107 H 4.427433 q 0.3160889,0 0.4864806,-0.14076 z m -0.288925,-0.5902 q 0.032103,0.0247 0.049389,0.0691 0.017286,0.042 0.017286,0.11112 0,0.0691 -0.024694,0.11359 -0.024694,0.042 -0.066675,0.0667 -0.039511,0.0222 -0.093839,0.0321 -0.051858,0.007 -0.111125,0.007 H 4.1459163 v -0.45438 h 0.2494139 q 0.1605139,0 0.2296584,0.0543 z"
         style="font-size:2.46944451px;stroke-width:0.26458335"
         id="path874" />
      <path
         d="m 5.2999572,233.90335 h 1.2618862 v -0.34078 H 5.6925989 v -0.44697 l 0.6124223,-0.002 v -0.33584 H 5.6925989 v -0.37042 h 0.8396112 v -0.34078 H 5.2999572 Z"
         style="font-size:2.46944451px;stroke-width:0.26458335"
         id="path876" />
      <path
         d="m 6.8095984,233.90335 h 1.2618862 v -0.34078 H 7.2022401 v -0.44697 l 0.6124222,-0.002 v -0.33584 H 7.2022401 v -0.37042 h 0.8396111 v -0.34078 H 6.8095984 Z"
         style="font-size:2.46944451px;stroke-width:0.26458335"
         id="path878" />
      <path
         d="m 9.5366753,233.66382 q 0.111125,-0.11854 0.1629833,-0.28646 0.051858,-0.17039 0.051858,-0.39017 0,-0.2099 -0.049389,-0.37782 -0.049389,-0.1704 -0.1531055,-0.2914 -0.1037167,-0.121 -0.2642306,-0.18521 -0.1580444,-0.0667 -0.377825,-0.0667 H 8.3044224 v 1.83726 h 0.6074834 q 0.4099278,0 0.6247695,-0.23953 z M 9.2428114,232.5501 q 0.054328,0.0716 0.081492,0.18027 0.029633,0.10618 0.029633,0.25188 0,0.11853 -0.019756,0.22472 -0.019756,0.10372 -0.071614,0.18521 -0.049389,0.079 -0.1382889,0.12594 -0.086431,0.0444 -0.22225,0.0444 H 8.6995336 v -1.1557 h 0.2074333 q 0.2271889,0 0.3358445,0.14323 z"
         style="font-size:2.46944451px;stroke-width:0.26458335"
         id="path880" />
    </g>
    <g
       aria-label="X"
       style="font-style:normal;font-variant:normal;font-weight:500;font-stretch:normal;font-size:2.11666679px;line-height:1.25;font-family:OldSansBlack;-inkscape-font-specification:'OldSansBlack, Medium';font-variant-ligatures:normal;font-variant-position:normal;font-variant-caps:normal;font-variant-numeric:normal;font-variant-alternates:normal;font-feature-settings:normal;text-indent:0;text-align:start;text-decoration:none;text-decoration-line:none;text-decoration-style:solid;text-decoration-color:#000000;letter-spacing:0px;word-spacing:0px;text-transform:none;writing-mode:lr-tb;direction:ltr;text-orientation:mixed;dominant-baseline:auto;baseline-shift:baseline;text-anchor:start;white-space:normal;shape-padding:0;opacity:1;vector-effect:none;fill:#ffffff;fill-opacity:1;stroke:none;stroke-width:0.26458335;stroke-linecap:butt;stroke-linejoin:miter;stroke-miterlimit:4;stroke-dasharray:none;stroke-dashoffset:0;stroke-opacity:1"
       id="text856">
      <path
         d="m 6.1923089,261.40109 h 0.3704167 l -0.42545,-0.80645 0.40005,-0.76835 H 6.1669089 l -0.2137833,0.44238 -0.2137834,-0.44238 H 5.3689255 l 0.4000501,0.76835 -0.4254501,0.80645 h 0.3704167 l 0.2391834,-0.48895 z"
         style="stroke-width:0.26458335"
         id="path883" />
    </g>
    <g
       aria-label="Y"
       style="font-style:normal;font-variant:normal;font-weight:500;font-stretch:normal;font-size:2.11666679px;line-height:1.25;font-family:OldSansBlack;-inkscape-font-specification:'OldSansBlack, Medium';font-variant-ligatures:normal;font-variant-position:normal;font-variant-caps:normal;font-variant-numeric:normal;font-variant-alternates:normal;font-feature-settings:normal;text-indent:0;text-align:start;text-decoration:none;text-decoration-line:none;text-decoration-style:solid;text-decoration-color:#000000;letter-spacing:0px;word-spacing:0px;text-transform:none;writing-mode:lr-tb;direction:ltr;text-orientation:mixed;dominant-baseline:auto;baseline-shift:baseline;text-anchor:start;white-space:normal;shape-padding:0;opacity:1;vector-effect:none;fill:#ffffff;fill-opacity:1;stroke:none;stroke-width:0.26458335;stroke-linecap:butt;stroke-linejoin:miter;stroke-miterlimit:4;stroke-dasharray:none;stroke-dashoffset:0;stroke-opacity:1"
       id="text860">
      <path
         d="m 6.1224589,274.52115 0.4339167,-0.94404 h -0.3556 l -0.24765,0.56939 -0.24765,-0.56939 H 5.3498755 l 0.4360334,0.95039 v 0.62441 h 0.33655 z"
         style="stroke-width:0.26458335"
         id="path886" />
    </g>
  </g>
</svg>
