<?xml version="1.0" encoding="UTF-8" standalone="no"?>
<svg
   xmlns:dc="http://purl.org/dc/elements/1.1/"
   xmlns:cc="http://creativecommons.org/ns#"
   xmlns:rdf="http://www.w3.org/1999/02/22-rdf-syntax-ns#"
   xmlns:svg="http://www.w3.org/2000/svg"
   xmlns="http://www.w3.org/2000/svg"
   xmlns:xlink="http://www.w3.org/1999/xlink"
   xmlns:sodipodi="http://sodipodi.sourceforge.net/DTD/sodipodi-0.dtd"
   xmlns:inkscape="http://www.inkscape.org/namespaces/inkscape"
   width="30"
   height="30"
   viewBox="0 0 7.9374998 7.9375002"
   version="1.1"
   id="svg8"
   inkscape:version="1.0.2 (e86c870879, 2021-01-15, custom)"
   sodipodi:docname="KnobSmallAutinn.svg">
  <title
     id="title2483">Autinn Knob 2</title>
  <defs
     id="defs2">
    <linearGradient
       inkscape:collect="always"
       id="linearGradient7411">
      <stop
         style="stop-color:#e3e3e3;stop-opacity:1"
         offset="0"
         id="stop7407" />
      <stop
         style="stop-color:#b6b6b6;stop-opacity:1"
         offset="1"
         id="stop7409" />
    </linearGradient>
    <inkscape:path-effect
       effect="spiro"
       id="path-effect6212"
       is_visible="true" />
    <linearGradient
       inkscape:collect="always"
       xlink:href="#linearGradient7411"
       id="linearGradient7413"
       x1="3.9887791"
       y1="289.66156"
       x2="4.0423236"
       y2="296.30734"
       gradientUnits="userSpaceOnUse" />
  </defs>
  <sodipodi:namedview
     id="base"
     pagecolor="#202020"
     bordercolor="#666666"
     borderopacity="1.0"
     inkscape:pageopacity="1"
     inkscape:pageshadow="2"
     inkscape:zoom="9.9937759"
     inkscape:cx="17.467009"
     inkscape:cy="23.90805"
     inkscape:document-units="px"
     inkscape:current-layer="layer1"
     showgrid="false"
     units="px"
     inkscape:pagecheckerboard="false"
     inkscape:snap-grids="false"
     inkscape:snap-others="false"
     inkscape:object-nodes="false"
     inkscape:snap-nodes="false"
     inkscape:snap-to-guides="false"
     inkscape:snap-page="true"
     inkscape:snap-bbox="true"
     inkscape:snap-bbox-edge-midpoints="true"
     inkscape:window-width="1037"
     inkscape:window-height="1040"
     inkscape:window-x="859"
     inkscape:window-y="18"
     inkscape:window-maximized="0"
     inkscape:snap-global="true"
     inkscape:document-rotation="0" />
  <metadata
     id="metadata5">
    <rdf:RDF>
      <cc:Work
         rdf:about="">
        <dc:format>image/svg+xml</dc:format>
        <dc:type
           rdf:resource="http://purl.org/dc/dcmitype/StillImage" />
        <dc:title>Autinn Knob 2</dc:title>
      </cc:Work>
    </rdf:RDF>
  </metadata>
  <g
     inkscape:label="Layer 1"
     inkscape:groupmode="layer"
     id="layer1"
     transform="translate(0,-289.06249)">
    <path
       style="display:inline;fill:#5a5a5a;fill-opacity:1;stroke:none;stroke-width:0.03765254"
       d="m 6.6262515,296.01079 c -0.6482903,0.56619 -1.3881557,0.88683 -2.2558184,0.97766 -0.743037,0.0777 -1.4460151,-0.0399 -2.1284244,-0.35624 -0.3042679,-0.14104 -0.3971171,-0.20421 -0.8194107,-0.55749 -0.4222868,-0.3533 -0.50085764,-0.43354 -0.69340405,-0.70814 -0.41704338,-0.59478 -0.64155593,-1.19897 -0.71735938,-1.93055 -0.07706434,-0.74371 0.04161791,-1.44809 0.35869932,-2.12882 0.14140563,-0.30336 0.20582297,-0.39812 0.55860926,-0.81981 0.35278645,-0.42168 0.43453655,-0.50195 0.70832315,-0.69456 0.6140588,-0.43227 1.2864415,-0.67344 2.0320764,-0.72886 0.7334739,-0.0545 1.3678128,0.0598 2.0268648,0.36529 0.3042762,0.14104 0.3971252,0.20421 0.8194117,0.5575 0.4222938,0.3533 0.500869,0.43353 0.6934033,0.70813 0.4318211,0.61584 0.6717261,1.28702 0.7263535,2.03211 0.076939,1.04964 -0.1911381,1.93137 -0.8362597,2.7505 -0.166699,0.21173 -0.3793117,0.45192 -0.4730339,0.53331 z"
       id="path909"
       inkscape:connector-curvature="0"
       clip-path="none"
       mask="none" />
    <path
       sodipodi:type="star"
       style="fill:#989898;fill-opacity:1;stroke:#838383;stroke-width:0.05;stroke-miterlimit:4;stroke-dasharray:none;stroke-opacity:1"
       id="path6208"
       sodipodi:sides="36"
       sodipodi:cx="14.171432"
       sodipodi:cy="294.65991"
       sodipodi:r1="4.8918996"
       sodipodi:r2="5.1493678"
       sodipodi:arg1="0.78539816"
       sodipodi:arg2="0.87266462"
       inkscape:flatsided="false"
       inkscape:rounded="0.24"
       inkscape:randomized="0"
       d="m 17.630527,298.11901 c -0.0862,0.0862 -0.05576,0.40719 -0.149146,0.48555 -0.09338,0.0784 -0.404212,-0.007 -0.504071,0.0626 -0.09986,0.0699 -0.125621,0.39132 -0.231195,0.45228 -0.105573,0.0609 -0.396793,-0.0774 -0.507277,-0.0259 -0.110484,0.0515 -0.191665,0.36356 -0.306219,0.40526 -0.114554,0.0417 -0.377319,-0.14517 -0.495071,-0.11362 -0.117751,0.0316 -0.251885,0.32476 -0.371938,0.34593 -0.120054,0.0212 -0.34638,-0.20848 -0.467821,-0.19785 -0.121442,0.0106 -0.304452,0.27608 -0.426357,0.27608 -0.121906,0 -0.304916,-0.26546 -0.426358,-0.27608 -0.121441,-0.0106 -0.347767,0.21902 -0.467821,0.19785 -0.120053,-0.0212 -0.254187,-0.31437 -0.371938,-0.34593 -0.117752,-0.0315 -0.380517,0.15531 -0.495071,0.11362 -0.114554,-0.0417 -0.195735,-0.35374 -0.306219,-0.40526 -0.110483,-0.0515 -0.401704,0.0869 -0.507277,0.0259 -0.105574,-0.061 -0.131336,-0.38236 -0.231195,-0.45228 -0.09986,-0.0699 -0.410686,0.0158 -0.504071,-0.0626 -0.09339,-0.0784 -0.06295,-0.39935 -0.149146,-0.48555 -0.0862,-0.0862 -0.40719,-0.0558 -0.485549,-0.14915 -0.07836,-0.0934 0.0074,-0.40421 -0.06256,-0.50407 -0.06992,-0.0999 -0.3913211,-0.12562 -0.4522738,-0.23119 -0.060953,-0.10558 0.077436,-0.3968 0.025917,-0.50728 -0.051519,-0.11049 -0.3635622,-0.19167 -0.4052563,-0.30622 -0.041694,-0.11455 0.1451623,-0.37732 0.1136108,-0.49507 -0.031552,-0.11775 -0.3247565,-0.25189 -0.3459252,-0.37194 -0.021169,-0.12005 0.2084777,-0.34638 0.1978529,-0.46782 -0.010625,-0.12144 -0.2760834,-0.30445 -0.2760834,-0.42636 0,-0.1219 0.2654586,-0.30491 0.2760834,-0.42636 0.010625,-0.12144 -0.2190216,-0.34776 -0.1978529,-0.46782 0.021169,-0.12005 0.3143737,-0.25418 0.3459252,-0.37193 0.031551,-0.11776 -0.1553049,-0.38052 -0.1136108,-0.49508 0.041694,-0.11455 0.3537368,-0.19573 0.4052562,-0.30621 0.051519,-0.11049 -0.086869,-0.40171 -0.025917,-0.50728 0.060953,-0.10557 0.3823518,-0.13134 0.4522738,-0.2312 0.06992,-0.0999 -0.01579,-0.41068 0.06256,-0.50407 0.07836,-0.0934 0.399349,-0.0629 0.485549,-0.14914 0.0862,-0.0862 0.05576,-0.40719 0.149146,-0.48555 0.09338,-0.0784 0.404212,0.007 0.504071,-0.0626 0.09986,-0.0699 0.125621,-0.39132 0.231195,-0.45227 0.105573,-0.0609 0.396794,0.0774 0.507277,0.0259 0.110484,-0.0515 0.191665,-0.36357 0.306219,-0.40526 0.114554,-0.0417 0.377319,0.14516 0.495071,0.11361 0.117751,-0.0316 0.251885,-0.32476 0.371938,-0.34593 0.120054,-0.0212 0.34638,0.20848 0.467821,0.19786 0.121442,-0.0106 0.304452,-0.27609 0.426358,-0.27609 0.121905,0 0.304915,0.26546 0.426357,0.27609 0.121441,0.0106 0.347767,-0.21902 0.467821,-0.19786 0.120053,0.0212 0.254187,0.31438 0.371938,0.34593 0.117752,0.0315 0.380517,-0.1553 0.495071,-0.11361 0.114554,0.0417 0.195735,0.35374 0.306219,0.40526 0.110483,0.0515 0.401704,-0.0869 0.507277,-0.0259 0.105574,0.0609 0.131336,0.38235 0.231195,0.45227 0.09986,0.0699 0.410686,-0.0158 0.504071,0.0626 0.09339,0.0784 0.06295,0.39935 0.149146,0.48555 0.0862,0.0862 0.40719,0.0558 0.485549,0.14914 0.07836,0.0934 -0.0074,0.40421 0.06256,0.50407 0.06992,0.0999 0.391321,0.12562 0.452274,0.2312 0.06095,0.10557 -0.07744,0.39679 -0.02592,0.50728 0.05152,0.11048 0.363562,0.19166 0.405256,0.30621 0.0417,0.11456 -0.145162,0.37732 -0.11361,0.49508 0.03155,0.11775 0.324756,0.25188 0.345925,0.37193 0.02117,0.12006 -0.208478,0.34638 -0.197853,0.46782 0.01062,0.12145 0.276083,0.30446 0.276083,0.42636 0,0.12191 -0.265458,0.30492 -0.276083,0.42636 -0.01063,0.12144 0.219022,0.34777 0.197853,0.46782 -0.02117,0.12005 -0.314374,0.25419 -0.345925,0.37194 -0.03155,0.11775 0.155305,0.38052 0.11361,0.49507 -0.04169,0.11455 -0.353736,0.19573 -0.405256,0.30622 -0.05152,0.11048 0.08687,0.4017 0.02592,0.50728 -0.06095,0.10557 -0.382352,0.13133 -0.452274,0.23119 -0.06992,0.0999 0.01579,0.41069 -0.06256,0.50407 -0.07836,0.0934 -0.399349,0.063 -0.485549,0.14915 z"
       inkscape:transform-center-x="0.19118081"
       inkscape:transform-center-y="-0.19099036"
       transform="matrix(0.7680242,0,0,0.76731666,-6.9152524,66.93378)" />
    <ellipse
       style="fill:url(#linearGradient7413);fill-opacity:1;stroke:#4b4b4b;stroke-width:0.275;stroke-miterlimit:4;stroke-dasharray:none;stroke-opacity:1"
       id="path6191-3"
       cx="3.96875"
       cy="293.03125"
       rx="3.2308848"
       ry="3.2308841" />
    <path
       style="fill:none;stroke:#4b4b4b;stroke-width:0.275;stroke-linecap:butt;stroke-linejoin:miter;stroke-miterlimit:4;stroke-dasharray:none;stroke-opacity:1"
       d="m 3.96875,289.81131 v 1.40404"
       id="path6210"
       inkscape:connector-curvature="0"
       inkscape:path-effect="#path-effect6212"
       inkscape:original-d="m 3.96875,289.81131 c 2.646e-4,0.46775 0.00651,0.93576 0,1.40404"
       sodipodi:nodetypes="cc" />
  </g>
</svg>
