<?xml version="1.0" encoding="UTF-8" standalone="no"?>
<!-- Created with Inkscape (http://www.inkscape.org/) -->

<svg
   xmlns:dc="http://purl.org/dc/elements/1.1/"
   xmlns:cc="http://creativecommons.org/ns#"
   xmlns:rdf="http://www.w3.org/1999/02/22-rdf-syntax-ns#"
   xmlns:svg="http://www.w3.org/2000/svg"
   xmlns="http://www.w3.org/2000/svg"
   xmlns:xlink="http://www.w3.org/1999/xlink"
   xmlns:sodipodi="http://sodipodi.sourceforge.net/DTD/sodipodi-0.dtd"
   xmlns:inkscape="http://www.inkscape.org/namespaces/inkscape"
   width="31.580296"
   height="31.580334"
   viewBox="0 0 8.3556203 8.3556298"
   version="1.1"
   id="svg15246"
   sodipodi:docname="OutPortAutinn.svg"
   inkscape:version="0.92.3 (2405546, 2018-03-11)"
   style="enable-background:new">
  <title
     id="title5734">Autinn Out Port</title>
  <defs
     id="defs15240">
    <clipPath
       id="clip89">
      <rect
         y="0"
         x="0"
         width="18"
         height="19"
         id="rect4864" />
    </clipPath>
    <clipPath
       id="clip90">
      <path
         inkscape:connector-curvature="0"
         d="m 0.898438,0.128906 h 16.25 v 17.882813 h -16.25 z m 0,0"
         id="path4861" />
    </clipPath>
    <mask
       id="mask44">
      <g
         style="filter:url(#alpha)"
         id="g4858"
         transform="matrix(0.26458333,0,0,0.26458333,89.358789,128.57765)">
        <rect
           x="0"
           y="0"
           width="3052.8701"
           height="3351.5"
           style="fill:#000000;fill-opacity:0.14999402;stroke:none"
           id="rect4856" />
      </g>
    </mask>
    <filter
       id="alpha"
       filterUnits="objectBoundingBox"
       x="0"
       y="0"
       width="1"
       height="1">
      <feColorMatrix
         type="matrix"
         in="SourceGraphic"
         values="0 0 0 0 1 0 0 0 0 1 0 0 0 0 1 0 0 0 1 0"
         id="feColorMatrix4149" />
    </filter>
    <clipPath
       id="clipPath17821">
      <rect
         y="0"
         x="0"
         width="18"
         height="19"
         id="rect17819" />
    </clipPath>
    <clipPath
       id="clipPath17825">
      <path
         inkscape:connector-curvature="0"
         d="m 0.898438,0.128906 h 16.25 v 17.882813 h -16.25 z m 0,0"
         id="path17823" />
    </clipPath>
    <clipPath
       id="clip87">
      <rect
         y="0"
         x="0"
         width="24"
         height="26"
         id="rect4848" />
    </clipPath>
    <clipPath
       id="clip88">
      <path
         inkscape:connector-curvature="0"
         d="m 0.683594,0.921875 h 22.679687 v 24.9375 H 0.683594 Z m 0,0"
         id="path4845" />
    </clipPath>
    <mask
       id="mask43">
      <g
         style="filter:url(#alpha)"
         id="g4842"
         transform="matrix(0.26458333,0,0,0.26458333,89.358789,128.57765)">
        <rect
           x="0"
           y="0"
           width="3052.8701"
           height="3351.5"
           style="fill:#000000;fill-opacity:0.14999402;stroke:none"
           id="rect4840" />
      </g>
    </mask>
    <filter
       id="filter17836"
       filterUnits="objectBoundingBox"
       x="0"
       y="0"
       width="1"
       height="1">
      <feColorMatrix
         type="matrix"
         in="SourceGraphic"
         values="0 0 0 0 1 0 0 0 0 1 0 0 0 0 1 0 0 0 1 0"
         id="feColorMatrix17834" />
    </filter>
    <clipPath
       id="clipPath17840">
      <rect
         y="0"
         x="0"
         width="24"
         height="26"
         id="rect17838" />
    </clipPath>
    <clipPath
       id="clipPath17844">
      <path
         inkscape:connector-curvature="0"
         d="m 0.683594,0.921875 h 22.679687 v 24.9375 H 0.683594 Z m 0,0"
         id="path17842" />
    </clipPath>
    <linearGradient
       gradientTransform="translate(-9.8598263e-5,4.2704826e-4)"
       inkscape:collect="always"
       xlink:href="#linearGradient999"
       id="linearGradient1001"
       x1="92.787239"
       y1="123.29461"
       x2="96.123161"
       y2="120.17251"
       gradientUnits="userSpaceOnUse" />
    <linearGradient
       inkscape:collect="always"
       id="linearGradient999">
      <stop
         style="stop-color:#686868;stop-opacity:1"
         offset="0"
         id="stop995" />
      <stop
         style="stop-color:#000000;stop-opacity:1"
         offset="1"
         id="stop997" />
    </linearGradient>
    <linearGradient
       gradientTransform="translate(-9.8598211e-5,4.2204826e-4)"
       inkscape:collect="always"
       xlink:href="#linearGradient974"
       id="linearGradient976"
       x1="92.803947"
       y1="123.36143"
       x2="89.813866"
       y2="126.66889"
       gradientUnits="userSpaceOnUse" />
    <linearGradient
       inkscape:collect="always"
       id="linearGradient974">
      <stop
         style="stop-color:#c9c9c9;stop-opacity:1"
         offset="0"
         id="stop970" />
      <stop
         style="stop-color:#000000;stop-opacity:1"
         offset="1"
         id="stop972" />
    </linearGradient>
    <linearGradient
       gradientTransform="translate(5.8355258e-6,-9.7654085e-6)"
       inkscape:collect="always"
       xlink:href="#fill"
       id="linearGradient930-8"
       x1="89.781471"
       y1="126.7674"
       x2="92.940018"
       y2="122.97551"
       gradientUnits="userSpaceOnUse" />
    <linearGradient
       id="fill">
      <stop
         style="stop-color:#525252;stop-opacity:1"
         offset="0"
         id="stop924" />
      <stop
         style="stop-color:#b6b6b6;stop-opacity:1"
         offset="1"
         id="stop926" />
    </linearGradient>
  </defs>
  <sodipodi:namedview
     id="base"
     pagecolor="#ffffff"
     bordercolor="#666666"
     borderopacity="1.0"
     inkscape:pageopacity="0.0"
     inkscape:pageshadow="2"
     inkscape:zoom="8.336026"
     inkscape:cx="0.42086359"
     inkscape:cy="15.790166"
     inkscape:document-units="px"
     inkscape:current-layer="layer1"
     showgrid="false"
     inkscape:window-width="1920"
     inkscape:window-height="1017"
     inkscape:window-x="-8"
     inkscape:window-y="-8"
     inkscape:window-maximized="1"
     units="px"
     fit-margin-top="0"
     fit-margin-left="0"
     fit-margin-right="0"
     fit-margin-bottom="0"
     inkscape:lockguides="false"
     inkscape:pagecheckerboard="true"
     inkscape:snap-page="true"
     inkscape:snap-grids="false"
     inkscape:snap-to-guides="false"
     inkscape:snap-bbox="true"
     inkscape:snap-bbox-edge-midpoints="true" />
  <metadata
     id="metadata15243">
    <rdf:RDF>
      <cc:Work
         rdf:about="">
        <dc:format>image/svg+xml</dc:format>
        <dc:type
           rdf:resource="http://purl.org/dc/dcmitype/StillImage" />
        <dc:title>Autinn Out Port</dc:title>
        <cc:license
           rdf:resource="" />
      </cc:Work>
    </rdf:RDF>
  </metadata>
  <g
     inkscape:label="Layer 1"
     inkscape:groupmode="layer"
     id="layer1"
     transform="translate(-88.611154,-119.19859)"
     style="opacity:1">
    <rect
       style="fill:#313131;fill-opacity:1;stroke:#c0c0c0;stroke-width:0.10583334;stroke-miterlimit:4;stroke-dasharray:none;stroke-opacity:1"
       id="rect7355"
       width="7.4376631"
       height="7.4376707"
       x="89.070129"
       y="119.65757"
       ry="1.4431789" />
    <path
       sodipodi:type="star"
       style="opacity:1;fill:url(#linearGradient930-8);fill-opacity:1;stroke:none;stroke-width:0.20558123;stroke-miterlimit:4;stroke-dasharray:none;stroke-opacity:1;enable-background:new"
       id="path7353-9"
       sodipodi:sides="6"
       sodipodi:cx="92.788964"
       sodipodi:cy="123.37641"
       sodipodi:r1="2.831624"
       sodipodi:r2="2.4522579"
       sodipodi:arg1="0.52359878"
       sodipodi:arg2="1.0471976"
       inkscape:flatsided="true"
       inkscape:rounded="0.08"
       inkscape:randomized="0"
       d="m 95.241222,124.79222 c -0.113265,0.19618 -2.225729,1.41582 -2.452259,1.41582 -0.22653,0 -2.338993,-1.21964 -2.452258,-1.41582 -0.113265,-0.19618 -0.113265,-2.63544 0,-2.83162 0.113265,-0.19618 2.225728,-1.41581 2.452258,-1.41581 0.22653,0 2.338994,1.21963 2.452259,1.41581 0.113265,0.19618 0.113265,2.63544 0,2.83162 z" />
    <path
       style="color:#000000;font-style:normal;font-variant:normal;font-weight:normal;font-stretch:normal;font-size:medium;line-height:normal;font-family:sans-serif;font-variant-ligatures:normal;font-variant-position:normal;font-variant-caps:normal;font-variant-numeric:normal;font-variant-alternates:normal;font-feature-settings:normal;text-indent:0;text-align:start;text-decoration:none;text-decoration-line:none;text-decoration-style:solid;text-decoration-color:#000000;letter-spacing:normal;word-spacing:normal;text-transform:none;writing-mode:lr-tb;direction:ltr;text-orientation:mixed;dominant-baseline:auto;baseline-shift:baseline;text-anchor:start;white-space:normal;shape-padding:0;clip-rule:nonzero;display:inline;overflow:visible;visibility:visible;opacity:1;isolation:auto;mix-blend-mode:normal;color-interpolation:sRGB;color-interpolation-filters:linearRGB;solid-color:#000000;solid-opacity:1;vector-effect:none;fill:url(#linearGradient976);fill-opacity:1;fill-rule:nonzero;stroke:none;stroke-width:0.20558123;stroke-linecap:butt;stroke-linejoin:miter;stroke-miterlimit:4;stroke-dasharray:none;stroke-dashoffset:0;stroke-opacity:1;color-rendering:auto;image-rendering:auto;shape-rendering:auto;text-rendering:auto;enable-background:accumulate"
       d="m 92.788964,120.44183 c -0.07443,0 -0.12178,0.0253 -0.205078,0.0605 -0.0833,0.0353 -0.187571,0.0852 -0.304687,0.14453 -0.234232,0.11871 -0.523977,0.27791 -0.810547,0.44336 -0.28657,0.16546 -0.569145,0.33697 -0.789062,0.48047 -0.109959,0.0717 -0.203196,0.13691 -0.275391,0.19141 -0.07219,0.0545 -0.119033,0.084 -0.15625,0.14844 -0.03722,0.0645 -0.03968,0.11725 -0.05078,0.20703 -0.0111,0.0898 -0.02019,0.20483 -0.02734,0.33593 -0.01431,0.26221 -0.02148,0.59293 -0.02148,0.92383 -10e-7,0.33091 0.0072,0.66163 0.02148,0.92383 0.0072,0.1311 0.01624,0.24421 0.02734,0.33399 0.0111,0.0898 0.01356,0.14452 0.05078,0.20898 0.03722,0.0645 0.08406,0.0939 0.15625,0.14844 0.07219,0.0545 0.165432,0.1177 0.275391,0.18945 0.219917,0.1435 0.502492,0.31502 0.789062,0.48047 0.28657,0.16545 0.576315,0.32465 0.810547,0.44336 0.117116,0.0594 0.221389,0.10926 0.304687,0.14453 0.0833,0.0353 0.130644,0.0606 0.205078,0.0606 0.07443,0 0.121781,-0.0253 0.205079,-0.0606 0.0833,-0.0353 0.187571,-0.0852 0.304687,-0.14453 0.234232,-0.11871 0.523977,-0.27791 0.810547,-0.44336 0.28657,-0.16545 0.569145,-0.33697 0.789063,-0.48047 0.109958,-0.0718 0.203195,-0.13495 0.27539,-0.18945 0.07219,-0.0545 0.119033,-0.084 0.15625,-0.14844 0.03722,-0.0645 0.03968,-0.11921 0.05078,-0.20898 0.0111,-0.0898 0.02019,-0.20289 0.02734,-0.33399 0.01431,-0.2622 0.02148,-0.59292 0.02148,-0.92383 0,-0.3309 -0.0072,-0.66162 -0.02148,-0.92383 -0.0072,-0.1311 -0.01624,-0.24616 -0.02734,-0.33593 -0.0111,-0.0898 -0.01356,-0.14257 -0.05078,-0.20703 -0.03722,-0.0645 -0.08406,-0.0939 -0.15625,-0.14844 -0.07219,-0.0545 -0.165432,-0.11966 -0.27539,-0.19141 -0.219918,-0.1435 -0.502493,-0.31501 -0.789063,-0.48047 -0.28657,-0.16545 -0.576315,-0.32465 -0.810547,-0.44336 -0.117116,-0.0593 -0.221389,-0.10926 -0.304687,-0.14453 -0.0833,-0.0353 -0.130644,-0.0605 -0.205079,-0.0605 z m 0,0.20703 c -0.0178,0 0.04897,0.0108 0.125,0.043 0.07603,0.0322 0.176463,0.0806 0.291016,0.13867 0.229106,0.11611 0.516762,0.27352 0.800781,0.4375 0.28402,0.16398 0.564193,0.33425 0.779297,0.47461 0.107553,0.0702 0.19973,0.13384 0.265625,0.18359 0.06589,0.0498 0.110464,0.10136 0.101563,0.0859 -0.0089,-0.0154 0.0133,0.0489 0.02344,0.13086 0.01013,0.0819 0.02034,0.19208 0.02734,0.32031 0.014,0.25647 0.01953,0.58611 0.01953,0.91406 0,0.32796 -0.0055,0.65565 -0.01953,0.91211 -0.007,0.12824 -0.01721,0.23838 -0.02734,0.32032 -0.01013,0.0819 -0.03234,0.14627 -0.02344,0.13085 0.0089,-0.0154 -0.03567,0.0382 -0.101563,0.0879 -0.06589,0.0498 -0.158072,0.11147 -0.265625,0.18165 -0.215104,0.14035 -0.495277,0.31063 -0.779297,0.47461 -0.284019,0.16397 -0.571675,0.32139 -0.800781,0.4375 -0.114553,0.058 -0.214987,0.10647 -0.291016,0.13867 -0.07603,0.0322 -0.142802,0.0449 -0.125,0.0449 0.0178,0 -0.04897,-0.0127 -0.125,-0.0449 -0.07603,-0.0322 -0.176462,-0.0806 -0.291015,-0.13867 -0.229106,-0.11611 -0.516762,-0.27353 -0.800781,-0.4375 -0.28402,-0.16398 -0.566146,-0.33426 -0.78125,-0.47461 -0.107553,-0.0702 -0.197777,-0.1319 -0.263672,-0.18165 -0.06589,-0.0497 -0.110464,-0.1033 -0.101563,-0.0879 0.0089,0.0154 -0.0133,-0.0489 -0.02344,-0.13085 -0.01013,-0.0819 -0.02034,-0.19208 -0.02734,-0.32032 -0.014,-0.25646 -0.01953,-0.58415 -0.01953,-0.91211 0,-0.32795 0.0055,-0.65759 0.01953,-0.91406 0.007,-0.12823 0.01721,-0.23837 0.02734,-0.32031 0.01013,-0.0819 0.03234,-0.14628 0.02344,-0.13086 -0.0089,0.0154 0.03567,-0.0362 0.101563,-0.0859 0.06589,-0.0498 0.156119,-0.11341 0.263672,-0.18359 0.215104,-0.14036 0.49723,-0.31063 0.78125,-0.47461 0.284019,-0.16398 0.571675,-0.32139 0.800781,-0.4375 0.114553,-0.0581 0.214987,-0.10648 0.291015,-0.13867 0.07603,-0.0322 0.142803,-0.043 0.125,-0.043 z"
       id="path7353"
       inkscape:connector-curvature="0" />
    <path
       inkscape:connector-curvature="0"
       id="path7265-6"
       d="m 94.494189,123.37639 c 0,0.9414 -0.763826,1.70524 -1.705223,1.70524 -0.9414,0 -1.705226,-0.76384 -1.705226,-1.70524 0,-0.9414 0.763826,-1.7052 1.705226,-1.7052 0.941397,0 1.705223,0.7638 1.705223,1.7052"
       style="opacity:1;fill:#000000;fill-opacity:1;fill-rule:nonzero;stroke:none;stroke-width:0.09604375;stroke-miterlimit:4;stroke-dasharray:none;stroke-opacity:1;enable-background:new" />
    <path
       style="color:#000000;font-style:normal;font-variant:normal;font-weight:normal;font-stretch:normal;font-size:medium;line-height:normal;font-family:sans-serif;font-variant-ligatures:normal;font-variant-position:normal;font-variant-caps:normal;font-variant-numeric:normal;font-variant-alternates:normal;font-feature-settings:normal;text-indent:0;text-align:start;text-decoration:none;text-decoration-line:none;text-decoration-style:solid;text-decoration-color:#000000;letter-spacing:normal;word-spacing:normal;text-transform:none;writing-mode:lr-tb;direction:ltr;text-orientation:mixed;dominant-baseline:auto;baseline-shift:baseline;text-anchor:start;white-space:normal;shape-padding:0;clip-rule:nonzero;display:inline;overflow:visible;visibility:visible;opacity:1;isolation:auto;mix-blend-mode:normal;color-interpolation:sRGB;color-interpolation-filters:linearRGB;solid-color:#000000;solid-opacity:1;vector-effect:none;fill:url(#linearGradient1001);fill-opacity:1;fill-rule:nonzero;stroke:none;stroke-width:0.09604375;stroke-linecap:butt;stroke-linejoin:miter;stroke-miterlimit:4;stroke-dasharray:none;stroke-dashoffset:0;stroke-opacity:1;color-rendering:auto;image-rendering:auto;shape-rendering:auto;text-rendering:auto;enable-background:accumulate"
       d="m 92.788964,121.62348 c -0.967374,0 -1.753906,0.78653 -1.753906,1.7539 0,0.96738 0.78653,1.75196 1.753906,1.75196 0.967374,0 1.753907,-0.78458 1.753907,-1.75196 0,-0.96737 -0.786535,-1.7539 -1.753907,-1.7539 z m 0,0.0957 c 0.915423,0 1.656251,0.74278 1.65625,1.6582 0,0.91543 -0.740829,1.65625 -1.65625,1.65625 -0.915423,0 -1.658203,-0.74082 -1.658203,-1.65625 0,-0.91542 0.742778,-1.6582 1.658203,-1.6582 z"
       id="path7265"
       inkscape:connector-curvature="0" />
  </g>
</svg>
